<svg width="37" height="37" viewBox="0 0 37 37" fill="none" xmlns="http://www.w3.org/2000/svg">
<rect x="0.926894" y="1.25819" width="35.3833" height="35.3833" rx="17.6916" stroke="#1A8482" stroke-width="0.680448"/>
<path d="M13.0318 15.1265C13.9938 15.1265 14.7737 14.3466 14.7737 13.3845C14.7737 12.4225 13.9938 11.6426 13.0318 11.6426C12.0697 11.6426 11.2898 12.4225 11.2898 13.3845C11.2898 14.3466 12.0697 15.1265 13.0318 15.1265Z" fill="#1A8482"/>
<path d="M16.4187 16.4464V26.1107H19.4194V21.3315C19.4194 20.0704 19.6566 18.8491 21.2203 18.8491C22.7624 18.8491 22.7815 20.2909 22.7815 21.4111V26.1115H25.7837V20.8116C25.7837 18.2082 25.2233 16.2075 22.1804 16.2075C20.7195 16.2075 19.7402 17.0092 19.3398 17.768H19.2992V16.4464H16.4187ZM11.5288 16.4464H14.5342V26.1107H11.5288V16.4464Z" fill="#1A8482"/>
</svg>
