<svg width="20" height="20" viewBox="0 0 20 20" fill="none" xmlns="http://www.w3.org/2000/svg">
<g id="bxl-linkedin.svg">
<path id="Vector" d="M4.03175 6.1265C4.99381 6.1265 5.77371 5.3466 5.77371 4.38454C5.77371 3.42248 4.99381 2.64258 4.03175 2.64258C3.0697 2.64258 2.28979 3.42248 2.28979 4.38454C2.28979 5.3466 3.0697 6.1265 4.03175 6.1265Z" fill="#1A8482"/>
<path id="Vector_2" d="M7.41884 7.44685V17.1112H10.4195V12.332C10.4195 11.0709 10.6567 9.84961 12.2204 9.84961C13.7625 9.84961 13.7816 11.2914 13.7816 12.4116V17.112H16.7839V11.8121C16.7839 9.20871 16.2234 7.20801 13.1805 7.20801C11.7196 7.20801 10.7403 8.00972 10.3399 8.76845H10.2993V7.44685H7.41884ZM2.52893 7.44685H5.53437V17.1112H2.52893V7.44685Z" fill="#1A8482"/>
</g>
</svg>
