<svg width="74" height="74" viewBox="0 0 74 74" fill="none" xmlns="http://www.w3.org/2000/svg">
<rect width="73" height="73" transform="translate(0.445312 0.894531)" fill="#22574D"/>
<g clip-path="url(#clip0_8_4318)">
<path d="M60.6791 51.0982L58.8817 49.2789L59.2437 46.7725C59.3145 46.2822 58.9755 45.8253 58.4775 45.7398L55.9312 45.3023L55.8847 45.2165V25.5997C55.8847 24.0121 54.5655 22.7204 52.9441 22.7204H45.6191V18.0814C45.6191 15.7728 43.701 13.8945 41.3433 13.8945H27.4887C25.131 13.8945 23.2128 15.7727 23.2128 18.0814V22.7205H15.8878C14.2664 22.7205 12.9473 24.0122 12.9473 25.5998V53.0581C12.9472 54.6457 14.2663 55.9373 15.8878 55.9373H30.1971C30.7149 55.9373 31.1346 55.5264 31.1346 55.0194C31.1346 54.5124 30.7149 54.1014 30.1971 54.1014H15.8878C15.3002 54.1014 14.8223 53.6333 14.8223 53.058V33.9717C16.7702 36.767 20.0487 38.6059 23.7579 38.6059H29.1385V42.7964C29.1385 43.3034 29.5582 43.7144 30.076 43.7144H38.7558C39.2736 43.7144 39.6933 43.3034 39.6933 42.7964V38.6059H45.0739C48.7831 38.6059 52.0616 36.767 54.0095 33.9717V42.5857C53.8338 42.5637 53.6501 42.5901 53.4795 42.6718L51.157 43.7835L48.8344 42.6718C48.38 42.4543 47.8316 42.6289 47.5946 43.0663L46.383 45.3023L43.8366 45.7398C43.3386 45.8253 42.9996 46.2822 43.0704 46.7725L43.4325 49.2789L41.635 51.0982C41.2835 51.4541 41.2835 52.0188 41.635 52.3747L43.3408 54.1014H38.6346C38.1168 54.1014 37.6971 54.5124 37.6971 55.0194C37.6971 55.5264 38.1168 55.9373 38.6346 55.9373H43.1806L43.0703 56.7004C42.9996 57.1907 43.3386 57.6476 43.8366 57.7332L46.383 58.1705L47.5946 60.4066C47.8315 60.844 48.3802 61.0185 48.8344 60.8011L51.157 59.6894L53.4795 60.8011C53.6119 60.8644 53.7523 60.8945 53.8906 60.8945C54.227 60.8945 54.5515 60.7166 54.7194 60.4066L55.931 58.1705L58.4773 57.7332C58.9754 57.6476 59.3144 57.1907 59.2436 56.7004L58.8816 54.194L60.679 52.3747C61.0307 52.0188 61.0307 51.4541 60.6791 51.0982ZM25.0877 18.0814C25.0877 16.7851 26.1648 15.7305 27.4887 15.7305H41.3431C42.6669 15.7305 43.7439 16.7851 43.7439 18.0814V22.7205H41.8689V18.4844C41.8689 17.9774 41.4492 17.5664 40.9314 17.5664H27.9002C27.3825 17.5664 26.9627 17.9774 26.9627 18.4844V22.7204H25.0877V18.0814ZM39.9939 22.7204H28.8377V19.4023H39.9939V22.7204ZM37.8183 41.8784H31.0135V38.6059H37.8183V41.8784ZM45.074 36.7699H23.7579C18.8307 36.7699 14.8223 32.8449 14.8223 28.0205V25.5997C14.8223 25.0244 15.3003 24.5563 15.8878 24.5563H52.944C53.5316 24.5563 54.0096 25.0244 54.0096 25.5997V28.0205C54.0095 32.8449 50.0011 36.7699 45.074 36.7699ZM57.2154 53.24C57.0143 53.4435 56.9204 53.7264 56.9609 54.0069L57.2601 56.0782L55.1557 56.4397C54.8709 56.4887 54.625 56.6635 54.4895 56.9137L53.4881 58.7617L51.5686 57.8429C51.4387 57.7808 51.2977 57.7497 51.1568 57.7497C51.0159 57.7497 50.875 57.7808 50.7451 57.8429L48.8255 58.7617L47.8241 56.9137C47.6886 56.6635 47.4427 56.4887 47.1579 56.4397L45.0535 56.0782L45.3527 54.0069C45.3932 53.7265 45.2993 53.4435 45.0982 53.24L43.6127 51.7365L45.0982 50.2329C45.2993 50.0294 45.3932 49.7465 45.3527 49.466L45.0535 47.3947L47.1582 47.0331C47.443 46.9841 47.6888 46.8093 47.8243 46.5591L48.8257 44.7111L50.7452 45.6298C51.005 45.7541 51.3089 45.7541 51.5686 45.6298L53.4882 44.7111L54.4896 46.5591C54.6251 46.8093 54.8709 46.9841 55.1557 47.0331L57.2601 47.3946L56.9609 49.466C56.9204 49.7463 57.0143 50.0293 57.2154 50.2328L58.7009 51.7364L57.2154 53.24Z" fill="white"/>
<path d="M53.228 49.4764L50.6002 52.0495L49.491 50.9636C49.1249 50.6051 48.5313 50.6051 48.1652 50.9636C47.7991 51.322 47.7991 51.9033 48.1652 52.2618L49.9372 53.9968C50.1203 54.1761 50.3602 54.2657 50.6001 54.2657C50.84 54.2657 51.08 54.176 51.263 53.9968L54.5537 50.7746C54.9198 50.4162 54.9198 49.8349 54.5537 49.4764C54.1878 49.1179 53.5942 49.1179 53.228 49.4764Z" fill="white"/>
<path d="M34.416 55.9375C34.9338 55.9375 35.3535 55.5265 35.3535 55.0195C35.3535 54.5126 34.9338 54.1016 34.416 54.1016C33.8982 54.1016 33.4785 54.5126 33.4785 55.0195C33.4785 55.5265 33.8982 55.9375 34.416 55.9375Z" fill="white"/>
</g>
<defs>
<clipPath id="clip0_8_4318">
<rect width="48" height="47" fill="white" transform="translate(12.9453 13.8945)"/>
</clipPath>
</defs>
</svg>
