<svg width="73" height="74" viewBox="0 0 73 74" fill="none" xmlns="http://www.w3.org/2000/svg">
<rect width="73" height="73" transform="translate(0 0.894531)" fill="#22574D"/>
<g clip-path="url(#clip0_8_4351)">
<path d="M27.7067 40.5307L26.6447 39.9675L26.0815 38.9057C25.8846 38.5341 25.5011 38.3033 25.0805 38.3032C25.0804 38.3032 25.0804 38.3032 25.0803 38.3032C24.6598 38.3032 24.2761 38.5341 24.0792 38.9055L23.5159 39.9676L22.4539 40.5307C22.0823 40.7277 21.8516 41.1114 21.8516 41.532C21.8516 41.9524 22.0824 42.3361 22.4539 42.5331L23.5159 43.0962L24.0792 44.1585C24.2762 44.53 24.6599 44.7608 25.0805 44.7607C25.501 44.7606 25.8846 44.5299 26.0814 44.1584L26.6447 43.0963L27.7067 42.5331C28.0783 42.3361 28.3091 41.9524 28.3091 41.532C28.3091 41.1114 28.0783 40.7277 27.7067 40.5307ZM25.9331 41.9152C25.7323 42.0219 25.5697 42.1845 25.4633 42.3852L25.0803 43.1075L24.6973 42.3852C24.5908 42.1844 24.4283 42.0218 24.227 41.9149L23.5048 41.5319L24.227 41.1489C24.428 41.0424 24.5906 40.8797 24.6973 40.6786L25.0803 39.9564L25.4633 40.6786C25.5699 40.8796 25.7326 41.0424 25.9337 41.1489L26.6559 41.532L25.9331 41.9152Z" fill="white"/>
<path d="M58.9904 42.274C58.6823 41.8233 58.6823 41.2407 58.9904 40.7899L59.5292 40.0019C60.0036 39.3076 60.1268 38.4508 59.8669 37.6509C59.607 36.8513 59.0038 36.2304 58.2117 35.9477L57.3129 35.6269C56.7986 35.4433 56.4562 34.972 56.4405 34.4262L56.4131 33.472C56.3889 32.6314 55.9849 31.8658 55.3045 31.3715C54.6241 30.8772 53.7709 30.7294 52.9646 30.9665L52.0486 31.2353C51.5248 31.3893 50.9706 31.209 50.6371 30.7766L50.0541 30.0208C49.5404 29.355 48.7636 28.9732 47.9227 28.9732C47.0818 28.9732 46.305 29.355 45.7913 30.0208L45.2083 30.7766C44.8748 31.2091 44.3208 31.3891 43.7967 31.2353C43.1588 31.0496 43.1726 31.0487 43.1044 31.0368C42.5847 30.4103 41.8283 30.2001 41.2517 30.04C40.5931 29.8571 40.2923 29.7453 40.1757 29.4429C39.7169 28.2516 38.7227 27.6549 37.4474 27.8051C36.8199 27.8791 36.1835 27.8791 35.5559 27.8051C34.2816 27.6547 33.2865 28.2515 32.8275 29.4429C32.7109 29.7453 32.4102 29.8571 31.7516 30.04C31.1769 30.1996 30.4235 30.4089 29.904 31.0307L29.2066 31.2353C28.6824 31.3889 28.1284 31.209 27.7949 30.7767L27.2119 30.021C26.6983 29.355 25.9214 28.9732 25.0804 28.9732C24.2395 28.9732 23.4627 29.3551 22.9492 30.0209L22.3661 30.7767C22.0326 31.209 21.4786 31.389 20.9545 31.2353L20.0387 30.9665C19.2318 30.7296 18.3788 30.8773 17.6985 31.3716C17.0182 31.8659 16.6141 32.6315 16.59 33.4722L16.5626 34.4262C16.5469 34.972 16.2045 35.4433 15.6903 35.627L14.7912 35.9479C13.9993 36.2305 13.396 36.8514 13.1362 37.6512C12.8763 38.451 12.9994 39.3078 13.474 40.002L14.0128 40.79C14.3208 41.2408 14.3208 41.8233 14.0128 42.2741L13.474 43.0621C12.6855 44.2158 12.9002 45.7588 13.9735 46.6511C14.1021 46.758 14.2581 46.8101 14.4132 46.8101C14.6107 46.8101 14.8068 46.7256 14.9429 46.5618C15.1859 46.2694 15.146 45.8354 14.8536 45.5924C14.3296 45.1568 14.2252 44.4031 14.6106 43.8391L15.1493 43.0511C15.78 42.1283 15.78 40.9358 15.1493 40.013L14.6106 39.225C14.3788 38.8859 14.3186 38.4673 14.4455 38.0765C14.5725 37.6859 14.8672 37.3825 15.2541 37.2446L16.1533 36.9237C17.2059 36.5477 17.9068 35.583 17.9389 34.4658L17.9663 33.5116C17.978 33.101 18.1754 32.7269 18.5077 32.4855C18.8399 32.2441 19.2565 32.1719 19.6509 32.2876L20.5668 32.5564C21.6393 32.8711 22.7734 32.5027 23.4562 31.6177L24.0393 30.8618C24.2901 30.5365 24.6696 30.35 25.0804 30.35C25.4912 30.35 25.8707 30.5365 26.1216 30.8619L26.7047 31.6177C27.3281 32.426 28.3283 32.8036 29.3142 32.6229C29.3082 32.695 29.3037 32.769 29.3009 32.8454C29.274 33.5969 28.9795 33.9137 28.6066 34.3146C28.3493 34.5914 28.0627 34.8996 27.8797 35.3348C27.0045 34.9397 26.0496 34.7332 25.0805 34.7332C21.3316 34.7332 18.2817 37.7832 18.2817 41.532C18.2817 45.2808 21.3317 48.3308 25.0805 48.3308C28.5089 48.3308 31.3528 45.7801 31.814 42.4767C32.4272 43.32 33.2622 43.9921 34.2325 44.4068V44.5931C33.9309 44.4007 33.5402 44.3731 33.211 44.5376L31.8533 45.2165C31.582 45.3521 31.3846 45.5986 31.3117 45.8931C31.2541 46.1259 31.2792 46.3688 31.3797 46.5821L29.4979 47.1957C28.2001 47.6189 27.1635 48.6433 26.725 49.936L25.8721 52.4504C25.6076 52.6503 25.2688 52.7438 24.9333 52.7058C24.5768 52.6663 24.2594 52.4874 24.0394 52.2021L23.4564 51.4463C22.7736 50.5612 21.6394 50.1927 20.567 50.5075L19.651 50.7764C19.2571 50.8918 18.8403 50.82 18.5079 50.5784C18.1755 50.337 17.9782 49.9629 17.9664 49.5524L17.9391 48.5981C17.9214 47.9836 17.6904 47.3878 17.289 46.9208C17.041 46.6323 16.6063 46.5997 16.3181 46.8476C16.0299 47.0954 15.997 47.5301 16.2449 47.8184C16.4413 48.0468 16.5542 48.3378 16.5628 48.6377L16.5902 49.5919C16.6143 50.4324 17.0183 51.198 17.6986 51.6924C18.379 52.1868 19.2323 52.3343 20.0388 52.0976L20.9548 51.8287C21.4784 51.6748 22.0328 51.8551 22.3663 52.2874L22.9494 53.0431C23.3997 53.627 24.0504 53.9934 24.7817 54.0743C24.9608 54.0942 25.1406 54.0958 25.3195 54.0797L23.317 59.983C23.2457 60.1931 23.2801 60.4248 23.4094 60.6052C23.5386 60.7855 23.747 60.8925 23.9689 60.8925H29.1383C29.1433 60.8926 29.1483 60.8927 29.1533 60.8927C29.1584 60.8927 29.1633 60.8926 29.1684 60.8925H33.2481C33.6284 60.8925 33.9365 60.5844 33.9365 60.2041C33.9365 59.8239 33.6284 59.5157 33.2481 59.5157H30.1077L31.3921 55.6541C31.5121 55.2933 31.317 54.9035 30.9561 54.7837C30.5954 54.6637 30.2057 54.8588 30.0857 55.2196L28.6567 59.5158H24.9295L28.0292 50.3784C28.3291 49.4946 29.0378 48.7941 29.9251 48.5049L32.2044 47.7617L34.098 50.4041C34.3329 50.7316 34.7099 50.9246 35.1116 50.9246C35.54 50.9246 35.9332 50.7062 36.1611 50.3517L36.5018 49.8214L36.8426 50.3517C37.0662 50.6996 37.4466 50.9137 37.8602 50.9242C38.2702 50.9333 38.6645 50.7403 38.9055 50.404L40.7992 47.7616L43.0786 48.5048C43.9659 48.794 44.6747 49.4945 44.9745 50.3783L48.0742 59.5157H44.3469L42.918 55.2195C42.7979 54.8587 42.4083 54.6631 42.0476 54.7836C41.6867 54.9035 41.4916 55.2933 41.6116 55.654L42.8959 59.5156H35.91C35.5298 59.5156 35.2216 59.8238 35.2216 60.204C35.2216 60.5843 35.5298 60.8924 35.91 60.8924H49.0346C49.2565 60.8924 49.4649 60.7854 49.5941 60.6051C49.7234 60.4247 49.7578 60.193 49.6865 59.9829L47.6841 54.0799C47.8394 54.0939 47.9959 54.0942 48.1517 54.081C48.9118 54.0168 49.5875 53.6481 50.0541 53.043L50.6372 52.2872C50.9707 51.8549 51.5251 51.6749 52.0487 51.8285L52.9647 52.0974C53.7715 52.3344 54.6244 52.1866 55.3048 51.6923C55.9851 51.1981 56.3891 50.4324 56.4133 49.5918L56.4407 48.6376C56.4564 48.0918 56.7987 47.6205 57.313 47.4369L58.212 47.116C59.004 46.8333 59.6072 46.2125 59.867 45.4128C60.127 44.613 60.0038 43.7561 59.5293 43.0618L58.9904 42.274ZM29.6152 35.2522C30.0443 34.7907 30.632 34.1588 30.6772 32.8944C30.7179 31.756 31.2159 31.6177 32.1202 31.3665C32.8395 31.1666 33.7348 30.918 34.1125 29.9377C34.3461 29.3312 34.7418 29.0955 35.3948 29.1723C36.1295 29.2589 36.8744 29.2589 37.6089 29.1723C38.2621 29.0948 38.6574 29.3311 38.8911 29.9377C39.2688 30.9181 40.1641 31.1667 40.8834 31.3665C41.7877 31.6176 42.2856 31.7559 42.3264 32.8944C42.3716 34.1587 42.9594 34.7906 43.3884 35.2522C43.8676 35.7674 44.1113 36.0473 43.8066 37.1555C43.6289 37.8016 43.617 38.3472 43.6075 38.7857C43.598 39.2186 43.5845 39.4296 43.5015 39.4939C43.4005 39.572 43.107 39.6923 42.2576 39.7307C42.2818 39.5162 42.2942 39.2983 42.2942 39.0773V35.51C42.2942 34.8055 41.9679 34.1626 41.399 33.7463C40.8348 33.3331 40.1302 33.2172 39.4655 33.4277C37.4988 34.0516 35.5048 34.0516 33.5381 33.4277C32.8737 33.2169 32.1689 33.3332 31.6047 33.7462C31.0357 34.1626 30.7094 34.8055 30.7094 35.51V39.0773C30.7094 39.2977 30.7218 39.5152 30.7458 39.7294C29.8956 39.6902 29.6032 39.572 29.5022 39.4939C29.4191 39.4297 29.4056 39.2187 29.3962 38.7858C29.3866 38.3474 29.3748 37.8016 29.1971 37.1556C28.8885 36.0336 29.1467 35.756 29.6152 35.2522ZM25.0809 46.9539C22.0912 46.9539 19.6589 44.5216 19.6589 41.532C19.6589 38.5423 22.0912 36.11 25.0809 36.11C26.0076 36.11 26.9175 36.3464 27.7208 36.7948C27.7488 37.0163 27.7971 37.2573 27.8696 37.5207C28.0019 38.0021 28.0114 38.4343 28.0196 38.8155C28.033 39.422 28.0478 40.1094 28.6598 40.5828C29.039 40.8762 29.597 41.0371 30.4855 41.0947C30.4971 41.24 30.503 41.3861 30.503 41.532C30.5029 44.5216 28.0706 46.9539 25.0809 46.9539ZM32.0861 39.0773V35.51C32.0861 35.2494 32.2069 35.0115 32.4178 34.8573C32.5567 34.7556 32.7186 34.703 32.8832 34.703C32.9628 34.703 33.0431 34.7153 33.1218 34.7402C35.3646 35.4515 37.6389 35.4515 39.8816 34.7402C40.1229 34.6635 40.3796 34.7064 40.5857 34.8572C40.7965 35.0115 40.9173 35.2493 40.9173 35.5099V39.0772C40.9173 41.512 38.9365 43.4928 36.5017 43.4928C34.0669 43.4928 32.0861 41.5121 32.0861 39.0773ZM35.1059 49.4467L32.8282 46.2685L33.5984 45.8834L35.8487 48.2909L35.1059 49.4467ZM36.5017 46.9734L35.6096 46.019V44.8011C35.9005 44.8463 36.1983 44.8698 36.5017 44.8698C36.8051 44.8698 37.103 44.8464 37.3939 44.8011V46.019L36.5017 46.9734ZM37.8976 49.4467L37.1548 48.2909L39.4052 45.8834L40.1753 46.2686L37.8976 49.4467ZM57.8539 43.051L58.3925 43.839C58.6243 44.1782 58.6845 44.5968 58.5575 44.9876C58.4306 45.3782 58.1358 45.6815 57.7489 45.8195L56.85 46.1404C55.7973 46.5162 55.0964 47.4809 55.0642 48.5982L55.0369 49.5524C55.025 49.9631 54.8277 50.3371 54.4954 50.5786C54.1631 50.82 53.7464 50.8918 53.3523 50.7765L52.4363 50.5076C51.3637 50.1927 50.2296 50.5613 49.5469 51.4464L48.9639 52.2022C48.7359 52.4979 48.4062 52.678 48.0356 52.7093C47.7105 52.7376 47.3869 52.6434 47.1312 52.4503L46.2783 49.9361C45.8397 48.6433 44.8031 47.619 43.5053 47.1958L41.6234 46.5821C41.724 46.3687 41.7491 46.1257 41.6914 45.8928C41.6184 45.5985 41.4212 45.3521 41.15 45.2166L39.792 44.5375C39.463 44.373 39.0722 44.4007 38.7707 44.593V44.4067C39.741 43.992 40.576 43.3199 41.1892 42.4765C41.6504 45.7801 44.4942 48.3309 47.9226 48.3309C51.6715 48.3309 54.7215 45.2808 54.7215 41.5319C54.7215 40.0691 54.2632 38.6747 53.3961 37.4994C53.1705 37.1935 52.7394 37.1287 52.4334 37.3542C52.1275 37.5799 52.0625 38.0108 52.2882 38.3169C52.9793 39.2536 53.3448 40.3654 53.3448 41.5318C53.3448 44.5216 50.9125 46.9539 47.9227 46.9539C44.9331 46.9539 42.5008 44.5216 42.5008 41.5318C42.5008 41.3872 42.507 41.2411 42.5191 41.0946C43.4081 41.037 43.9648 40.876 44.344 40.5827C44.956 40.1093 44.9708 39.422 44.984 38.8154C44.9924 38.4342 45.0018 38.002 45.1342 37.5205C45.2064 37.258 45.2546 37.0177 45.2827 36.7968C46.0882 36.3464 46.9942 36.1099 47.9228 36.1099C48.819 36.1099 49.707 36.3333 50.491 36.7557C50.8257 36.9362 51.2433 36.8111 51.4235 36.4764C51.604 36.1417 51.479 35.7242 51.1442 35.5438C50.1603 35.0135 49.0463 34.7331 47.9228 34.7331C46.9513 34.7331 45.9997 34.9396 45.1242 35.3359C44.9412 34.8999 44.6544 34.5915 44.3967 34.3144C44.0238 33.9135 43.7293 33.5967 43.7024 32.8452C43.6996 32.7688 43.6952 32.6947 43.6891 32.6227C44.6748 32.8031 45.6751 32.4257 46.2986 31.6174L46.8817 30.8616C47.1325 30.5363 47.5121 30.3498 47.9229 30.3498C48.3337 30.3498 48.7131 30.5363 48.9641 30.8616L49.5471 31.6174C50.2297 32.5026 51.3639 32.8711 52.4365 32.5562L53.3525 32.2875C53.7464 32.1716 54.1631 32.2439 54.4955 32.4853C54.8279 32.7268 55.0252 33.1007 55.0371 33.5114L55.0644 34.4656C55.0966 35.5829 55.7975 36.5477 56.8502 36.9234L57.7491 37.2442C58.136 37.3824 58.4307 37.6856 58.5577 38.0762C58.6847 38.4669 58.6246 38.8855 58.3927 39.2247L57.854 40.0127C57.223 40.9358 57.223 42.1282 57.8539 43.051Z" fill="white"/>
<path d="M50.5504 40.5307L49.4884 39.9675L48.9252 38.9055C48.7282 38.534 48.3445 38.3032 47.9241 38.3032C47.5035 38.3032 47.1198 38.5341 46.9228 38.9055L46.3596 39.9675L45.2976 40.5307C44.9261 40.7277 44.6953 41.1114 44.6953 41.532C44.6953 41.9524 44.9262 42.3361 45.2976 42.5331L46.3596 43.0962L46.9228 44.1585C47.1198 44.53 47.5035 44.7607 47.9241 44.7607C48.3445 44.7607 48.7282 44.53 48.9252 44.1584L49.4884 43.0962L50.5504 42.5331C50.922 42.3361 51.1527 41.9524 51.1527 41.532C51.1528 41.1114 50.922 40.7277 50.5504 40.5307ZM48.7768 41.9152C48.5759 42.0219 48.4134 42.1845 48.307 42.3852L47.9241 43.1075L47.541 42.3852C47.4346 42.1844 47.2721 42.0219 47.0707 41.9149L46.3484 41.5319L47.0707 41.1489C47.2717 41.0424 47.4345 40.8796 47.541 40.6786L47.9241 39.9563L48.307 40.6786C48.4136 40.8796 48.5763 41.0424 48.7773 41.1489L49.4996 41.532L48.7768 41.9152Z" fill="white"/>
<path d="M36.5009 53.3327C36.8812 53.3327 37.1893 53.0246 37.1893 52.6443V52.1367C37.1893 51.7564 36.8812 51.4482 36.5009 51.4482C36.1206 51.4482 35.8125 51.7564 35.8125 52.1367V52.6443C35.8125 53.0246 36.1207 53.3327 36.5009 53.3327Z" fill="white"/>
<path d="M35.8125 56.1595C35.8125 56.5398 36.1206 56.8479 36.5009 56.8479C36.8812 56.8479 37.1893 56.5398 37.1893 56.1595V55.6518C37.1893 55.2715 36.8812 54.9634 36.5009 54.9634C36.1206 54.9634 35.8125 55.2715 35.8125 55.6518V56.1595Z" fill="white"/>
<path d="M32.5996 21.2819L32.4531 24.0085C32.4329 24.3844 32.6027 24.7409 32.9072 24.9623C33.2127 25.1844 33.6057 25.2344 33.9547 25.0995L36.5026 24.1178L39.0504 25.0995C39.4019 25.2349 39.7934 25.1836 40.0978 24.9623C40.4025 24.741 40.5723 24.3844 40.5521 24.0085L40.4057 21.2819L42.1267 19.1622C42.3641 18.8699 42.4363 18.4816 42.3199 18.1235C42.2035 17.7655 41.9168 17.4939 41.5531 17.3969L38.915 16.6935L37.4307 14.4017C37.2262 14.0858 36.8791 13.897 36.5027 13.897C36.1263 13.897 35.7793 14.0857 35.5747 14.4017L34.0905 16.6936L31.4523 17.3969C31.0885 17.4938 30.8018 17.7655 30.6854 18.1235C30.569 18.4815 30.6414 18.8699 30.8786 19.1622L32.5996 21.2819ZM34.5462 17.997C34.8116 17.9262 35.0398 17.7602 35.1893 17.5296L36.5028 15.5014L37.8163 17.5299C37.9656 17.7602 38.1939 17.9261 38.4595 17.9971L40.7942 18.6194L39.2709 20.4954C39.0978 20.7087 39.0107 20.9772 39.0254 21.2514L39.1549 23.6641L36.9002 22.7954C36.6441 22.6968 36.3618 22.6966 36.1051 22.7954L33.8505 23.6641L33.9801 21.2514C33.9947 20.9772 33.9076 20.7087 33.7343 20.4952L32.2113 18.6193L34.5462 17.997Z" fill="white"/>
<path d="M23.6746 24.5243L23.5787 26.3113C23.561 26.6426 23.7107 26.9569 23.9791 27.152C24.2483 27.3478 24.5948 27.3917 24.9024 27.2728L26.5722 26.6293L28.2419 27.2728C28.5513 27.392 28.8967 27.347 29.1653 27.152C29.4339 26.9569 29.5836 26.6426 29.5658 26.3112L29.4699 24.5242L30.5977 23.1349C30.8069 22.8772 30.8706 22.5349 30.7679 22.2193C30.6654 21.9036 30.4127 21.6641 30.0921 21.5787L28.363 21.1178L27.3902 19.6157L27.3901 19.6156C27.2097 19.3371 26.9039 19.1709 26.5721 19.1709H26.5719C26.2401 19.1709 25.9344 19.3372 25.7541 19.6157L24.7812 21.1178L23.0522 21.5787C22.7315 21.6641 22.4787 21.9036 22.3762 22.2193C22.2737 22.5349 22.3374 22.8773 22.5465 23.1348L23.6746 24.5243ZM25.286 22.4083C25.5201 22.3458 25.7215 22.1994 25.8528 21.9963L26.5723 20.8854L27.2918 21.9964C27.4235 22.1996 27.6248 22.3459 27.8588 22.4082L29.1376 22.7491L28.3036 23.7763C28.1507 23.9644 28.0737 24.2014 28.0869 24.4432L28.1578 25.7647L26.9222 25.2885C26.6963 25.2018 26.4478 25.2018 26.2219 25.2888L24.9869 25.7646L25.0579 24.4428C25.0707 24.2009 24.9937 23.9642 24.8412 23.7766L24.0071 22.7491L25.286 22.4083Z" fill="white"/>
<path d="M42.4059 23.1349L43.5338 24.5242L43.4379 26.3113C43.4202 26.6426 43.5699 26.9569 43.8383 27.152C44.1075 27.3478 44.454 27.3917 44.7616 27.2728L46.4314 26.6293L48.1012 27.2728C48.4108 27.392 48.756 27.3468 49.0246 27.152C49.2931 26.9569 49.4428 26.6426 49.425 26.3112L49.3291 24.5242L50.457 23.1349C50.6662 22.8771 50.7299 22.5349 50.6272 22.2192C50.5246 21.9036 50.2719 21.6641 49.9514 21.5787L48.2222 21.1177L47.2494 19.6157C47.2494 19.6157 47.2494 19.6156 47.2493 19.6156C47.0689 19.3371 46.7631 19.1709 46.4314 19.1709C46.0996 19.1709 45.7939 19.3371 45.6133 19.6157L44.6404 21.1178L42.9114 21.5787C42.5908 21.6641 42.3381 21.9035 42.2355 22.2192C42.1331 22.5349 42.1968 22.8772 42.4059 23.1349ZM45.1452 22.4083C45.3793 22.3458 45.5807 22.1994 45.7121 21.9963L46.4315 20.8854L47.151 21.9964C47.2827 22.1996 47.484 22.3459 47.718 22.4082L48.9969 22.7491L48.1628 23.7763C48.0099 23.9644 47.9329 24.2014 47.9461 24.4432L48.0171 25.7646L46.7815 25.2885C46.5557 25.2018 46.307 25.2018 46.0811 25.2888L44.8461 25.7646L44.9171 24.4436C44.9303 24.2014 44.8533 23.9644 44.7006 23.7765L43.8663 22.749L45.1452 22.4083Z" fill="white"/>
</g>
<defs>
<clipPath id="clip0_8_4351">
<rect width="47" height="47" fill="white" transform="translate(13 13.8945)"/>
</clipPath>
</defs>
</svg>
