<svg width="74" height="74" viewBox="0 0 74 74" fill="none" xmlns="http://www.w3.org/2000/svg">
<rect width="73" height="73" transform="translate(0.890625 0.894531)" fill="#22574D"/>
<path d="M59.7031 36.6289H53.5781C53.3751 36.6289 53.1803 36.7096 53.0367 36.8532C52.8932 36.9967 52.8125 37.1915 52.8125 37.3945V44.2852H47.4531C47.2501 44.2852 47.0553 44.3658 46.9117 44.5094C46.7682 44.653 46.6875 44.8477 46.6875 45.0508V50.4102H41.3281C41.1251 50.4102 40.9303 50.4908 40.7867 50.6344C40.6432 50.778 40.5625 50.9727 40.5625 51.1758V58.0664H39.0312V50.4102C39.0312 49.9797 38.8231 49.1742 37.4287 48.6166C36.6174 48.292 35.5551 48.1133 34.4375 48.1133C33.3199 48.1133 32.2576 48.292 31.4463 48.6166C31.4219 48.6263 31.3987 48.6363 31.375 48.6462V46.582C31.375 46.1516 31.1668 45.3461 29.7725 44.7884C28.9612 44.4639 27.8988 44.2852 26.7812 44.2852C25.6637 44.2852 24.6013 44.4639 23.79 44.7884C23.7656 44.7982 23.7424 44.8082 23.7188 44.8181V38.9258C23.7188 38.4953 23.5106 37.6899 22.1162 37.1322C21.3049 36.8076 20.2426 36.6289 19.125 36.6289C18.0074 36.6289 16.9451 36.8076 16.1338 37.1322C14.7394 37.6899 14.5312 38.4953 14.5312 38.9258V58.0664C14.5312 58.4969 14.7394 59.3023 16.1338 59.86C16.9451 60.1846 18.0074 60.3633 19.125 60.3633C20.2426 60.3633 21.3049 60.1846 22.1162 59.86C22.4136 59.7455 22.6949 59.593 22.9531 59.4062C23.2113 59.593 23.4926 59.7455 23.79 59.86C24.6013 60.1846 25.6637 60.3633 26.7812 60.3633C27.8988 60.3633 28.9612 60.1846 29.7725 59.86C30.0699 59.7455 30.3512 59.593 30.6094 59.4062C30.8676 59.593 31.1489 59.7455 31.4463 59.86C32.2576 60.1846 33.3199 60.3633 34.4375 60.3633C35.5551 60.3633 36.6174 60.1846 37.4287 59.86C37.6163 59.7859 37.7983 59.6982 37.9731 59.5977H59.7031C59.9062 59.5977 60.1009 59.517 60.2445 59.3734C60.3881 59.2298 60.4688 59.0351 60.4688 58.832V37.3945C60.4688 37.1915 60.3881 36.9967 60.2445 36.8532C60.1009 36.7096 59.9062 36.6289 59.7031 36.6289ZM16.0625 52.1741C16.0862 52.184 16.1094 52.194 16.1338 52.2037C16.9451 52.5283 18.0074 52.707 19.125 52.707C20.2426 52.707 21.3049 52.5283 22.1162 52.2037C22.1406 52.194 22.1638 52.184 22.1875 52.1741V54.2093C22.0545 54.4464 20.9952 55.0039 19.125 55.0039C17.2548 55.0039 16.1955 54.4464 16.0625 54.2093V52.1741ZM16.0625 48.346C16.0862 48.3559 16.1094 48.3659 16.1338 48.3756C16.9451 48.7002 18.0074 48.8789 19.125 48.8789C20.2426 48.8789 21.3049 48.7002 22.1162 48.3756C22.1406 48.3659 22.1638 48.3559 22.1875 48.346V50.3812C22.0545 50.6182 20.9952 51.1758 19.125 51.1758C17.2548 51.1758 16.1955 50.6182 16.0625 50.3812V48.346ZM16.0625 44.5178C16.0862 44.5277 16.1094 44.5377 16.1338 44.5475C16.9451 44.8721 18.0074 45.0508 19.125 45.0508C20.2426 45.0508 21.3049 44.8721 22.1162 44.5475C22.1406 44.5377 22.1638 44.5277 22.1875 44.5178V46.5531C22.0545 46.7901 20.9952 47.3477 19.125 47.3477C17.2548 47.3477 16.1955 46.7901 16.0625 46.5531V44.5178ZM16.0625 40.6897C16.0862 40.6996 16.1094 40.7096 16.1338 40.7194C16.9451 41.044 18.0074 41.2227 19.125 41.2227C20.2426 41.2227 21.3049 41.044 22.1162 40.7194C22.1406 40.7096 22.1638 40.6996 22.1875 40.6897V42.7249C22.0545 42.962 20.9952 43.5195 19.125 43.5195C17.2548 43.5195 16.1955 42.962 16.0625 42.7249V40.6897ZM26.7812 51.1758C24.9111 51.1758 23.8517 50.6182 23.7188 50.3812V48.346C23.7424 48.3559 23.7656 48.3659 23.79 48.3756C24.6013 48.7002 25.6637 48.8789 26.7812 48.8789C27.8988 48.8789 28.9612 48.7002 29.7725 48.3756C29.7969 48.3659 29.8201 48.3559 29.8438 48.346V50.3812C29.7108 50.6182 28.6514 51.1758 26.7812 51.1758ZM23.7188 52.1741C23.7424 52.184 23.7656 52.194 23.79 52.2037C24.6013 52.5283 25.6637 52.707 26.7812 52.707C27.8988 52.707 28.9612 52.5283 29.7725 52.2037C29.7969 52.194 29.8201 52.184 29.8438 52.1741V54.2093C29.7108 54.4464 28.6514 55.0039 26.7812 55.0039C24.9111 55.0039 23.8517 54.4464 23.7188 54.2093V52.1741ZM31.375 52.1741C31.3987 52.184 31.4219 52.194 31.4463 52.2037C32.2576 52.5283 33.3199 52.707 34.4375 52.707C35.5551 52.707 36.6174 52.5283 37.4287 52.2037C37.4531 52.194 37.4763 52.184 37.5 52.1741V54.2093C37.367 54.4464 36.3077 55.0039 34.4375 55.0039C32.5673 55.0039 31.508 54.4464 31.375 54.2093V52.1741ZM34.4375 49.6445C36.2391 49.6445 37.2863 50.1614 37.4797 50.4112C37.2806 50.6621 36.2324 51.1758 34.4375 51.1758C32.6426 51.1758 31.5944 50.6621 31.3953 50.4112C31.5887 50.1614 32.6359 49.6445 34.4375 49.6445ZM26.7812 45.8164C28.5829 45.8164 29.63 46.3332 29.8235 46.5831C29.6244 46.834 28.5762 47.3477 26.7812 47.3477C24.9838 47.3477 23.9352 46.8326 23.7383 46.582C23.9352 46.3315 24.9838 45.8164 26.7812 45.8164ZM19.125 38.1602C20.9266 38.1602 21.9738 38.677 22.1672 38.9269C21.9681 39.1777 20.9199 39.6914 19.125 39.6914C17.3301 39.6914 16.2819 39.1777 16.0828 38.9269C16.2762 38.677 17.3234 38.1602 19.125 38.1602ZM19.125 58.832C17.2581 58.832 16.1985 58.2762 16.0625 58.0385V56.0022C16.0862 56.0121 16.1094 56.0221 16.1338 56.0319C16.9451 56.3565 18.0074 56.5352 19.125 56.5352C20.2426 56.5352 21.3049 56.3565 22.1162 56.0319C22.1406 56.0221 22.1638 56.0121 22.1875 56.0022V58.0385C22.0515 58.2762 20.9919 58.832 19.125 58.832ZM26.7812 58.832C24.9111 58.832 23.8517 58.2745 23.7188 58.0374V56.0022C23.7424 56.0121 23.7656 56.0221 23.79 56.0319C24.6013 56.3565 25.6637 56.5352 26.7812 56.5352C27.8988 56.5352 28.9612 56.3565 29.7725 56.0319C29.7969 56.0221 29.8201 56.0121 29.8438 56.0022V58.0385C29.7077 58.2762 28.6481 58.832 26.7812 58.832ZM34.4375 58.832C32.5706 58.832 31.511 58.2762 31.375 58.0385V56.0022C31.3987 56.0121 31.4219 56.0221 31.4463 56.0319C32.2576 56.3565 33.3199 56.5352 34.4375 56.5352C35.5551 56.5352 36.6174 56.3565 37.4287 56.0319C37.4531 56.0221 37.4763 56.0121 37.5 56.0022V58.0385C37.364 58.2762 36.3044 58.832 34.4375 58.832ZM42.0938 51.9414H46.6875V58.0664H42.0938V51.9414ZM48.2188 45.8164H52.8125V58.0664H48.2188V45.8164ZM54.3438 58.0664V38.1602H58.9375V58.0664H54.3438Z" fill="white"/>
<path d="M35.9688 45.0508H34.4375V46.582H35.9688V45.0508Z" fill="white"/>
<path d="M37.5 45.0508V46.582H41.3281C41.5312 46.582 41.7259 46.5014 41.8695 46.3578L57.4062 30.8211V32.0352H58.9375V28.9727C58.9375 28.7696 58.8568 28.5749 58.7133 28.4313C58.5697 28.2877 58.3749 28.207 58.1719 28.207H55.1094V29.7383H56.3235L41.011 45.0508H37.5Z" fill="white"/>
<path d="M47.6566 19.2895C44.2663 16.1574 39.8187 14.4204 35.2031 14.4258C25.0711 14.4258 16.8281 22.6688 16.8281 32.8008C16.8281 33.6019 16.8799 34.4021 16.983 35.1966L18.5014 34.9988C18.4068 34.2699 18.3594 33.5358 18.3594 32.8008C18.3594 32.5442 18.3661 32.2891 18.3775 32.0352H21.8047L23.8719 34.7914C23.9432 34.8865 24.0357 34.9637 24.142 35.0168C24.2483 35.07 24.3655 35.0977 24.4844 35.0977H30.1759L31.8944 37.9619L29.3844 39.8445C29.2893 39.9158 29.2121 40.0083 29.159 40.1146C29.1058 40.2209 29.0781 40.3382 29.0781 40.457V42.7539H30.6094V40.8399L33.3656 38.7727C33.5171 38.659 33.6212 38.4933 33.6576 38.3074C33.694 38.1215 33.6602 37.9287 33.5628 37.7662L31.2659 33.9381C31.1979 33.8247 31.1016 33.7309 30.9866 33.6658C30.8715 33.6007 30.7416 33.5664 30.6094 33.5664H24.8672L22.8 30.8102C22.7287 30.7151 22.6362 30.6379 22.5299 30.5848C22.4236 30.5316 22.3064 30.5039 22.1875 30.5039H18.5166C18.9177 27.5827 20.0821 24.819 21.8924 22.4916L24.4844 24.0468V26.6758C24.4844 26.8788 24.565 27.0736 24.7086 27.2172C24.8522 27.3608 25.0469 27.4414 25.25 27.4414H28.761L31.5993 30.2797C31.7244 30.4049 31.8891 30.4828 32.0652 30.5002C32.2413 30.5176 32.418 30.4735 32.5653 30.3753L37.1591 27.3128C37.2639 27.2429 37.3499 27.1482 37.4094 27.0371C37.4689 26.9259 37.5 26.8018 37.5 26.6758V22.3992L42.3529 17.5463C43.5426 18.1045 44.6627 18.8004 45.6903 19.6196L41.6036 23.0252C41.4794 23.1286 41.3912 23.2688 41.3515 23.4255C41.3119 23.5823 41.3228 23.7475 41.3829 23.8976L42.7543 27.3263L40.9453 29.7383H37.5C37.3344 29.7383 37.1732 29.792 37.0406 29.8914L33.9781 32.1883C33.8216 32.3057 33.7159 32.4786 33.6829 32.6715C33.6498 32.8644 33.6919 33.0626 33.8005 33.2255L36.863 37.8192C36.9329 37.9241 37.0276 38.0101 37.1387 38.0696C37.2499 38.1291 37.374 38.1602 37.5 38.1602H39.7969V42.7539H41.3281V37.3945C41.3281 37.1915 41.2475 36.9967 41.1039 36.8532C40.9603 36.7096 40.7656 36.6289 40.5625 36.6289H37.9097L35.4763 32.9787L37.7552 31.2695H41.3281C41.447 31.2695 41.5642 31.2419 41.6705 31.1887C41.7768 31.1356 41.8693 31.0584 41.9406 30.9633L44.2375 27.9008C44.3163 27.7957 44.3668 27.6721 44.384 27.5418C44.4012 27.4116 44.3847 27.2791 44.3359 27.1571L43.0112 23.8454L46.8572 20.6404C49.8109 23.4625 51.6338 27.2651 51.984 31.3352L53.5097 31.2038C53.1172 26.6402 51.0289 22.3893 47.6566 19.2895ZM36.193 21.5406C36.0494 21.6842 35.9688 21.879 35.9687 22.082V26.2661L32.2382 28.7531L29.6195 26.1344C29.4759 25.9908 29.2812 25.9102 29.0781 25.9102H26.0156V23.6133C26.0156 23.4811 25.9814 23.3511 25.9162 23.2361C25.8511 23.121 25.7573 23.0248 25.6439 22.9567L22.8996 21.3102C25.1346 18.9138 28.0203 17.2217 31.2028 16.4414C34.3854 15.6611 37.7265 15.8264 40.8165 16.9171L36.193 21.5406Z" fill="white"/>
</svg>
