<svg width="73" height="74" viewBox="0 0 73 74" fill="none" xmlns="http://www.w3.org/2000/svg">
<rect width="73" height="73" transform="translate(0 0.894531)" fill="#22574D"/>
<path d="M55.9844 57.5508H50.6094C50.2385 57.5508 49.9375 57.2484 49.9375 56.8789V39.4102C49.9375 39.0406 50.2385 38.7383 50.6094 38.7383C50.9803 38.7383 51.2812 39.0406 51.2812 39.4102V56.207H55.3125V27.3164C55.3125 26.9442 55.6135 26.6445 55.9844 26.6445C56.3552 26.6445 56.6562 26.9442 56.6562 27.3164V56.8789C56.6562 57.2484 56.3552 57.5508 55.9844 57.5508Z" fill="white" stroke="white" stroke-width="0.6"/>
<path d="M44.5625 56.207H40.5312V52.8477C40.5312 52.4768 40.2303 52.1758 39.8594 52.1758C39.4885 52.1758 39.1875 52.4768 39.1875 52.8477V56.8789C39.1875 57.2484 39.4885 57.5508 39.8594 57.5508H45.2344C45.6052 57.5508 45.9062 57.2484 45.9062 56.8789V47.4727C45.9062 47.1018 45.6052 46.8008 45.2344 46.8008C44.8635 46.8008 44.5625 47.1018 44.5625 47.4727V56.207Z" fill="white" stroke="white" stroke-width="0.6"/>
<path d="M54.6328 56.2065H17.0078C16.6369 56.2065 16.3359 56.5075 16.3359 56.8784C16.3359 57.2493 16.6369 57.5503 17.0078 57.5503H54.6328C55.0037 57.5503 55.3047 57.2493 55.3047 56.8784C55.3047 56.5075 55.005 56.2065 54.6328 56.2065Z" fill="white" stroke="white" stroke-width="0.6"/>
<path d="M29.1094 52.8477C28.7385 52.8477 28.4375 52.5453 28.4375 52.1758V38.0664C28.4375 37.6942 28.7385 37.3945 29.1094 37.3945H34.4844C34.8552 37.3945 35.1562 37.6942 35.1562 38.0664V48.8164C35.1562 49.1859 34.8552 49.4883 34.4844 49.4883C34.1135 49.4883 33.8125 49.1859 33.8125 48.8164V38.7383H29.7812V52.1758C29.7812 52.5453 29.4803 52.8477 29.1094 52.8477Z" fill="white" stroke="white" stroke-width="0.6"/>
<path d="M18.3594 54.8633C17.9885 54.8633 17.6875 54.5609 17.6875 54.1914V43.4414C17.6875 43.0692 17.9885 42.7695 18.3594 42.7695H23.7344C24.1052 42.7695 24.4062 43.0692 24.4062 43.4414V53.5195C24.4062 53.8891 24.1052 54.1914 23.7344 54.1914C23.3635 54.1914 23.0625 53.8891 23.0625 53.5195V44.1133H19.0312V54.1914C19.0312 54.5609 18.7303 54.8633 18.3594 54.8633Z" fill="white" stroke="white" stroke-width="0.6"/>
<path d="M39.8594 42.7695C39.4885 42.7695 39.1875 42.4699 39.1875 42.0977V32.6914C39.1875 32.3192 39.4885 32.0195 39.8594 32.0195H42.5469C42.9177 32.0195 43.2188 32.3192 43.2188 32.6914C43.2188 33.0609 42.9177 33.3633 42.5469 33.3633H40.5312V42.0977C40.5312 42.4699 40.2303 42.7695 39.8594 42.7695Z" fill="white" stroke="white" stroke-width="0.6"/>
<path d="M19.7031 57.5505C19.3322 57.5505 19.0312 57.2495 19.0312 56.8786C19.0312 56.5078 19.3322 56.2068 19.7031 56.2068C33.4107 56.2068 44.5625 45.055 44.5625 31.3474V27.988H42.5469C42.3063 27.988 42.086 27.8604 41.965 27.6534C41.8454 27.4465 41.8441 27.1898 41.9623 26.9829L47.3373 17.5766C47.5792 17.1574 48.2632 17.1574 48.5051 17.5766L53.8801 26.9829C53.9983 27.1898 53.997 27.4465 53.8774 27.6534C53.7578 27.8604 53.5374 27.988 53.2969 27.988H51.2812V31.3474C51.2812 31.7183 50.9802 32.0193 50.6094 32.0193C50.2385 32.0193 49.9375 31.7183 49.9375 31.3474V27.3161C49.9375 26.9453 50.2385 26.6443 50.6094 26.6443H52.1399L47.9219 19.2644L43.7038 26.6443H45.2344C45.6052 26.6443 45.9062 26.9453 45.9062 27.3161V31.3474C45.9062 45.7954 34.1511 57.5505 19.7031 57.5505Z" fill="white" stroke="white" stroke-width="0.6"/>
<path d="M50.6094 34.707C50.9804 34.707 51.2812 34.4062 51.2812 34.0352C51.2812 33.6641 50.9804 33.3633 50.6094 33.3633C50.2383 33.3633 49.9375 33.6641 49.9375 34.0352C49.9375 34.4062 50.2383 34.707 50.6094 34.707Z" fill="white" stroke="white" stroke-width="0.6"/>
</svg>
