<svg width="74" height="75" viewBox="0 0 74 75" fill="none" xmlns="http://www.w3.org/2000/svg">
<rect width="74" height="74" transform="translate(0 0.894531)" fill="#22574D"/>
<path d="M34.8755 33.2694C34.2112 32.8206 33.4105 32.5586 32.5485 32.5586C30.2501 32.5586 28.3867 34.4219 28.3867 36.7204C28.3867 39.0189 30.2501 40.8822 32.5485 40.8822C33.4821 40.8822 34.2499 40.5749 34.8327 40.0559C34.9532 39.9485 35.0659 39.8321 35.1704 39.7073" stroke="white" stroke-width="1.33746" stroke-miterlimit="10" stroke-linecap="round" stroke-linejoin="round"/>
<path d="M50.7271 41.4202C50.7271 41.4202 48.336 41.4503 48.2228 41.4126C48.1096 41.3749 48.4044 41.1754 49.9721 38.9355C50.2649 38.5171 50.426 38.1642 50.4946 37.8686L50.5189 37.6785C50.5189 36.984 49.9559 36.4209 49.2613 36.4209C48.6502 36.4209 48.1408 36.8568 48.0273 37.4347" stroke="white" stroke-width="1.33746" stroke-miterlimit="10" stroke-linecap="round" stroke-linejoin="round"/>
<path d="M41.2946 40.8822C43.5932 40.8822 45.4565 39.0189 45.4565 36.7204C45.4565 34.4219 43.5932 32.5586 41.2946 32.5586C38.9961 32.5586 37.1328 34.4219 37.1328 36.7204C37.1328 39.0189 38.9961 40.8822 41.2946 40.8822Z" stroke="white" stroke-width="1.33746" stroke-miterlimit="10" stroke-linecap="round" stroke-linejoin="round"/>
<path d="M48.3033 21.1524C46.5122 19.7742 44.2694 18.9541 41.8347 18.9541C36.3079 18.9541 31.7682 23.1774 31.2649 28.5727C30.3847 28.0808 29.371 27.7992 28.2912 27.7992C25.0878 27.7992 22.4625 30.2668 22.2081 33.4046C18.1828 32.9897 14.7168 36.1449 14.7168 40.1555C14.7168 41.4555 15.0828 42.6696 15.7167 43.7018" stroke="white" stroke-width="1.6944" stroke-miterlimit="10" stroke-linecap="round" stroke-linejoin="round"/>
<path d="M17.5391 45.6628C18.6547 46.4675 20.0234 46.9431 21.5041 46.9431H22.303V44.8555C22.303 43.7989 23.1595 42.9423 24.2161 42.9423H27.628C28.6846 42.9423 29.5411 43.7989 29.5411 44.8555V46.9431H51.2265C55.5371 46.9431 59.0315 43.4486 59.0315 39.1381C59.0315 35.1895 56.0992 31.9263 52.2935 31.4059C52.3973 30.81 52.4518 30.1972 52.4518 29.5716C52.4518 27.1068 51.6117 24.8385 50.2026 23.0366" stroke="white" stroke-width="1.6944" stroke-miterlimit="10" stroke-linecap="round" stroke-linejoin="round"/>
<path d="M31.2298 51.914H29.5407V44.855C29.5407 43.7984 28.6842 42.9419 27.6276 42.9419H24.2157C23.1591 42.9419 22.3026 43.7984 22.3026 44.855V51.914H20.6134C19.7327 51.914 19.3053 52.9909 19.9463 53.5948L23.675 57.1075C24.9369 58.2962 26.9063 58.2962 28.1682 57.1075L31.8968 53.5948C32.5377 52.9909 32.1104 51.914 31.2298 51.914Z" stroke="white" stroke-width="1.63316" stroke-miterlimit="10" stroke-linecap="round" stroke-linejoin="round"/>
</svg>
