<svg width="89" height="133" viewBox="0 0 89 133" fill="none" xmlns="http://www.w3.org/2000/svg">
<g style="mix-blend-mode:luminosity">
<path d="M88.3504 87.4751C88.3259 86.6727 88.2606 85.8553 88.1707 85.038V85.0155C88.1054 84.2806 88.0155 83.5157 87.9012 82.7583C87.746 81.6934 87.5663 80.6061 87.3376 79.5412C87.2314 78.9488 87.0925 78.3714 86.9618 77.779C86.872 77.3515 86.7576 76.9016 86.6269 76.4667C86.3819 75.4843 86.0878 74.5019 85.7774 73.5196C85.2628 71.8623 84.6666 70.2426 83.9968 68.6153C83.7762 68.0829 83.5475 67.5279 83.3025 66.9955C82.8369 65.9307 82.3223 64.8658 81.7832 63.801C81.6688 63.5985 81.579 63.3885 81.4646 63.201C81.2032 62.6536 80.9092 62.1212 80.5906 61.5813C80.4436 61.2888 80.2802 61.0039 80.1005 60.7189C79.9862 60.5314 79.8718 60.329 79.7656 60.149C79.4552 59.6166 79.1122 59.0766 78.7854 58.5442C77.8461 57.0519 76.8169 55.5521 75.7468 54.1198C75.1832 53.3774 74.6115 52.65 73.9988 51.9076C71.4749 48.8106 69.1306 45.7135 66.9497 42.6165C51.3483 20.6071 44.2747 0 44.2747 0H44.1195C44.1195 0 37.0621 20.6071 21.4526 42.6165C19.2635 45.7135 16.9193 48.8106 14.4035 51.9076C11.3404 55.6571 8.72653 59.6541 6.63547 63.801C-6.04979 88.525 -1.2877 118.101 27.3583 128.209C27.4726 128.254 27.5625 128.292 27.6687 128.314C27.1132 130.009 26.2392 131.531 25.21 132.866C25.259 132.844 25.2999 132.821 25.3244 132.806C30.307 128.727 36.8498 126.222 44.0378 126.222H44.3972C51.5852 126.222 58.128 128.727 63.1106 132.806C63.1351 132.821 63.1514 132.821 63.1759 132.844C63.1759 132.844 63.1841 132.851 63.1923 132.851C63.2005 132.859 63.2086 132.866 63.2168 132.866C62.1958 131.546 61.3218 130.032 60.7663 128.337C60.75 128.277 60.7336 128.224 60.7173 128.164C60.7336 128.217 60.75 128.277 60.7663 128.337C60.8807 128.314 61.0114 128.254 61.1257 128.209C65.2343 126.755 68.8692 124.887 72.0221 122.698C72.9125 122.083 73.762 121.423 74.587 120.748C84.0539 112.942 88.4321 101.791 88.4321 89.8748C88.4321 89.0724 88.4076 88.2775 88.3668 87.4751H88.3504Z" fill="#39B54A"/>
</g>
</svg>
