<svg width="96" height="70" viewBox="0 0 96 70" fill="none" xmlns="http://www.w3.org/2000/svg">
<g style="mix-blend-mode:luminosity">
<path d="M70.1138 48.336L69.5981 48.1429L70.2228 48.1829L81.5622 48.9487L71.1889 46.5512L70.2301 46.3248L71.3415 46.2582L95.7709 44.7465L72.9687 42.5021L70.0049 42.2091L73.3173 41.5565L81.7293 39.8915L73.7822 40.1712L70.0485 40.2978L74.16 38.9059L94.0711 32.1863L74.9445 35.3563L68.5738 36.4085L74.2108 33.5981L79.1142 31.1607L73.3609 32.9255L68.029 34.5704L71.4359 32.2529L88.5866 20.5784L71.6248 28.3636L65.4139 31.214L71.465 25.6798L73.9057 23.4488L71.3923 25.0604L64.3316 29.5823L70.7821 21.7439L79.7461 10.8553L69.9831 19.1932L60.7866 27.0517L66.5544 17.4084L59.2394 25.7663L65.0071 11.761L68.2833 3.80934L63.8013 10.7354L55.0697 24.2413L57.634 13.4992L53.1883 23.4021L55.1206 0L48.7136 23.0159L47.8927 12.2472V12.054V12.1473L47.8782 12.054V12.2472L47.0573 23.0159L40.6503 0L42.5826 23.4021L38.1369 13.4992L40.7012 24.2413L31.9696 10.7354L27.4876 3.80934L30.7638 11.7543L36.5315 25.7663L29.2165 17.4084L34.9843 27.0517L25.7878 19.1932L16.0248 10.8553L24.9888 21.7439L31.4394 29.5823L24.3786 25.0604L21.8652 23.4488L24.3059 25.6798L30.357 31.214L24.1461 28.3636L7.18427 20.5784L24.335 32.2529L27.7419 34.5704L22.41 32.9322L16.6568 31.1607L21.5601 33.5981L27.1971 36.4085L20.8264 35.3563L1.69981 32.1863L21.6109 38.9059L25.7224 40.2978L21.9887 40.1712L14.0417 39.8915L22.4536 41.5565L25.766 42.2091L22.8022 42.5021L0 44.7465L24.4294 46.2582L25.5408 46.3248L24.582 46.5512L14.2087 48.9487L25.5481 48.1829L26.1728 48.1429L25.6571 48.336L2.2301 57.2267L27.2261 52.152L17.158 57.5997L28.3884 53.7304L8.20852 68.6348L29.0204 58.1258L29.8848 57.6862L30.6403 57.3066L29.8703 58.0592L29.0785 58.8317L22.6497 65.1318L32.2457 58.5253L23.5141 69.4339L33.2191 63.2471L30.3061 68.0554L33.052 65.9576C37.1781 63.2005 42.2339 61.5622 47.7111 61.5622H48.0307C53.5152 61.5622 58.5783 63.2005 62.6971 65.9576L65.6318 68.2285L62.5228 63.2471L72.2422 69.4339L63.5107 58.5253L73.1067 65.1318L66.6779 58.8317L65.8861 58.0592L65.1161 57.3066L65.8716 57.6862L66.736 58.1258L87.5479 68.6348L67.368 53.7304L78.5984 57.5997L68.5303 52.152L93.5263 57.2267L70.0993 48.336H70.1138Z" fill="#D7DF23"/>
</g>
</svg>
