<svg width="74" height="74" viewBox="0 0 74 74" fill="none" xmlns="http://www.w3.org/2000/svg">
<g clip-path="url(#clip0_78_6773)">
<path d="M33.0406 31.8985C32.3898 31.4589 31.6054 31.2021 30.7609 31.2021C28.5091 31.2021 26.6836 33.0277 26.6836 35.2795C26.6836 37.5313 28.5091 39.3568 30.7609 39.3568C31.6755 39.3568 32.4277 39.0557 32.9987 38.5472C33.1168 38.442 33.2272 38.3279 33.3296 38.2057" stroke="white" stroke-width="1.31031" stroke-miterlimit="10" stroke-linecap="round" stroke-linejoin="round"/>
<path d="M48.5708 39.8842C48.5708 39.8842 46.2282 39.9136 46.1173 39.8767C46.0063 39.8397 46.2952 39.6443 47.8311 37.4499C48.1179 37.04 48.2758 36.6943 48.3429 36.4046L48.3667 36.2184C48.3667 35.538 47.8152 34.9863 47.1347 34.9863C46.5359 34.9863 46.037 35.4134 45.9258 35.9795" stroke="white" stroke-width="1.31031" stroke-miterlimit="10" stroke-linecap="round" stroke-linejoin="round"/>
<path d="M39.3312 39.3568C41.5831 39.3568 43.4085 37.5313 43.4085 35.2795C43.4085 33.0276 41.5831 31.2021 39.3312 31.2021C37.0794 31.2021 35.2539 33.0276 35.2539 35.2795C35.2539 37.5313 37.0794 39.3568 39.3312 39.3568Z" stroke="white" stroke-width="1.31031" stroke-miterlimit="10" stroke-linecap="round" stroke-linejoin="round"/>
<path d="M46.1975 20.0272C44.4428 18.677 42.2455 17.8735 39.8603 17.8735C34.4457 17.8735 29.9981 22.011 29.505 27.2968C28.6428 26.8149 27.6496 26.539 26.5917 26.539C23.4534 26.539 20.8814 28.9565 20.6322 32.0306C16.6886 31.6241 13.293 34.7152 13.293 38.6444C13.293 39.918 13.6516 41.1075 14.2726 42.1187" stroke="white" stroke-width="1.31031" stroke-miterlimit="10" stroke-linecap="round" stroke-linejoin="round"/>
<path d="M16.0586 44.0393C17.1516 44.8277 18.4925 45.2936 19.9431 45.2936H20.7258V43.2484C20.7258 42.2132 21.5649 41.3741 22.6001 41.3741H25.9427C26.9778 41.3741 27.8169 42.2132 27.8169 43.2484V45.2936H49.062C53.2851 45.2936 56.7086 41.8701 56.7086 37.6471C56.7086 33.7787 53.8358 30.5817 50.1073 30.0719C50.209 29.4881 50.2625 28.8878 50.2625 28.2748C50.2625 25.8601 49.4394 23.6378 48.0589 21.8726" stroke="white" stroke-width="1.31031" stroke-miterlimit="10" stroke-linecap="round" stroke-linejoin="round"/>
<path d="M29.473 50.164H27.8181V43.2483C27.8181 42.2131 26.979 41.374 25.9439 41.374H22.6013C21.5661 41.374 20.727 42.2131 20.727 43.2483V50.164H19.0721C18.2093 50.164 17.7906 51.219 18.4186 51.8106L22.0716 55.252C23.3078 56.4166 25.2373 56.4166 26.4735 55.252L30.1264 51.8106C30.7543 51.219 30.3357 50.164 29.473 50.164Z" stroke="white" stroke-width="1.31031" stroke-miterlimit="10" stroke-linecap="round" stroke-linejoin="round"/>
</g>
<defs>
<clipPath id="clip0_78_6773">
<rect width="44.7251" height="44.7251" fill="white" transform="translate(12.6367 14.6372)"/>
</clipPath>
</defs>
</svg>
