<svg width="73" height="73" viewBox="0 0 73 73" fill="none" xmlns="http://www.w3.org/2000/svg">
<g clip-path="url(#clip0_78_6755)">
<path d="M61.2207 51.0784L59.3483 49.1429L59.7255 46.4765C59.7992 45.9549 59.4461 45.4689 58.9274 45.3779L56.2749 44.9126L56.2265 44.8213V23.9523C56.2265 22.2633 54.8524 20.8892 53.1634 20.8892H45.5332V15.9541C45.5332 13.4981 43.5351 11.5 41.0792 11.5H26.6473C24.1914 11.5 22.1932 13.498 22.1932 15.9541V20.8893H14.5631C12.8741 20.8893 11.5 22.2634 11.5 23.9524V53.1634C11.4999 54.8523 12.874 56.2264 14.5631 56.2264H29.4686C30.0079 56.2264 30.4451 55.7892 30.4451 55.2498C30.4451 54.7105 30.0079 54.2733 29.4686 54.2733H14.5631C13.951 54.2733 13.4531 53.7753 13.4531 53.1633V32.8587C15.4822 35.8324 18.8973 37.7887 22.7611 37.7887H28.3659V42.2467C28.3659 42.786 28.8031 43.2232 29.3424 43.2232H38.3839C38.9232 43.2232 39.3604 42.786 39.3604 42.2467V37.7887H44.9652C48.829 37.7887 52.2441 35.8324 54.2732 32.8587V42.0225C54.0902 41.9991 53.8988 42.0272 53.7211 42.1141L51.3018 43.2967L48.8825 42.1141C48.4091 41.8827 47.8378 42.0684 47.591 42.5338L46.3289 44.9126L43.6764 45.3779C43.1577 45.4689 42.8045 45.9549 42.8783 46.4765L43.2554 49.1429L41.3831 51.0784C41.0169 51.457 41.0169 52.0578 41.3831 52.4364L43.1599 54.2733H38.2576C37.7183 54.2733 37.2811 54.7105 37.2811 55.2498C37.2811 55.7892 37.7183 56.2264 38.2576 56.2264H42.993L42.8782 57.0382C42.8045 57.5598 43.1576 58.0458 43.6764 58.1368L46.3289 58.6021L47.591 60.981C47.8377 61.4462 48.4093 61.6318 48.8825 61.4006L51.3018 60.218L53.7211 61.4006C53.859 61.468 54.0052 61.5 54.1493 61.5C54.4997 61.5 54.8377 61.3107 55.0126 60.981L56.2747 58.6021L58.9272 58.1368C59.446 58.0458 59.7991 57.5598 59.7254 57.0382L59.3482 54.3718L61.2206 52.4364C61.5869 52.0578 61.5869 51.457 61.2207 51.0784ZM24.1463 15.9541C24.1463 14.5751 25.2683 13.4531 26.6473 13.4531H41.079C42.458 13.4531 43.5799 14.5751 43.5799 15.9541V20.8893H41.6267V16.3828C41.6267 15.8434 41.1895 15.4062 40.6502 15.4062H27.076C26.5367 15.4062 26.0995 15.8434 26.0995 16.3828V20.8892H24.1463V15.9541ZM39.6736 20.8892H28.0526V17.3594H39.6736V20.8892ZM37.4073 41.2701H30.319V37.7887H37.4073V41.2701ZM44.9653 35.8355H22.7611C17.6286 35.8355 13.4531 31.66 13.4531 26.5276V23.9523C13.4531 23.3403 13.9511 22.8423 14.5631 22.8423H53.1633C53.7753 22.8423 54.2733 23.3403 54.2733 23.9523V26.5276C54.2732 31.66 50.0977 35.8355 44.9653 35.8355ZM57.6126 53.3569C57.4031 53.5734 57.3054 53.8743 57.3476 54.1727L57.6592 56.3763L55.4671 56.7609C55.1704 56.8129 54.9143 56.9989 54.7732 57.2651L53.73 59.2311L51.7305 58.2536C51.5953 58.1875 51.4484 58.1544 51.3016 58.1544C51.1548 58.1544 51.008 58.1875 50.8727 58.2536L48.8732 59.2311L47.83 57.2651C47.6889 56.9989 47.4328 56.8129 47.1361 56.7609L44.944 56.3763L45.2556 54.1727C45.2978 53.8744 45.2001 53.5734 44.9906 53.3569L43.4431 51.7574L44.9906 50.1579C45.2001 49.9414 45.2978 49.6404 45.2556 49.342L44.944 47.1384L47.1364 46.7538C47.4331 46.7017 47.6891 46.5157 47.8302 46.2496L48.8734 44.2836L50.8729 45.2609C51.1435 45.3931 51.46 45.3931 51.7306 45.2609L53.7301 44.2836L54.7733 46.2496C54.9144 46.5157 55.1704 46.7016 55.4671 46.7538L57.6592 47.1383L57.3476 49.3419C57.3054 49.6402 57.4031 49.9413 57.6126 50.1578L59.1601 51.7573L57.6126 53.3569Z" fill="white"/>
<path d="M53.4582 49.3525L50.7209 52.0898L49.5655 50.9345C49.1842 50.5532 48.5658 50.5532 48.1844 50.9345C47.8031 51.3159 47.8031 51.9342 48.1844 52.3156L50.0302 54.1614C50.221 54.3521 50.4709 54.4474 50.7208 54.4474C50.9707 54.4474 51.2207 54.352 51.4113 54.1614L54.8391 50.7336C55.2205 50.3522 55.2205 49.7339 54.8391 49.3524C54.458 48.9711 53.8396 48.9711 53.4582 49.3525Z" fill="white"/>
<path d="M33.8633 56.2266C34.4026 56.2266 34.8398 55.7893 34.8398 55.25C34.8398 54.7107 34.4026 54.2734 33.8633 54.2734C33.3239 54.2734 32.8867 54.7107 32.8867 55.25C32.8867 55.7893 33.3239 56.2266 33.8633 56.2266Z" fill="white"/>
</g>
<defs>
<clipPath id="clip0_78_6755">
<rect width="50" height="50" fill="white" transform="translate(11.5 11.5)"/>
</clipPath>
</defs>
</svg>
