<svg width="73" height="73" viewBox="0 0 73 73" fill="none" xmlns="http://www.w3.org/2000/svg">
<g clip-path="url(#clip0_78_6788)">
<path d="M27.7067 39.6357L26.6447 39.0725L26.0815 38.0107C25.8846 37.6391 25.5011 37.4083 25.0805 37.4082C25.0804 37.4082 25.0804 37.4082 25.0803 37.4082C24.6598 37.4082 24.2761 37.6391 24.0792 38.0105L23.5159 39.0726L22.4539 39.6357C22.0823 39.8327 21.8516 40.2164 21.8516 40.6369C21.8516 41.0574 22.0824 41.4411 22.4539 41.6381L23.5159 42.2012L24.0792 43.2635C24.2762 43.6349 24.6599 43.8658 25.0805 43.8657C25.501 43.8656 25.8846 43.6348 26.0814 43.2634L26.6447 42.2013L27.7067 41.6381C28.0783 41.4411 28.3091 41.0574 28.3091 40.6369C28.3091 40.2164 28.0783 39.8327 27.7067 39.6357ZM25.9331 41.0202C25.7323 41.1269 25.5697 41.2895 25.4633 41.4902L25.0803 42.2125L24.6973 41.4902C24.5908 41.2894 24.4283 41.1268 24.227 41.0199L23.5048 40.6369L24.227 40.2539C24.428 40.1474 24.5906 39.9847 24.6973 39.7836L25.0803 39.0614L25.4633 39.7836C25.5699 39.9846 25.7326 40.1474 25.9337 40.2539L26.6559 40.6369L25.9331 41.0202Z" fill="white"/>
<path d="M58.9904 41.379C58.6823 40.9282 58.6823 40.3457 58.9904 39.8949L59.5292 39.1069C60.0036 38.4126 60.1268 37.5558 59.8669 36.7559C59.607 35.9562 59.0038 35.3354 58.2117 35.0527L57.3129 34.7319C56.7986 34.5483 56.4562 34.077 56.4405 33.5312L56.4131 32.577C56.3889 31.7364 55.9849 30.9708 55.3045 30.4765C54.6241 29.9822 53.7709 29.8343 52.9646 30.0715L52.0486 30.3403C51.5248 30.4943 50.9706 30.314 50.6371 29.8816L50.0541 29.1258C49.5404 28.46 48.7636 28.0782 47.9227 28.0782C47.0818 28.0782 46.305 28.46 45.7913 29.1258L45.2083 29.8816C44.8748 30.3141 44.3208 30.4941 43.7967 30.3403C43.1588 30.1546 43.1726 30.1537 43.1044 30.1418C42.5847 29.5153 41.8283 29.3051 41.2517 29.145C40.5931 28.9621 40.2923 28.8503 40.1757 28.5478C39.7169 27.3566 38.7227 26.7599 37.4474 26.9101C36.8199 26.9841 36.1835 26.9841 35.5559 26.9101C34.2816 26.7597 33.2865 27.3565 32.8275 28.5478C32.7109 28.8503 32.4102 28.9621 31.7516 29.145C31.1769 29.3046 30.4235 29.5139 29.904 30.1357L29.2066 30.3403C28.6824 30.4939 28.1284 30.314 27.7949 29.8817L27.2119 29.126C26.6983 28.46 25.9214 28.0782 25.0804 28.0782C24.2395 28.0782 23.4627 28.4601 22.9492 29.1259L22.3661 29.8817C22.0326 30.314 21.4786 30.494 20.9545 30.3403L20.0387 30.0715C19.2318 29.8346 18.3788 29.9823 17.6985 30.4766C17.0182 30.9709 16.6141 31.7365 16.59 32.5772L16.5626 33.5312C16.5469 34.077 16.2045 34.5483 15.6903 34.732L14.7912 35.0529C13.9993 35.3355 13.396 35.9563 13.1362 36.7562C12.8763 37.5559 12.9994 38.4128 13.474 39.107L14.0128 39.895C14.3208 40.3457 14.3208 40.9283 14.0128 41.3791L13.474 42.1671C12.6855 43.3208 12.9002 44.8638 13.9735 45.7561C14.1021 45.863 14.2581 45.9151 14.4132 45.9151C14.6107 45.9151 14.8068 45.8306 14.9429 45.6668C15.1859 45.3744 15.146 44.9404 14.8536 44.6973C14.3296 44.2618 14.2252 43.508 14.6106 42.9441L15.1493 42.1561C15.78 41.2332 15.78 40.0408 15.1493 39.118L14.6106 38.33C14.3788 37.9909 14.3186 37.5723 14.4455 37.1815C14.5725 36.7909 14.8672 36.4875 15.2541 36.3496L16.1533 36.0287C17.2059 35.6527 17.9068 34.688 17.9389 33.5708L17.9663 32.6166C17.978 32.206 18.1754 31.8319 18.5077 31.5904C18.8399 31.3491 19.2565 31.2769 19.6509 31.3926L20.5668 31.6614C21.6393 31.976 22.7734 31.6077 23.4562 30.7227L24.0393 29.9668C24.2901 29.6415 24.6696 29.455 25.0804 29.455C25.4912 29.455 25.8707 29.6415 26.1216 29.9669L26.7047 30.7227C27.3281 31.531 28.3283 31.9086 29.3142 31.7279C29.3082 31.8 29.3037 31.874 29.3009 31.9503C29.274 32.7019 28.9795 33.0187 28.6066 33.4196C28.3493 33.6964 28.0627 34.0046 27.8797 34.4398C27.0045 34.0447 26.0496 33.8381 25.0805 33.8381C21.3316 33.8381 18.2817 36.8882 18.2817 40.637C18.2817 44.3858 21.3317 47.4357 25.0805 47.4357C28.5089 47.4357 31.3528 44.885 31.814 41.5817C32.4272 42.425 33.2622 43.0971 34.2325 43.5118V43.698C33.9309 43.5057 33.5402 43.4781 33.211 43.6426L31.8533 44.3215C31.582 44.4571 31.3846 44.7036 31.3117 44.998C31.2541 45.2309 31.2792 45.4738 31.3797 45.6871L29.4979 46.3007C28.2001 46.7238 27.1635 47.7483 26.725 49.0409L25.8721 51.5554C25.6076 51.7553 25.2688 51.8487 24.9333 51.8107C24.5768 51.7713 24.2594 51.5924 24.0394 51.3071L23.4564 50.5513C22.7736 49.6662 21.6394 49.2977 20.567 49.6125L19.651 49.8814C19.2571 49.9968 18.8403 49.925 18.5079 49.6834C18.1755 49.442 17.9782 49.0679 17.9664 48.6574L17.9391 47.7031C17.9214 47.0886 17.6904 46.4928 17.289 46.0258C17.041 45.7373 16.6063 45.7047 16.3181 45.9525C16.0299 46.2004 15.997 46.6351 16.2449 46.9234C16.4413 47.1518 16.5542 47.4428 16.5628 47.7427L16.5902 48.6969C16.6143 49.5374 17.0183 50.303 17.6986 50.7974C18.379 51.2918 19.2323 51.4393 20.0388 51.2026L20.9548 50.9337C21.4784 50.7798 22.0328 50.9601 22.3663 51.3924L22.9494 52.1481C23.3997 52.732 24.0504 53.0984 24.7817 53.1793C24.9608 53.1991 25.1406 53.2008 25.3195 53.1847L23.317 59.088C23.2457 59.2981 23.2801 59.5298 23.4094 59.7101C23.5386 59.8905 23.747 59.9975 23.9689 59.9975H29.1383C29.1433 59.9976 29.1483 59.9977 29.1533 59.9977C29.1584 59.9977 29.1633 59.9976 29.1684 59.9975H33.2481C33.6284 59.9975 33.9365 59.6894 33.9365 59.3091C33.9365 58.9288 33.6284 58.6207 33.2481 58.6207H30.1077L31.3921 54.7591C31.5121 54.3983 31.317 54.0085 30.9561 53.8886C30.5954 53.7687 30.2057 53.9638 30.0857 54.3245L28.6567 58.6208H24.9295L28.0292 49.4834C28.3291 48.5995 29.0378 47.8991 29.9251 47.6099L32.2044 46.8667L34.098 49.5091C34.3329 49.8366 34.7099 50.0296 35.1116 50.0296C35.54 50.0296 35.9332 49.8112 36.1611 49.4566L36.5018 48.9264L36.8426 49.4566C37.0662 49.8046 37.4466 50.0187 37.8602 50.0291C38.2702 50.0383 38.6645 49.8453 38.9055 49.509L40.7992 46.8666L43.0786 47.6098C43.9659 47.899 44.6747 48.5994 44.9745 49.4833L48.0742 58.6207H44.3469L42.918 54.3245C42.7979 53.9636 42.4083 53.7681 42.0476 53.8886C41.6867 54.0085 41.4916 54.3983 41.6116 54.759L42.8959 58.6206H35.91C35.5298 58.6206 35.2216 58.9287 35.2216 59.309C35.2216 59.6893 35.5298 59.9974 35.91 59.9974H49.0346C49.2565 59.9974 49.4649 59.8904 49.5941 59.71C49.7234 59.5297 49.7578 59.298 49.6865 59.0879L47.6841 53.1849C47.8394 53.1989 47.9959 53.1992 48.1517 53.186C48.9118 53.1218 49.5875 52.753 50.0541 52.148L50.6372 51.3922C50.9707 50.9599 51.5251 50.7799 52.0487 50.9335L52.9647 51.2024C53.7715 51.4394 54.6244 51.2916 55.3048 50.7973C55.9851 50.303 56.3891 49.5374 56.4133 48.6967L56.4407 47.7426C56.4564 47.1968 56.7987 46.7255 57.313 46.5419L58.212 46.221C59.004 45.9383 59.6072 45.3175 59.867 44.5178C60.127 43.718 60.0038 42.8611 59.5293 42.1668L58.9904 41.379ZM29.6152 34.3572C30.0443 33.8957 30.632 33.2637 30.6772 31.9993C30.7179 30.861 31.2159 30.7227 32.1202 30.4714C32.8395 30.2716 33.7348 30.023 34.1125 29.0427C34.3461 28.4362 34.7418 28.2005 35.3948 28.2772C36.1295 28.3639 36.8744 28.3639 37.6089 28.2772C38.2621 28.1998 38.6574 28.4361 38.8911 29.0427C39.2688 30.0231 40.1641 30.2717 40.8834 30.4714C41.7877 30.7226 42.2856 30.8609 42.3264 31.9993C42.3716 33.2636 42.9594 33.8956 43.3884 34.3572C43.8676 34.8724 44.1113 35.1523 43.8066 36.2605C43.6289 36.9065 43.617 37.4522 43.6075 37.8907C43.598 38.3236 43.5845 38.5346 43.5015 38.5988C43.4005 38.6769 43.107 38.7973 42.2576 38.8356C42.2818 38.6211 42.2942 38.4032 42.2942 38.1823V34.6149C42.2942 33.9105 41.9679 33.2676 41.399 32.8512C40.8348 32.4381 40.1302 32.3222 39.4655 32.5327C37.4988 33.1566 35.5048 33.1566 33.5381 32.5327C32.8737 32.3219 32.1689 32.4382 31.6047 32.8511C31.0357 33.2676 30.7094 33.9105 30.7094 34.6149V38.1823C30.7094 38.4027 30.7218 38.6202 30.7458 38.8344C29.8956 38.7952 29.6032 38.6769 29.5022 38.5989C29.4191 38.5347 29.4056 38.3237 29.3962 37.8908C29.3866 37.4524 29.3748 36.9066 29.1971 36.2606C28.8885 35.1386 29.1467 34.8609 29.6152 34.3572ZM25.0809 46.0589C22.0912 46.0589 19.6589 43.6266 19.6589 40.637C19.6589 37.6473 22.0912 35.215 25.0809 35.215C26.0076 35.215 26.9175 35.4514 27.7208 35.8998C27.7488 36.1213 27.7971 36.3623 27.8696 36.6257C28.0019 37.1071 28.0114 37.5393 28.0196 37.9205C28.033 38.527 28.0478 39.2144 28.6598 39.6878C29.039 39.9812 29.597 40.1421 30.4855 40.1997C30.4971 40.345 30.503 40.491 30.503 40.637C30.5029 43.6266 28.0706 46.0589 25.0809 46.0589ZM32.0861 38.1823V34.6149C32.0861 34.3544 32.2069 34.1164 32.4178 33.9622C32.5567 33.8605 32.7186 33.8079 32.8832 33.8079C32.9628 33.8079 33.0431 33.8202 33.1218 33.8452C35.3646 34.5565 37.6389 34.5565 39.8816 33.8452C40.1229 33.7685 40.3796 33.8113 40.5857 33.9621C40.7965 34.1164 40.9173 34.3543 40.9173 34.6149V38.1822C40.9173 40.617 38.9365 42.5978 36.5017 42.5978C34.0669 42.5978 32.0861 40.6171 32.0861 38.1823ZM35.1059 48.5517L32.8282 45.3735L33.5984 44.9884L35.8487 47.3959L35.1059 48.5517ZM36.5017 46.0784L35.6096 45.124V43.9061C35.9005 43.9513 36.1983 43.9748 36.5017 43.9748C36.8051 43.9748 37.103 43.9514 37.3939 43.9061V45.124L36.5017 46.0784ZM37.8976 48.5517L37.1548 47.3959L39.4052 44.9884L40.1753 45.3735L37.8976 48.5517ZM57.8539 42.156L58.3925 42.944C58.6243 43.2832 58.6845 43.7018 58.5575 44.0925C58.4306 44.4832 58.1358 44.7865 57.7489 44.9245L56.85 45.2454C55.7973 45.6212 55.0964 46.5859 55.0642 47.7032L55.0369 48.6574C55.025 49.0681 54.8277 49.4421 54.4954 49.6836C54.1631 49.925 53.7464 49.9968 53.3523 49.8814L52.4363 49.6126C51.3637 49.2977 50.2296 49.6663 49.5469 50.5514L48.9639 51.3072C48.7359 51.6028 48.4062 51.7829 48.0356 51.8142C47.7105 51.8426 47.3869 51.7484 47.1312 51.5553L46.2783 49.041C45.8397 47.7483 44.8031 46.7239 43.5053 46.3008L41.6234 45.6871C41.724 45.4737 41.7491 45.2307 41.6914 44.9978C41.6184 44.7035 41.4212 44.457 41.15 44.3216L39.792 43.6425C39.463 43.478 39.0722 43.5057 38.7707 43.6979V43.5117C39.741 43.097 40.576 42.4248 41.1892 41.5815C41.6504 44.885 44.4942 47.4358 47.9226 47.4358C51.6715 47.4358 54.7215 44.3858 54.7215 40.6369C54.7215 39.1741 54.2632 37.7797 53.3961 36.6044C53.1705 36.2984 52.7394 36.2336 52.4334 36.4592C52.1275 36.6849 52.0625 37.1158 52.2882 37.4218C52.9793 38.3586 53.3448 39.4704 53.3448 40.6368C53.3448 43.6265 50.9125 46.0589 47.9227 46.0589C44.9331 46.0589 42.5008 43.6265 42.5008 40.6368C42.5008 40.4922 42.507 40.3461 42.5191 40.1996C43.4081 40.142 43.9648 39.981 44.344 39.6877C44.956 39.2143 44.9708 38.527 44.984 37.9204C44.9924 37.5392 45.0018 37.107 45.1342 36.6255C45.2064 36.363 45.2546 36.1227 45.2827 35.9018C46.0882 35.4514 46.9942 35.2149 47.9228 35.2149C48.819 35.2149 49.707 35.4383 50.491 35.8607C50.8257 36.0412 51.2433 35.916 51.4235 35.5814C51.604 35.2467 51.479 34.8292 51.1442 34.6488C50.1603 34.1185 49.0463 33.8381 47.9228 33.8381C46.9513 33.8381 45.9997 34.0446 45.1242 34.4409C44.9412 34.0049 44.6544 33.6965 44.3967 33.4194C44.0238 33.0185 43.7293 32.7017 43.7024 31.9502C43.6996 31.8738 43.6952 31.7997 43.6891 31.7277C44.6748 31.9081 45.6751 31.5307 46.2986 30.7224L46.8817 29.9666C47.1325 29.6413 47.5121 29.4548 47.9229 29.4548C48.3337 29.4548 48.7131 29.6413 48.9641 29.9666L49.5471 30.7224C50.2297 31.6076 51.3639 31.976 52.4365 31.6612L53.3525 31.3924C53.7464 31.2766 54.1631 31.3488 54.4955 31.5902C54.8279 31.8317 55.0252 32.2057 55.0371 32.6163L55.0644 33.5706C55.0966 34.6879 55.7975 35.6527 56.8502 36.0284L57.7491 36.3492C58.136 36.4873 58.4307 36.7906 58.5577 37.1812C58.6847 37.5719 58.6246 37.9905 58.3927 38.3297L57.854 39.1177C57.223 40.0407 57.223 41.2332 57.8539 42.156Z" fill="white"/>
<path d="M50.5504 39.6357L49.4884 39.0725L48.9252 38.0105C48.7282 37.639 48.3445 37.4082 47.9241 37.4082C47.5035 37.4082 47.1198 37.6391 46.9228 38.0105L46.3596 39.0725L45.2976 39.6357C44.9261 39.8327 44.6953 40.2164 44.6953 40.6369C44.6953 41.0574 44.9262 41.4411 45.2976 41.6381L46.3596 42.2012L46.9228 43.2635C47.1198 43.6349 47.5035 43.8657 47.9241 43.8657C48.3445 43.8657 48.7282 43.6349 48.9252 43.2634L49.4884 42.2012L50.5504 41.6381C50.922 41.4411 51.1527 41.0574 51.1527 40.6369C51.1528 40.2164 50.922 39.8327 50.5504 39.6357ZM48.7768 41.0202C48.5759 41.1269 48.4134 41.2895 48.307 41.4902L47.9241 42.2125L47.541 41.4902C47.4346 41.2894 47.2721 41.1269 47.0707 41.0199L46.3484 40.6369L47.0707 40.2539C47.2717 40.1474 47.4345 39.9846 47.541 39.7836L47.9241 39.0613L48.307 39.7836C48.4136 39.9846 48.5763 40.1474 48.7773 40.2539L49.4996 40.6369L48.7768 41.0202Z" fill="white"/>
<path d="M36.5009 52.4382C36.8812 52.4382 37.1893 52.1301 37.1893 51.7498V51.2421C37.1893 50.8618 36.8812 50.5537 36.5009 50.5537C36.1206 50.5537 35.8125 50.8618 35.8125 51.2421V51.7498C35.8125 52.1301 36.1207 52.4382 36.5009 52.4382Z" fill="white"/>
<path d="M35.8125 55.2645C35.8125 55.6447 36.1206 55.9529 36.5009 55.9529C36.8812 55.9529 37.1893 55.6447 37.1893 55.2645V54.7568C37.1893 54.3765 36.8812 54.0684 36.5009 54.0684C36.1206 54.0684 35.8125 54.3765 35.8125 54.7568V55.2645Z" fill="white"/>
<path d="M32.6015 20.3869L32.455 23.1134C32.4348 23.4894 32.6046 23.8459 32.9092 24.0673C33.2147 24.2893 33.6077 24.3394 33.9567 24.2044L36.5045 23.2228L39.0523 24.2044C39.4039 24.3399 39.7953 24.2886 40.0998 24.0673C40.4044 23.846 40.5742 23.4894 40.5541 23.1134L40.4077 20.3869L42.1287 18.2672C42.366 17.9749 42.4383 17.5866 42.3218 17.2285C42.2054 16.8705 41.9188 16.5989 41.555 16.5018L38.9169 15.7985L37.4327 13.5067C37.2281 13.1908 36.8811 13.002 36.5046 13.002C36.1282 13.002 35.7812 13.1907 35.5767 13.5067L34.0924 15.7986L31.4543 16.5018C31.0904 16.5988 30.8038 16.8705 30.6874 17.2284C30.571 17.5865 30.6433 17.9749 30.8806 18.2672L32.6015 20.3869ZM34.5482 17.102C34.8135 17.0312 35.0418 16.8652 35.1912 16.6346L36.5047 14.6064L37.8182 16.6348C37.9676 16.8652 38.1958 17.0311 38.4615 17.102L40.7962 17.7244L39.2729 19.6003C39.0998 19.8137 39.0127 20.0822 39.0273 20.3564L39.1569 22.7691L36.9022 21.9004C36.6461 21.8018 36.3637 21.8016 36.1071 21.9004L33.8524 22.7691L33.982 20.3564C33.9967 20.0822 33.9096 19.8137 33.7363 19.6002L32.2133 17.7243L34.5482 17.102Z" fill="white"/>
<path d="M23.6746 23.6297L23.5787 25.4168C23.561 25.7481 23.7107 26.0624 23.9791 26.2575C24.2483 26.4532 24.5948 26.4972 24.9024 26.3782L26.5722 25.7348L28.2419 26.3782C28.5513 26.4975 28.8967 26.4525 29.1653 26.2575C29.4339 26.0624 29.5836 25.7481 29.5658 25.4167L29.4699 23.6296L30.5977 22.2403C30.8069 21.9827 30.8706 21.6404 30.7679 21.3247C30.6654 21.0091 30.4127 20.7696 30.0921 20.6842L28.363 20.2233L27.3902 18.7212L27.3901 18.7211C27.2097 18.4426 26.9039 18.2764 26.5721 18.2764H26.5719C26.2401 18.2764 25.9344 18.4427 25.7541 18.7212L24.7812 20.2233L23.0522 20.6842C22.7315 20.7696 22.4787 21.0091 22.3762 21.3247C22.2737 21.6404 22.3374 21.9828 22.5465 22.2402L23.6746 23.6297ZM25.286 21.5137C25.5201 21.4512 25.7215 21.3048 25.8528 21.1018L26.5723 19.9909L27.2918 21.1019C27.4235 21.3051 27.6248 21.4513 27.8588 21.5136L29.1376 21.8545L28.3036 22.8818C28.1507 23.0699 28.0737 23.3069 28.0869 23.5487L28.1578 24.8702L26.9222 24.394C26.6963 24.3072 26.4478 24.3073 26.2219 24.3942L24.9869 24.8701L25.0579 23.5482C25.0707 23.3064 24.9937 23.0696 24.8412 22.882L24.0071 21.8545L25.286 21.5137Z" fill="white"/>
<path d="M42.4059 22.2403L43.5338 23.6296L43.4379 25.4168C43.4202 25.7481 43.5699 26.0624 43.8383 26.2575C44.1075 26.4532 44.454 26.4972 44.7616 26.3782L46.4314 25.7348L48.1012 26.3782C48.4108 26.4975 48.756 26.4523 49.0246 26.2575C49.2931 26.0624 49.4428 25.7481 49.425 25.4167L49.3291 23.6296L50.457 22.2403C50.6662 21.9826 50.7299 21.6404 50.6272 21.3247C50.5246 21.0091 50.2719 20.7696 49.9514 20.6842L48.2222 20.2232L47.2494 18.7212C47.2494 18.7212 47.2494 18.7211 47.2493 18.7211C47.0689 18.4426 46.7631 18.2764 46.4314 18.2764C46.0996 18.2764 45.7939 18.4426 45.6133 18.7212L44.6404 20.2233L42.9114 20.6842C42.5908 20.7696 42.3381 21.009 42.2355 21.3247C42.1331 21.6404 42.1968 21.9827 42.4059 22.2403ZM45.1452 21.5137C45.3793 21.4512 45.5807 21.3048 45.7121 21.1018L46.4315 19.9909L47.151 21.1019C47.2827 21.3051 47.484 21.4513 47.718 21.5136L48.9969 21.8545L48.1628 22.8818C48.0099 23.0699 47.9329 23.3069 47.9461 23.5487L48.0171 24.8701L46.7815 24.394C46.5557 24.3072 46.307 24.3073 46.0811 24.3942L44.8461 24.8701L44.9171 23.5491C44.9303 23.3068 44.8533 23.0698 44.7006 22.8819L43.8663 21.8545L45.1452 21.5137Z" fill="white"/>
</g>
<defs>
<clipPath id="clip0_78_6788">
<rect width="47" height="47" fill="white" transform="translate(13 13)"/>
</clipPath>
</defs>
</svg>
