<svg width="73" height="73" viewBox="0 0 73 73" fill="none" xmlns="http://www.w3.org/2000/svg">
<path d="M60.5156 61.3438H53.8906C53.4335 61.3438 53.0625 60.9711 53.0625 60.5156V38.9844C53.0625 38.5289 53.4335 38.1562 53.8906 38.1562C54.3477 38.1562 54.7188 38.5289 54.7188 38.9844V59.6875H59.6875V24.0781C59.6875 23.6193 60.0585 23.25 60.5156 23.25C60.9728 23.25 61.3438 23.6193 61.3438 24.0781V60.5156C61.3438 60.9711 60.9728 61.3438 60.5156 61.3438Z" fill="white"/>
<path d="M46.4375 59.6875H41.4688V55.5469C41.4688 55.0897 41.0977 54.7188 40.6406 54.7188C40.1835 54.7188 39.8125 55.0897 39.8125 55.5469V60.5156C39.8125 60.9711 40.1835 61.3438 40.6406 61.3438H47.2656C47.7228 61.3438 48.0938 60.9711 48.0938 60.5156V48.9219C48.0938 48.4648 47.7228 48.0938 47.2656 48.0938C46.8085 48.0938 46.4375 48.4648 46.4375 48.9219V59.6875Z" fill="white"/>
<path d="M58.8516 59.6875H12.4766C12.0194 59.6875 11.6484 60.0585 11.6484 60.5156C11.6484 60.9727 12.0194 61.3438 12.4766 61.3438H58.8516C59.3087 61.3438 59.6797 60.9727 59.6797 60.5156C59.6797 60.0585 59.3103 59.6875 58.8516 59.6875Z" fill="white"/>
<path d="M27.3906 55.5469C26.9335 55.5469 26.5625 55.1742 26.5625 54.7188V37.3281C26.5625 36.8693 26.9335 36.5 27.3906 36.5H34.0156C34.4728 36.5 34.8438 36.8693 34.8438 37.3281V50.5781C34.8438 51.0336 34.4728 51.4062 34.0156 51.4062C33.5585 51.4062 33.1875 51.0336 33.1875 50.5781V38.1562H28.2188V54.7188C28.2188 55.1742 27.8477 55.5469 27.3906 55.5469Z" fill="white"/>
<path d="M14.1406 58.0312C13.6835 58.0312 13.3125 57.6586 13.3125 57.2031V43.9531C13.3125 43.4943 13.6835 43.125 14.1406 43.125H20.7656C21.2228 43.125 21.5938 43.4943 21.5938 43.9531V56.375C21.5938 56.8305 21.2228 57.2031 20.7656 57.2031C20.3085 57.2031 19.9375 56.8305 19.9375 56.375V44.7812H14.9688V57.2031C14.9688 57.6586 14.5977 58.0312 14.1406 58.0312Z" fill="white"/>
<path d="M40.6406 43.125C40.1835 43.125 39.8125 42.7557 39.8125 42.2969V30.7031C39.8125 30.2443 40.1835 29.875 40.6406 29.875H43.9531C44.4103 29.875 44.7812 30.2443 44.7812 30.7031C44.7812 31.1586 44.4103 31.5312 43.9531 31.5312H41.4688V42.2969C41.4688 42.7557 41.0977 43.125 40.6406 43.125Z" fill="white"/>
<path d="M15.7969 61.3437C15.3398 61.3437 14.9688 60.9727 14.9688 60.5156C14.9688 60.0585 15.3398 59.6875 15.7969 59.6875C32.6923 59.6875 46.4375 45.9423 46.4375 29.0468V24.9062H43.9531C43.6567 24.9062 43.385 24.7489 43.236 24.4938C43.0886 24.2388 43.0869 23.9224 43.2327 23.6673L49.8577 12.0736C50.1558 11.5568 50.9988 11.5568 51.2969 12.0736L57.9219 23.6673C58.0677 23.9224 58.066 24.2388 57.9186 24.4938C57.7712 24.7489 57.4996 24.9062 57.2031 24.9062H54.7188V29.0468C54.7188 29.504 54.3478 29.875 53.8906 29.875C53.4335 29.875 53.0625 29.504 53.0625 29.0468V24.0781C53.0625 23.621 53.4335 23.25 53.8906 23.25H55.7771L50.5781 14.1538L45.3792 23.25H47.2656C47.7228 23.25 48.0938 23.621 48.0938 24.0781V29.0468C48.0938 46.8548 33.6049 61.3437 15.7969 61.3437Z" fill="white"/>
<path d="M53.8906 33.1875C54.348 33.1875 54.7188 32.8167 54.7188 32.3594C54.7188 31.902 54.348 31.5312 53.8906 31.5312C53.4333 31.5312 53.0625 31.902 53.0625 32.3594C53.0625 32.8167 53.4333 33.1875 53.8906 33.1875Z" fill="white"/>
</svg>
