<svg width="612" height="433" viewBox="0 0 612 433" fill="none" xmlns="http://www.w3.org/2000/svg">
<mask id="mask0_2173_33" style="mask-type:luminance" maskUnits="userSpaceOnUse" x="-72" y="-72" width="756" height="575">
<path d="M683.16 -72H-72V502.29H683.16V-72Z" fill="white"/>
</mask>
<g mask="url(#mask0_2173_33)">
<path d="M153.08 202.39H147.07V222.13C147.07 223.26 146.81 224.11 146.31 224.66C145.81 225.21 145.14 225.48 144.34 225.48C143.54 225.48 142.86 225.2 142.35 224.64C141.84 224.09 141.58 223.25 141.58 222.12V202.38H135.57C134.63 202.38 133.93 202.17 133.47 201.76C133.01 201.34 132.79 200.79 132.79 200.11C132.79 199.43 133.03 198.86 133.5 198.45C133.97 198.04 134.66 197.84 135.57 197.84H153.07C154.02 197.84 154.73 198.05 155.2 198.46C155.66 198.89 155.89 199.44 155.89 200.11C155.89 200.78 155.66 201.34 155.19 201.76C154.72 202.17 154.01 202.38 153.07 202.38L153.08 202.39Z" fill="white"/>
<path d="M168.01 200.72V208.5H179.89V200.72C179.89 199.6 180.15 198.77 180.64 198.21C181.14 197.66 181.8 197.38 182.61 197.38C183.42 197.38 184.11 197.65 184.62 198.2C185.14 198.75 185.39 199.59 185.39 200.72V222.13C185.39 223.26 185.14 224.1 184.62 224.65C184.1 225.21 183.43 225.49 182.62 225.49C181.81 225.49 181.13 225.21 180.64 224.64C180.14 224.08 179.89 223.24 179.89 222.13V212.99H168.01V222.13C168.01 223.26 167.75 224.1 167.23 224.65C166.71 225.21 166.05 225.49 165.23 225.49C164.41 225.49 163.74 225.21 163.25 224.64C162.75 224.08 162.5 223.24 162.5 222.13V200.72C162.5 199.6 162.75 198.77 163.24 198.21C163.73 197.66 164.4 197.38 165.23 197.38C166.06 197.38 166.73 197.65 167.24 198.2C167.75 198.75 168.01 199.59 168.01 200.72Z" fill="white"/>
<path d="M212.53 202.09H200.13V208.77H211.55C212.39 208.77 213.02 208.95 213.43 209.34C213.84 209.71 214.05 210.21 214.05 210.82C214.05 211.43 213.84 211.95 213.44 212.34C213.03 212.73 212.4 212.92 211.55 212.92H200.13V220.65H212.96C213.82 220.65 214.47 220.85 214.92 221.25C215.36 221.65 215.57 222.18 215.57 222.86C215.57 223.54 215.35 224.02 214.92 224.43C214.47 224.83 213.82 225.03 212.96 225.03H198C196.8 225.03 195.94 224.76 195.41 224.23C194.88 223.7 194.62 222.84 194.62 221.65V201.22C194.62 200.43 194.75 199.78 194.98 199.28C195.22 198.78 195.58 198.42 196.08 198.19C196.59 197.96 197.22 197.85 198 197.85H212.53C213.42 197.85 214.06 198.05 214.49 198.44C214.92 198.82 215.13 199.33 215.13 199.96C215.13 200.59 214.92 201.13 214.49 201.51C214.06 201.9 213.42 202.09 212.53 202.09Z" fill="white"/>
<path d="M40.8604 388.24V341.72C40.8604 339.3 41.4103 337.49 42.5203 336.29C43.6203 335.08 45.0404 334.47 46.7904 334.47C48.5404 334.47 50.0503 335.07 51.1703 336.26C52.2903 337.46 52.8304 339.27 52.8304 341.72V388.24C52.8304 390.68 52.2803 392.51 51.1703 393.72C50.0503 394.92 48.5904 395.53 46.7904 395.53C44.9904 395.53 43.6604 394.92 42.5404 393.7C41.4204 392.48 40.8704 390.66 40.8704 388.24H40.8604Z" fill="white"/>
<path d="M99.1204 341.64L122.12 376.44V341.32C122.12 339.04 122.61 337.33 123.58 336.19C124.57 335.05 125.89 334.48 127.56 334.48C129.23 334.48 130.63 335.05 131.62 336.19C132.62 337.33 133.11 339.04 133.11 341.32V387.76C133.11 392.94 130.96 395.53 126.66 395.53C125.59 395.53 124.62 395.38 123.76 395.06C122.91 394.76 122.09 394.27 121.35 393.6C120.6 392.92 119.9 392.14 119.26 391.24C118.62 390.34 117.97 389.42 117.33 388.48L94.8904 354.09V388.68C94.8904 390.93 94.3704 392.64 93.3204 393.8C92.2704 394.95 90.9304 395.53 89.2904 395.53C87.6504 395.53 86.2504 394.94 85.2204 393.78C84.2004 392.61 83.6904 390.91 83.6904 388.68V343.13C83.6904 341.2 83.9104 339.69 84.3304 338.58C84.8404 337.37 85.6904 336.38 86.8704 335.62C88.0504 334.86 89.3304 334.47 90.7004 334.47C91.7804 334.47 92.6904 334.65 93.4604 334.99C94.2204 335.34 94.9004 335.81 95.4804 336.4C96.0604 336.98 96.6504 337.75 97.2604 338.69C97.8604 339.63 98.4804 340.61 99.1304 341.63L99.1204 341.64Z" fill="white"/>
<path d="M208.39 376.81C208.39 380.38 207.47 383.59 205.63 386.44C203.79 389.29 201.1 391.51 197.55 393.13C194 394.74 189.8 395.54 184.94 395.54C179.11 395.54 174.31 394.44 170.52 392.24C167.83 390.65 165.65 388.54 163.97 385.89C162.29 383.25 161.45 380.68 161.45 378.18C161.45 376.73 161.96 375.49 162.96 374.45C163.97 373.41 165.25 372.9 166.81 372.9C168.07 372.9 169.14 373.3 170.01 374.1C170.89 374.91 171.63 376.11 172.25 377.69C173 379.57 173.82 381.14 174.69 382.4C175.57 383.67 176.79 384.71 178.38 385.53C179.96 386.35 182.04 386.75 184.62 386.75C188.16 386.75 191.03 385.93 193.26 384.27C195.47 382.62 196.58 380.56 196.58 378.09C196.58 376.14 195.98 374.54 194.79 373.32C193.59 372.1 192.05 371.17 190.16 370.52C188.27 369.88 185.73 369.2 182.57 368.47C178.32 367.48 174.77 366.32 171.91 364.98C169.06 363.65 166.78 361.85 165.11 359.55C163.43 357.26 162.59 354.4 162.59 351C162.59 347.6 163.48 344.86 165.25 342.34C167.02 339.82 169.58 337.87 172.94 336.52C176.3 335.16 180.24 334.48 184.78 334.48C188.41 334.48 191.55 334.93 194.19 335.83C196.84 336.73 199.03 337.93 200.78 339.41C202.52 340.91 203.8 342.47 204.61 344.11C205.41 345.74 205.81 347.34 205.81 348.9C205.81 350.32 205.31 351.6 204.3 352.75C203.29 353.89 202.04 354.46 200.53 354.46C199.16 354.46 198.12 354.11 197.41 353.43C196.69 352.75 195.93 351.62 195.09 350.07C194.01 347.84 192.73 346.11 191.22 344.85C189.72 343.6 187.3 342.98 183.97 342.98C180.89 342.98 178.4 343.66 176.5 345.01C174.61 346.36 173.66 347.99 173.66 349.9C173.66 351.08 173.98 352.1 174.63 352.96C175.27 353.82 176.15 354.56 177.29 355.18C178.42 355.81 179.55 356.28 180.71 356.63C181.87 356.98 183.78 357.49 186.43 358.16C189.77 358.94 192.78 359.8 195.48 360.74C198.18 361.68 200.47 362.82 202.36 364.16C204.26 365.5 205.73 367.2 206.79 369.26C207.85 371.31 208.38 373.83 208.38 376.81H208.39Z" fill="white"/>
<path d="M274.211 345.35H261.161V388.24C261.161 390.71 260.611 392.55 259.501 393.74C258.401 394.94 256.981 395.53 255.231 395.53C253.481 395.53 252.011 394.92 250.901 393.72C249.791 392.51 249.231 390.69 249.231 388.24V345.35H236.181C234.141 345.35 232.631 344.9 231.631 344C230.631 343.09 230.141 341.9 230.141 340.43C230.141 338.96 230.661 337.69 231.691 336.8C232.721 335.91 234.221 335.48 236.171 335.48H274.201C276.271 335.48 277.801 335.94 278.811 336.85C279.811 337.76 280.321 338.96 280.321 340.44C280.321 341.92 279.801 343.1 278.781 344.01C277.761 344.9 276.231 345.36 274.191 345.36L274.211 345.35Z" fill="white"/>
<path d="M305.23 388.24V341.72C305.23 339.3 305.78 337.49 306.88 336.29C307.98 335.08 309.41 334.47 311.16 334.47C312.91 334.47 314.41 335.07 315.53 336.26C316.64 337.46 317.2 339.27 317.2 341.72V388.24C317.2 390.68 316.64 392.51 315.53 393.72C314.41 394.92 312.96 395.53 311.16 395.53C309.36 395.53 308.03 394.92 306.91 393.7C305.8 392.48 305.24 390.66 305.24 388.24H305.23Z" fill="white"/>
<path d="M386.231 345.35H373.181V388.24C373.181 390.71 372.631 392.55 371.531 393.74C370.431 394.94 369.011 395.53 367.261 395.53C365.511 395.53 364.041 394.92 362.931 393.72C361.821 392.51 361.261 390.69 361.261 388.24V345.35H348.211C346.171 345.35 344.661 344.9 343.671 344C342.681 343.09 342.181 341.9 342.181 340.43C342.181 338.96 342.701 337.69 343.731 336.8C344.771 335.91 346.271 335.48 348.221 335.48H386.251C388.321 335.48 389.861 335.94 390.861 336.85C391.861 337.76 392.371 338.96 392.371 340.44C392.371 341.92 391.861 343.1 390.841 344.01C389.821 344.9 388.291 345.36 386.251 345.36L386.231 345.35Z" fill="white"/>
<path d="M416.84 370.12V341.72C416.84 339.3 417.38 337.49 418.47 336.29C419.56 335.08 420.99 334.47 422.76 334.47C424.62 334.47 426.09 335.08 427.17 336.29C428.26 337.49 428.8 339.31 428.8 341.72V370.76C428.8 374.06 429.17 376.82 429.91 379.04C430.64 381.26 431.94 382.97 433.83 384.2C435.71 385.42 438.34 386.03 441.73 386.03C446.4 386.03 449.71 384.79 451.64 382.31C453.57 379.82 454.54 376.05 454.54 371.01V341.73C454.54 339.29 455.07 337.47 456.15 336.27C457.22 335.07 458.66 334.48 460.46 334.48C462.26 334.48 463.72 335.08 464.83 336.27C465.94 337.47 466.5 339.28 466.5 341.73V370.13C466.5 374.76 466.05 378.6 465.15 381.69C464.25 384.78 462.55 387.49 460.06 389.83C457.91 391.82 455.41 393.27 452.56 394.18C449.72 395.1 446.39 395.55 442.57 395.55C438.04 395.55 434.13 395.06 430.86 394.08C427.59 393.1 424.91 391.59 422.84 389.53C420.77 387.48 419.25 384.84 418.29 381.63C417.33 378.42 416.84 374.59 416.84 370.13V370.12Z" fill="white"/>
<path d="M535.1 345.35H522.05V388.24C522.05 390.71 521.51 392.55 520.4 393.74C519.3 394.94 517.88 395.53 516.13 395.53C514.38 395.53 512.92 394.92 511.81 393.72C510.69 392.51 510.14 390.69 510.14 388.24V345.35H497.09C495.05 345.35 493.53 344.9 492.54 344C491.55 343.09 491.05 341.9 491.05 340.43C491.05 338.96 491.57 337.69 492.6 336.8C493.64 335.91 495.13 335.48 497.09 335.48H535.11C537.18 335.48 538.72 335.94 539.73 336.85C540.74 337.76 541.24 338.96 541.24 340.44C541.24 341.92 540.73 343.1 539.71 344.01C538.69 344.9 537.16 345.36 535.12 345.36L535.1 345.35Z" fill="white"/>
<path d="M604.55 344.71H577.6V359.21H602.41C604.24 359.21 605.6 359.62 606.5 360.44C607.41 361.26 607.85 362.34 607.85 363.68C607.85 365.02 607.41 366.11 606.52 366.96C605.63 367.81 604.26 368.23 602.41 368.23H577.6V385.02H605.47C607.35 385.02 608.76 385.46 609.72 386.33C610.68 387.21 611.15 388.37 611.15 389.82C611.15 391.27 610.68 392.35 609.72 393.22C608.77 394.09 607.35 394.53 605.47 394.53H572.97C570.36 394.53 568.49 393.95 567.35 392.8C566.21 391.65 565.63 389.78 565.63 387.2V342.82C565.63 341.1 565.89 339.69 566.4 338.61C566.91 337.53 567.71 336.73 568.8 336.24C569.88 335.74 571.27 335.49 572.97 335.49H604.55C606.45 335.49 607.88 335.91 608.8 336.76C609.72 337.61 610.19 338.71 610.19 340.08C610.19 341.45 609.72 342.6 608.8 343.45C607.88 344.3 606.45 344.72 604.55 344.72V344.71Z" fill="white"/>
<path fill-rule="evenodd" clip-rule="evenodd" d="M82.2801 235.52C59.4101 235.52 40.8701 254.06 40.8701 276.93C40.8701 299.8 59.4101 318.35 82.2801 318.35C105.15 318.35 123.69 299.81 123.69 276.93C123.69 254.05 105.15 235.52 82.2801 235.52ZM82.2801 298.34C70.4601 298.34 60.8701 288.76 60.8701 276.92C60.8701 265.08 70.4601 255.51 82.2801 255.51C94.1001 255.51 103.69 265.1 103.69 276.92C103.69 288.74 94.1001 298.34 82.2801 298.34Z" fill="white"/>
<path fill-rule="evenodd" clip-rule="evenodd" d="M60.4101 237.79V229.59C60.4101 218.8 51.6601 210.05 40.8701 210.05V259.71C44.7501 250.41 51.6901 242.7 60.4101 237.79Z" fill="white"/>
<path fill-rule="evenodd" clip-rule="evenodd" d="M224.08 276.92C224.08 299.8 242.62 318.34 265.49 318.34C288.36 318.34 306.91 299.8 306.91 276.92C306.91 254.04 288.36 235.51 265.49 235.51C242.62 235.51 224.08 254.05 224.08 276.92ZM244.08 276.92C244.08 265.1 253.66 255.51 265.49 255.51C277.32 255.51 286.91 265.1 286.91 276.92C286.91 288.74 277.32 298.34 265.49 298.34C253.66 298.34 244.08 288.76 244.08 276.92Z" fill="white"/>
<path fill-rule="evenodd" clip-rule="evenodd" d="M287.36 237.79V229.59C287.36 218.8 296.11 210.05 306.91 210.05V259.71C303.02 250.41 296.09 242.7 287.36 237.79Z" fill="white"/>
<path fill-rule="evenodd" clip-rule="evenodd" d="M316.12 276.92C316.12 299.8 334.65 318.34 357.53 318.34C380.41 318.34 398.95 299.8 398.95 276.92C398.95 254.04 380.4 235.51 357.53 235.51C334.66 235.51 316.12 254.05 316.12 276.92ZM336.12 276.92C336.12 265.1 345.71 255.51 357.53 255.51C369.35 255.51 378.95 265.1 378.95 276.92C378.95 288.74 369.35 298.34 357.53 298.34C345.71 298.34 336.12 288.76 336.12 276.92Z" fill="white"/>
<path fill-rule="evenodd" clip-rule="evenodd" d="M379.4 237.79V229.59C379.4 218.8 388.15 210.05 398.95 210.05V259.71C395.06 250.41 388.12 242.7 379.4 237.79Z" fill="white"/>
<path fill-rule="evenodd" clip-rule="evenodd" d="M215.73 276.92V235.5C204.69 235.5 195.77 244.44 195.77 255.46V276.92H195.73C195.73 288.76 186.14 298.34 174.32 298.34C162.5 298.34 152.9 288.76 152.9 276.92H152.84V255.46C152.84 244.44 143.93 235.5 132.88 235.5V276.92H132.9C132.9 299.8 151.44 318.34 174.32 318.34C197.2 318.34 215.74 299.79 215.74 276.92H215.73Z" fill="white"/>
<path fill-rule="evenodd" clip-rule="evenodd" d="M427.69 237.79V229.59C427.69 218.8 418.94 210.05 408.16 210.05V259.71C412.04 250.41 418.97 242.7 427.69 237.79Z" fill="white"/>
<path fill-rule="evenodd" clip-rule="evenodd" d="M490.98 276.92C490.98 254.05 472.44 235.51 449.57 235.51C426.7 235.51 408.16 254.05 408.16 276.92V318.35C419.21 318.35 428.11 309.41 428.11 298.39V276.92H428.15C428.15 265.09 437.73 255.51 449.57 255.51C461.41 255.51 470.98 265.09 470.98 276.92H471.04V298.39C471.04 309.4 479.95 318.35 491.01 318.35V276.92H490.99H490.98Z" fill="white"/>
<path fill-rule="evenodd" clip-rule="evenodd" d="M611.15 308.28C611.15 313.83 606.49 318.35 600.75 318.35C600.02 318.35 599.33 318.25 598.63 318.12C597.57 318.02 596.55 317.89 595.56 317.63C593.21 317.04 590.84 316.31 588.59 315.42C586.44 314.59 584.33 313.64 582.41 312.38C579.97 310.83 577.62 309.08 575.48 307.1C573.46 305.25 571.68 303.14 570.03 300.96C568.74 299.25 567.85 297.19 566.73 295.35C565.2 292.77 564.25 289.96 563.56 287.06C563 284.82 562.64 282.5 562.44 280.19C562.34 279.3 562.34 278.41 562.31 277.52H562.28C562.28 277.45 562.28 277.35 562.31 277.25C562.28 275.83 562.21 274.41 561.91 272.98C561.91 272.95 561.88 272.95 561.88 272.92C561.91 272.92 561.91 272.88 561.95 272.88C561.55 270.9 560.92 269.02 559.99 267.27C556.46 260.3 549.26 255.51 540.91 255.51C529.09 255.51 519.48 265.12 519.48 276.94C519.48 288.76 529.09 298.34 540.91 298.34C549.19 298.34 556.37 293.65 559.93 286.75C561.52 294.21 564.98 300.95 569.84 306.53C562.37 313.86 552.17 318.35 540.91 318.35C518.02 318.35 499.5 299.79 499.5 276.94C499.5 254.09 518.02 235.52 540.91 235.52C552.31 235.52 562.57 240.11 570.07 247.58C574.39 251.9 577.8 257.15 579.88 263.07C579.91 263.07 579.91 263.04 579.91 263.04C580.07 263.47 580.21 263.93 580.37 264.36C580.41 264.49 580.44 264.59 580.47 264.72C580.57 264.98 580.67 265.28 580.77 265.58C581.83 268.62 582.29 271.75 582.39 275C582.46 276.71 582.59 278.4 582.79 280.11C582.96 281.43 583.16 282.75 583.61 283.97C584.14 285.43 584.9 286.81 585.72 288.1C586.64 289.56 587.71 290.91 588.86 292.17C590.64 294.05 592.79 295.47 595.16 296.52C596.15 296.99 597.18 297.48 598.24 297.71C599.39 297.9 600.58 298.14 601.77 298.27C607.02 298.76 611.15 303.02 611.15 308.28Z" fill="white"/>
<path d="M46.5707 428.92C46.5707 429.19 46.5707 429.42 46.5407 429.61C46.5207 429.79 46.4607 429.93 46.3407 430.04C46.2807 430.1 46.2007 430.15 46.1007 430.2C46.0007 430.25 45.8807 430.28 45.7407 430.28C45.5107 430.28 45.3207 430.2 45.1607 430.04C45.0307 429.94 44.9607 429.8 44.9507 429.62C44.9307 429.44 44.9207 429.21 44.9207 428.93V419.15H42.1507C41.9007 419.15 41.7007 419.15 41.5507 419.12C41.4007 419.1 41.2807 419.05 41.1907 418.96C41.1307 418.9 41.0807 418.84 41.0407 418.76C41.0007 418.68 40.9707 418.59 40.9707 418.5C40.9707 418.42 40.9907 418.34 41.0307 418.25C41.0707 418.16 41.1207 418.09 41.1807 418.04C41.2707 417.94 41.3907 417.88 41.5507 417.86C41.7107 417.84 41.9107 417.83 42.1607 417.83H49.3607C49.6107 417.83 49.8107 417.83 49.9607 417.86C50.1107 417.88 50.2307 417.94 50.3207 418.04C50.3807 418.1 50.4307 418.17 50.4707 418.25C50.5107 418.33 50.5407 418.42 50.5407 418.51C50.5407 418.59 50.5207 418.67 50.4707 418.76C50.4207 418.85 50.3707 418.92 50.3207 418.97C50.2307 419.06 50.1107 419.12 49.9607 419.13C49.8107 419.15 49.6107 419.16 49.3607 419.16H46.5707V428.94V428.92Z" fill="white"/>
<path d="M53.8605 428.91C53.8605 429.16 53.8605 429.34 53.8405 429.45C53.8205 429.56 53.8105 429.66 53.7905 429.75C53.7305 429.93 53.6305 430.07 53.4705 430.15C53.3105 430.23 53.1605 430.28 53.0205 430.28C52.8605 430.28 52.7105 430.23 52.5705 430.13C52.4305 430.03 52.3305 429.9 52.2705 429.74C52.2505 429.66 52.2305 429.54 52.2305 429.37C52.2305 429.21 52.2305 429.05 52.2305 428.9V419.19C52.2305 418.88 52.2405 418.64 52.2705 418.45C52.3005 418.27 52.3605 418.13 52.4505 418.04C52.5405 417.95 52.6805 417.89 52.8605 417.86C53.0405 417.83 53.2905 417.82 53.5905 417.82H57.4905C57.4905 417.82 57.6505 417.82 57.8305 417.82C58.0105 417.82 58.2205 417.84 58.4505 417.87C58.6805 417.9 58.9305 417.95 59.1805 418.02C59.4405 418.09 59.6705 418.19 59.8705 418.31C60.3605 418.61 60.7405 419 61.0205 419.49C61.3005 419.98 61.4405 420.53 61.4405 421.15C61.4405 421.77 61.3205 422.28 61.0705 422.69C60.8305 423.1 60.5805 423.4 60.3305 423.58C59.9205 423.89 59.5205 424.09 59.1405 424.2C58.7505 424.3 58.4405 424.38 58.1905 424.42C58.3505 424.51 58.5505 424.64 58.7905 424.81C59.0305 424.98 59.2605 425.21 59.4905 425.5C59.6105 425.66 59.7505 425.85 59.9105 426.06C60.0605 426.27 60.1605 426.41 60.2105 426.48L61.3205 428.34C61.4505 428.56 61.5405 428.73 61.6205 428.86C61.6905 428.99 61.7505 429.1 61.7905 429.19C61.8305 429.28 61.8605 429.34 61.8705 429.39C61.8805 429.44 61.8905 429.5 61.8905 429.57C61.8905 429.8 61.8105 429.98 61.6605 430.1C61.5105 430.23 61.3305 430.29 61.1405 430.29C61.0205 430.29 60.9105 430.27 60.8205 430.24C60.7305 430.21 60.6405 430.15 60.5605 430.06C60.4805 429.97 60.3905 429.86 60.3005 429.72C60.2105 429.58 60.1005 429.4 59.9605 429.18L58.8005 427.33C58.3805 426.67 58.0205 426.15 57.7205 425.78C57.4205 425.41 57.1405 425.14 56.8905 424.96C56.6305 424.78 56.3905 424.68 56.1405 424.64C55.9005 424.6 55.6305 424.58 55.3305 424.58H53.9005V428.91H53.8605ZM53.8605 419.09V423.26H56.7205C56.9105 423.26 57.1805 423.25 57.5205 423.23C57.8605 423.21 58.2005 423.13 58.5405 423C58.8805 422.87 59.1705 422.66 59.4205 422.38C59.6705 422.1 59.8005 421.69 59.8005 421.15C59.8005 420.49 59.5405 419.96 59.0105 419.56C58.8705 419.45 58.7105 419.36 58.5105 419.3C58.3105 419.24 58.1205 419.19 57.9105 419.16C57.7005 419.13 57.5005 419.12 57.2905 419.11C57.0905 419.11 56.9105 419.11 56.7605 419.11H53.8505L53.8605 419.09Z" fill="white"/>
<path d="M65.6198 426.53L64.5598 429.27C64.4298 429.6 64.3199 429.85 64.2099 430.02C64.0999 430.19 63.8998 430.28 63.6198 430.28C63.3898 430.28 63.1998 430.2 63.0598 430.05C62.9098 429.9 62.8398 429.73 62.8398 429.56C62.8398 429.43 62.8598 429.31 62.8998 429.18C62.9398 429.06 62.9998 428.9 63.0798 428.7L66.9599 419.07C67.0499 418.83 67.1398 418.62 67.2198 418.44C67.2998 418.26 67.3899 418.11 67.4899 417.99C67.5899 417.87 67.6998 417.78 67.8298 417.72C67.9598 417.66 68.1199 417.63 68.3199 417.63C68.4799 417.63 68.6298 417.66 68.7798 417.72C68.9298 417.78 69.0498 417.87 69.1398 417.97C69.2298 418.06 69.3298 418.22 69.4198 418.44C69.5098 418.66 69.6098 418.87 69.6898 419.06L73.7099 428.64C73.7999 428.86 73.8699 429.03 73.9099 429.15C73.9499 429.28 73.9698 429.4 73.9698 429.53C73.9698 429.69 73.8998 429.85 73.7498 430.03C73.5998 430.2 73.3998 430.29 73.1498 430.29C72.8598 430.29 72.6698 430.2 72.5598 430.03C72.4498 429.85 72.3299 429.59 72.1898 429.25L71.0999 426.55H65.6398L65.6198 426.53ZM70.5798 425.21L68.2898 419.48L66.0798 425.21H70.5798Z" fill="white"/>
<path d="M83.7802 418.94C83.7702 418.68 83.7702 418.49 83.7802 418.37C83.7902 418.25 83.8302 418.13 83.8802 418.02C83.9302 417.93 84.0102 417.84 84.1302 417.75C84.2502 417.66 84.3902 417.62 84.5502 417.62C84.7802 417.62 84.9702 417.7 85.1302 417.86C85.2402 417.96 85.3102 418.1 85.3302 418.26C85.3502 418.43 85.3602 418.65 85.3602 418.94V428.62C85.3602 429.04 85.3502 429.35 85.3202 429.54C85.2902 429.73 85.1902 429.9 85.0202 430.04C84.8302 430.2 84.6002 430.28 84.3502 430.28C84.2102 430.28 84.1001 430.26 84.0101 430.23C83.9201 430.2 83.8302 430.14 83.7402 430.06C83.6502 429.98 83.5702 429.88 83.4702 429.75C83.3802 429.63 83.2701 429.47 83.1501 429.29L77.1801 420.38L77.2502 428.97C77.2502 429.24 77.2502 429.44 77.2502 429.55C77.2502 429.66 77.2102 429.78 77.1602 429.89C77.1102 429.98 77.0301 430.07 76.9001 430.16C76.7701 430.25 76.6302 430.29 76.4702 430.29C76.2402 430.29 76.0502 430.21 75.8902 430.05C75.7802 429.95 75.7102 429.81 75.6902 429.65C75.6702 429.48 75.6602 429.26 75.6602 428.97V419.22C75.6602 419.02 75.6602 418.84 75.6602 418.7C75.6602 418.56 75.6802 418.44 75.6902 418.34C75.7102 418.24 75.7402 418.16 75.7802 418.08C75.8302 418.01 75.8902 417.93 75.9702 417.87C76.0002 417.84 76.0701 417.79 76.1801 417.72C76.2801 417.66 76.4301 417.63 76.6201 417.63C76.8701 417.63 77.0601 417.7 77.2001 417.84C77.3401 417.98 77.5202 418.23 77.7502 418.58L83.8202 427.64L83.7702 418.94H83.7802Z" fill="white"/>
<path d="M96.4702 427.98C96.2802 428.44 95.9902 428.83 95.6102 429.18C95.2302 429.52 94.7601 429.79 94.2001 429.99C93.6401 430.19 92.9802 430.29 92.2402 430.29C91.9402 430.29 91.6402 430.27 91.3302 430.24C91.0202 430.21 90.7102 430.14 90.4102 430.05C90.1002 429.96 89.8002 429.84 89.5202 429.68C89.2302 429.53 88.9802 429.33 88.7502 429.09C88.4102 428.74 88.1401 428.34 87.9501 427.89C87.7601 427.44 87.6602 427.03 87.6602 426.67C87.6602 426.49 87.7301 426.33 87.8701 426.18C88.0101 426.03 88.1802 425.97 88.3802 425.97C88.6102 425.97 88.7701 426.05 88.8701 426.21C88.9701 426.37 89.0902 426.65 89.2402 427.05C89.2902 427.19 89.3602 427.37 89.4602 427.6C89.5602 427.83 89.7202 428.05 89.9402 428.27C90.1602 428.49 90.4401 428.67 90.7901 428.82C91.1401 428.97 91.5902 429.05 92.1402 429.05C92.5202 429.05 92.8902 429 93.2502 428.9C93.6102 428.8 93.9402 428.66 94.2202 428.46C94.5002 428.27 94.7402 428.03 94.9102 427.74C95.0902 427.46 95.1801 427.12 95.1801 426.75C95.1801 426.35 95.0902 426.02 94.9102 425.77C94.7302 425.51 94.5201 425.3 94.2601 425.14C94.0001 424.98 93.7402 424.86 93.4602 424.78C93.1802 424.7 92.9302 424.64 92.7202 424.59C92.1502 424.47 91.6802 424.36 91.3102 424.27C90.9402 424.18 90.6202 424.09 90.3602 424C90.1002 423.91 89.8701 423.82 89.6801 423.73C89.4901 423.63 89.3101 423.51 89.1201 423.36C89.0201 423.28 88.9001 423.17 88.7601 423.04C88.6201 422.9 88.5002 422.73 88.3802 422.54C88.2702 422.34 88.1701 422.11 88.0901 421.86C88.0101 421.6 87.9702 421.31 87.9702 420.98C87.9702 420.42 88.0802 419.93 88.3102 419.51C88.5402 419.09 88.8401 418.74 89.2301 418.46C89.6101 418.18 90.0602 417.97 90.5602 417.84C91.0602 417.71 91.5902 417.64 92.1402 417.64C92.4602 417.64 92.7902 417.67 93.1402 417.72C93.4902 417.77 93.8302 417.86 94.1702 417.98C94.5102 418.11 94.8201 418.28 95.1201 418.51C95.4201 418.74 95.6701 419.03 95.8701 419.38C95.9801 419.57 96.0801 419.78 96.1501 420.01C96.2201 420.24 96.2601 420.45 96.2601 420.64C96.2601 420.82 96.1902 421 96.0602 421.18C95.9302 421.36 95.7502 421.44 95.5202 421.44C95.2602 421.44 95.0802 421.35 94.9702 421.18C94.8702 421 94.7802 420.82 94.7102 420.62C94.6202 420.37 94.5202 420.15 94.4202 419.95C94.3202 419.76 94.1301 419.56 93.8701 419.37C93.6501 419.21 93.3902 419.09 93.0702 419C92.7502 418.91 92.4202 418.87 92.0702 418.87C91.6702 418.87 91.3102 418.92 91.0002 419.03C90.6902 419.14 90.4201 419.28 90.2001 419.46C89.9801 419.64 89.8101 419.84 89.7001 420.08C89.5901 420.32 89.5302 420.56 89.5302 420.81C89.5302 421.17 89.6201 421.47 89.7901 421.71C89.9601 421.94 90.1802 422.14 90.4402 422.29C90.7002 422.44 91.0002 422.57 91.3202 422.66C91.6402 422.75 91.9502 422.83 92.2502 422.9C92.7502 423.02 93.1802 423.14 93.5302 423.23C93.8802 423.33 94.1902 423.42 94.4402 423.52C94.7002 423.62 94.9202 423.72 95.1002 423.82C95.2802 423.92 95.4502 424.03 95.6102 424.15C95.7902 424.29 95.9602 424.46 96.1002 424.65C96.2402 424.84 96.3601 425.06 96.4501 425.27C96.5401 425.49 96.6101 425.71 96.6501 425.93C96.6901 426.15 96.7202 426.35 96.7202 426.54C96.7202 427.05 96.6201 427.54 96.4301 427.99L96.4702 427.98Z" fill="white"/>
<path d="M100.68 423.15H104.9C105.01 423.15 105.14 423.15 105.27 423.15C105.4 423.15 105.52 423.18 105.63 423.22C105.74 423.26 105.83 423.33 105.9 423.42C105.97 423.51 106 423.64 106 423.8C106 423.97 105.97 424.1 105.9 424.18C105.83 424.26 105.75 424.33 105.64 424.38C105.54 424.43 105.42 424.45 105.29 424.46C105.16 424.46 105.03 424.46 104.9 424.46H100.68V428.92C100.68 429.22 100.67 429.45 100.65 429.61C100.63 429.78 100.56 429.91 100.46 430.01C100.39 430.08 100.31 430.14 100.2 430.19C100.1 430.24 99.9803 430.27 99.8603 430.27C99.6303 430.27 99.4303 430.19 99.2403 430.03C99.1403 429.92 99.0803 429.78 99.0603 429.61C99.0403 429.44 99.0303 429.21 99.0303 428.92V419.19C99.0303 418.88 99.0403 418.64 99.0703 418.45C99.1003 418.27 99.1603 418.13 99.2503 418.04C99.3403 417.95 99.4803 417.89 99.6603 417.86C99.8403 417.83 100.09 417.82 100.4 417.82H105.75C105.88 417.82 106 417.82 106.13 417.82C106.26 417.82 106.38 417.85 106.49 417.89C106.6 417.93 106.69 417.99 106.76 418.08C106.83 418.17 106.86 418.29 106.86 418.46C106.86 418.63 106.83 418.76 106.76 418.85C106.69 418.94 106.6 419.01 106.49 419.05C106.38 419.09 106.26 419.11 106.13 419.12C106 419.12 105.87 419.12 105.75 419.12H100.67V423.12L100.68 423.15Z" fill="white"/>
<path d="M119.54 426.23C119.34 426.99 119 427.67 118.54 428.26C118.08 428.85 117.49 429.34 116.76 429.71C116.03 430.08 115.15 430.26 114.12 430.26C113.32 430.26 112.63 430.16 112.03 429.96C111.43 429.76 110.92 429.49 110.49 429.16C110.06 428.83 109.7 428.45 109.42 428.02C109.14 427.59 108.91 427.14 108.74 426.67C108.57 426.2 108.45 425.73 108.38 425.26C108.31 424.79 108.28 424.35 108.28 423.93C108.28 423.27 108.37 422.57 108.54 421.83C108.72 421.09 109.03 420.4 109.47 419.78C109.91 419.15 110.51 418.63 111.25 418.22C111.99 417.81 112.94 417.6 114.09 417.6C115.24 417.6 116.1 417.8 116.84 418.19C117.58 418.58 118.17 419.09 118.61 419.7C119.05 420.32 119.37 421 119.57 421.74C119.77 422.48 119.86 423.21 119.86 423.92C119.86 424.68 119.76 425.44 119.55 426.2L119.54 426.23ZM118 422.15C117.86 421.64 117.68 421.2 117.45 420.83C117.22 420.46 116.96 420.15 116.67 419.91C116.38 419.67 116.08 419.47 115.77 419.33C115.46 419.19 115.16 419.09 114.86 419.03C114.56 418.97 114.29 418.94 114.05 418.94C113.46 418.94 112.92 419.06 112.44 419.29C111.96 419.52 111.54 419.82 111.19 420.17C110.93 420.42 110.71 420.72 110.55 421.05C110.39 421.39 110.26 421.74 110.16 422.1C110.06 422.46 110 422.83 109.96 423.19C109.92 423.55 109.91 423.87 109.91 424.16C109.91 424.91 110.02 425.59 110.24 426.18C110.46 426.77 110.76 427.27 111.13 427.68C111.51 428.09 111.95 428.41 112.45 428.63C112.95 428.85 113.49 428.96 114.05 428.96C114.29 428.96 114.56 428.93 114.86 428.87C115.16 428.81 115.46 428.71 115.77 428.57C116.08 428.43 116.38 428.23 116.67 427.99C116.96 427.75 117.22 427.44 117.45 427.07C117.68 426.7 117.86 426.26 118 425.74C118.14 425.23 118.21 424.63 118.21 423.94C118.21 423.25 118.14 422.66 118 422.14V422.15Z" fill="white"/>
<path d="M123.87 428.91C123.87 429.16 123.87 429.34 123.85 429.45C123.83 429.56 123.82 429.66 123.8 429.75C123.74 429.93 123.64 430.07 123.48 430.15C123.32 430.23 123.17 430.28 123.03 430.28C122.87 430.28 122.72 430.23 122.58 430.13C122.44 430.03 122.34 429.9 122.28 429.74C122.26 429.66 122.24 429.54 122.24 429.37C122.24 429.21 122.24 429.05 122.24 428.9V419.19C122.24 418.88 122.25 418.64 122.28 418.45C122.31 418.27 122.37 418.13 122.46 418.04C122.55 417.95 122.69 417.89 122.87 417.86C123.05 417.83 123.3 417.82 123.6 417.82H127.5C127.5 417.82 127.66 417.82 127.84 417.82C128.02 417.82 128.23 417.84 128.46 417.87C128.69 417.9 128.94 417.95 129.19 418.02C129.45 418.09 129.68 418.19 129.88 418.31C130.37 418.61 130.75 419 131.03 419.49C131.31 419.98 131.45 420.53 131.45 421.15C131.45 421.77 131.33 422.28 131.08 422.69C130.84 423.1 130.59 423.4 130.34 423.58C129.93 423.89 129.53 424.09 129.15 424.2C128.76 424.3 128.45 424.38 128.2 424.42C128.36 424.51 128.56 424.64 128.8 424.81C129.04 424.98 129.27 425.21 129.5 425.5C129.62 425.66 129.76 425.85 129.92 426.06C130.07 426.27 130.17 426.41 130.22 426.48L131.33 428.34C131.46 428.56 131.55 428.73 131.63 428.86C131.7 428.99 131.76 429.1 131.8 429.19C131.84 429.28 131.87 429.34 131.88 429.39C131.89 429.44 131.9 429.5 131.9 429.57C131.9 429.8 131.82 429.98 131.67 430.1C131.52 430.23 131.34 430.29 131.15 430.29C131.03 430.29 130.92 430.27 130.83 430.24C130.74 430.21 130.65 430.15 130.57 430.06C130.49 429.97 130.4 429.86 130.31 429.72C130.22 429.58 130.11 429.4 129.97 429.18L128.81 427.33C128.39 426.67 128.03 426.15 127.73 425.78C127.43 425.41 127.15 425.14 126.9 424.96C126.64 424.78 126.4 424.68 126.15 424.64C125.91 424.6 125.64 424.58 125.34 424.58H123.91V428.91H123.87ZM123.87 419.09V423.26H126.73C126.92 423.26 127.19 423.25 127.53 423.23C127.87 423.21 128.21 423.13 128.55 423C128.89 422.87 129.18 422.66 129.43 422.38C129.68 422.1 129.81 421.69 129.81 421.15C129.81 420.49 129.55 419.96 129.02 419.56C128.88 419.45 128.72 419.36 128.52 419.3C128.32 419.24 128.13 419.19 127.92 419.16C127.71 419.13 127.51 419.12 127.3 419.11C127.1 419.11 126.92 419.11 126.77 419.11H123.86L123.87 419.09Z" fill="white"/>
<path d="M133.45 419.2C133.45 418.86 133.49 418.59 133.58 418.41C133.67 418.23 133.77 418.09 133.9 418.01C134.03 417.92 134.17 417.87 134.31 417.86C134.45 417.84 134.57 417.83 134.68 417.83C134.94 417.83 135.15 417.83 135.31 417.85C135.47 417.86 135.6 417.9 135.71 417.97C135.82 418.04 135.91 418.14 135.98 418.29C136.05 418.43 136.14 418.64 136.23 418.9L138.78 426.51C138.88 426.81 138.98 427.11 139.09 427.42C139.19 427.73 139.29 428.03 139.38 428.33C139.43 428.16 139.47 428.02 139.51 427.9C139.55 427.79 139.59 427.66 139.64 427.53C139.69 427.4 139.74 427.25 139.79 427.07C139.84 426.89 139.93 426.66 140.03 426.36L142.56 418.96C142.65 418.69 142.73 418.47 142.79 418.33C142.85 418.18 142.93 418.07 143.02 418.01C143.11 417.94 143.23 417.9 143.37 417.88C143.51 417.86 143.71 417.85 143.98 417.85C144.25 417.85 144.47 417.87 144.63 417.92C144.79 417.96 144.91 418.04 144.98 418.14C145.05 418.24 145.1 418.38 145.12 418.56C145.14 418.74 145.15 418.96 145.15 419.22V429.26C145.15 429.32 145.15 429.4 145.13 429.52C145.12 429.64 145.09 429.75 145.04 429.87C144.99 429.99 144.91 430.09 144.81 430.18C144.71 430.27 144.56 430.31 144.37 430.31C144.18 430.31 144.02 430.27 143.92 430.18C143.81 430.09 143.73 430 143.68 429.89C143.63 429.78 143.6 429.67 143.59 429.57C143.59 429.46 143.59 429.38 143.59 429.34V419.87L140.41 429.02C140.32 429.27 140.24 429.48 140.18 429.64C140.12 429.81 140.05 429.94 139.98 430.04C139.91 430.14 139.82 430.21 139.72 430.25C139.62 430.29 139.5 430.31 139.35 430.31C139.19 430.31 139.06 430.3 138.96 430.27C138.86 430.24 138.77 430.18 138.69 430.09C138.61 430 138.53 429.87 138.46 429.7C138.39 429.53 138.3 429.3 138.19 429.02L135.04 419.7V429.11C135.04 429.21 135.04 429.34 135.04 429.48C135.04 429.62 135.01 429.76 134.95 429.88C134.9 430 134.82 430.11 134.71 430.2C134.6 430.29 134.45 430.33 134.26 430.33C134.08 430.33 133.93 430.29 133.82 430.22C133.71 430.15 133.63 430.05 133.58 429.94C133.53 429.83 133.5 429.7 133.49 429.56C133.48 429.42 133.47 429.28 133.47 429.14V419.26L133.45 419.2Z" fill="white"/>
<path d="M149.18 426.53L148.12 429.27C147.99 429.6 147.88 429.85 147.77 430.02C147.66 430.19 147.46 430.28 147.18 430.28C146.95 430.28 146.76 430.2 146.62 430.05C146.47 429.9 146.4 429.73 146.4 429.56C146.4 429.43 146.42 429.31 146.46 429.18C146.5 429.06 146.56 428.9 146.64 428.7L150.52 419.07C150.61 418.83 150.7 418.62 150.78 418.44C150.86 418.26 150.95 418.11 151.05 417.99C151.15 417.87 151.26 417.78 151.39 417.72C151.52 417.66 151.68 417.63 151.88 417.63C152.04 417.63 152.19 417.66 152.34 417.72C152.49 417.78 152.61 417.87 152.7 417.97C152.79 418.06 152.89 418.22 152.98 418.44C153.07 418.66 153.17 418.87 153.25 419.06L157.27 428.64C157.36 428.86 157.43 429.03 157.47 429.15C157.51 429.28 157.53 429.4 157.53 429.53C157.53 429.69 157.46 429.85 157.31 430.03C157.16 430.2 156.96 430.29 156.71 430.29C156.42 430.29 156.23 430.2 156.12 430.03C156.01 429.85 155.89 429.59 155.75 429.25L154.66 426.55H149.2L149.18 426.53ZM154.14 425.21L151.85 419.48L149.64 425.21H154.14Z" fill="white"/>
<path d="M162.52 428.92C162.52 429.19 162.52 429.42 162.49 429.61C162.47 429.79 162.41 429.93 162.29 430.04C162.23 430.1 162.15 430.15 162.05 430.2C161.95 430.25 161.83 430.28 161.69 430.28C161.46 430.28 161.27 430.2 161.11 430.04C160.98 429.94 160.91 429.8 160.9 429.62C160.88 429.44 160.87 429.21 160.87 428.93V419.15H158.1C157.85 419.15 157.65 419.15 157.5 419.12C157.35 419.1 157.23 419.05 157.14 418.96C157.08 418.9 157.03 418.84 156.99 418.76C156.95 418.68 156.92 418.59 156.92 418.5C156.92 418.42 156.94 418.34 156.98 418.25C157.02 418.16 157.07 418.09 157.13 418.04C157.22 417.94 157.34 417.88 157.5 417.86C157.66 417.84 157.86 417.83 158.11 417.83H165.31C165.56 417.83 165.76 417.83 165.91 417.86C166.06 417.88 166.18 417.94 166.27 418.04C166.33 418.1 166.38 418.17 166.42 418.25C166.46 418.33 166.49 418.42 166.49 418.51C166.49 418.59 166.47 418.67 166.42 418.76C166.37 418.85 166.32 418.92 166.27 418.97C166.18 419.06 166.06 419.12 165.91 419.13C165.76 419.15 165.56 419.16 165.31 419.16H162.52V428.94V428.92Z" fill="white"/>
<path d="M170.011 428.92C170.011 429.22 170.011 429.45 169.981 429.61C169.951 429.77 169.901 429.91 169.781 430.01C169.721 430.07 169.641 430.12 169.541 430.18C169.441 430.24 169.321 430.27 169.181 430.27C169.081 430.27 168.971 430.25 168.861 430.21C168.751 430.17 168.661 430.11 168.581 430.03C168.471 429.92 168.401 429.78 168.381 429.61C168.361 429.44 168.351 429.21 168.351 428.92V418.97C168.351 418.67 168.351 418.44 168.381 418.28C168.401 418.11 168.461 417.98 168.581 417.88C168.641 417.82 168.711 417.77 168.811 417.71C168.911 417.65 169.031 417.62 169.181 417.62C169.281 417.62 169.391 417.64 169.501 417.68C169.611 417.72 169.701 417.79 169.781 417.88C169.891 417.98 169.961 418.12 169.981 418.29C170.001 418.46 170.011 418.69 170.011 418.97V428.92Z" fill="white"/>
<path d="M183.83 426.23C183.63 426.99 183.29 427.67 182.83 428.26C182.37 428.85 181.78 429.34 181.05 429.71C180.32 430.08 179.44 430.26 178.41 430.26C177.61 430.26 176.92 430.16 176.32 429.96C175.72 429.76 175.21 429.49 174.78 429.16C174.35 428.83 173.99 428.45 173.71 428.02C173.43 427.59 173.2 427.14 173.03 426.67C172.86 426.2 172.74 425.73 172.67 425.26C172.6 424.79 172.57 424.35 172.57 423.93C172.57 423.27 172.66 422.57 172.83 421.83C173.01 421.09 173.32 420.4 173.76 419.78C174.2 419.15 174.8 418.63 175.54 418.22C176.28 417.81 177.23 417.6 178.38 417.6C179.53 417.6 180.39 417.8 181.13 418.19C181.87 418.58 182.46 419.09 182.9 419.7C183.34 420.32 183.66 421 183.86 421.74C184.06 422.48 184.15 423.21 184.15 423.92C184.15 424.68 184.05 425.44 183.84 426.2L183.83 426.23ZM182.29 422.15C182.15 421.64 181.97 421.2 181.74 420.83C181.51 420.46 181.25 420.15 180.96 419.91C180.67 419.67 180.37 419.47 180.06 419.33C179.75 419.19 179.45 419.09 179.15 419.03C178.85 418.97 178.58 418.94 178.34 418.94C177.75 418.94 177.21 419.06 176.73 419.29C176.25 419.52 175.83 419.82 175.48 420.17C175.22 420.42 175 420.72 174.84 421.05C174.68 421.39 174.55 421.74 174.45 422.1C174.35 422.46 174.29 422.83 174.25 423.19C174.21 423.55 174.2 423.87 174.2 424.16C174.2 424.91 174.31 425.59 174.53 426.18C174.75 426.77 175.05 427.27 175.42 427.68C175.8 428.09 176.24 428.41 176.74 428.63C177.24 428.85 177.78 428.96 178.34 428.96C178.58 428.96 178.85 428.93 179.15 428.87C179.45 428.81 179.75 428.71 180.06 428.57C180.37 428.43 180.67 428.23 180.96 427.99C181.25 427.75 181.51 427.44 181.74 427.07C181.97 426.7 182.15 426.26 182.29 425.74C182.43 425.23 182.5 424.63 182.5 423.94C182.5 423.25 182.43 422.66 182.29 422.14V422.15Z" fill="white"/>
<path d="M194.551 418.94C194.541 418.68 194.541 418.49 194.551 418.37C194.561 418.25 194.601 418.13 194.651 418.02C194.701 417.93 194.781 417.84 194.901 417.75C195.021 417.66 195.161 417.62 195.321 417.62C195.551 417.62 195.741 417.7 195.901 417.86C196.011 417.96 196.081 418.1 196.101 418.26C196.121 418.43 196.131 418.65 196.131 418.94V428.62C196.131 429.04 196.121 429.35 196.091 429.54C196.061 429.73 195.961 429.9 195.791 430.04C195.601 430.2 195.371 430.28 195.121 430.28C194.981 430.28 194.871 430.26 194.781 430.23C194.691 430.2 194.601 430.14 194.511 430.06C194.421 429.98 194.341 429.88 194.241 429.75C194.151 429.63 194.041 429.47 193.921 429.29L187.951 420.38L188.021 428.97C188.021 429.24 188.021 429.44 188.021 429.55C188.021 429.66 187.981 429.78 187.931 429.89C187.881 429.98 187.801 430.07 187.671 430.16C187.541 430.25 187.401 430.29 187.241 430.29C187.011 430.29 186.821 430.21 186.661 430.05C186.551 429.95 186.481 429.81 186.461 429.65C186.441 429.48 186.431 429.26 186.431 428.97V419.22C186.431 419.02 186.431 418.84 186.431 418.7C186.431 418.56 186.451 418.44 186.461 418.34C186.481 418.24 186.511 418.16 186.551 418.08C186.601 418.01 186.661 417.93 186.741 417.87C186.771 417.84 186.841 417.79 186.951 417.72C187.051 417.66 187.201 417.63 187.391 417.63C187.641 417.63 187.831 417.7 187.971 417.84C188.111 417.98 188.291 418.23 188.521 418.58L194.591 427.64L194.541 418.94H194.551Z" fill="white"/>
<path d="M208.13 428.92C208.13 429.19 208.13 429.42 208.1 429.61C208.08 429.79 208.02 429.93 207.9 430.04C207.84 430.1 207.76 430.15 207.66 430.2C207.56 430.25 207.44 430.28 207.3 430.28C207.07 430.28 206.88 430.2 206.72 430.04C206.59 429.94 206.52 429.8 206.51 429.62C206.49 429.44 206.48 429.21 206.48 428.93V419.15H203.71C203.46 419.15 203.26 419.15 203.11 419.12C202.96 419.1 202.84 419.05 202.75 418.96C202.69 418.9 202.64 418.84 202.6 418.76C202.56 418.68 202.53 418.59 202.53 418.5C202.53 418.42 202.55 418.34 202.59 418.25C202.63 418.16 202.68 418.09 202.74 418.04C202.83 417.94 202.95 417.88 203.11 417.86C203.27 417.84 203.47 417.83 203.72 417.83H210.92C211.17 417.83 211.37 417.83 211.52 417.86C211.67 417.88 211.79 417.94 211.88 418.04C211.94 418.1 211.99 418.17 212.03 418.25C212.07 418.33 212.1 418.42 212.1 418.51C212.1 418.59 212.08 418.67 212.03 418.76C211.98 418.85 211.93 418.92 211.88 418.97C211.79 419.06 211.67 419.12 211.52 419.13C211.37 419.15 211.17 419.16 210.92 419.16H208.13V428.94V428.92Z" fill="white"/>
<path d="M221.74 422.99V418.95C221.74 418.65 221.75 418.43 221.78 418.27C221.81 418.11 221.87 417.98 221.98 417.88C222.04 417.82 222.12 417.77 222.22 417.71C222.32 417.65 222.44 417.62 222.58 417.62C222.81 417.62 223.01 417.71 223.18 417.88C223.28 417.98 223.34 418.12 223.36 418.28C223.38 418.45 223.39 418.67 223.39 418.96V428.95C223.39 429.25 223.39 429.48 223.36 429.63C223.34 429.79 223.28 429.92 223.18 430.02C223.12 430.08 223.04 430.13 222.94 430.19C222.84 430.25 222.72 430.28 222.58 430.28C222.36 430.28 222.16 430.2 221.98 430.04C221.88 429.93 221.81 429.79 221.78 429.62C221.75 429.45 221.74 429.23 221.74 428.94V424.31H215.33V428.93C215.33 429.23 215.32 429.46 215.3 429.62C215.28 429.78 215.21 429.92 215.1 430.02C215.04 430.08 214.97 430.13 214.87 430.19C214.77 430.25 214.65 430.28 214.5 430.28C214.28 430.28 214.08 430.2 213.9 430.04C213.8 429.93 213.74 429.79 213.72 429.62C213.7 429.45 213.69 429.22 213.69 428.93V418.98C213.69 418.68 213.69 418.45 213.72 418.29C213.75 418.13 213.8 417.99 213.9 417.89C213.96 417.83 214.04 417.78 214.14 417.72C214.24 417.66 214.36 417.63 214.5 417.63C214.74 417.63 214.94 417.72 215.1 417.89C215.21 417.99 215.28 418.13 215.3 418.29C215.32 418.45 215.33 418.69 215.33 418.98V423H221.74V422.99Z" fill="white"/>
<path d="M227.88 428.91C227.88 429.16 227.88 429.34 227.86 429.45C227.84 429.56 227.83 429.66 227.81 429.75C227.75 429.93 227.65 430.07 227.49 430.15C227.33 430.23 227.18 430.28 227.04 430.28C226.88 430.28 226.73 430.23 226.59 430.13C226.45 430.03 226.35 429.9 226.29 429.74C226.27 429.66 226.25 429.54 226.25 429.37C226.25 429.21 226.25 429.05 226.25 428.9V419.19C226.25 418.88 226.26 418.64 226.29 418.45C226.32 418.27 226.38 418.13 226.47 418.04C226.56 417.95 226.7 417.89 226.88 417.86C227.06 417.83 227.31 417.82 227.61 417.82H231.51C231.51 417.82 231.67 417.82 231.85 417.82C232.03 417.82 232.24 417.84 232.47 417.87C232.7 417.9 232.95 417.95 233.2 418.02C233.46 418.09 233.69 418.19 233.89 418.31C234.38 418.61 234.76 419 235.04 419.49C235.32 419.98 235.46 420.53 235.46 421.15C235.46 421.77 235.34 422.28 235.09 422.69C234.85 423.1 234.6 423.4 234.35 423.58C233.94 423.89 233.54 424.09 233.16 424.2C232.77 424.3 232.46 424.38 232.21 424.42C232.37 424.51 232.57 424.64 232.81 424.81C233.05 424.98 233.28 425.21 233.51 425.5C233.63 425.66 233.77 425.85 233.93 426.06C234.08 426.27 234.18 426.41 234.23 426.48L235.34 428.34C235.47 428.56 235.56 428.73 235.64 428.86C235.71 428.99 235.77 429.1 235.81 429.19C235.85 429.28 235.88 429.34 235.89 429.39C235.9 429.44 235.91 429.5 235.91 429.57C235.91 429.8 235.83 429.98 235.68 430.1C235.53 430.23 235.35 430.29 235.16 430.29C235.04 430.29 234.93 430.27 234.84 430.24C234.75 430.21 234.66 430.15 234.58 430.06C234.5 429.97 234.41 429.86 234.32 429.72C234.23 429.58 234.12 429.4 233.98 429.18L232.82 427.33C232.4 426.67 232.04 426.15 231.74 425.78C231.44 425.41 231.16 425.14 230.91 424.96C230.65 424.78 230.41 424.68 230.16 424.64C229.92 424.6 229.65 424.58 229.35 424.58H227.92V428.91H227.88ZM227.88 419.09V423.26H230.74C230.93 423.26 231.2 423.25 231.54 423.23C231.88 423.21 232.22 423.13 232.56 423C232.9 422.87 233.19 422.66 233.44 422.38C233.69 422.1 233.82 421.69 233.82 421.15C233.82 420.49 233.56 419.96 233.03 419.56C232.89 419.45 232.73 419.36 232.53 419.3C232.33 419.24 232.14 419.19 231.93 419.16C231.72 419.13 231.52 419.12 231.31 419.11C231.11 419.11 230.93 419.11 230.78 419.11H227.87L227.88 419.09Z" fill="white"/>
<path d="M248.37 426.23C248.17 426.99 247.83 427.67 247.37 428.26C246.91 428.85 246.32 429.34 245.59 429.71C244.86 430.08 243.98 430.26 242.95 430.26C242.15 430.26 241.46 430.16 240.86 429.96C240.26 429.76 239.75 429.49 239.32 429.16C238.89 428.83 238.53 428.45 238.25 428.02C237.97 427.59 237.74 427.14 237.57 426.67C237.4 426.2 237.28 425.73 237.21 425.26C237.14 424.79 237.11 424.35 237.11 423.93C237.11 423.27 237.2 422.57 237.37 421.83C237.55 421.09 237.86 420.4 238.3 419.78C238.74 419.15 239.34 418.63 240.08 418.22C240.82 417.81 241.77 417.6 242.92 417.6C244.07 417.6 244.93 417.8 245.67 418.19C246.41 418.58 247 419.09 247.44 419.7C247.88 420.32 248.2 421 248.4 421.74C248.6 422.48 248.69 423.21 248.69 423.92C248.69 424.68 248.59 425.44 248.38 426.2L248.37 426.23ZM246.83 422.15C246.69 421.64 246.51 421.2 246.28 420.83C246.05 420.46 245.79 420.15 245.5 419.91C245.21 419.67 244.91 419.47 244.6 419.33C244.29 419.19 243.99 419.09 243.69 419.03C243.39 418.97 243.12 418.94 242.88 418.94C242.29 418.94 241.75 419.06 241.27 419.29C240.79 419.52 240.37 419.82 240.02 420.17C239.76 420.42 239.54 420.72 239.38 421.05C239.22 421.39 239.09 421.74 238.99 422.1C238.89 422.46 238.83 422.83 238.79 423.19C238.75 423.55 238.74 423.87 238.74 424.16C238.74 424.91 238.85 425.59 239.07 426.18C239.29 426.77 239.59 427.27 239.96 427.68C240.34 428.09 240.78 428.41 241.28 428.63C241.78 428.85 242.32 428.96 242.88 428.96C243.12 428.96 243.39 428.93 243.69 428.87C243.99 428.81 244.29 428.71 244.6 428.57C244.91 428.43 245.21 428.23 245.5 427.99C245.79 427.75 246.05 427.44 246.28 427.07C246.51 426.7 246.69 426.26 246.83 425.74C246.97 425.23 247.04 424.63 247.04 423.94C247.04 423.25 246.97 422.66 246.83 422.14V422.15Z" fill="white"/>
<path d="M252.61 425.49C252.61 425.75 252.63 426.08 252.66 426.47C252.69 426.86 252.81 427.25 253.01 427.62C253.21 427.99 253.53 428.31 253.97 428.57C254.41 428.83 255.03 428.96 255.84 428.96C256.56 428.96 257.13 428.85 257.55 428.62C257.97 428.39 258.29 428.1 258.51 427.76C258.73 427.41 258.87 427.04 258.93 426.63C258.99 426.22 259.02 425.85 259.02 425.51V418.99C259.02 418.69 259.02 418.46 259.05 418.3C259.08 418.14 259.13 417.99 259.25 417.88C259.31 417.82 259.39 417.77 259.49 417.71C259.59 417.65 259.71 417.62 259.85 417.62C260.09 417.62 260.29 417.71 260.45 417.88C260.56 417.99 260.63 418.13 260.65 418.3C260.67 418.47 260.68 418.7 260.68 418.99V425.35C260.68 425.98 260.61 426.58 260.48 427.17C260.34 427.76 260.1 428.28 259.75 428.74C259.4 429.2 258.92 429.57 258.31 429.85C257.7 430.13 256.92 430.27 255.98 430.27C255.16 430.27 254.44 430.18 253.82 430.01C253.2 429.84 252.68 429.56 252.26 429.17C251.84 428.78 251.53 428.28 251.31 427.65C251.09 427.02 250.99 426.26 250.99 425.36V418.98C250.99 418.68 250.99 418.45 251.02 418.29C251.05 418.13 251.1 417.98 251.22 417.87C251.28 417.81 251.36 417.76 251.46 417.7C251.56 417.64 251.68 417.61 251.82 417.61C252.06 417.61 252.26 417.7 252.42 417.87C252.53 417.98 252.6 418.12 252.62 418.29C252.64 418.46 252.65 418.69 252.65 418.98V425.48L252.61 425.49Z" fill="white"/>
<path d="M272.79 425.16H270.11C269.97 425.16 269.84 425.16 269.7 425.16C269.56 425.16 269.44 425.13 269.33 425.09C269.22 425.05 269.13 424.99 269.06 424.89C268.99 424.8 268.96 424.67 268.96 424.51C268.96 424.34 268.99 424.21 269.06 424.12C269.13 424.03 269.21 423.97 269.31 423.92C269.41 423.88 269.51 423.85 269.63 423.84C269.75 423.83 269.85 423.84 269.94 423.84H273.02C273.28 423.84 273.5 423.85 273.67 423.88C273.84 423.91 273.98 423.97 274.08 424.05C274.18 424.13 274.25 424.25 274.29 424.41C274.33 424.56 274.35 424.77 274.35 425.02V427.7C274.35 427.95 274.33 428.16 274.3 428.32C274.27 428.48 274.15 428.63 273.94 428.78C273.93 428.79 273.8 428.88 273.56 429.04C273.32 429.2 272.99 429.37 272.57 429.55C272.15 429.73 271.65 429.9 271.08 430.05C270.51 430.2 269.88 430.27 269.2 430.27C268.12 430.27 267.18 430.1 266.4 429.77C265.61 429.43 264.97 428.98 264.46 428.41C263.95 427.84 263.58 427.17 263.33 426.41C263.09 425.65 262.96 424.84 262.96 424C262.96 423.16 263.08 422.37 263.31 421.6C263.54 420.83 263.91 420.15 264.4 419.57C264.89 418.99 265.53 418.51 266.31 418.16C267.09 417.81 268.02 417.63 269.11 417.63C270.11 417.63 270.93 417.78 271.56 418.07C272.19 418.37 272.69 418.71 273.05 419.1C273.41 419.49 273.65 419.86 273.79 420.22C273.92 420.58 273.99 420.82 273.99 420.95C273.99 421.13 273.93 421.3 273.81 421.45C273.69 421.6 273.48 421.67 273.19 421.67C273.05 421.67 272.92 421.62 272.81 421.52C272.69 421.42 272.55 421.23 272.39 420.93C272.29 420.74 272.15 420.53 271.99 420.3C271.83 420.07 271.61 419.86 271.35 419.66C271.09 419.46 270.77 419.29 270.38 419.16C270 419.02 269.53 418.96 268.99 418.96C268.27 418.96 267.64 419.08 267.1 419.34C266.56 419.59 266.1 419.94 265.73 420.38C265.36 420.82 265.08 421.35 264.89 421.95C264.7 422.55 264.61 423.21 264.61 423.92C264.61 424.22 264.63 424.53 264.66 424.87C264.69 425.21 264.76 425.55 264.87 425.89C264.98 426.23 265.11 426.57 265.29 426.91C265.47 427.25 265.69 427.55 265.97 427.82C266.4 428.25 266.91 428.56 267.5 428.73C268.08 428.9 268.65 428.99 269.2 428.99C269.82 428.99 270.43 428.9 271.02 428.72C271.61 428.54 272.21 428.25 272.81 427.85V425.2L272.79 425.16Z" fill="white"/>
<path d="M284.85 422.99V418.95C284.85 418.65 284.86 418.43 284.89 418.27C284.92 418.11 284.98 417.98 285.09 417.88C285.15 417.82 285.23 417.77 285.33 417.71C285.43 417.65 285.55 417.62 285.69 417.62C285.92 417.62 286.12 417.71 286.29 417.88C286.39 417.98 286.45 418.12 286.47 418.28C286.49 418.45 286.5 418.67 286.5 418.96V428.95C286.5 429.25 286.5 429.48 286.47 429.63C286.45 429.79 286.39 429.92 286.29 430.02C286.23 430.08 286.15 430.13 286.05 430.19C285.95 430.25 285.83 430.28 285.69 430.28C285.47 430.28 285.27 430.2 285.09 430.04C284.99 429.93 284.92 429.79 284.89 429.62C284.86 429.45 284.85 429.23 284.85 428.94V424.31H278.44V428.93C278.44 429.23 278.43 429.46 278.41 429.62C278.39 429.78 278.32 429.92 278.21 430.02C278.15 430.08 278.08 430.13 277.98 430.19C277.88 430.25 277.76 430.28 277.61 430.28C277.39 430.28 277.19 430.2 277.01 430.04C276.91 429.93 276.85 429.79 276.83 429.62C276.81 429.45 276.8 429.22 276.8 428.93V418.98C276.8 418.68 276.8 418.45 276.83 418.29C276.86 418.13 276.91 417.99 277.01 417.89C277.07 417.83 277.15 417.78 277.25 417.72C277.35 417.66 277.47 417.63 277.61 417.63C277.85 417.63 278.05 417.72 278.21 417.89C278.32 417.99 278.39 418.13 278.41 418.29C278.43 418.45 278.44 418.69 278.44 418.98V423H284.85V422.99Z" fill="white"/>
<path d="M295.57 417.83H298.8C299.64 417.83 300.36 417.91 300.96 418.06C301.56 418.22 302.11 418.51 302.6 418.94C303.87 420.03 304.51 421.69 304.51 423.92C304.51 424.65 304.45 425.33 304.32 425.93C304.19 426.53 303.99 427.08 303.73 427.57C303.46 428.06 303.12 428.49 302.7 428.88C302.37 429.17 302.01 429.41 301.62 429.59C301.23 429.77 300.81 429.89 300.36 429.97C299.91 430.05 299.41 430.08 298.84 430.08H295.61C295.16 430.08 294.82 430.01 294.59 429.88C294.36 429.74 294.21 429.55 294.14 429.3C294.07 429.05 294.04 428.73 294.04 428.34V419.36C294.04 418.83 294.16 418.44 294.4 418.2C294.64 417.96 295.03 417.84 295.56 417.84L295.57 417.83ZM296.53 419.79V428.1H298.41C298.82 428.1 299.15 428.09 299.38 428.07C299.61 428.05 299.86 427.99 300.11 427.9C300.36 427.81 300.58 427.69 300.76 427.52C301.59 426.82 302 425.61 302 423.9C302 422.69 301.82 421.79 301.45 421.19C301.09 420.59 300.64 420.21 300.1 420.04C299.57 419.88 298.92 419.79 298.16 419.79H296.52H296.53Z" fill="white"/>
<path d="M314.76 419.74H309.17V422.75H314.31C314.69 422.75 314.97 422.83 315.16 423.01C315.35 423.18 315.44 423.4 315.44 423.68C315.44 423.96 315.35 424.18 315.16 424.36C314.98 424.54 314.69 424.62 314.31 424.62H309.17V428.1H314.95C315.34 428.1 315.63 428.19 315.83 428.37C316.03 428.55 316.13 428.79 316.13 429.09C316.13 429.39 316.03 429.62 315.83 429.8C315.63 429.98 315.34 430.07 314.95 430.07H308.21C307.67 430.07 307.28 429.95 307.04 429.71C306.8 429.47 306.69 429.08 306.69 428.55V419.35C306.69 418.99 306.74 418.7 306.85 418.48C306.96 418.25 307.12 418.09 307.35 417.99C307.58 417.89 307.86 417.84 308.21 417.84H314.76C315.15 417.84 315.45 417.93 315.64 418.1C315.83 418.28 315.93 418.51 315.93 418.79C315.93 419.07 315.83 419.31 315.64 419.49C315.45 419.67 315.15 419.75 314.76 419.75V419.74Z" fill="white"/>
<path d="M319.91 419.25L322.68 427.46L325.46 419.19C325.6 418.76 325.71 418.45 325.79 418.28C325.86 418.11 325.98 417.96 326.15 417.82C326.32 417.68 326.55 417.62 326.84 417.62C327.05 417.62 327.25 417.67 327.43 417.78C327.61 417.89 327.75 418.03 327.86 418.2C327.96 418.38 328.01 418.55 328.01 418.73C328.01 418.85 327.99 418.99 327.96 419.13C327.93 419.27 327.89 419.41 327.84 419.55C327.79 419.69 327.74 419.83 327.69 419.97L324.73 427.97C324.62 428.28 324.52 428.57 324.41 428.84C324.3 429.11 324.18 429.36 324.04 429.57C323.9 429.78 323.72 429.95 323.49 430.08C323.26 430.21 322.98 430.28 322.64 430.28C322.3 430.28 322.02 430.21 321.79 430.08C321.56 429.95 321.37 429.78 321.23 429.56C321.09 429.35 320.96 429.1 320.86 428.83C320.76 428.56 320.65 428.27 320.54 427.96L317.63 420.03C317.58 419.89 317.53 419.74 317.48 419.6C317.43 419.46 317.38 419.31 317.35 419.15C317.31 418.99 317.3 418.85 317.3 418.74C317.3 418.46 317.42 418.2 317.64 417.96C317.86 417.72 318.15 417.61 318.5 417.61C318.92 417.61 319.22 417.74 319.4 418C319.58 418.26 319.75 418.67 319.94 419.24L319.91 419.25Z" fill="white"/>
<path d="M337.93 419.74H332.34V422.75H337.48C337.86 422.75 338.14 422.83 338.33 423.01C338.52 423.18 338.61 423.4 338.61 423.68C338.61 423.96 338.52 424.18 338.33 424.36C338.15 424.54 337.86 424.62 337.48 424.62H332.34V428.1H338.12C338.51 428.1 338.8 428.19 339 428.37C339.2 428.55 339.3 428.79 339.3 429.09C339.3 429.39 339.2 429.62 339 429.8C338.8 429.98 338.51 430.07 338.12 430.07H331.38C330.84 430.07 330.45 429.95 330.21 429.71C329.97 429.47 329.86 429.08 329.86 428.55V419.35C329.86 418.99 329.91 418.7 330.02 418.48C330.13 418.25 330.29 418.09 330.52 417.99C330.75 417.89 331.03 417.84 331.38 417.84H337.93C338.32 417.84 338.62 417.93 338.81 418.1C339 418.28 339.1 418.51 339.1 418.79C339.1 419.07 339 419.31 338.81 419.49C338.62 419.67 338.32 419.75 337.93 419.75V419.74Z" fill="white"/>
<path d="M343.7 419.12V428.03H348.73C349.13 428.03 349.44 428.13 349.65 428.32C349.86 428.51 349.97 428.76 349.97 429.05C349.97 429.34 349.86 429.59 349.65 429.78C349.44 429.97 349.13 430.06 348.72 430.06H342.73C342.19 430.06 341.8 429.94 341.57 429.7C341.33 429.46 341.21 429.07 341.21 428.54V419.11C341.21 418.61 341.32 418.23 341.55 417.98C341.78 417.73 342.07 417.6 342.44 417.6C342.81 417.6 343.11 417.72 343.35 417.97C343.58 418.22 343.7 418.6 343.7 419.1V419.12Z" fill="white"/>
<path d="M356.131 417.62C357.401 417.62 358.491 417.88 359.401 418.39C360.311 418.9 361.001 419.64 361.471 420.59C361.941 421.54 362.171 422.65 362.171 423.93C362.171 424.88 362.041 425.74 361.791 426.51C361.541 427.28 361.151 427.95 360.641 428.52C360.131 429.09 359.501 429.52 358.751 429.82C358.001 430.12 357.151 430.27 356.191 430.27C355.231 430.27 354.371 430.12 353.621 429.81C352.861 429.5 352.231 429.07 351.721 428.5C351.211 427.94 350.831 427.26 350.571 426.47C350.311 425.68 350.181 424.83 350.181 423.91C350.181 422.99 350.321 422.11 350.591 421.32C350.861 420.54 351.251 419.87 351.761 419.32C352.271 418.77 352.901 418.35 353.631 418.06C354.371 417.77 355.201 417.62 356.141 417.62H356.131ZM359.651 423.92C359.651 423.02 359.511 422.25 359.221 421.59C358.931 420.93 358.521 420.44 357.981 420.1C357.441 419.76 356.831 419.59 356.131 419.59C355.631 419.59 355.181 419.68 354.761 419.87C354.341 420.06 353.981 420.33 353.671 420.69C353.371 421.05 353.131 421.5 352.951 422.05C352.771 422.6 352.691 423.23 352.691 423.92C352.691 424.61 352.781 425.24 352.951 425.81C353.131 426.37 353.371 426.84 353.691 427.21C354.011 427.58 354.381 427.86 354.791 428.04C355.211 428.22 355.661 428.32 356.161 428.32C356.791 428.32 357.381 428.16 357.911 427.84C358.441 427.52 358.871 427.03 359.181 426.37C359.491 425.71 359.651 424.89 359.651 423.92Z" fill="white"/>
<path d="M369.04 425.3H366.77V428.77C366.77 429.27 366.65 429.64 366.42 429.9C366.19 430.16 365.89 430.28 365.54 430.28C365.19 430.28 364.87 430.15 364.64 429.9C364.41 429.65 364.3 429.27 364.3 428.78V419.34C364.3 418.79 364.42 418.4 364.68 418.17C364.93 417.94 365.33 417.82 365.87 417.82H369.05C369.99 417.82 370.71 417.89 371.22 418.04C371.72 418.18 372.15 418.41 372.52 418.73C372.88 419.05 373.16 419.45 373.35 419.92C373.54 420.39 373.63 420.91 373.63 421.5C373.63 422.75 373.25 423.69 372.48 424.33C371.71 424.97 370.57 425.29 369.05 425.29L369.04 425.3ZM368.44 419.69H366.77V423.43H368.44C369.02 423.43 369.51 423.37 369.91 423.25C370.3 423.13 370.6 422.93 370.81 422.65C371.02 422.37 371.12 422.01 371.12 421.56C371.12 421.02 370.96 420.58 370.64 420.24C370.28 419.88 369.55 419.7 368.44 419.7V419.69Z" fill="white"/>
<path d="M379.83 428.23L377.87 420.43V428.88C377.87 429.35 377.77 429.7 377.56 429.93C377.35 430.16 377.07 430.28 376.73 430.28C376.39 430.28 376.12 430.16 375.91 429.93C375.7 429.7 375.59 429.35 375.59 428.87V419.18C375.59 418.65 375.73 418.28 376.01 418.1C376.29 417.91 376.66 417.82 377.14 417.82H377.91C378.37 417.82 378.71 417.86 378.92 417.95C379.13 418.03 379.28 418.18 379.38 418.4C379.48 418.62 379.59 418.97 379.72 419.46L381.5 426.17L383.28 419.46C383.41 418.97 383.52 418.62 383.62 418.4C383.72 418.18 383.88 418.03 384.08 417.95C384.29 417.87 384.62 417.82 385.09 417.82H385.86C386.33 417.82 386.71 417.91 386.99 418.1C387.27 418.29 387.41 418.65 387.41 419.18V428.87C387.41 429.34 387.31 429.69 387.1 429.92C386.89 430.15 386.61 430.27 386.26 430.27C385.93 430.27 385.66 430.15 385.45 429.92C385.24 429.69 385.13 429.34 385.13 428.87V420.42L383.17 428.22C383.04 428.73 382.94 429.1 382.86 429.33C382.78 429.57 382.63 429.78 382.41 429.98C382.19 430.18 381.89 430.27 381.51 430.27C381.22 430.27 380.98 430.21 380.77 430.08C380.57 429.96 380.41 429.8 380.3 429.6C380.19 429.41 380.1 429.19 380.04 428.95C379.98 428.71 379.91 428.47 379.84 428.21L379.83 428.23Z" fill="white"/>
<path d="M398.01 419.74H392.42V422.75H397.56C397.94 422.75 398.22 422.83 398.41 423.01C398.6 423.18 398.69 423.4 398.69 423.68C398.69 423.96 398.6 424.18 398.41 424.36C398.23 424.54 397.94 424.62 397.56 424.62H392.42V428.1H398.2C398.59 428.1 398.88 428.19 399.08 428.37C399.28 428.55 399.38 428.79 399.38 429.09C399.38 429.39 399.28 429.62 399.08 429.8C398.88 429.98 398.59 430.07 398.2 430.07H391.46C390.92 430.07 390.53 429.95 390.29 429.71C390.05 429.47 389.94 429.08 389.94 428.55V419.35C389.94 418.99 389.99 418.7 390.1 418.48C390.21 418.25 390.37 418.09 390.6 417.99C390.83 417.89 391.11 417.84 391.46 417.84H398.01C398.4 417.84 398.7 417.93 398.89 418.1C399.08 418.28 399.18 418.51 399.18 418.79C399.18 419.07 399.08 419.31 398.89 419.49C398.7 419.67 398.4 419.75 398.01 419.75V419.74Z" fill="white"/>
<path d="M404.58 419.11L409.35 426.32V419.04C409.35 418.57 409.45 418.21 409.65 417.98C409.85 417.74 410.13 417.63 410.47 417.63C410.81 417.63 411.11 417.75 411.31 417.98C411.52 418.22 411.62 418.57 411.62 419.04V428.67C411.62 429.74 411.18 430.28 410.28 430.28C410.06 430.28 409.86 430.25 409.68 430.18C409.5 430.11 409.33 430.01 409.18 429.87C409.02 429.73 408.88 429.57 408.75 429.38C408.62 429.19 408.48 429 408.35 428.81L403.7 421.68V428.85C403.7 429.32 403.59 429.67 403.37 429.91C403.15 430.15 402.87 430.27 402.53 430.27C402.19 430.27 401.9 430.15 401.69 429.91C401.48 429.67 401.37 429.32 401.37 428.85V419.41C401.37 419.01 401.41 418.7 401.5 418.47C401.61 418.22 401.78 418.02 402.03 417.86C402.27 417.7 402.54 417.62 402.82 417.62C403.04 417.62 403.23 417.66 403.39 417.73C403.55 417.8 403.69 417.9 403.81 418.02C403.93 418.14 404.05 418.3 404.18 418.5C404.3 418.7 404.43 418.9 404.57 419.11H404.58Z" fill="white"/>
<path d="M422.29 419.87H419.58V428.76C419.58 429.27 419.47 429.65 419.24 429.9C419.01 430.15 418.72 430.27 418.36 430.27C418 430.27 417.69 430.15 417.46 429.89C417.23 429.64 417.11 429.26 417.11 428.75V419.86H414.4C413.98 419.86 413.66 419.77 413.46 419.58C413.25 419.39 413.15 419.15 413.15 418.84C413.15 418.53 413.26 418.27 413.47 418.09C413.68 417.91 413.99 417.81 414.4 417.81H422.28C422.71 417.81 423.03 417.9 423.24 418.09C423.45 418.28 423.55 418.53 423.55 418.83C423.55 419.13 423.44 419.38 423.23 419.57C423.02 419.76 422.7 419.85 422.28 419.85L422.29 419.87Z" fill="white"/>
<path d="M437.37 419.74H431.78V422.75H436.92C437.3 422.75 437.58 422.83 437.77 423.01C437.96 423.18 438.05 423.4 438.05 423.68C438.05 423.96 437.96 424.18 437.77 424.36C437.59 424.54 437.3 424.62 436.92 424.62H431.78V428.1H437.56C437.95 428.1 438.24 428.19 438.44 428.37C438.64 428.55 438.74 428.79 438.74 429.09C438.74 429.39 438.64 429.62 438.44 429.8C438.24 429.98 437.95 430.07 437.56 430.07H430.82C430.28 430.07 429.89 429.95 429.65 429.71C429.41 429.47 429.3 429.08 429.3 428.55V419.35C429.3 418.99 429.35 418.7 429.46 418.48C429.57 418.25 429.73 418.09 429.96 417.99C430.19 417.89 430.47 417.84 430.82 417.84H437.37C437.76 417.84 438.06 417.93 438.25 418.1C438.44 418.28 438.54 418.51 438.54 418.79C438.54 419.07 438.44 419.31 438.25 419.49C438.06 419.67 437.76 419.75 437.37 419.75V419.74Z" fill="white"/>
<path d="M443.94 419.11L448.711 426.32V419.04C448.711 418.57 448.81 418.21 449.01 417.98C449.21 417.74 449.491 417.63 449.831 417.63C450.171 417.63 450.47 417.75 450.67 417.98C450.88 418.22 450.98 418.57 450.98 419.04V428.67C450.98 429.74 450.541 430.28 449.641 430.28C449.421 430.28 449.22 430.25 449.04 430.18C448.86 430.11 448.69 430.01 448.54 429.87C448.38 429.73 448.24 429.57 448.11 429.38C447.98 429.19 447.841 429 447.711 428.81L443.06 421.68V428.85C443.06 429.32 442.95 429.67 442.73 429.91C442.51 430.15 442.231 430.27 441.891 430.27C441.551 430.27 441.26 430.15 441.05 429.91C440.84 429.67 440.73 429.32 440.73 428.85V419.41C440.73 419.01 440.77 418.7 440.86 418.47C440.97 418.22 441.141 418.02 441.391 417.86C441.631 417.7 441.9 417.62 442.18 417.62C442.4 417.62 442.59 417.66 442.75 417.73C442.91 417.8 443.05 417.9 443.17 418.02C443.29 418.14 443.41 418.3 443.54 418.5C443.66 418.7 443.79 418.9 443.93 419.11H443.94Z" fill="white"/>
<path d="M461.66 419.87H458.951V428.76C458.951 429.27 458.84 429.65 458.61 429.9C458.38 430.15 458.09 430.27 457.73 430.27C457.37 430.27 457.061 430.15 456.831 429.89C456.601 429.64 456.48 429.26 456.48 428.75V419.86H453.771C453.351 419.86 453.031 419.77 452.831 419.58C452.621 419.39 452.521 419.15 452.521 418.84C452.521 418.53 452.631 418.27 452.841 418.09C453.051 417.91 453.361 417.81 453.771 417.81H461.651C462.081 417.81 462.4 417.9 462.61 418.09C462.82 418.28 462.92 418.53 462.92 418.83C462.92 419.13 462.81 419.38 462.6 419.57C462.39 419.76 462.071 419.85 461.651 419.85L461.66 419.87Z" fill="white"/>
<path d="M467.73 424.84H466.86V428.77C466.86 429.29 466.74 429.67 466.52 429.91C466.29 430.16 465.99 430.28 465.63 430.28C465.23 430.28 464.93 430.15 464.71 429.9C464.49 429.64 464.38 429.27 464.38 428.77V419.35C464.38 418.82 464.5 418.43 464.74 418.19C464.98 417.95 465.37 417.83 465.9 417.83H469.93C470.49 417.83 470.96 417.85 471.36 417.9C471.76 417.95 472.11 418.04 472.43 418.19C472.81 418.35 473.15 418.58 473.45 418.88C473.75 419.18 473.97 419.53 474.12 419.93C474.27 420.33 474.35 420.75 474.35 421.2C474.35 422.11 474.09 422.84 473.58 423.39C473.06 423.94 472.28 424.32 471.24 424.55C471.68 424.78 472.1 425.13 472.5 425.59C472.9 426.05 473.26 426.53 473.57 427.05C473.88 427.56 474.13 428.03 474.31 428.44C474.49 428.86 474.57 429.14 474.57 429.3C474.57 429.46 474.52 429.62 474.42 429.78C474.32 429.94 474.18 430.06 474 430.16C473.82 430.25 473.62 430.3 473.38 430.3C473.1 430.3 472.87 430.23 472.68 430.1C472.49 429.97 472.33 429.8 472.19 429.6C472.05 429.4 471.87 429.1 471.63 428.72L470.64 427.07C470.28 426.46 469.96 426 469.68 425.68C469.4 425.36 469.11 425.15 468.82 425.03C468.53 424.91 468.17 424.85 467.73 424.85V424.84ZM469.14 419.69H466.85V423.06H469.07C469.67 423.06 470.17 423.01 470.57 422.91C470.98 422.81 471.29 422.63 471.5 422.38C471.71 422.13 471.82 421.79 471.82 421.36C471.82 421.02 471.73 420.72 471.56 420.46C471.39 420.2 471.15 420.01 470.84 419.88C470.55 419.76 469.98 419.7 469.13 419.7L469.14 419.69Z" fill="white"/>
<path d="M484.76 419.74H479.17V422.75H484.31C484.69 422.75 484.97 422.83 485.16 423.01C485.35 423.18 485.44 423.4 485.44 423.68C485.44 423.96 485.35 424.18 485.16 424.36C484.98 424.54 484.69 424.62 484.31 424.62H479.17V428.1H484.95C485.34 428.1 485.63 428.19 485.83 428.37C486.03 428.55 486.13 428.79 486.13 429.09C486.13 429.39 486.03 429.62 485.83 429.8C485.63 429.98 485.34 430.07 484.95 430.07H478.21C477.67 430.07 477.28 429.95 477.04 429.71C476.8 429.47 476.69 429.08 476.69 428.55V419.35C476.69 418.99 476.74 418.7 476.85 418.48C476.96 418.25 477.12 418.09 477.35 417.99C477.58 417.89 477.86 417.84 478.21 417.84H484.76C485.15 417.84 485.45 417.93 485.64 418.1C485.83 418.28 485.93 418.51 485.93 418.79C485.93 419.07 485.83 419.31 485.64 419.49C485.45 419.67 485.15 419.75 484.76 419.75V419.74Z" fill="white"/>
<path d="M492.85 425.3H490.58V428.77C490.58 429.27 490.46 429.64 490.23 429.9C490 430.16 489.7 430.28 489.35 430.28C489 430.28 488.68 430.15 488.45 429.9C488.22 429.65 488.11 429.27 488.11 428.78V419.34C488.11 418.79 488.23 418.4 488.49 418.17C488.74 417.94 489.14 417.82 489.68 417.82H492.86C493.8 417.82 494.52 417.89 495.03 418.04C495.53 418.18 495.96 418.41 496.33 418.73C496.69 419.05 496.97 419.45 497.16 419.92C497.35 420.39 497.44 420.91 497.44 421.5C497.44 422.75 497.06 423.69 496.29 424.33C495.52 424.97 494.38 425.29 492.86 425.29L492.85 425.3ZM492.25 419.69H490.58V423.43H492.25C492.83 423.43 493.32 423.37 493.72 423.25C494.11 423.13 494.41 422.93 494.62 422.65C494.83 422.37 494.93 422.01 494.93 421.56C494.93 421.02 494.77 420.58 494.45 420.24C494.09 419.88 493.36 419.7 492.25 419.7V419.69Z" fill="white"/>
<path d="M502.84 424.84H501.97V428.77C501.97 429.29 501.85 429.67 501.63 429.91C501.4 430.16 501.1 430.28 500.74 430.28C500.34 430.28 500.04 430.15 499.82 429.9C499.6 429.64 499.49 429.27 499.49 428.77V419.35C499.49 418.82 499.61 418.43 499.85 418.19C500.09 417.95 500.48 417.83 501.01 417.83H505.04C505.6 417.83 506.07 417.85 506.47 417.9C506.87 417.95 507.22 418.04 507.54 418.19C507.92 418.35 508.26 418.58 508.56 418.88C508.86 419.18 509.08 419.53 509.23 419.93C509.38 420.33 509.46 420.75 509.46 421.2C509.46 422.11 509.2 422.84 508.69 423.39C508.17 423.94 507.39 424.32 506.35 424.55C506.79 424.78 507.21 425.13 507.61 425.59C508.01 426.05 508.37 426.53 508.68 427.05C508.99 427.56 509.24 428.03 509.42 428.44C509.6 428.86 509.68 429.14 509.68 429.3C509.68 429.46 509.63 429.62 509.53 429.78C509.43 429.94 509.29 430.06 509.11 430.16C508.93 430.25 508.73 430.3 508.49 430.3C508.21 430.3 507.98 430.23 507.79 430.1C507.6 429.97 507.44 429.8 507.3 429.6C507.16 429.4 506.98 429.1 506.74 428.72L505.75 427.07C505.39 426.46 505.07 426 504.79 425.68C504.51 425.36 504.22 425.15 503.93 425.03C503.64 424.91 503.28 424.85 502.84 424.85V424.84ZM504.26 419.69H501.97V423.06H504.19C504.79 423.06 505.29 423.01 505.69 422.91C506.1 422.81 506.41 422.63 506.62 422.38C506.83 422.13 506.94 421.79 506.94 421.36C506.94 421.02 506.85 420.72 506.68 420.46C506.51 420.2 506.27 420.01 505.96 419.88C505.67 419.76 505.1 419.7 504.25 419.7L504.26 419.69Z" fill="white"/>
<path d="M519.87 419.74H514.28V422.75H519.42C519.8 422.75 520.08 422.83 520.27 423.01C520.46 423.18 520.55 423.4 520.55 423.68C520.55 423.96 520.46 424.18 520.27 424.36C520.09 424.54 519.8 424.62 519.42 424.62H514.28V428.1H520.06C520.45 428.1 520.74 428.19 520.94 428.37C521.14 428.55 521.24 428.79 521.24 429.09C521.24 429.39 521.14 429.62 520.94 429.8C520.74 429.98 520.45 430.07 520.06 430.07H513.32C512.78 430.07 512.39 429.95 512.15 429.71C511.91 429.47 511.8 429.08 511.8 428.55V419.35C511.8 418.99 511.85 418.7 511.96 418.48C512.07 418.25 512.23 418.09 512.46 417.99C512.69 417.89 512.97 417.84 513.32 417.84H519.87C520.26 417.84 520.56 417.93 520.75 418.1C520.94 418.28 521.04 418.51 521.04 418.79C521.04 419.07 520.94 419.31 520.75 419.49C520.56 419.67 520.26 419.75 519.87 419.75V419.74Z" fill="white"/>
<path d="M526.44 419.11L531.211 426.32V419.04C531.211 418.57 531.31 418.21 531.51 417.98C531.71 417.74 531.991 417.63 532.331 417.63C532.671 417.63 532.97 417.75 533.17 417.98C533.38 418.22 533.48 418.57 533.48 419.04V428.67C533.48 429.74 533.041 430.28 532.141 430.28C531.921 430.28 531.72 430.25 531.54 430.18C531.36 430.11 531.19 430.01 531.04 429.87C530.88 429.73 530.74 429.57 530.61 429.38C530.48 429.19 530.341 429 530.211 428.81L525.56 421.68V428.85C525.56 429.32 525.45 429.67 525.23 429.91C525.01 430.15 524.731 430.27 524.391 430.27C524.051 430.27 523.76 430.15 523.55 429.91C523.34 429.67 523.23 429.32 523.23 428.85V419.41C523.23 419.01 523.27 418.7 523.36 418.47C523.47 418.22 523.641 418.02 523.891 417.86C524.131 417.7 524.4 417.62 524.68 417.62C524.9 417.62 525.09 417.66 525.25 417.73C525.41 417.8 525.55 417.9 525.67 418.02C525.79 418.14 525.91 418.3 526.04 418.5C526.16 418.7 526.29 418.9 526.43 419.11H526.44Z" fill="white"/>
<path d="M544.27 419.74H538.68V422.75H543.82C544.2 422.75 544.48 422.83 544.67 423.01C544.86 423.18 544.95 423.4 544.95 423.68C544.95 423.96 544.86 424.18 544.67 424.36C544.49 424.54 544.2 424.62 543.82 424.62H538.68V428.1H544.46C544.85 428.1 545.14 428.19 545.34 428.37C545.54 428.55 545.64 428.79 545.64 429.09C545.64 429.39 545.54 429.62 545.34 429.8C545.14 429.98 544.85 430.07 544.46 430.07H537.72C537.18 430.07 536.79 429.95 536.55 429.71C536.31 429.47 536.2 429.08 536.2 428.55V419.35C536.2 418.99 536.25 418.7 536.36 418.48C536.47 418.25 536.63 418.09 536.86 417.99C537.09 417.89 537.37 417.84 537.72 417.84H544.27C544.66 417.84 544.96 417.93 545.15 418.1C545.34 418.28 545.44 418.51 545.44 418.79C545.44 419.07 545.34 419.31 545.15 419.49C544.96 419.67 544.66 419.75 544.27 419.75V419.74Z" fill="white"/>
<path d="M547.63 425.01V419.12C547.63 418.62 547.74 418.24 547.97 417.99C548.2 417.74 548.49 417.61 548.86 417.61C549.23 417.61 549.55 417.73 549.77 417.99C550 418.24 550.11 418.62 550.11 419.12V425.14C550.11 425.83 550.19 426.4 550.34 426.86C550.49 427.32 550.76 427.68 551.15 427.93C551.54 428.18 552.08 428.31 552.79 428.31C553.76 428.31 554.44 428.05 554.84 427.54C555.24 427.02 555.44 426.24 555.44 425.2V419.13C555.44 418.62 555.55 418.25 555.78 418C556 417.75 556.3 417.63 556.67 417.63C557.04 417.63 557.35 417.75 557.58 418C557.81 418.25 557.93 418.63 557.93 419.13V425.02C557.93 425.98 557.84 426.78 557.65 427.42C557.46 428.06 557.11 428.62 556.59 429.11C556.14 429.52 555.63 429.82 555.04 430.01C554.45 430.2 553.76 430.29 552.97 430.29C552.03 430.29 551.22 430.19 550.54 429.98C549.86 429.77 549.31 429.46 548.88 429.04C548.45 428.62 548.14 428.07 547.94 427.4C547.74 426.74 547.64 425.94 547.64 425.02L547.63 425.01Z" fill="white"/>
<path d="M563.94 424.84H563.07V428.77C563.07 429.29 562.95 429.67 562.73 429.91C562.5 430.16 562.2 430.28 561.84 430.28C561.44 430.28 561.14 430.15 560.92 429.9C560.7 429.64 560.59 429.27 560.59 428.77V419.35C560.59 418.82 560.71 418.43 560.95 418.19C561.19 417.95 561.58 417.83 562.11 417.83H566.14C566.7 417.83 567.17 417.85 567.57 417.9C567.97 417.95 568.32 418.04 568.64 418.19C569.02 418.35 569.36 418.58 569.66 418.88C569.96 419.18 570.18 419.53 570.33 419.93C570.48 420.33 570.56 420.75 570.56 421.2C570.56 422.11 570.3 422.84 569.79 423.39C569.27 423.94 568.49 424.32 567.45 424.55C567.89 424.78 568.31 425.13 568.71 425.59C569.11 426.05 569.47 426.53 569.78 427.05C570.09 427.56 570.34 428.03 570.52 428.44C570.7 428.86 570.78 429.14 570.78 429.3C570.78 429.46 570.73 429.62 570.63 429.78C570.53 429.94 570.39 430.06 570.21 430.16C570.03 430.25 569.83 430.3 569.59 430.3C569.31 430.3 569.08 430.23 568.89 430.1C568.7 429.97 568.54 429.8 568.4 429.6C568.26 429.4 568.08 429.1 567.84 428.72L566.85 427.07C566.49 426.46 566.17 426 565.89 425.68C565.61 425.36 565.32 425.15 565.03 425.03C564.74 424.91 564.38 424.85 563.94 424.85V424.84ZM565.36 419.69H563.07V423.06H565.29C565.89 423.06 566.39 423.01 566.79 422.91C567.2 422.81 567.51 422.63 567.72 422.38C567.93 422.13 568.04 421.79 568.04 421.36C568.04 421.02 567.95 420.72 567.78 420.46C567.61 420.2 567.37 420.01 567.06 419.88C566.77 419.76 566.2 419.7 565.35 419.7L565.36 419.69Z" fill="white"/>
<path d="M582.21 426.4C582.21 427.14 582.02 427.81 581.64 428.4C581.26 428.99 580.7 429.45 579.97 429.79C579.23 430.12 578.36 430.29 577.36 430.29C576.15 430.29 575.16 430.06 574.37 429.6C573.81 429.27 573.36 428.83 573.01 428.29C572.66 427.74 572.49 427.21 572.49 426.69C572.49 426.39 572.59 426.13 572.8 425.92C573.01 425.71 573.27 425.6 573.6 425.6C573.86 425.6 574.08 425.68 574.26 425.85C574.44 426.02 574.6 426.27 574.72 426.59C574.87 426.98 575.04 427.3 575.22 427.57C575.4 427.84 575.66 428.05 575.98 428.22C576.31 428.39 576.74 428.48 577.27 428.48C578.01 428.48 578.6 428.31 579.06 427.97C579.52 427.63 579.75 427.2 579.75 426.69C579.75 426.28 579.63 425.95 579.38 425.7C579.13 425.45 578.81 425.25 578.42 425.12C578.03 424.99 577.5 424.84 576.84 424.7C575.96 424.49 575.22 424.25 574.63 423.98C574.04 423.71 573.57 423.33 573.22 422.85C572.87 422.37 572.7 421.78 572.7 421.08C572.7 420.38 572.88 419.81 573.25 419.29C573.62 418.77 574.15 418.36 574.84 418.08C575.54 417.8 576.35 417.66 577.3 417.66C578.05 417.66 578.7 417.75 579.25 417.94C579.8 418.13 580.25 418.37 580.61 418.68C580.97 418.99 581.24 419.31 581.4 419.65C581.57 419.99 581.65 420.32 581.65 420.64C581.65 420.94 581.55 421.2 581.34 421.44C581.13 421.68 580.87 421.8 580.56 421.8C580.28 421.8 580.06 421.73 579.91 421.59C579.76 421.45 579.6 421.22 579.43 420.89C579.21 420.43 578.94 420.07 578.63 419.81C578.32 419.55 577.82 419.42 577.13 419.42C576.49 419.42 575.97 419.56 575.58 419.84C575.19 420.12 574.99 420.46 574.99 420.85C574.99 421.1 575.06 421.31 575.19 421.48C575.32 421.66 575.51 421.81 575.74 421.94C575.97 422.07 576.21 422.17 576.45 422.24C576.69 422.31 577.08 422.42 577.64 422.56C578.33 422.72 578.96 422.9 579.51 423.09C580.07 423.28 580.55 423.52 580.94 423.8C581.33 424.08 581.64 424.43 581.86 424.86C582.08 425.29 582.19 425.81 582.19 426.43L582.21 426.4Z" fill="white"/>
<path d="M586.811 419.12V422.63H592.161V419.12C592.161 418.62 592.271 418.24 592.501 417.99C592.731 417.74 593.021 417.61 593.391 417.61C593.761 417.61 594.061 417.73 594.291 417.98C594.521 418.23 594.641 418.61 594.641 419.11V428.76C594.641 429.27 594.521 429.64 594.291 429.9C594.061 430.15 593.761 430.28 593.391 430.28C593.021 430.28 592.721 430.15 592.501 429.9C592.281 429.65 592.171 429.27 592.171 428.77V424.65H586.821V428.77C586.821 429.28 586.701 429.65 586.471 429.91C586.241 430.16 585.941 430.29 585.571 430.29C585.201 430.29 584.901 430.16 584.681 429.91C584.461 429.66 584.351 429.28 584.351 428.78V419.13C584.351 418.63 584.461 418.25 584.681 418C584.901 417.75 585.201 417.62 585.581 417.62C585.961 417.62 586.251 417.74 586.491 417.99C586.721 418.24 586.841 418.62 586.841 419.12H586.811Z" fill="white"/>
<path d="M597.41 428.77V419.12C597.41 418.62 597.52 418.24 597.75 417.99C597.98 417.74 598.27 417.61 598.64 417.61C599.01 417.61 599.31 417.73 599.54 417.98C599.77 418.23 599.89 418.61 599.89 419.11V428.76C599.89 429.27 599.77 429.64 599.54 429.9C599.31 430.15 599.01 430.28 598.64 430.28C598.27 430.28 597.99 430.15 597.76 429.9C597.53 429.65 597.41 429.27 597.41 428.77Z" fill="white"/>
<path d="M607.41 425.3H605.14V428.77C605.14 429.27 605.02 429.64 604.79 429.9C604.56 430.16 604.26 430.28 603.91 430.28C603.56 430.28 603.24 430.15 603.01 429.9C602.78 429.65 602.67 429.27 602.67 428.78V419.34C602.67 418.79 602.79 418.4 603.05 418.17C603.3 417.94 603.7 417.82 604.24 417.82H607.42C608.36 417.82 609.08 417.89 609.59 418.04C610.09 418.18 610.52 418.41 610.89 418.73C611.25 419.05 611.53 419.45 611.72 419.92C611.91 420.39 612 420.91 612 421.5C612 422.75 611.62 423.69 610.85 424.33C610.08 424.97 608.94 425.29 607.42 425.29L607.41 425.3ZM606.81 419.69H605.14V423.43H606.81C607.39 423.43 607.88 423.37 608.28 423.25C608.67 423.13 608.97 422.93 609.18 422.65C609.39 422.37 609.49 422.01 609.49 421.56C609.49 421.02 609.33 420.58 609.01 420.24C608.65 419.88 607.92 419.7 606.81 419.7V419.69Z" fill="white"/>
<path d="M153.93 171.11C153.25 173.37 152.18 175.4 150.92 177.18C150.36 177.73 149.79 178.27 149.22 178.78C141.89 185.44 133.57 189.36 124.85 190.94C99.1402 195.66 70.0202 180.07 53.0302 154.46C29.8702 119.55 -0.00976562 97.0001 -0.00976562 97.0001L0.0502396 96.8001C0.0502396 96.8001 37.4502 98.1801 77.4702 85.7101C78.7502 85.3001 80.0602 84.9501 81.3702 84.6201C81.5602 88.9301 81.6402 93.3901 81.5902 97.9101C81.3402 119.54 88.8402 140.45 101.65 154.64C101.84 154.86 102.05 155.08 102.25 155.3C107.09 160.52 112.67 164.79 118.86 167.79C119.8 168.26 120.77 168.68 121.74 169.08C126.68 171.11 131.99 172.35 137.59 172.63C141.34 172.82 145.22 172.6 149.22 171.89C150.64 171.66 152.09 171.34 153.54 170.98C153.68 171.04 153.79 171.09 153.93 171.12V171.11Z" fill="#D7DF23"/>
<path d="M348.38 97.0001C348.38 97.0001 318.5 119.55 295.35 154.46C278.37 180.06 249.26 195.65 223.54 190.97C214.82 189.39 206.49 185.47 199.16 178.81C198.57 178.28 197.99 177.73 197.41 177.16C197.42 177.17 197.43 177.18 197.44 177.18C196.19 175.42 195.12 173.4 194.44 171.14C194.58 171.11 194.74 171.03 194.88 170.97C196.32 171.34 197.75 171.64 199.16 171.88C203.16 172.58 207.04 172.8 210.78 172.61C216.38 172.33 221.68 171.1 226.64 169.07C227.61 168.67 228.57 168.25 229.51 167.78C235.7 164.79 241.28 160.51 246.13 155.28C246.33 155.07 246.53 154.85 246.72 154.64C259.52 140.46 267.02 119.54 266.75 97.9001C266.7 93.3801 266.78 88.9301 266.97 84.5801C268.28 84.9001 269.6 85.2901 270.9 85.7001C310.92 98.1801 348.33 96.7901 348.33 96.7901L348.38 96.9901V97.0001Z" fill="#D7DF23"/>
<path d="M153.55 170.97C111.65 181.61 81.0804 141.18 81.6004 97.8999C81.6604 93.3899 81.5704 88.9299 81.3804 84.6099C79.6804 48.7699 70.1504 20.5299 70.1504 20.5299L70.2904 20.4199C70.2904 20.4199 100.44 42.5899 140.54 54.8399C142.51 55.4399 144.45 56.0999 146.33 56.8299C143.65 60.9599 140.78 65.0899 137.7 69.2199C133.95 74.2199 130.75 79.5499 128.19 85.0799C112.66 118.05 118.49 157.49 153.56 170.97H153.55Z" fill="#8DC63F"/>
<path d="M278.23 20.5299C278.23 20.5299 268.69 48.7399 266.97 84.5799C266.78 88.9299 266.7 93.3799 266.75 97.8999C267.3 141.18 236.76 181.58 194.88 170.97C199.91 169.03 204.36 166.54 208.22 163.62C209.31 162.8 210.35 161.92 211.36 161.02C222.95 150.61 228.31 135.74 228.31 119.85C228.31 118.78 228.28 117.71 228.23 116.65C228.2 115.58 228.12 114.49 228.01 113.4V113.37C227.93 112.39 227.82 111.37 227.68 110.36C227.49 108.94 227.27 107.49 226.99 106.07C226.86 105.28 226.69 104.51 226.53 103.72C226.42 103.15 226.28 102.55 226.12 101.97C225.82 100.66 225.49 99.3499 225.08 98.0399C224.45 95.8299 223.72 93.6699 222.9 91.4999C222.65 90.7599 222.35 90.0499 222.05 89.3399C221.48 87.9199 220.85 86.4999 220.19 85.0799C220.05 84.8099 219.94 84.5299 219.8 84.2799C219.48 83.5499 219.12 82.8399 218.73 82.1199C218.55 81.7299 218.35 81.3499 218.13 80.9699C217.99 80.7199 217.85 80.4499 217.72 80.2099C217.34 79.4999 216.92 78.7799 216.52 78.0699C215.37 76.0799 214.11 74.1099 212.8 72.1699C212.11 71.1799 211.41 70.2099 210.66 69.2199C207.57 65.0899 204.7 60.9599 202.03 56.8299C203.92 56.0899 205.85 55.4399 207.82 54.8399C247.93 42.5999 278.08 20.4199 278.08 20.4199L278.21 20.5299H278.23Z" fill="#8DC63F"/>
<path d="M228.23 116.65C228.2 115.58 228.12 114.49 228.01 113.4V113.37C227.93 112.39 227.82 111.37 227.68 110.36C227.49 108.94 227.27 107.49 226.99 106.07C226.86 105.28 226.69 104.51 226.53 103.72C226.42 103.15 226.28 102.55 226.12 101.97C225.82 100.66 225.46 99.35 225.08 98.04C224.45 95.83 223.72 93.67 222.9 91.5C222.63 90.79 222.35 90.05 222.05 89.34C221.48 87.92 220.85 86.5 220.19 85.08C220.05 84.81 219.94 84.53 219.8 84.28C219.48 83.55 219.12 82.84 218.73 82.12C218.55 81.73 218.35 81.35 218.13 80.97C217.99 80.72 217.85 80.45 217.72 80.21C217.34 79.5 216.92 78.78 216.52 78.07C215.37 76.08 214.11 74.08 212.8 72.17C212.11 71.18 211.41 70.21 210.66 69.22C207.57 65.09 204.7 60.96 202.03 56.83C182.92 27.48 174.26 0 174.26 0H174.07C174.07 0 165.43 27.48 146.32 56.83C143.64 60.96 140.77 65.09 137.69 69.22C133.94 74.22 130.74 79.55 128.18 85.08C112.65 118.05 118.48 157.49 153.55 170.97C153.69 171.03 153.8 171.08 153.93 171.11C153.25 173.37 152.18 175.4 150.92 177.18C150.98 177.15 151.03 177.12 151.06 177.1C157.16 171.66 165.17 168.32 173.97 168.32H174.41C183.21 168.32 191.22 171.66 197.32 177.1C197.35 177.12 197.37 177.12 197.4 177.15C197.4 177.15 197.41 177.16 197.42 177.16C197.43 177.17 197.44 177.18 197.45 177.18C196.2 175.42 195.13 173.4 194.45 171.14C194.43 171.06 194.41 170.99 194.39 170.91C194.41 170.98 194.43 171.06 194.45 171.14C194.59 171.11 194.75 171.03 194.89 170.97C199.92 169.03 204.37 166.54 208.23 163.62C209.32 162.8 210.36 161.92 211.37 161.02C222.96 150.61 228.32 135.74 228.32 119.85C228.32 118.78 228.29 117.72 228.24 116.65H228.23Z" fill="#39B54A"/>
<path d="M204.77 148.45L204.06 148.16L204.92 148.22L220.53 149.37L206.25 145.77L204.93 145.43L206.46 145.33L240.09 143.06L208.7 139.69L204.62 139.25L209.18 138.27L220.76 135.77L209.82 136.19L204.68 136.38L210.34 134.29L237.75 124.2L211.42 128.96L202.65 130.54L210.41 126.32L217.16 122.66L209.24 125.31L201.9 127.78L206.59 124.3L230.2 106.77L206.85 118.46L198.3 122.74L206.63 114.43L209.99 111.08L206.53 113.5L196.81 120.29L205.69 108.52L218.03 92.1701L204.59 104.69L191.93 116.49L199.87 102.01L189.8 114.56L197.74 93.5301L202.25 81.5901L196.08 91.9901L184.06 112.27L187.59 96.1401L181.47 111.01L184.13 75.8701L175.31 110.43L174.18 94.2601V93.9701V94.1101L174.16 93.9701V94.2601L173.03 110.43L164.21 75.8701L166.87 111.01L160.75 96.1401L164.28 112.27L152.26 91.9901L146.09 81.5901L150.6 93.5201L158.54 114.56L148.47 102.01L156.41 116.49L143.75 104.69L130.31 92.1701L142.65 108.52L151.53 120.29L141.81 113.5L138.35 111.08L141.71 114.43L150.04 122.74L141.49 118.46L118.14 106.77L141.75 124.3L146.44 127.78L139.1 125.32L131.18 122.66L137.93 126.32L145.69 130.54L136.92 128.96L110.59 124.2L138 134.29L143.66 136.38L138.52 136.19L127.58 135.77L139.16 138.27L143.72 139.25L139.64 139.69L108.25 143.06L141.88 145.33L143.41 145.43L142.09 145.77L127.81 149.37L143.42 148.22L144.28 148.16L143.57 148.45L111.32 161.8L145.73 154.18L131.87 162.36L147.33 156.55L119.55 178.93L148.2 163.15L149.39 162.49L150.43 161.92L149.37 163.05L148.28 164.21L139.43 173.67L152.64 163.75L140.62 180.13L153.98 170.84L149.97 178.06L153.75 174.91C159.43 170.77 166.39 168.31 173.93 168.31H174.37C181.92 168.31 188.89 170.77 194.56 174.91L198.6 178.32L194.32 170.84L207.7 180.13L195.68 163.75L208.89 173.67L200.04 164.21L198.95 163.05L197.89 161.92L198.93 162.49L200.12 163.15L228.77 178.93L200.99 156.55L216.45 162.36L202.59 154.18L237 161.8L204.75 148.45H204.77Z" fill="#D7DF23"/>
</g>
</svg>
