<svg width="756" height="575" viewBox="0 0 756 575" fill="none" xmlns="http://www.w3.org/2000/svg">
<g clip-path="url(#clip0_723_78)">
<path d="M225.08 274.39H219.07V294.13C219.07 295.26 218.81 296.11 218.31 296.66C217.81 297.21 217.14 297.48 216.34 297.48C215.54 297.48 214.86 297.2 214.35 296.64C213.84 296.09 213.58 295.25 213.58 294.12V274.38H207.57C206.63 274.38 205.93 274.17 205.47 273.76C205.01 273.34 204.79 272.79 204.79 272.11C204.79 271.43 205.03 270.86 205.5 270.45C205.97 270.04 206.66 269.84 207.57 269.84H225.07C226.02 269.84 226.73 270.05 227.2 270.46C227.66 270.89 227.89 271.44 227.89 272.11C227.89 272.78 227.66 273.34 227.19 273.76C226.72 274.17 226.01 274.38 225.07 274.38L225.08 274.39Z" fill="white"/>
<path d="M240.01 272.72V280.5H251.89V272.72C251.89 271.6 252.15 270.77 252.64 270.21C253.14 269.66 253.8 269.38 254.61 269.38C255.42 269.38 256.11 269.65 256.62 270.2C257.14 270.75 257.39 271.59 257.39 272.72V294.13C257.39 295.26 257.14 296.1 256.62 296.65C256.1 297.21 255.43 297.49 254.62 297.49C253.81 297.49 253.13 297.21 252.64 296.64C252.14 296.08 251.89 295.24 251.89 294.13V284.99H240.01V294.13C240.01 295.26 239.75 296.1 239.23 296.65C238.71 297.21 238.05 297.49 237.23 297.49C236.41 297.49 235.74 297.21 235.25 296.64C234.75 296.08 234.5 295.24 234.5 294.13V272.72C234.5 271.6 234.75 270.77 235.24 270.21C235.73 269.66 236.4 269.38 237.23 269.38C238.06 269.38 238.73 269.65 239.24 270.2C239.75 270.75 240.01 271.59 240.01 272.72Z" fill="white"/>
<path d="M284.53 274.09H272.13V280.77H283.55C284.39 280.77 285.02 280.95 285.43 281.34C285.84 281.71 286.05 282.21 286.05 282.82C286.05 283.43 285.84 283.95 285.44 284.34C285.03 284.73 284.4 284.92 283.55 284.92H272.13V292.65H284.96C285.82 292.65 286.47 292.85 286.92 293.25C287.36 293.65 287.57 294.18 287.57 294.86C287.57 295.54 287.35 296.02 286.92 296.43C286.47 296.83 285.82 297.03 284.96 297.03H270C268.8 297.03 267.94 296.76 267.41 296.23C266.88 295.7 266.62 294.84 266.62 293.65V273.22C266.62 272.43 266.75 271.78 266.98 271.28C267.22 270.78 267.58 270.42 268.08 270.19C268.59 269.96 269.22 269.85 270 269.85H284.53C285.42 269.85 286.06 270.05 286.49 270.44C286.92 270.82 287.13 271.33 287.13 271.96C287.13 272.59 286.92 273.13 286.49 273.51C286.06 273.9 285.42 274.09 284.53 274.09Z" fill="white"/>
<path d="M112.86 460.24V413.72C112.86 411.3 113.41 409.49 114.52 408.29C115.62 407.08 117.04 406.47 118.79 406.47C120.54 406.47 122.05 407.07 123.17 408.26C124.29 409.46 124.83 411.27 124.83 413.72V460.24C124.83 462.68 124.28 464.51 123.17 465.72C122.05 466.92 120.59 467.53 118.79 467.53C116.99 467.53 115.66 466.92 114.54 465.7C113.42 464.48 112.87 462.66 112.87 460.24H112.86Z" fill="white"/>
<path d="M171.12 413.64L194.12 448.44V413.32C194.12 411.04 194.61 409.33 195.58 408.19C196.57 407.05 197.89 406.48 199.56 406.48C201.23 406.48 202.63 407.05 203.62 408.19C204.62 409.33 205.11 411.04 205.11 413.32V459.76C205.11 464.94 202.96 467.53 198.66 467.53C197.59 467.53 196.62 467.38 195.76 467.06C194.91 466.76 194.09 466.27 193.35 465.6C192.6 464.92 191.9 464.14 191.26 463.24C190.62 462.34 189.97 461.42 189.33 460.48L166.89 426.09V460.68C166.89 462.93 166.37 464.64 165.32 465.8C164.27 466.95 162.93 467.53 161.29 467.53C159.65 467.53 158.25 466.94 157.22 465.78C156.2 464.61 155.69 462.91 155.69 460.68V415.13C155.69 413.2 155.91 411.69 156.33 410.58C156.84 409.37 157.69 408.38 158.87 407.62C160.05 406.86 161.33 406.47 162.7 406.47C163.78 406.47 164.69 406.65 165.46 406.99C166.22 407.34 166.9 407.81 167.48 408.4C168.06 408.98 168.65 409.75 169.26 410.69C169.86 411.63 170.48 412.61 171.13 413.63L171.12 413.64Z" fill="white"/>
<path d="M280.39 448.81C280.39 452.38 279.47 455.59 277.63 458.44C275.79 461.29 273.1 463.51 269.55 465.13C266 466.74 261.8 467.54 256.94 467.54C251.11 467.54 246.31 466.44 242.52 464.24C239.83 462.65 237.65 460.54 235.97 457.89C234.29 455.25 233.45 452.68 233.45 450.18C233.45 448.73 233.96 447.49 234.96 446.45C235.97 445.41 237.25 444.9 238.81 444.9C240.07 444.9 241.14 445.3 242.01 446.1C242.89 446.91 243.63 448.11 244.25 449.69C245 451.57 245.82 453.14 246.69 454.4C247.57 455.67 248.79 456.71 250.38 457.53C251.96 458.35 254.04 458.75 256.62 458.75C260.16 458.75 263.03 457.93 265.26 456.27C267.47 454.62 268.58 452.56 268.58 450.09C268.58 448.14 267.98 446.54 266.79 445.32C265.59 444.1 264.05 443.17 262.16 442.52C260.27 441.88 257.73 441.2 254.57 440.47C250.32 439.48 246.77 438.32 243.91 436.98C241.06 435.65 238.78 433.85 237.11 431.55C235.43 429.26 234.59 426.4 234.59 423C234.59 419.6 235.48 416.86 237.25 414.34C239.02 411.82 241.58 409.87 244.94 408.52C248.3 407.16 252.24 406.48 256.78 406.48C260.41 406.48 263.55 406.93 266.19 407.83C268.84 408.73 271.03 409.93 272.78 411.41C274.52 412.91 275.8 414.47 276.61 416.11C277.41 417.74 277.81 419.34 277.81 420.9C277.81 422.32 277.31 423.6 276.3 424.75C275.29 425.89 274.04 426.46 272.53 426.46C271.16 426.46 270.12 426.11 269.41 425.43C268.69 424.75 267.93 423.62 267.09 422.07C266.01 419.84 264.73 418.11 263.22 416.85C261.72 415.6 259.3 414.98 255.97 414.98C252.89 414.98 250.4 415.66 248.5 417.01C246.61 418.36 245.66 419.99 245.66 421.9C245.66 423.08 245.98 424.1 246.63 424.96C247.27 425.82 248.15 426.56 249.29 427.18C250.42 427.81 251.55 428.28 252.71 428.63C253.87 428.98 255.78 429.49 258.43 430.16C261.77 430.94 264.78 431.8 267.48 432.74C270.18 433.68 272.47 434.82 274.36 436.16C276.26 437.5 277.73 439.2 278.79 441.26C279.85 443.31 280.38 445.83 280.38 448.81H280.39Z" fill="white"/>
<path d="M346.21 417.35H333.16V460.24C333.16 462.71 332.61 464.55 331.5 465.74C330.4 466.94 328.98 467.53 327.23 467.53C325.48 467.53 324.01 466.92 322.9 465.72C321.79 464.51 321.23 462.69 321.23 460.24V417.35H308.18C306.14 417.35 304.63 416.9 303.63 416C302.63 415.09 302.14 413.9 302.14 412.43C302.14 410.96 302.66 409.69 303.69 408.8C304.72 407.91 306.22 407.48 308.17 407.48H346.2C348.27 407.48 349.8 407.94 350.81 408.85C351.81 409.76 352.32 410.96 352.32 412.44C352.32 413.92 351.8 415.1 350.78 416.01C349.76 416.9 348.23 417.36 346.19 417.36L346.21 417.35Z" fill="white"/>
<path d="M377.23 460.24V413.72C377.23 411.3 377.78 409.49 378.88 408.29C379.98 407.08 381.41 406.47 383.16 406.47C384.91 406.47 386.41 407.07 387.53 408.26C388.64 409.46 389.2 411.27 389.2 413.72V460.24C389.2 462.68 388.64 464.51 387.53 465.72C386.41 466.92 384.96 467.53 383.16 467.53C381.36 467.53 380.03 466.92 378.91 465.7C377.8 464.48 377.24 462.66 377.24 460.24H377.23Z" fill="white"/>
<path d="M458.23 417.35H445.18V460.24C445.18 462.71 444.63 464.55 443.53 465.74C442.43 466.94 441.01 467.53 439.26 467.53C437.51 467.53 436.04 466.92 434.93 465.72C433.82 464.51 433.26 462.69 433.26 460.24V417.35H420.21C418.17 417.35 416.66 416.9 415.67 416C414.68 415.09 414.18 413.9 414.18 412.43C414.18 410.96 414.7 409.69 415.73 408.8C416.77 407.91 418.27 407.48 420.22 407.48H458.25C460.32 407.48 461.86 407.94 462.86 408.85C463.86 409.76 464.37 410.96 464.37 412.44C464.37 413.92 463.86 415.1 462.84 416.01C461.82 416.9 460.29 417.36 458.25 417.36L458.23 417.35Z" fill="white"/>
<path d="M488.84 442.12V413.72C488.84 411.3 489.38 409.49 490.47 408.29C491.56 407.08 492.99 406.47 494.76 406.47C496.62 406.47 498.09 407.08 499.17 408.29C500.26 409.49 500.8 411.31 500.8 413.72V442.76C500.8 446.06 501.17 448.82 501.91 451.04C502.64 453.26 503.94 454.97 505.83 456.2C507.71 457.42 510.34 458.03 513.73 458.03C518.4 458.03 521.71 456.79 523.64 454.31C525.57 451.82 526.54 448.05 526.54 443.01V413.73C526.54 411.29 527.07 409.47 528.15 408.27C529.22 407.07 530.66 406.48 532.46 406.48C534.26 406.48 535.72 407.08 536.83 408.27C537.94 409.47 538.5 411.28 538.5 413.73V442.13C538.5 446.76 538.05 450.6 537.15 453.69C536.25 456.78 534.55 459.49 532.06 461.83C529.91 463.82 527.41 465.27 524.56 466.18C521.72 467.1 518.39 467.55 514.57 467.55C510.04 467.55 506.13 467.06 502.86 466.08C499.59 465.1 496.91 463.59 494.84 461.53C492.77 459.48 491.25 456.84 490.29 453.63C489.33 450.42 488.84 446.59 488.84 442.13V442.12Z" fill="white"/>
<path d="M607.1 417.35H594.05V460.24C594.05 462.71 593.51 464.55 592.4 465.74C591.3 466.94 589.88 467.53 588.13 467.53C586.38 467.53 584.92 466.92 583.81 465.72C582.69 464.51 582.14 462.69 582.14 460.24V417.35H569.09C567.05 417.35 565.53 416.9 564.54 416C563.55 415.09 563.05 413.9 563.05 412.43C563.05 410.96 563.57 409.69 564.6 408.8C565.64 407.91 567.13 407.48 569.09 407.48H607.11C609.18 407.48 610.72 407.94 611.73 408.85C612.74 409.76 613.24 410.96 613.24 412.44C613.24 413.92 612.73 415.1 611.71 416.01C610.69 416.9 609.16 417.36 607.12 417.36L607.1 417.35Z" fill="white"/>
<path d="M676.55 416.71H649.6V431.21H674.41C676.24 431.21 677.6 431.62 678.5 432.44C679.41 433.26 679.85 434.34 679.85 435.68C679.85 437.02 679.41 438.11 678.52 438.96C677.63 439.81 676.26 440.23 674.41 440.23H649.6V457.02H677.47C679.35 457.02 680.76 457.46 681.72 458.33C682.68 459.21 683.15 460.37 683.15 461.82C683.15 463.27 682.68 464.35 681.72 465.22C680.77 466.09 679.35 466.53 677.47 466.53H644.97C642.36 466.53 640.49 465.95 639.35 464.8C638.21 463.65 637.63 461.78 637.63 459.2V414.82C637.63 413.1 637.89 411.69 638.4 410.61C638.91 409.53 639.71 408.73 640.8 408.24C641.88 407.74 643.27 407.49 644.97 407.49H676.55C678.45 407.49 679.88 407.91 680.8 408.76C681.72 409.61 682.19 410.71 682.19 412.08C682.19 413.45 681.72 414.6 680.8 415.45C679.88 416.3 678.45 416.72 676.55 416.72V416.71Z" fill="white"/>
<path fill-rule="evenodd" clip-rule="evenodd" d="M154.28 307.52C131.41 307.52 112.87 326.06 112.87 348.93C112.87 371.8 131.41 390.35 154.28 390.35C177.15 390.35 195.69 371.81 195.69 348.93C195.69 326.05 177.15 307.52 154.28 307.52ZM154.28 370.34C142.46 370.34 132.87 360.76 132.87 348.92C132.87 337.08 142.46 327.51 154.28 327.51C166.1 327.51 175.69 337.1 175.69 348.92C175.69 360.74 166.1 370.34 154.28 370.34Z" fill="white"/>
<path fill-rule="evenodd" clip-rule="evenodd" d="M132.41 309.79V301.59C132.41 290.8 123.66 282.05 112.87 282.05V331.71C116.75 322.41 123.69 314.7 132.41 309.79Z" fill="white"/>
<path fill-rule="evenodd" clip-rule="evenodd" d="M296.08 348.92C296.08 371.8 314.62 390.34 337.49 390.34C360.36 390.34 378.91 371.8 378.91 348.92C378.91 326.04 360.36 307.51 337.49 307.51C314.62 307.51 296.08 326.05 296.08 348.92ZM316.08 348.92C316.08 337.1 325.66 327.51 337.49 327.51C349.32 327.51 358.91 337.1 358.91 348.92C358.91 360.74 349.32 370.34 337.49 370.34C325.66 370.34 316.08 360.76 316.08 348.92Z" fill="white"/>
<path fill-rule="evenodd" clip-rule="evenodd" d="M359.36 309.79V301.59C359.36 290.8 368.11 282.05 378.91 282.05V331.71C375.02 322.41 368.09 314.7 359.36 309.79Z" fill="white"/>
<path fill-rule="evenodd" clip-rule="evenodd" d="M388.12 348.92C388.12 371.8 406.65 390.34 429.53 390.34C452.41 390.34 470.95 371.8 470.95 348.92C470.95 326.04 452.4 307.51 429.53 307.51C406.66 307.51 388.12 326.05 388.12 348.92ZM408.12 348.92C408.12 337.1 417.71 327.51 429.53 327.51C441.35 327.51 450.95 337.1 450.95 348.92C450.95 360.74 441.35 370.34 429.53 370.34C417.71 370.34 408.12 360.76 408.12 348.92Z" fill="white"/>
<path fill-rule="evenodd" clip-rule="evenodd" d="M451.4 309.79V301.59C451.4 290.8 460.15 282.05 470.95 282.05V331.71C467.06 322.41 460.12 314.7 451.4 309.79Z" fill="white"/>
<path fill-rule="evenodd" clip-rule="evenodd" d="M287.73 348.92V307.5C276.69 307.5 267.77 316.44 267.77 327.46V348.92H267.73C267.73 360.76 258.14 370.34 246.32 370.34C234.5 370.34 224.9 360.76 224.9 348.92H224.84V327.46C224.84 316.44 215.93 307.5 204.88 307.5V348.92H204.9C204.9 371.8 223.44 390.34 246.32 390.34C269.2 390.34 287.74 371.79 287.74 348.92H287.73Z" fill="white"/>
<path fill-rule="evenodd" clip-rule="evenodd" d="M499.69 309.79V301.59C499.69 290.8 490.94 282.05 480.16 282.05V331.71C484.04 322.41 490.97 314.7 499.69 309.79Z" fill="white"/>
<path fill-rule="evenodd" clip-rule="evenodd" d="M562.98 348.92C562.98 326.05 544.44 307.51 521.57 307.51C498.7 307.51 480.16 326.05 480.16 348.92V390.35C491.21 390.35 500.11 381.41 500.11 370.39V348.92H500.15C500.15 337.09 509.73 327.51 521.57 327.51C533.41 327.51 542.98 337.09 542.98 348.92H543.04V370.39C543.04 381.4 551.95 390.35 563.01 390.35V348.92H562.99H562.98Z" fill="white"/>
<path fill-rule="evenodd" clip-rule="evenodd" d="M683.15 380.28C683.15 385.83 678.49 390.35 672.75 390.35C672.02 390.35 671.33 390.25 670.63 390.12C669.57 390.02 668.55 389.89 667.56 389.63C665.21 389.04 662.84 388.31 660.59 387.42C658.44 386.59 656.33 385.64 654.41 384.38C651.97 382.83 649.62 381.08 647.48 379.1C645.46 377.25 643.68 375.14 642.03 372.96C640.74 371.25 639.85 369.19 638.73 367.35C637.2 364.77 636.25 361.96 635.56 359.06C635 356.82 634.64 354.5 634.44 352.19C634.34 351.3 634.34 350.41 634.31 349.52H634.28C634.28 349.45 634.28 349.35 634.31 349.25C634.28 347.83 634.21 346.41 633.91 344.98C633.91 344.95 633.88 344.95 633.88 344.92C633.91 344.92 633.91 344.88 633.95 344.88C633.55 342.9 632.92 341.02 631.99 339.27C628.46 332.3 621.26 327.51 612.91 327.51C601.09 327.51 591.48 337.12 591.48 348.94C591.48 360.76 601.09 370.34 612.91 370.34C621.19 370.34 628.37 365.65 631.93 358.75C633.52 366.21 636.98 372.95 641.84 378.53C634.37 385.86 624.17 390.35 612.91 390.35C590.02 390.35 571.5 371.79 571.5 348.94C571.5 326.09 590.02 307.52 612.91 307.52C624.31 307.52 634.57 312.11 642.07 319.58C646.39 323.9 649.8 329.15 651.88 335.07C651.91 335.07 651.91 335.04 651.91 335.04C652.07 335.47 652.21 335.93 652.37 336.36C652.41 336.49 652.44 336.59 652.47 336.72C652.57 336.98 652.67 337.28 652.77 337.58C653.83 340.62 654.29 343.75 654.39 347C654.46 348.71 654.59 350.4 654.79 352.11C654.96 353.43 655.16 354.75 655.61 355.97C656.14 357.43 656.9 358.81 657.72 360.1C658.64 361.56 659.71 362.91 660.86 364.17C662.64 366.05 664.79 367.47 667.16 368.52C668.15 368.99 669.18 369.48 670.24 369.71C671.39 369.9 672.58 370.14 673.77 370.27C679.02 370.76 683.15 375.02 683.15 380.28Z" fill="white"/>
<path d="M118.57 500.92C118.57 501.19 118.57 501.42 118.54 501.61C118.52 501.79 118.46 501.93 118.34 502.04C118.28 502.1 118.2 502.15 118.1 502.2C118 502.25 117.88 502.28 117.74 502.28C117.51 502.28 117.32 502.2 117.16 502.04C117.03 501.94 116.96 501.8 116.95 501.62C116.93 501.44 116.92 501.21 116.92 500.93V491.15H114.15C113.9 491.15 113.7 491.15 113.55 491.12C113.4 491.1 113.28 491.05 113.19 490.96C113.13 490.9 113.08 490.84 113.04 490.76C113 490.68 112.97 490.59 112.97 490.5C112.97 490.42 112.99 490.34 113.03 490.25C113.07 490.16 113.12 490.09 113.18 490.04C113.27 489.94 113.39 489.88 113.55 489.86C113.71 489.84 113.91 489.83 114.16 489.83H121.36C121.61 489.83 121.81 489.83 121.96 489.86C122.11 489.88 122.23 489.94 122.32 490.04C122.38 490.1 122.43 490.17 122.47 490.25C122.51 490.33 122.54 490.42 122.54 490.51C122.54 490.59 122.52 490.67 122.47 490.76C122.42 490.85 122.37 490.92 122.32 490.97C122.23 491.06 122.11 491.12 121.96 491.13C121.81 491.15 121.61 491.16 121.36 491.16H118.57V500.94V500.92Z" fill="white"/>
<path d="M125.86 500.91C125.86 501.16 125.86 501.34 125.84 501.45C125.82 501.56 125.81 501.66 125.79 501.75C125.73 501.93 125.63 502.07 125.47 502.15C125.31 502.23 125.16 502.28 125.02 502.28C124.86 502.28 124.71 502.23 124.57 502.13C124.43 502.03 124.33 501.9 124.27 501.74C124.25 501.66 124.23 501.54 124.23 501.37C124.23 501.21 124.23 501.05 124.23 500.9V491.19C124.23 490.88 124.24 490.64 124.27 490.45C124.3 490.27 124.36 490.13 124.45 490.04C124.54 489.95 124.68 489.89 124.86 489.86C125.04 489.83 125.29 489.82 125.59 489.82H129.49C129.49 489.82 129.65 489.82 129.83 489.82C130.01 489.82 130.22 489.84 130.45 489.87C130.68 489.9 130.93 489.95 131.18 490.02C131.44 490.09 131.67 490.19 131.87 490.31C132.36 490.61 132.74 491 133.02 491.49C133.3 491.98 133.44 492.53 133.44 493.15C133.44 493.77 133.32 494.28 133.07 494.69C132.83 495.1 132.58 495.4 132.33 495.58C131.92 495.89 131.52 496.09 131.14 496.2C130.75 496.3 130.44 496.38 130.19 496.42C130.35 496.51 130.55 496.64 130.79 496.81C131.03 496.98 131.26 497.21 131.49 497.5C131.61 497.66 131.75 497.85 131.91 498.06C132.06 498.27 132.16 498.41 132.21 498.48L133.32 500.34C133.45 500.56 133.54 500.73 133.62 500.86C133.69 500.99 133.75 501.1 133.79 501.19C133.83 501.28 133.86 501.34 133.87 501.39C133.88 501.44 133.89 501.5 133.89 501.57C133.89 501.8 133.81 501.98 133.66 502.1C133.51 502.23 133.33 502.29 133.14 502.29C133.02 502.29 132.91 502.27 132.82 502.24C132.73 502.21 132.64 502.15 132.56 502.06C132.48 501.97 132.39 501.86 132.3 501.72C132.21 501.58 132.1 501.4 131.96 501.18L130.8 499.33C130.38 498.67 130.02 498.15 129.72 497.78C129.42 497.41 129.14 497.14 128.89 496.96C128.63 496.78 128.39 496.68 128.14 496.64C127.9 496.6 127.63 496.58 127.33 496.58H125.9V500.91H125.86ZM125.86 491.09V495.26H128.72C128.91 495.26 129.18 495.25 129.52 495.23C129.86 495.21 130.2 495.13 130.54 495C130.88 494.87 131.17 494.66 131.42 494.38C131.67 494.1 131.8 493.69 131.8 493.15C131.8 492.49 131.54 491.96 131.01 491.56C130.87 491.45 130.71 491.36 130.51 491.3C130.31 491.24 130.12 491.19 129.91 491.16C129.7 491.13 129.5 491.12 129.29 491.11C129.09 491.11 128.91 491.11 128.76 491.11H125.85L125.86 491.09Z" fill="white"/>
<path d="M137.62 498.53L136.56 501.27C136.43 501.6 136.32 501.85 136.21 502.02C136.1 502.19 135.9 502.28 135.62 502.28C135.39 502.28 135.2 502.2 135.06 502.05C134.91 501.9 134.84 501.73 134.84 501.56C134.84 501.43 134.86 501.31 134.9 501.18C134.94 501.06 135 500.9 135.08 500.7L138.96 491.07C139.05 490.83 139.14 490.62 139.22 490.44C139.3 490.26 139.39 490.11 139.49 489.99C139.59 489.87 139.7 489.78 139.83 489.72C139.96 489.66 140.12 489.63 140.32 489.63C140.48 489.63 140.63 489.66 140.78 489.72C140.93 489.78 141.05 489.87 141.14 489.97C141.23 490.06 141.33 490.22 141.42 490.44C141.51 490.66 141.61 490.87 141.69 491.06L145.71 500.64C145.8 500.86 145.87 501.03 145.91 501.15C145.95 501.28 145.97 501.4 145.97 501.53C145.97 501.69 145.9 501.85 145.75 502.03C145.6 502.2 145.4 502.29 145.15 502.29C144.86 502.29 144.67 502.2 144.56 502.03C144.45 501.85 144.33 501.59 144.19 501.25L143.1 498.55H137.64L137.62 498.53ZM142.58 497.21L140.29 491.48L138.08 497.21H142.58Z" fill="white"/>
<path d="M155.78 490.94C155.77 490.68 155.77 490.49 155.78 490.37C155.79 490.25 155.83 490.13 155.88 490.02C155.93 489.93 156.01 489.84 156.13 489.75C156.25 489.66 156.39 489.62 156.55 489.62C156.78 489.62 156.97 489.7 157.13 489.86C157.24 489.96 157.31 490.1 157.33 490.26C157.35 490.43 157.36 490.65 157.36 490.94V500.62C157.36 501.04 157.35 501.35 157.32 501.54C157.29 501.73 157.19 501.9 157.02 502.04C156.83 502.2 156.6 502.28 156.35 502.28C156.21 502.28 156.1 502.26 156.01 502.23C155.92 502.2 155.83 502.14 155.74 502.06C155.65 501.98 155.57 501.88 155.47 501.75C155.38 501.63 155.27 501.47 155.15 501.29L149.18 492.38L149.25 500.97C149.25 501.24 149.25 501.44 149.25 501.55C149.25 501.66 149.21 501.78 149.16 501.89C149.11 501.98 149.03 502.07 148.9 502.16C148.77 502.25 148.63 502.29 148.47 502.29C148.24 502.29 148.05 502.21 147.89 502.05C147.78 501.95 147.71 501.81 147.69 501.65C147.67 501.48 147.66 501.26 147.66 500.97V491.22C147.66 491.02 147.66 490.84 147.66 490.7C147.66 490.56 147.68 490.44 147.69 490.34C147.71 490.24 147.74 490.16 147.78 490.08C147.83 490.01 147.89 489.93 147.97 489.87C148 489.84 148.07 489.79 148.18 489.72C148.28 489.66 148.43 489.63 148.62 489.63C148.87 489.63 149.06 489.7 149.2 489.84C149.34 489.98 149.52 490.23 149.75 490.58L155.82 499.64L155.77 490.94H155.78Z" fill="white"/>
<path d="M168.47 499.98C168.28 500.44 167.99 500.83 167.61 501.18C167.23 501.52 166.76 501.79 166.2 501.99C165.64 502.19 164.98 502.29 164.24 502.29C163.94 502.29 163.64 502.27 163.33 502.24C163.02 502.21 162.71 502.14 162.41 502.05C162.1 501.96 161.8 501.84 161.52 501.68C161.23 501.53 160.98 501.33 160.75 501.09C160.41 500.74 160.14 500.34 159.95 499.89C159.76 499.44 159.66 499.03 159.66 498.67C159.66 498.49 159.73 498.33 159.87 498.18C160.01 498.03 160.18 497.97 160.38 497.97C160.61 497.97 160.77 498.05 160.87 498.21C160.97 498.37 161.09 498.65 161.24 499.05C161.29 499.19 161.36 499.37 161.46 499.6C161.56 499.83 161.72 500.05 161.94 500.27C162.16 500.49 162.44 500.67 162.79 500.82C163.14 500.97 163.59 501.05 164.14 501.05C164.52 501.05 164.89 501 165.25 500.9C165.61 500.8 165.94 500.66 166.22 500.46C166.5 500.27 166.74 500.03 166.91 499.74C167.09 499.46 167.18 499.12 167.18 498.75C167.18 498.35 167.09 498.02 166.91 497.77C166.73 497.51 166.52 497.3 166.26 497.14C166 496.98 165.74 496.86 165.46 496.78C165.18 496.7 164.93 496.64 164.72 496.59C164.15 496.47 163.68 496.36 163.31 496.27C162.94 496.18 162.62 496.09 162.36 496C162.1 495.91 161.87 495.82 161.68 495.73C161.49 495.63 161.31 495.51 161.12 495.36C161.02 495.28 160.9 495.17 160.76 495.04C160.62 494.9 160.5 494.73 160.38 494.54C160.27 494.34 160.17 494.11 160.09 493.86C160.01 493.6 159.97 493.31 159.97 492.98C159.97 492.42 160.08 491.93 160.31 491.51C160.54 491.09 160.84 490.74 161.23 490.46C161.61 490.18 162.06 489.97 162.56 489.84C163.06 489.71 163.59 489.64 164.14 489.64C164.46 489.64 164.79 489.67 165.14 489.72C165.49 489.77 165.83 489.86 166.17 489.98C166.51 490.11 166.82 490.28 167.12 490.51C167.42 490.74 167.67 491.03 167.87 491.38C167.98 491.57 168.08 491.78 168.15 492.01C168.22 492.24 168.26 492.45 168.26 492.64C168.26 492.82 168.19 493 168.06 493.18C167.93 493.36 167.75 493.44 167.52 493.44C167.26 493.44 167.08 493.35 166.97 493.18C166.87 493 166.78 492.82 166.71 492.62C166.62 492.37 166.52 492.15 166.42 491.95C166.32 491.76 166.13 491.56 165.87 491.37C165.65 491.21 165.39 491.09 165.07 491C164.75 490.91 164.42 490.87 164.07 490.87C163.67 490.87 163.31 490.92 163 491.03C162.69 491.14 162.42 491.28 162.2 491.46C161.98 491.64 161.81 491.84 161.7 492.08C161.59 492.32 161.53 492.56 161.53 492.81C161.53 493.17 161.62 493.47 161.79 493.71C161.96 493.94 162.18 494.14 162.44 494.29C162.7 494.44 163 494.57 163.32 494.66C163.64 494.75 163.95 494.83 164.25 494.9C164.75 495.02 165.18 495.14 165.53 495.23C165.88 495.33 166.19 495.42 166.44 495.52C166.7 495.62 166.92 495.72 167.1 495.82C167.28 495.92 167.45 496.03 167.61 496.15C167.79 496.29 167.96 496.46 168.1 496.65C168.24 496.84 168.36 497.06 168.45 497.27C168.54 497.49 168.61 497.71 168.65 497.93C168.69 498.15 168.72 498.35 168.72 498.54C168.72 499.05 168.62 499.54 168.43 499.99L168.47 499.98Z" fill="white"/>
<path d="M172.68 495.15H176.9C177.01 495.15 177.14 495.15 177.27 495.15C177.4 495.15 177.52 495.18 177.63 495.22C177.74 495.26 177.83 495.33 177.9 495.42C177.97 495.51 178 495.64 178 495.8C178 495.97 177.97 496.1 177.9 496.18C177.83 496.26 177.75 496.33 177.64 496.38C177.54 496.43 177.42 496.45 177.29 496.46C177.16 496.46 177.03 496.46 176.9 496.46H172.68V500.92C172.68 501.22 172.67 501.45 172.65 501.61C172.63 501.78 172.56 501.91 172.46 502.01C172.39 502.08 172.31 502.14 172.2 502.19C172.1 502.24 171.98 502.27 171.86 502.27C171.63 502.27 171.43 502.19 171.24 502.03C171.14 501.92 171.08 501.78 171.06 501.61C171.04 501.44 171.03 501.21 171.03 500.92V491.19C171.03 490.88 171.04 490.64 171.07 490.45C171.1 490.27 171.16 490.13 171.25 490.04C171.34 489.95 171.48 489.89 171.66 489.86C171.84 489.83 172.09 489.82 172.4 489.82H177.75C177.88 489.82 178 489.82 178.13 489.82C178.26 489.82 178.38 489.85 178.49 489.89C178.6 489.93 178.69 489.99 178.76 490.08C178.83 490.17 178.86 490.29 178.86 490.46C178.86 490.63 178.83 490.76 178.76 490.85C178.69 490.94 178.6 491.01 178.49 491.05C178.38 491.09 178.26 491.11 178.13 491.12C178 491.12 177.87 491.12 177.75 491.12H172.67V495.12L172.68 495.15Z" fill="white"/>
<path d="M191.54 498.23C191.34 498.99 191 499.67 190.54 500.26C190.08 500.85 189.49 501.34 188.76 501.71C188.03 502.08 187.15 502.26 186.12 502.26C185.32 502.26 184.63 502.16 184.03 501.96C183.43 501.76 182.92 501.49 182.49 501.16C182.06 500.83 181.7 500.45 181.42 500.02C181.14 499.59 180.91 499.14 180.74 498.67C180.57 498.2 180.45 497.73 180.38 497.26C180.31 496.79 180.28 496.35 180.28 495.93C180.28 495.27 180.37 494.57 180.54 493.83C180.72 493.09 181.03 492.4 181.47 491.78C181.91 491.15 182.51 490.63 183.25 490.22C183.99 489.81 184.94 489.6 186.09 489.6C187.24 489.6 188.1 489.8 188.84 490.19C189.58 490.58 190.17 491.09 190.61 491.7C191.05 492.32 191.37 493 191.57 493.74C191.77 494.48 191.86 495.21 191.86 495.92C191.86 496.68 191.76 497.44 191.55 498.2L191.54 498.23ZM190 494.15C189.86 493.64 189.68 493.2 189.45 492.83C189.22 492.46 188.96 492.15 188.67 491.91C188.38 491.67 188.08 491.47 187.77 491.33C187.46 491.19 187.16 491.09 186.86 491.03C186.56 490.97 186.29 490.94 186.05 490.94C185.46 490.94 184.92 491.06 184.44 491.29C183.96 491.52 183.54 491.82 183.19 492.17C182.93 492.42 182.71 492.72 182.55 493.05C182.39 493.39 182.26 493.74 182.16 494.1C182.06 494.46 182 494.83 181.96 495.19C181.92 495.55 181.91 495.87 181.91 496.16C181.91 496.91 182.02 497.59 182.24 498.18C182.46 498.77 182.76 499.27 183.13 499.68C183.51 500.09 183.95 500.41 184.45 500.63C184.95 500.85 185.49 500.96 186.05 500.96C186.29 500.96 186.56 500.93 186.86 500.87C187.16 500.81 187.46 500.71 187.77 500.57C188.08 500.43 188.38 500.23 188.67 499.99C188.96 499.75 189.22 499.44 189.45 499.07C189.68 498.7 189.86 498.26 190 497.74C190.14 497.23 190.21 496.63 190.21 495.94C190.21 495.25 190.14 494.66 190 494.14V494.15Z" fill="white"/>
<path d="M195.87 500.91C195.87 501.16 195.87 501.34 195.85 501.45C195.83 501.56 195.82 501.66 195.8 501.75C195.74 501.93 195.64 502.07 195.48 502.15C195.32 502.23 195.17 502.28 195.03 502.28C194.87 502.28 194.72 502.23 194.58 502.13C194.44 502.03 194.34 501.9 194.28 501.74C194.26 501.66 194.24 501.54 194.24 501.37C194.24 501.21 194.24 501.05 194.24 500.9V491.19C194.24 490.88 194.25 490.64 194.28 490.45C194.31 490.27 194.37 490.13 194.46 490.04C194.55 489.95 194.69 489.89 194.87 489.86C195.05 489.83 195.3 489.82 195.6 489.82H199.5C199.5 489.82 199.66 489.82 199.84 489.82C200.02 489.82 200.23 489.84 200.46 489.87C200.69 489.9 200.94 489.95 201.19 490.02C201.45 490.09 201.68 490.19 201.88 490.31C202.37 490.61 202.75 491 203.03 491.49C203.31 491.98 203.45 492.53 203.45 493.15C203.45 493.77 203.33 494.28 203.08 494.69C202.84 495.1 202.59 495.4 202.34 495.58C201.93 495.89 201.53 496.09 201.15 496.2C200.76 496.3 200.45 496.38 200.2 496.42C200.36 496.51 200.56 496.64 200.8 496.81C201.04 496.98 201.27 497.21 201.5 497.5C201.62 497.66 201.76 497.85 201.92 498.06C202.07 498.27 202.17 498.41 202.22 498.48L203.33 500.34C203.46 500.56 203.55 500.73 203.63 500.86C203.7 500.99 203.76 501.1 203.8 501.19C203.84 501.28 203.87 501.34 203.88 501.39C203.89 501.44 203.9 501.5 203.9 501.57C203.9 501.8 203.82 501.98 203.67 502.1C203.52 502.23 203.34 502.29 203.15 502.29C203.03 502.29 202.92 502.27 202.83 502.24C202.74 502.21 202.65 502.15 202.57 502.06C202.49 501.97 202.4 501.86 202.31 501.72C202.22 501.58 202.11 501.4 201.97 501.18L200.81 499.33C200.39 498.67 200.03 498.15 199.73 497.78C199.43 497.41 199.15 497.14 198.9 496.96C198.64 496.78 198.4 496.68 198.15 496.64C197.91 496.6 197.64 496.58 197.34 496.58H195.91V500.91H195.87ZM195.87 491.09V495.26H198.73C198.92 495.26 199.19 495.25 199.53 495.23C199.87 495.21 200.21 495.13 200.55 495C200.89 494.87 201.18 494.66 201.43 494.38C201.68 494.1 201.81 493.69 201.81 493.15C201.81 492.49 201.55 491.96 201.02 491.56C200.88 491.45 200.72 491.36 200.52 491.3C200.32 491.24 200.13 491.19 199.92 491.16C199.71 491.13 199.51 491.12 199.3 491.11C199.1 491.11 198.92 491.11 198.77 491.11H195.86L195.87 491.09Z" fill="white"/>
<path d="M205.45 491.2C205.45 490.86 205.49 490.59 205.58 490.41C205.67 490.23 205.77 490.09 205.9 490.01C206.03 489.92 206.17 489.87 206.31 489.86C206.45 489.84 206.57 489.83 206.68 489.83C206.94 489.83 207.15 489.83 207.31 489.85C207.47 489.86 207.6 489.9 207.71 489.97C207.82 490.04 207.91 490.14 207.98 490.29C208.05 490.43 208.14 490.64 208.23 490.9L210.78 498.51C210.88 498.81 210.98 499.11 211.09 499.42C211.19 499.73 211.29 500.03 211.38 500.33C211.43 500.16 211.47 500.02 211.51 499.9C211.55 499.79 211.59 499.66 211.64 499.53C211.69 499.4 211.74 499.25 211.79 499.07C211.84 498.89 211.93 498.66 212.03 498.36L214.56 490.96C214.65 490.69 214.73 490.47 214.79 490.33C214.85 490.18 214.93 490.07 215.02 490.01C215.11 489.94 215.23 489.9 215.37 489.88C215.51 489.86 215.71 489.85 215.98 489.85C216.25 489.85 216.47 489.87 216.63 489.92C216.79 489.96 216.91 490.04 216.98 490.14C217.05 490.24 217.1 490.38 217.12 490.56C217.14 490.74 217.15 490.96 217.15 491.22V501.26C217.15 501.32 217.15 501.4 217.13 501.52C217.12 501.64 217.09 501.75 217.04 501.87C216.99 501.99 216.91 502.09 216.81 502.18C216.71 502.27 216.56 502.31 216.37 502.31C216.18 502.31 216.02 502.27 215.92 502.18C215.81 502.09 215.73 502 215.68 501.89C215.63 501.78 215.6 501.67 215.59 501.57C215.59 501.46 215.59 501.38 215.59 501.34V491.87L212.41 501.02C212.32 501.27 212.24 501.48 212.18 501.64C212.12 501.81 212.05 501.94 211.98 502.04C211.91 502.14 211.82 502.21 211.72 502.25C211.62 502.29 211.5 502.31 211.35 502.31C211.19 502.31 211.06 502.3 210.96 502.27C210.86 502.24 210.77 502.18 210.69 502.09C210.61 502 210.53 501.87 210.46 501.7C210.39 501.53 210.3 501.3 210.19 501.02L207.04 491.7V501.11C207.04 501.21 207.04 501.34 207.04 501.48C207.04 501.62 207.01 501.76 206.95 501.88C206.9 502 206.82 502.11 206.71 502.2C206.6 502.29 206.45 502.33 206.26 502.33C206.08 502.33 205.93 502.29 205.82 502.22C205.71 502.15 205.63 502.05 205.58 501.94C205.53 501.83 205.5 501.7 205.49 501.56C205.48 501.42 205.47 501.28 205.47 501.14V491.26L205.45 491.2Z" fill="white"/>
<path d="M221.18 498.53L220.12 501.27C219.99 501.6 219.88 501.85 219.77 502.02C219.66 502.19 219.46 502.28 219.18 502.28C218.95 502.28 218.76 502.2 218.62 502.05C218.47 501.9 218.4 501.73 218.4 501.56C218.4 501.43 218.42 501.31 218.46 501.18C218.5 501.06 218.56 500.9 218.64 500.7L222.52 491.07C222.61 490.83 222.7 490.62 222.78 490.44C222.86 490.26 222.95 490.11 223.05 489.99C223.15 489.87 223.26 489.78 223.39 489.72C223.52 489.66 223.68 489.63 223.88 489.63C224.04 489.63 224.19 489.66 224.34 489.72C224.49 489.78 224.61 489.87 224.7 489.97C224.79 490.06 224.89 490.22 224.98 490.44C225.07 490.66 225.17 490.87 225.25 491.06L229.27 500.64C229.36 500.86 229.43 501.03 229.47 501.15C229.51 501.28 229.53 501.4 229.53 501.53C229.53 501.69 229.46 501.85 229.31 502.03C229.16 502.2 228.96 502.29 228.71 502.29C228.42 502.29 228.23 502.2 228.12 502.03C228.01 501.85 227.89 501.59 227.75 501.25L226.66 498.55H221.2L221.18 498.53ZM226.14 497.21L223.85 491.48L221.64 497.21H226.14Z" fill="white"/>
<path d="M234.52 500.92C234.52 501.19 234.52 501.42 234.49 501.61C234.47 501.79 234.41 501.93 234.29 502.04C234.23 502.1 234.15 502.15 234.05 502.2C233.95 502.25 233.83 502.28 233.69 502.28C233.46 502.28 233.27 502.2 233.11 502.04C232.98 501.94 232.91 501.8 232.9 501.62C232.88 501.44 232.87 501.21 232.87 500.93V491.15H230.1C229.85 491.15 229.65 491.15 229.5 491.12C229.35 491.1 229.23 491.05 229.14 490.96C229.08 490.9 229.03 490.84 228.99 490.76C228.95 490.68 228.92 490.59 228.92 490.5C228.92 490.42 228.94 490.34 228.98 490.25C229.02 490.16 229.07 490.09 229.13 490.04C229.22 489.94 229.34 489.88 229.5 489.86C229.66 489.84 229.86 489.83 230.11 489.83H237.31C237.56 489.83 237.76 489.83 237.91 489.86C238.06 489.88 238.18 489.94 238.27 490.04C238.33 490.1 238.38 490.17 238.42 490.25C238.46 490.33 238.49 490.42 238.49 490.51C238.49 490.59 238.47 490.67 238.42 490.76C238.37 490.85 238.32 490.92 238.27 490.97C238.18 491.06 238.06 491.12 237.91 491.13C237.76 491.15 237.56 491.16 237.31 491.16H234.52V500.94V500.92Z" fill="white"/>
<path d="M242.01 500.92C242.01 501.22 242.01 501.45 241.98 501.61C241.95 501.77 241.9 501.91 241.78 502.01C241.72 502.07 241.64 502.12 241.54 502.18C241.44 502.24 241.32 502.27 241.18 502.27C241.08 502.27 240.97 502.25 240.86 502.21C240.75 502.17 240.66 502.11 240.58 502.03C240.47 501.92 240.4 501.78 240.38 501.61C240.36 501.44 240.35 501.21 240.35 500.92V490.97C240.35 490.67 240.35 490.44 240.38 490.28C240.4 490.11 240.46 489.98 240.58 489.88C240.64 489.82 240.71 489.77 240.81 489.71C240.91 489.65 241.03 489.62 241.18 489.62C241.28 489.62 241.39 489.64 241.5 489.68C241.61 489.72 241.7 489.79 241.78 489.88C241.89 489.98 241.96 490.12 241.98 490.29C242 490.46 242.01 490.69 242.01 490.97V500.92Z" fill="white"/>
<path d="M255.83 498.23C255.63 498.99 255.29 499.67 254.83 500.26C254.37 500.85 253.78 501.34 253.05 501.71C252.32 502.08 251.44 502.26 250.41 502.26C249.61 502.26 248.92 502.16 248.32 501.96C247.72 501.76 247.21 501.49 246.78 501.16C246.35 500.83 245.99 500.45 245.71 500.02C245.43 499.59 245.2 499.14 245.03 498.67C244.86 498.2 244.74 497.73 244.67 497.26C244.6 496.79 244.57 496.35 244.57 495.93C244.57 495.27 244.66 494.57 244.83 493.83C245.01 493.09 245.32 492.4 245.76 491.78C246.2 491.15 246.8 490.63 247.54 490.22C248.28 489.81 249.23 489.6 250.38 489.6C251.53 489.6 252.39 489.8 253.13 490.19C253.87 490.58 254.46 491.09 254.9 491.7C255.34 492.32 255.66 493 255.86 493.74C256.06 494.48 256.15 495.21 256.15 495.92C256.15 496.68 256.05 497.44 255.84 498.2L255.83 498.23ZM254.29 494.15C254.15 493.64 253.97 493.2 253.74 492.83C253.51 492.46 253.25 492.15 252.96 491.91C252.67 491.67 252.37 491.47 252.06 491.33C251.75 491.19 251.45 491.09 251.15 491.03C250.85 490.97 250.58 490.94 250.34 490.94C249.75 490.94 249.21 491.06 248.73 491.29C248.25 491.52 247.83 491.82 247.48 492.17C247.22 492.42 247 492.72 246.84 493.05C246.68 493.39 246.55 493.74 246.45 494.1C246.35 494.46 246.29 494.83 246.25 495.19C246.21 495.55 246.2 495.87 246.2 496.16C246.2 496.91 246.31 497.59 246.53 498.18C246.75 498.77 247.05 499.27 247.42 499.68C247.8 500.09 248.24 500.41 248.74 500.63C249.24 500.85 249.78 500.96 250.34 500.96C250.58 500.96 250.85 500.93 251.15 500.87C251.45 500.81 251.75 500.71 252.06 500.57C252.37 500.43 252.67 500.23 252.96 499.99C253.25 499.75 253.51 499.44 253.74 499.07C253.97 498.7 254.15 498.26 254.29 497.74C254.43 497.23 254.5 496.63 254.5 495.94C254.5 495.25 254.43 494.66 254.29 494.14V494.15Z" fill="white"/>
<path d="M266.55 490.94C266.54 490.68 266.54 490.49 266.55 490.37C266.56 490.25 266.6 490.13 266.65 490.02C266.7 489.93 266.78 489.84 266.9 489.75C267.02 489.66 267.16 489.62 267.32 489.62C267.55 489.62 267.74 489.7 267.9 489.86C268.01 489.96 268.08 490.1 268.1 490.26C268.12 490.43 268.13 490.65 268.13 490.94V500.62C268.13 501.04 268.12 501.35 268.09 501.54C268.06 501.73 267.96 501.9 267.79 502.04C267.6 502.2 267.37 502.28 267.12 502.28C266.98 502.28 266.87 502.26 266.78 502.23C266.69 502.2 266.6 502.14 266.51 502.06C266.42 501.98 266.34 501.88 266.24 501.75C266.15 501.63 266.04 501.47 265.92 501.29L259.95 492.38L260.02 500.97C260.02 501.24 260.02 501.44 260.02 501.55C260.02 501.66 259.98 501.78 259.93 501.89C259.88 501.98 259.8 502.07 259.67 502.16C259.54 502.25 259.4 502.29 259.24 502.29C259.01 502.29 258.82 502.21 258.66 502.05C258.55 501.95 258.48 501.81 258.46 501.65C258.44 501.48 258.43 501.26 258.43 500.97V491.22C258.43 491.02 258.43 490.84 258.43 490.7C258.43 490.56 258.45 490.44 258.46 490.34C258.48 490.24 258.51 490.16 258.55 490.08C258.6 490.01 258.66 489.93 258.74 489.87C258.77 489.84 258.84 489.79 258.95 489.72C259.05 489.66 259.2 489.63 259.39 489.63C259.64 489.63 259.83 489.7 259.97 489.84C260.11 489.98 260.29 490.23 260.52 490.58L266.59 499.64L266.54 490.94H266.55Z" fill="white"/>
<path d="M280.13 500.92C280.13 501.19 280.13 501.42 280.1 501.61C280.08 501.79 280.02 501.93 279.9 502.04C279.84 502.1 279.76 502.15 279.66 502.2C279.56 502.25 279.44 502.28 279.3 502.28C279.07 502.28 278.88 502.2 278.72 502.04C278.59 501.94 278.52 501.8 278.51 501.62C278.49 501.44 278.48 501.21 278.48 500.93V491.15H275.71C275.46 491.15 275.26 491.15 275.11 491.12C274.96 491.1 274.84 491.05 274.75 490.96C274.69 490.9 274.64 490.84 274.6 490.76C274.56 490.68 274.53 490.59 274.53 490.5C274.53 490.42 274.55 490.34 274.59 490.25C274.63 490.16 274.68 490.09 274.74 490.04C274.83 489.94 274.95 489.88 275.11 489.86C275.27 489.84 275.47 489.83 275.72 489.83H282.92C283.17 489.83 283.37 489.83 283.52 489.86C283.67 489.88 283.79 489.94 283.88 490.04C283.94 490.1 283.99 490.17 284.03 490.25C284.07 490.33 284.1 490.42 284.1 490.51C284.1 490.59 284.08 490.67 284.03 490.76C283.98 490.85 283.93 490.92 283.88 490.97C283.79 491.06 283.67 491.12 283.52 491.13C283.37 491.15 283.17 491.16 282.92 491.16H280.13V500.94V500.92Z" fill="white"/>
<path d="M293.74 494.99V490.95C293.74 490.65 293.75 490.43 293.78 490.27C293.81 490.11 293.87 489.98 293.98 489.88C294.04 489.82 294.12 489.77 294.22 489.71C294.32 489.65 294.44 489.62 294.58 489.62C294.81 489.62 295.01 489.71 295.18 489.88C295.28 489.98 295.34 490.12 295.36 490.28C295.38 490.45 295.39 490.67 295.39 490.96V500.95C295.39 501.25 295.39 501.48 295.36 501.63C295.34 501.79 295.28 501.92 295.18 502.02C295.12 502.08 295.04 502.13 294.94 502.19C294.84 502.25 294.72 502.28 294.58 502.28C294.36 502.28 294.16 502.2 293.98 502.04C293.88 501.93 293.81 501.79 293.78 501.62C293.75 501.45 293.74 501.23 293.74 500.94V496.31H287.33V500.93C287.33 501.23 287.32 501.46 287.3 501.62C287.28 501.78 287.21 501.92 287.1 502.02C287.04 502.08 286.97 502.13 286.87 502.19C286.77 502.25 286.65 502.28 286.5 502.28C286.28 502.28 286.08 502.2 285.9 502.04C285.8 501.93 285.74 501.79 285.72 501.62C285.7 501.45 285.69 501.22 285.69 500.93V490.98C285.69 490.68 285.69 490.45 285.72 490.29C285.75 490.13 285.8 489.99 285.9 489.89C285.96 489.83 286.04 489.78 286.14 489.72C286.24 489.66 286.36 489.63 286.5 489.63C286.74 489.63 286.94 489.72 287.1 489.89C287.21 489.99 287.28 490.13 287.3 490.29C287.32 490.45 287.33 490.69 287.33 490.98V495H293.74V494.99Z" fill="white"/>
<path d="M299.88 500.91C299.88 501.16 299.88 501.34 299.86 501.45C299.84 501.56 299.83 501.66 299.81 501.75C299.75 501.93 299.65 502.07 299.49 502.15C299.33 502.23 299.18 502.28 299.04 502.28C298.88 502.28 298.73 502.23 298.59 502.13C298.45 502.03 298.35 501.9 298.29 501.74C298.27 501.66 298.25 501.54 298.25 501.37C298.25 501.21 298.25 501.05 298.25 500.9V491.19C298.25 490.88 298.26 490.64 298.29 490.45C298.32 490.27 298.38 490.13 298.47 490.04C298.56 489.95 298.7 489.89 298.88 489.86C299.06 489.83 299.31 489.82 299.61 489.82H303.51C303.51 489.82 303.67 489.82 303.85 489.82C304.03 489.82 304.24 489.84 304.47 489.87C304.7 489.9 304.95 489.95 305.2 490.02C305.46 490.09 305.69 490.19 305.89 490.31C306.38 490.61 306.76 491 307.04 491.49C307.32 491.98 307.46 492.53 307.46 493.15C307.46 493.77 307.34 494.28 307.09 494.69C306.85 495.1 306.6 495.4 306.35 495.58C305.94 495.89 305.54 496.09 305.16 496.2C304.77 496.3 304.46 496.38 304.21 496.42C304.37 496.51 304.57 496.64 304.81 496.81C305.05 496.98 305.28 497.21 305.51 497.5C305.63 497.66 305.77 497.85 305.93 498.06C306.08 498.27 306.18 498.41 306.23 498.48L307.34 500.34C307.47 500.56 307.56 500.73 307.64 500.86C307.71 500.99 307.77 501.1 307.81 501.19C307.85 501.28 307.88 501.34 307.89 501.39C307.9 501.44 307.91 501.5 307.91 501.57C307.91 501.8 307.83 501.98 307.68 502.1C307.53 502.23 307.35 502.29 307.16 502.29C307.04 502.29 306.93 502.27 306.84 502.24C306.75 502.21 306.66 502.15 306.58 502.06C306.5 501.97 306.41 501.86 306.32 501.72C306.23 501.58 306.12 501.4 305.98 501.18L304.82 499.33C304.4 498.67 304.04 498.15 303.74 497.78C303.44 497.41 303.16 497.14 302.91 496.96C302.65 496.78 302.41 496.68 302.16 496.64C301.92 496.6 301.65 496.58 301.35 496.58H299.92V500.91H299.88ZM299.88 491.09V495.26H302.74C302.93 495.26 303.2 495.25 303.54 495.23C303.88 495.21 304.22 495.13 304.56 495C304.9 494.87 305.19 494.66 305.44 494.38C305.69 494.1 305.82 493.69 305.82 493.15C305.82 492.49 305.56 491.96 305.03 491.56C304.89 491.45 304.73 491.36 304.53 491.3C304.33 491.24 304.14 491.19 303.93 491.16C303.72 491.13 303.52 491.12 303.31 491.11C303.11 491.11 302.93 491.11 302.78 491.11H299.87L299.88 491.09Z" fill="white"/>
<path d="M320.37 498.23C320.17 498.99 319.83 499.67 319.37 500.26C318.91 500.85 318.32 501.34 317.59 501.71C316.86 502.08 315.98 502.26 314.95 502.26C314.15 502.26 313.46 502.16 312.86 501.96C312.26 501.76 311.75 501.49 311.32 501.16C310.89 500.83 310.53 500.45 310.25 500.02C309.97 499.59 309.74 499.14 309.57 498.67C309.4 498.2 309.28 497.73 309.21 497.26C309.14 496.79 309.11 496.35 309.11 495.93C309.11 495.27 309.2 494.57 309.37 493.83C309.55 493.09 309.86 492.4 310.3 491.78C310.74 491.15 311.34 490.63 312.08 490.22C312.82 489.81 313.77 489.6 314.92 489.6C316.07 489.6 316.93 489.8 317.67 490.19C318.41 490.58 319 491.09 319.44 491.7C319.88 492.32 320.2 493 320.4 493.74C320.6 494.48 320.69 495.21 320.69 495.92C320.69 496.68 320.59 497.44 320.38 498.2L320.37 498.23ZM318.83 494.15C318.69 493.64 318.51 493.2 318.28 492.83C318.05 492.46 317.79 492.15 317.5 491.91C317.21 491.67 316.91 491.47 316.6 491.33C316.29 491.19 315.99 491.09 315.69 491.03C315.39 490.97 315.12 490.94 314.88 490.94C314.29 490.94 313.75 491.06 313.27 491.29C312.79 491.52 312.37 491.82 312.02 492.17C311.76 492.42 311.54 492.72 311.38 493.05C311.22 493.39 311.09 493.74 310.99 494.1C310.89 494.46 310.83 494.83 310.79 495.19C310.75 495.55 310.74 495.87 310.74 496.16C310.74 496.91 310.85 497.59 311.07 498.18C311.29 498.77 311.59 499.27 311.96 499.68C312.34 500.09 312.78 500.41 313.28 500.63C313.78 500.85 314.32 500.96 314.88 500.96C315.12 500.96 315.39 500.93 315.69 500.87C315.99 500.81 316.29 500.71 316.6 500.57C316.91 500.43 317.21 500.23 317.5 499.99C317.79 499.75 318.05 499.44 318.28 499.07C318.51 498.7 318.69 498.26 318.83 497.74C318.97 497.23 319.04 496.63 319.04 495.94C319.04 495.25 318.97 494.66 318.83 494.14V494.15Z" fill="white"/>
<path d="M324.61 497.49C324.61 497.75 324.63 498.08 324.66 498.47C324.69 498.86 324.81 499.25 325.01 499.62C325.21 499.99 325.53 500.31 325.97 500.57C326.41 500.83 327.03 500.96 327.84 500.96C328.56 500.96 329.13 500.85 329.55 500.62C329.97 500.39 330.29 500.1 330.51 499.76C330.73 499.41 330.87 499.04 330.93 498.63C330.99 498.22 331.02 497.85 331.02 497.51V490.99C331.02 490.69 331.02 490.46 331.05 490.3C331.08 490.14 331.13 489.99 331.25 489.88C331.31 489.82 331.39 489.77 331.49 489.71C331.59 489.65 331.71 489.62 331.85 489.62C332.09 489.62 332.29 489.71 332.45 489.88C332.56 489.99 332.63 490.13 332.65 490.3C332.67 490.47 332.68 490.7 332.68 490.99V497.35C332.68 497.98 332.61 498.58 332.48 499.17C332.34 499.76 332.1 500.28 331.75 500.74C331.4 501.2 330.92 501.57 330.31 501.85C329.7 502.13 328.92 502.27 327.98 502.27C327.16 502.27 326.44 502.18 325.82 502.01C325.2 501.84 324.68 501.56 324.26 501.17C323.84 500.78 323.53 500.28 323.31 499.65C323.09 499.02 322.99 498.26 322.99 497.36V490.98C322.99 490.68 322.99 490.45 323.02 490.29C323.05 490.13 323.1 489.98 323.22 489.87C323.28 489.81 323.36 489.76 323.46 489.7C323.56 489.64 323.68 489.61 323.82 489.61C324.06 489.61 324.26 489.7 324.42 489.87C324.53 489.98 324.6 490.12 324.62 490.29C324.64 490.46 324.65 490.69 324.65 490.98V497.48L324.61 497.49Z" fill="white"/>
<path d="M344.79 497.16H342.11C341.97 497.16 341.84 497.16 341.7 497.16C341.56 497.16 341.44 497.13 341.33 497.09C341.22 497.05 341.13 496.99 341.06 496.89C340.99 496.8 340.96 496.67 340.96 496.51C340.96 496.34 340.99 496.21 341.06 496.12C341.13 496.03 341.21 495.97 341.31 495.92C341.41 495.88 341.51 495.85 341.63 495.84C341.75 495.83 341.85 495.84 341.94 495.84H345.02C345.28 495.84 345.5 495.85 345.67 495.88C345.84 495.91 345.98 495.97 346.08 496.05C346.18 496.13 346.25 496.25 346.29 496.41C346.33 496.56 346.35 496.77 346.35 497.02V499.7C346.35 499.95 346.33 500.16 346.3 500.32C346.27 500.48 346.15 500.63 345.94 500.78C345.93 500.79 345.8 500.88 345.56 501.04C345.32 501.2 344.99 501.37 344.57 501.55C344.15 501.73 343.65 501.9 343.08 502.05C342.51 502.2 341.88 502.27 341.2 502.27C340.12 502.27 339.18 502.1 338.4 501.77C337.61 501.43 336.97 500.98 336.46 500.41C335.95 499.84 335.58 499.17 335.33 498.41C335.09 497.65 334.96 496.84 334.96 496C334.96 495.16 335.08 494.37 335.31 493.6C335.54 492.83 335.91 492.15 336.4 491.57C336.89 490.99 337.53 490.51 338.31 490.16C339.09 489.81 340.02 489.63 341.11 489.63C342.11 489.63 342.93 489.78 343.56 490.07C344.19 490.37 344.69 490.71 345.05 491.1C345.41 491.49 345.65 491.86 345.79 492.22C345.92 492.58 345.99 492.82 345.99 492.95C345.99 493.13 345.93 493.3 345.81 493.45C345.69 493.6 345.48 493.67 345.19 493.67C345.05 493.67 344.92 493.62 344.81 493.52C344.69 493.42 344.55 493.23 344.39 492.93C344.29 492.74 344.15 492.53 343.99 492.3C343.83 492.07 343.61 491.86 343.35 491.66C343.09 491.46 342.77 491.29 342.38 491.16C342 491.02 341.53 490.96 340.99 490.96C340.27 490.96 339.64 491.08 339.1 491.34C338.56 491.59 338.1 491.94 337.73 492.38C337.36 492.82 337.08 493.35 336.89 493.95C336.7 494.55 336.61 495.21 336.61 495.92C336.61 496.22 336.63 496.53 336.66 496.87C336.69 497.21 336.76 497.55 336.87 497.89C336.98 498.23 337.11 498.57 337.29 498.91C337.47 499.25 337.69 499.55 337.97 499.82C338.4 500.25 338.91 500.56 339.5 500.73C340.08 500.9 340.65 500.99 341.2 500.99C341.82 500.99 342.43 500.9 343.02 500.72C343.61 500.54 344.21 500.25 344.81 499.85V497.2L344.79 497.16Z" fill="white"/>
<path d="M356.85 494.99V490.95C356.85 490.65 356.86 490.43 356.89 490.27C356.92 490.11 356.98 489.98 357.09 489.88C357.15 489.82 357.23 489.77 357.33 489.71C357.43 489.65 357.55 489.62 357.69 489.62C357.92 489.62 358.12 489.71 358.29 489.88C358.39 489.98 358.45 490.12 358.47 490.28C358.49 490.45 358.5 490.67 358.5 490.96V500.95C358.5 501.25 358.5 501.48 358.47 501.63C358.45 501.79 358.39 501.92 358.29 502.02C358.23 502.08 358.15 502.13 358.05 502.19C357.95 502.25 357.83 502.28 357.69 502.28C357.47 502.28 357.27 502.2 357.09 502.04C356.99 501.93 356.92 501.79 356.89 501.62C356.86 501.45 356.85 501.23 356.85 500.94V496.31H350.44V500.93C350.44 501.23 350.43 501.46 350.41 501.62C350.39 501.78 350.32 501.92 350.21 502.02C350.15 502.08 350.08 502.13 349.98 502.19C349.88 502.25 349.76 502.28 349.61 502.28C349.39 502.28 349.19 502.2 349.01 502.04C348.91 501.93 348.85 501.79 348.83 501.62C348.81 501.45 348.8 501.22 348.8 500.93V490.98C348.8 490.68 348.8 490.45 348.83 490.29C348.86 490.13 348.91 489.99 349.01 489.89C349.07 489.83 349.15 489.78 349.25 489.72C349.35 489.66 349.47 489.63 349.61 489.63C349.85 489.63 350.05 489.72 350.21 489.89C350.32 489.99 350.39 490.13 350.41 490.29C350.43 490.45 350.44 490.69 350.44 490.98V495H356.85V494.99Z" fill="white"/>
<path d="M367.57 489.83H370.8C371.64 489.83 372.36 489.91 372.96 490.06C373.56 490.22 374.11 490.51 374.6 490.94C375.87 492.03 376.51 493.69 376.51 495.92C376.51 496.65 376.45 497.33 376.32 497.93C376.19 498.53 375.99 499.08 375.73 499.57C375.46 500.06 375.12 500.49 374.7 500.88C374.37 501.17 374.01 501.41 373.62 501.59C373.23 501.77 372.81 501.89 372.36 501.97C371.91 502.05 371.41 502.08 370.84 502.08H367.61C367.16 502.08 366.82 502.01 366.59 501.88C366.36 501.74 366.21 501.55 366.14 501.3C366.07 501.05 366.04 500.73 366.04 500.34V491.36C366.04 490.83 366.16 490.44 366.4 490.2C366.64 489.96 367.03 489.84 367.56 489.84L367.57 489.83ZM368.53 491.79V500.1H370.41C370.82 500.1 371.15 500.09 371.38 500.07C371.61 500.05 371.86 499.99 372.11 499.9C372.36 499.81 372.58 499.69 372.76 499.52C373.59 498.82 374 497.61 374 495.9C374 494.69 373.82 493.79 373.45 493.19C373.09 492.59 372.64 492.21 372.1 492.04C371.57 491.88 370.92 491.79 370.16 491.79H368.52H368.53Z" fill="white"/>
<path d="M386.76 491.74H381.17V494.75H386.31C386.69 494.75 386.97 494.83 387.16 495.01C387.35 495.18 387.44 495.4 387.44 495.68C387.44 495.96 387.35 496.18 387.16 496.36C386.98 496.54 386.69 496.62 386.31 496.62H381.17V500.1H386.95C387.34 500.1 387.63 500.19 387.83 500.37C388.03 500.55 388.13 500.79 388.13 501.09C388.13 501.39 388.03 501.62 387.83 501.8C387.63 501.98 387.34 502.07 386.95 502.07H380.21C379.67 502.07 379.28 501.95 379.04 501.71C378.8 501.47 378.69 501.08 378.69 500.55V491.35C378.69 490.99 378.74 490.7 378.85 490.48C378.96 490.25 379.12 490.09 379.35 489.99C379.58 489.89 379.86 489.84 380.21 489.84H386.76C387.15 489.84 387.45 489.93 387.64 490.1C387.83 490.28 387.93 490.51 387.93 490.79C387.93 491.07 387.83 491.31 387.64 491.49C387.45 491.67 387.15 491.75 386.76 491.75V491.74Z" fill="white"/>
<path d="M391.91 491.25L394.68 499.46L397.46 491.19C397.6 490.76 397.71 490.45 397.79 490.28C397.86 490.11 397.98 489.96 398.15 489.82C398.32 489.68 398.55 489.62 398.84 489.62C399.05 489.62 399.25 489.67 399.43 489.78C399.61 489.89 399.75 490.03 399.86 490.2C399.96 490.38 400.01 490.55 400.01 490.73C400.01 490.85 399.99 490.99 399.96 491.13C399.93 491.27 399.89 491.41 399.84 491.55C399.79 491.69 399.74 491.83 399.69 491.97L396.73 499.97C396.62 500.28 396.52 500.57 396.41 500.84C396.3 501.11 396.18 501.36 396.04 501.57C395.9 501.78 395.72 501.95 395.49 502.08C395.26 502.21 394.98 502.28 394.64 502.28C394.3 502.28 394.02 502.21 393.79 502.08C393.56 501.95 393.37 501.78 393.23 501.56C393.09 501.35 392.96 501.1 392.86 500.83C392.76 500.56 392.65 500.27 392.54 499.96L389.63 492.03C389.58 491.89 389.53 491.74 389.48 491.6C389.43 491.46 389.38 491.31 389.35 491.15C389.31 490.99 389.3 490.85 389.3 490.74C389.3 490.46 389.42 490.2 389.64 489.96C389.86 489.72 390.15 489.61 390.5 489.61C390.92 489.61 391.22 489.74 391.4 490C391.58 490.26 391.75 490.67 391.94 491.24L391.91 491.25Z" fill="white"/>
<path d="M409.93 491.74H404.34V494.75H409.48C409.86 494.75 410.14 494.83 410.33 495.01C410.52 495.18 410.61 495.4 410.61 495.68C410.61 495.96 410.52 496.18 410.33 496.36C410.15 496.54 409.86 496.62 409.48 496.62H404.34V500.1H410.12C410.51 500.1 410.8 500.19 411 500.37C411.2 500.55 411.3 500.79 411.3 501.09C411.3 501.39 411.2 501.62 411 501.8C410.8 501.98 410.51 502.07 410.12 502.07H403.38C402.84 502.07 402.45 501.95 402.21 501.71C401.97 501.47 401.86 501.08 401.86 500.55V491.35C401.86 490.99 401.91 490.7 402.02 490.48C402.13 490.25 402.29 490.09 402.52 489.99C402.75 489.89 403.03 489.84 403.38 489.84H409.93C410.32 489.84 410.62 489.93 410.81 490.1C411 490.28 411.1 490.51 411.1 490.79C411.1 491.07 411 491.31 410.81 491.49C410.62 491.67 410.32 491.75 409.93 491.75V491.74Z" fill="white"/>
<path d="M415.7 491.12V500.03H420.73C421.13 500.03 421.44 500.13 421.65 500.32C421.86 500.51 421.97 500.76 421.97 501.05C421.97 501.34 421.86 501.59 421.65 501.78C421.44 501.97 421.13 502.06 420.72 502.06H414.73C414.19 502.06 413.8 501.94 413.57 501.7C413.33 501.46 413.21 501.07 413.21 500.54V491.11C413.21 490.61 413.32 490.23 413.55 489.98C413.78 489.73 414.07 489.6 414.44 489.6C414.81 489.6 415.11 489.72 415.35 489.97C415.58 490.22 415.7 490.6 415.7 491.1V491.12Z" fill="white"/>
<path d="M428.13 489.62C429.4 489.62 430.49 489.88 431.4 490.39C432.31 490.9 433 491.64 433.47 492.59C433.94 493.54 434.17 494.65 434.17 495.93C434.17 496.88 434.04 497.74 433.79 498.51C433.54 499.28 433.15 499.95 432.64 500.52C432.13 501.09 431.5 501.52 430.75 501.82C430 502.12 429.15 502.27 428.19 502.27C427.23 502.27 426.37 502.12 425.62 501.81C424.86 501.5 424.23 501.07 423.72 500.5C423.21 499.94 422.83 499.26 422.57 498.47C422.31 497.68 422.18 496.83 422.18 495.91C422.18 494.99 422.32 494.11 422.59 493.32C422.86 492.54 423.25 491.87 423.76 491.32C424.27 490.77 424.9 490.35 425.63 490.06C426.37 489.77 427.2 489.62 428.14 489.62H428.13ZM431.65 495.92C431.65 495.02 431.51 494.25 431.22 493.59C430.93 492.93 430.52 492.44 429.98 492.1C429.44 491.76 428.83 491.59 428.13 491.59C427.63 491.59 427.18 491.68 426.76 491.87C426.34 492.06 425.98 492.33 425.67 492.69C425.37 493.05 425.13 493.5 424.95 494.05C424.77 494.6 424.69 495.23 424.69 495.92C424.69 496.61 424.78 497.24 424.95 497.81C425.13 498.37 425.37 498.84 425.69 499.21C426.01 499.58 426.38 499.86 426.79 500.04C427.21 500.22 427.66 500.32 428.16 500.32C428.79 500.32 429.38 500.16 429.91 499.84C430.44 499.52 430.87 499.03 431.18 498.37C431.49 497.71 431.65 496.89 431.65 495.92Z" fill="white"/>
<path d="M441.04 497.3H438.77V500.77C438.77 501.27 438.65 501.64 438.42 501.9C438.19 502.16 437.89 502.28 437.54 502.28C437.19 502.28 436.87 502.15 436.64 501.9C436.41 501.65 436.3 501.27 436.3 500.78V491.34C436.3 490.79 436.42 490.4 436.68 490.17C436.93 489.94 437.33 489.82 437.87 489.82H441.05C441.99 489.82 442.71 489.89 443.22 490.04C443.72 490.18 444.15 490.41 444.52 490.73C444.88 491.05 445.16 491.45 445.35 491.92C445.54 492.39 445.63 492.91 445.63 493.5C445.63 494.75 445.25 495.69 444.48 496.33C443.71 496.97 442.57 497.29 441.05 497.29L441.04 497.3ZM440.44 491.69H438.77V495.43H440.44C441.02 495.43 441.51 495.37 441.91 495.25C442.3 495.13 442.6 494.93 442.81 494.65C443.02 494.37 443.12 494.01 443.12 493.56C443.12 493.02 442.96 492.58 442.64 492.24C442.28 491.88 441.55 491.7 440.44 491.7V491.69Z" fill="white"/>
<path d="M451.83 500.23L449.87 492.43V500.88C449.87 501.35 449.77 501.7 449.56 501.93C449.35 502.16 449.07 502.28 448.73 502.28C448.39 502.28 448.12 502.16 447.91 501.93C447.7 501.7 447.59 501.35 447.59 500.87V491.18C447.59 490.65 447.73 490.28 448.01 490.1C448.29 489.91 448.66 489.82 449.14 489.82H449.91C450.37 489.82 450.71 489.86 450.92 489.95C451.13 490.03 451.28 490.18 451.38 490.4C451.48 490.62 451.59 490.97 451.72 491.46L453.5 498.17L455.28 491.46C455.41 490.97 455.52 490.62 455.62 490.4C455.72 490.18 455.88 490.03 456.08 489.95C456.29 489.87 456.62 489.82 457.09 489.82H457.86C458.33 489.82 458.71 489.91 458.99 490.1C459.27 490.29 459.41 490.65 459.41 491.18V500.87C459.41 501.34 459.31 501.69 459.1 501.92C458.89 502.15 458.61 502.27 458.26 502.27C457.93 502.27 457.66 502.15 457.45 501.92C457.24 501.69 457.13 501.34 457.13 500.87V492.42L455.17 500.22C455.04 500.73 454.94 501.1 454.86 501.33C454.78 501.57 454.63 501.78 454.41 501.98C454.19 502.18 453.89 502.27 453.51 502.27C453.22 502.27 452.98 502.21 452.77 502.08C452.57 501.96 452.41 501.8 452.3 501.6C452.19 501.41 452.1 501.19 452.04 500.95C451.98 500.71 451.91 500.47 451.84 500.21L451.83 500.23Z" fill="white"/>
<path d="M470.01 491.74H464.42V494.75H469.56C469.94 494.75 470.22 494.83 470.41 495.01C470.6 495.18 470.69 495.4 470.69 495.68C470.69 495.96 470.6 496.18 470.41 496.36C470.23 496.54 469.94 496.62 469.56 496.62H464.42V500.1H470.2C470.59 500.1 470.88 500.19 471.08 500.37C471.28 500.55 471.38 500.79 471.38 501.09C471.38 501.39 471.28 501.62 471.08 501.8C470.88 501.98 470.59 502.07 470.2 502.07H463.46C462.92 502.07 462.53 501.95 462.29 501.71C462.05 501.47 461.94 501.08 461.94 500.55V491.35C461.94 490.99 461.99 490.7 462.1 490.48C462.21 490.25 462.37 490.09 462.6 489.99C462.83 489.89 463.11 489.84 463.46 489.84H470.01C470.4 489.84 470.7 489.93 470.89 490.1C471.08 490.28 471.18 490.51 471.18 490.79C471.18 491.07 471.08 491.31 470.89 491.49C470.7 491.67 470.4 491.75 470.01 491.75V491.74Z" fill="white"/>
<path d="M476.58 491.11L481.35 498.32V491.04C481.35 490.57 481.45 490.21 481.65 489.98C481.85 489.74 482.13 489.63 482.47 489.63C482.81 489.63 483.11 489.75 483.31 489.98C483.52 490.22 483.62 490.57 483.62 491.04V500.67C483.62 501.74 483.18 502.28 482.28 502.28C482.06 502.28 481.86 502.25 481.68 502.18C481.5 502.11 481.33 502.01 481.18 501.87C481.02 501.73 480.88 501.57 480.75 501.38C480.62 501.19 480.48 501 480.35 500.81L475.7 493.68V500.85C475.7 501.32 475.59 501.67 475.37 501.91C475.15 502.15 474.87 502.27 474.53 502.27C474.19 502.27 473.9 502.15 473.69 501.91C473.48 501.67 473.37 501.32 473.37 500.85V491.41C473.37 491.01 473.41 490.7 473.5 490.47C473.61 490.22 473.78 490.02 474.03 489.86C474.27 489.7 474.54 489.62 474.82 489.62C475.04 489.62 475.23 489.66 475.39 489.73C475.55 489.8 475.69 489.9 475.81 490.02C475.93 490.14 476.05 490.3 476.18 490.5C476.3 490.7 476.43 490.9 476.57 491.11H476.58Z" fill="white"/>
<path d="M494.29 491.87H491.58V500.76C491.58 501.27 491.47 501.65 491.24 501.9C491.01 502.15 490.72 502.27 490.36 502.27C490 502.27 489.69 502.15 489.46 501.89C489.23 501.64 489.11 501.26 489.11 500.75V491.86H486.4C485.98 491.86 485.66 491.77 485.46 491.58C485.25 491.39 485.15 491.15 485.15 490.84C485.15 490.53 485.26 490.27 485.47 490.09C485.68 489.91 485.99 489.81 486.4 489.81H494.28C494.71 489.81 495.03 489.9 495.24 490.09C495.45 490.28 495.55 490.53 495.55 490.83C495.55 491.13 495.44 491.38 495.23 491.57C495.02 491.76 494.7 491.85 494.28 491.85L494.29 491.87Z" fill="white"/>
<path d="M509.37 491.74H503.78V494.75H508.92C509.3 494.75 509.58 494.83 509.77 495.01C509.96 495.18 510.05 495.4 510.05 495.68C510.05 495.96 509.96 496.18 509.77 496.36C509.59 496.54 509.3 496.62 508.92 496.62H503.78V500.1H509.56C509.95 500.1 510.24 500.19 510.44 500.37C510.64 500.55 510.74 500.79 510.74 501.09C510.74 501.39 510.64 501.62 510.44 501.8C510.24 501.98 509.95 502.07 509.56 502.07H502.82C502.28 502.07 501.89 501.95 501.65 501.71C501.41 501.47 501.3 501.08 501.3 500.55V491.35C501.3 490.99 501.35 490.7 501.46 490.48C501.57 490.25 501.73 490.09 501.96 489.99C502.19 489.89 502.47 489.84 502.82 489.84H509.37C509.76 489.84 510.06 489.93 510.25 490.1C510.44 490.28 510.54 490.51 510.54 490.79C510.54 491.07 510.44 491.31 510.25 491.49C510.06 491.67 509.76 491.75 509.37 491.75V491.74Z" fill="white"/>
<path d="M515.94 491.11L520.71 498.32V491.04C520.71 490.57 520.81 490.21 521.01 489.98C521.21 489.74 521.49 489.63 521.83 489.63C522.17 489.63 522.47 489.75 522.67 489.98C522.88 490.22 522.98 490.57 522.98 491.04V500.67C522.98 501.74 522.54 502.28 521.64 502.28C521.42 502.28 521.22 502.25 521.04 502.18C520.86 502.11 520.69 502.01 520.54 501.87C520.38 501.73 520.24 501.57 520.11 501.38C519.98 501.19 519.84 501 519.71 500.81L515.06 493.68V500.85C515.06 501.32 514.95 501.67 514.73 501.91C514.51 502.15 514.23 502.27 513.89 502.27C513.55 502.27 513.26 502.15 513.05 501.91C512.84 501.67 512.73 501.32 512.73 500.85V491.41C512.73 491.01 512.77 490.7 512.86 490.47C512.97 490.22 513.14 490.02 513.39 489.86C513.63 489.7 513.9 489.62 514.18 489.62C514.4 489.62 514.59 489.66 514.75 489.73C514.91 489.8 515.05 489.9 515.17 490.02C515.29 490.14 515.41 490.3 515.54 490.5C515.66 490.7 515.79 490.9 515.93 491.11H515.94Z" fill="white"/>
<path d="M533.66 491.87H530.95V500.76C530.95 501.27 530.84 501.65 530.61 501.9C530.38 502.15 530.09 502.27 529.73 502.27C529.37 502.27 529.06 502.15 528.83 501.89C528.6 501.64 528.48 501.26 528.48 500.75V491.86H525.77C525.35 491.86 525.03 491.77 524.83 491.58C524.62 491.39 524.52 491.15 524.52 490.84C524.52 490.53 524.63 490.27 524.84 490.09C525.05 489.91 525.36 489.81 525.77 489.81H533.65C534.08 489.81 534.4 489.9 534.61 490.09C534.82 490.28 534.92 490.53 534.92 490.83C534.92 491.13 534.81 491.38 534.6 491.57C534.39 491.76 534.07 491.85 533.65 491.85L533.66 491.87Z" fill="white"/>
<path d="M539.73 496.84H538.86V500.77C538.86 501.29 538.74 501.67 538.52 501.91C538.29 502.16 537.99 502.28 537.63 502.28C537.23 502.28 536.93 502.15 536.71 501.9C536.49 501.64 536.38 501.27 536.38 500.77V491.35C536.38 490.82 536.5 490.43 536.74 490.19C536.98 489.95 537.37 489.83 537.9 489.83H541.93C542.49 489.83 542.96 489.85 543.36 489.9C543.76 489.95 544.11 490.04 544.43 490.19C544.81 490.35 545.15 490.58 545.45 490.88C545.75 491.18 545.97 491.53 546.12 491.93C546.27 492.33 546.35 492.75 546.35 493.2C546.35 494.11 546.09 494.84 545.58 495.39C545.06 495.94 544.28 496.32 543.24 496.55C543.68 496.78 544.1 497.13 544.5 497.59C544.9 498.05 545.26 498.53 545.57 499.05C545.88 499.56 546.13 500.03 546.31 500.44C546.49 500.86 546.57 501.14 546.57 501.3C546.57 501.46 546.52 501.62 546.42 501.78C546.32 501.94 546.18 502.06 546 502.16C545.82 502.25 545.62 502.3 545.38 502.3C545.1 502.3 544.87 502.23 544.68 502.1C544.49 501.97 544.33 501.8 544.19 501.6C544.05 501.4 543.87 501.1 543.63 500.72L542.64 499.07C542.28 498.46 541.96 498 541.68 497.68C541.4 497.36 541.11 497.15 540.82 497.03C540.53 496.91 540.17 496.85 539.73 496.85V496.84ZM541.14 491.69H538.85V495.06H541.07C541.67 495.06 542.17 495.01 542.57 494.91C542.98 494.81 543.29 494.63 543.5 494.38C543.71 494.13 543.82 493.79 543.82 493.36C543.82 493.02 543.73 492.72 543.56 492.46C543.39 492.2 543.15 492.01 542.84 491.88C542.55 491.76 541.98 491.7 541.13 491.7L541.14 491.69Z" fill="white"/>
<path d="M556.76 491.74H551.17V494.75H556.31C556.69 494.75 556.97 494.83 557.16 495.01C557.35 495.18 557.44 495.4 557.44 495.68C557.44 495.96 557.35 496.18 557.16 496.36C556.98 496.54 556.69 496.62 556.31 496.62H551.17V500.1H556.95C557.34 500.1 557.63 500.19 557.83 500.37C558.03 500.55 558.13 500.79 558.13 501.09C558.13 501.39 558.03 501.62 557.83 501.8C557.63 501.98 557.34 502.07 556.95 502.07H550.21C549.67 502.07 549.28 501.95 549.04 501.71C548.8 501.47 548.69 501.08 548.69 500.55V491.35C548.69 490.99 548.74 490.7 548.85 490.48C548.96 490.25 549.12 490.09 549.35 489.99C549.58 489.89 549.86 489.84 550.21 489.84H556.76C557.15 489.84 557.45 489.93 557.64 490.1C557.83 490.28 557.93 490.51 557.93 490.79C557.93 491.07 557.83 491.31 557.64 491.49C557.45 491.67 557.15 491.75 556.76 491.75V491.74Z" fill="white"/>
<path d="M564.85 497.3H562.58V500.77C562.58 501.27 562.46 501.64 562.23 501.9C562 502.16 561.7 502.28 561.35 502.28C561 502.28 560.68 502.15 560.45 501.9C560.22 501.65 560.11 501.27 560.11 500.78V491.34C560.11 490.79 560.23 490.4 560.49 490.17C560.74 489.94 561.14 489.82 561.68 489.82H564.86C565.8 489.82 566.52 489.89 567.03 490.04C567.53 490.18 567.96 490.41 568.33 490.73C568.69 491.05 568.97 491.45 569.16 491.92C569.35 492.39 569.44 492.91 569.44 493.5C569.44 494.75 569.06 495.69 568.29 496.33C567.52 496.97 566.38 497.29 564.86 497.29L564.85 497.3ZM564.25 491.69H562.58V495.43H564.25C564.83 495.43 565.32 495.37 565.72 495.25C566.11 495.13 566.41 494.93 566.62 494.65C566.83 494.37 566.93 494.01 566.93 493.56C566.93 493.02 566.77 492.58 566.45 492.24C566.09 491.88 565.36 491.7 564.25 491.7V491.69Z" fill="white"/>
<path d="M574.84 496.84H573.97V500.77C573.97 501.29 573.85 501.67 573.63 501.91C573.4 502.16 573.1 502.28 572.74 502.28C572.34 502.28 572.04 502.15 571.82 501.9C571.6 501.64 571.49 501.27 571.49 500.77V491.35C571.49 490.82 571.61 490.43 571.85 490.19C572.09 489.95 572.48 489.83 573.01 489.83H577.04C577.6 489.83 578.07 489.85 578.47 489.9C578.87 489.95 579.22 490.04 579.54 490.19C579.92 490.35 580.26 490.58 580.56 490.88C580.86 491.18 581.08 491.53 581.23 491.93C581.38 492.33 581.46 492.75 581.46 493.2C581.46 494.11 581.2 494.84 580.69 495.39C580.17 495.94 579.39 496.32 578.35 496.55C578.79 496.78 579.21 497.13 579.61 497.59C580.01 498.05 580.37 498.53 580.68 499.05C580.99 499.56 581.24 500.03 581.42 500.44C581.6 500.86 581.68 501.14 581.68 501.3C581.68 501.46 581.63 501.62 581.53 501.78C581.43 501.94 581.29 502.06 581.11 502.16C580.93 502.25 580.73 502.3 580.49 502.3C580.21 502.3 579.98 502.23 579.79 502.1C579.6 501.97 579.44 501.8 579.3 501.6C579.16 501.4 578.98 501.1 578.74 500.72L577.75 499.07C577.39 498.46 577.07 498 576.79 497.68C576.51 497.36 576.22 497.15 575.93 497.03C575.64 496.91 575.28 496.85 574.84 496.85V496.84ZM576.26 491.69H573.97V495.06H576.19C576.79 495.06 577.29 495.01 577.69 494.91C578.1 494.81 578.41 494.63 578.62 494.38C578.83 494.13 578.94 493.79 578.94 493.36C578.94 493.02 578.85 492.72 578.68 492.46C578.51 492.2 578.27 492.01 577.96 491.88C577.67 491.76 577.1 491.7 576.25 491.7L576.26 491.69Z" fill="white"/>
<path d="M591.87 491.74H586.28V494.75H591.42C591.8 494.75 592.08 494.83 592.27 495.01C592.46 495.18 592.55 495.4 592.55 495.68C592.55 495.96 592.46 496.18 592.27 496.36C592.09 496.54 591.8 496.62 591.42 496.62H586.28V500.1H592.06C592.45 500.1 592.74 500.19 592.94 500.37C593.14 500.55 593.24 500.79 593.24 501.09C593.24 501.39 593.14 501.62 592.94 501.8C592.74 501.98 592.45 502.07 592.06 502.07H585.32C584.78 502.07 584.39 501.95 584.15 501.71C583.91 501.47 583.8 501.08 583.8 500.55V491.35C583.8 490.99 583.85 490.7 583.96 490.48C584.07 490.25 584.23 490.09 584.46 489.99C584.69 489.89 584.97 489.84 585.32 489.84H591.87C592.26 489.84 592.56 489.93 592.75 490.1C592.94 490.28 593.04 490.51 593.04 490.79C593.04 491.07 592.94 491.31 592.75 491.49C592.56 491.67 592.26 491.75 591.87 491.75V491.74Z" fill="white"/>
<path d="M598.44 491.11L603.21 498.32V491.04C603.21 490.57 603.31 490.21 603.51 489.98C603.71 489.74 603.99 489.63 604.33 489.63C604.67 489.63 604.97 489.75 605.17 489.98C605.38 490.22 605.48 490.57 605.48 491.04V500.67C605.48 501.74 605.04 502.28 604.14 502.28C603.92 502.28 603.72 502.25 603.54 502.18C603.36 502.11 603.19 502.01 603.04 501.87C602.88 501.73 602.74 501.57 602.61 501.38C602.48 501.19 602.34 501 602.21 500.81L597.56 493.68V500.85C597.56 501.32 597.45 501.67 597.23 501.91C597.01 502.15 596.73 502.27 596.39 502.27C596.05 502.27 595.76 502.15 595.55 501.91C595.34 501.67 595.23 501.32 595.23 500.85V491.41C595.23 491.01 595.27 490.7 595.36 490.47C595.47 490.22 595.64 490.02 595.89 489.86C596.13 489.7 596.4 489.62 596.68 489.62C596.9 489.62 597.09 489.66 597.25 489.73C597.41 489.8 597.55 489.9 597.67 490.02C597.79 490.14 597.91 490.3 598.04 490.5C598.16 490.7 598.29 490.9 598.43 491.11H598.44Z" fill="white"/>
<path d="M616.27 491.74H610.68V494.75H615.82C616.2 494.75 616.48 494.83 616.67 495.01C616.86 495.18 616.95 495.4 616.95 495.68C616.95 495.96 616.86 496.18 616.67 496.36C616.49 496.54 616.2 496.62 615.82 496.62H610.68V500.1H616.46C616.85 500.1 617.14 500.19 617.34 500.37C617.54 500.55 617.64 500.79 617.64 501.09C617.64 501.39 617.54 501.62 617.34 501.8C617.14 501.98 616.85 502.07 616.46 502.07H609.72C609.18 502.07 608.79 501.95 608.55 501.71C608.31 501.47 608.2 501.08 608.2 500.55V491.35C608.2 490.99 608.25 490.7 608.36 490.48C608.47 490.25 608.63 490.09 608.86 489.99C609.09 489.89 609.37 489.84 609.72 489.84H616.27C616.66 489.84 616.96 489.93 617.15 490.1C617.34 490.28 617.44 490.51 617.44 490.79C617.44 491.07 617.34 491.31 617.15 491.49C616.96 491.67 616.66 491.75 616.27 491.75V491.74Z" fill="white"/>
<path d="M619.63 497.01V491.12C619.63 490.62 619.74 490.24 619.97 489.99C620.2 489.74 620.49 489.61 620.86 489.61C621.23 489.61 621.55 489.73 621.77 489.99C622 490.24 622.11 490.62 622.11 491.12V497.14C622.11 497.83 622.19 498.4 622.34 498.86C622.49 499.32 622.76 499.68 623.15 499.93C623.54 500.18 624.08 500.31 624.79 500.31C625.76 500.31 626.44 500.05 626.84 499.54C627.24 499.02 627.44 498.24 627.44 497.2V491.13C627.44 490.62 627.55 490.25 627.78 490C628 489.75 628.3 489.63 628.67 489.63C629.04 489.63 629.35 489.75 629.58 490C629.81 490.25 629.93 490.63 629.93 491.13V497.02C629.93 497.98 629.84 498.78 629.65 499.42C629.46 500.06 629.11 500.62 628.59 501.11C628.14 501.52 627.63 501.82 627.04 502.01C626.45 502.2 625.76 502.29 624.97 502.29C624.03 502.29 623.22 502.19 622.54 501.98C621.86 501.77 621.31 501.46 620.88 501.04C620.45 500.62 620.14 500.07 619.94 499.4C619.74 498.74 619.64 497.94 619.64 497.02L619.63 497.01Z" fill="white"/>
<path d="M635.94 496.84H635.07V500.77C635.07 501.29 634.95 501.67 634.73 501.91C634.5 502.16 634.2 502.28 633.84 502.28C633.44 502.28 633.14 502.15 632.92 501.9C632.7 501.64 632.59 501.27 632.59 500.77V491.35C632.59 490.82 632.71 490.43 632.95 490.19C633.19 489.95 633.58 489.83 634.11 489.83H638.14C638.7 489.83 639.17 489.85 639.57 489.9C639.97 489.95 640.32 490.04 640.64 490.19C641.02 490.35 641.36 490.58 641.66 490.88C641.96 491.18 642.18 491.53 642.33 491.93C642.48 492.33 642.56 492.75 642.56 493.2C642.56 494.11 642.3 494.84 641.79 495.39C641.27 495.94 640.49 496.32 639.45 496.55C639.89 496.78 640.31 497.13 640.71 497.59C641.11 498.05 641.47 498.53 641.78 499.05C642.09 499.56 642.34 500.03 642.52 500.44C642.7 500.86 642.78 501.14 642.78 501.3C642.78 501.46 642.73 501.62 642.63 501.78C642.53 501.94 642.39 502.06 642.21 502.16C642.03 502.25 641.83 502.3 641.59 502.3C641.31 502.3 641.08 502.23 640.89 502.1C640.7 501.97 640.54 501.8 640.4 501.6C640.26 501.4 640.08 501.1 639.84 500.72L638.85 499.07C638.49 498.46 638.17 498 637.89 497.68C637.61 497.36 637.32 497.15 637.03 497.03C636.74 496.91 636.38 496.85 635.94 496.85V496.84ZM637.36 491.69H635.07V495.06H637.29C637.89 495.06 638.39 495.01 638.79 494.91C639.2 494.81 639.51 494.63 639.72 494.38C639.93 494.13 640.04 493.79 640.04 493.36C640.04 493.02 639.95 492.72 639.78 492.46C639.61 492.2 639.37 492.01 639.06 491.88C638.77 491.76 638.2 491.7 637.35 491.7L637.36 491.69Z" fill="white"/>
<path d="M654.21 498.4C654.21 499.14 654.02 499.81 653.64 500.4C653.26 500.99 652.7 501.45 651.97 501.79C651.23 502.12 650.36 502.29 649.36 502.29C648.15 502.29 647.16 502.06 646.37 501.6C645.81 501.27 645.36 500.83 645.01 500.29C644.66 499.74 644.49 499.21 644.49 498.69C644.49 498.39 644.59 498.13 644.8 497.92C645.01 497.71 645.27 497.6 645.6 497.6C645.86 497.6 646.08 497.68 646.26 497.85C646.44 498.02 646.6 498.27 646.72 498.59C646.87 498.98 647.04 499.3 647.22 499.57C647.4 499.84 647.66 500.05 647.98 500.22C648.31 500.39 648.74 500.48 649.27 500.48C650.01 500.48 650.6 500.31 651.06 499.97C651.52 499.63 651.75 499.2 651.75 498.69C651.75 498.28 651.63 497.95 651.38 497.7C651.13 497.45 650.81 497.25 650.42 497.12C650.03 496.99 649.5 496.84 648.84 496.7C647.96 496.49 647.22 496.25 646.63 495.98C646.04 495.71 645.57 495.33 645.22 494.85C644.87 494.37 644.7 493.78 644.7 493.08C644.7 492.38 644.88 491.81 645.25 491.29C645.62 490.77 646.15 490.36 646.84 490.08C647.54 489.8 648.35 489.66 649.3 489.66C650.05 489.66 650.7 489.75 651.25 489.94C651.8 490.13 652.25 490.37 652.61 490.68C652.97 490.99 653.24 491.31 653.4 491.65C653.57 491.99 653.65 492.32 653.65 492.64C653.65 492.94 653.55 493.2 653.34 493.44C653.13 493.68 652.87 493.8 652.56 493.8C652.28 493.8 652.06 493.73 651.91 493.59C651.76 493.45 651.6 493.22 651.43 492.89C651.21 492.43 650.94 492.07 650.63 491.81C650.32 491.55 649.82 491.42 649.13 491.42C648.49 491.42 647.97 491.56 647.58 491.84C647.19 492.12 646.99 492.46 646.99 492.85C646.99 493.1 647.06 493.31 647.19 493.48C647.32 493.66 647.51 493.81 647.74 493.94C647.97 494.07 648.21 494.17 648.45 494.24C648.69 494.31 649.08 494.42 649.64 494.56C650.33 494.72 650.96 494.9 651.51 495.09C652.07 495.28 652.55 495.52 652.94 495.8C653.33 496.08 653.64 496.43 653.86 496.86C654.08 497.29 654.19 497.81 654.19 498.43L654.21 498.4Z" fill="white"/>
<path d="M658.81 491.12V494.63H664.16V491.12C664.16 490.62 664.27 490.24 664.5 489.99C664.73 489.74 665.02 489.61 665.39 489.61C665.76 489.61 666.06 489.73 666.29 489.98C666.52 490.23 666.64 490.61 666.64 491.11V500.76C666.64 501.27 666.52 501.64 666.29 501.9C666.06 502.15 665.76 502.28 665.39 502.28C665.02 502.28 664.72 502.15 664.5 501.9C664.28 501.65 664.17 501.27 664.17 500.77V496.65H658.82V500.77C658.82 501.28 658.7 501.65 658.47 501.91C658.24 502.16 657.94 502.29 657.57 502.29C657.2 502.29 656.9 502.16 656.68 501.91C656.46 501.66 656.35 501.28 656.35 500.78V491.13C656.35 490.63 656.46 490.25 656.68 490C656.9 489.75 657.2 489.62 657.58 489.62C657.96 489.62 658.25 489.74 658.49 489.99C658.72 490.24 658.84 490.62 658.84 491.12H658.81Z" fill="white"/>
<path d="M669.41 500.77V491.12C669.41 490.62 669.52 490.24 669.75 489.99C669.98 489.74 670.27 489.61 670.64 489.61C671.01 489.61 671.31 489.73 671.54 489.98C671.77 490.23 671.89 490.61 671.89 491.11V500.76C671.89 501.27 671.77 501.64 671.54 501.9C671.31 502.15 671.01 502.28 670.64 502.28C670.27 502.28 669.99 502.15 669.76 501.9C669.53 501.65 669.41 501.27 669.41 500.77Z" fill="white"/>
<path d="M679.41 497.3H677.14V500.77C677.14 501.27 677.02 501.64 676.79 501.9C676.56 502.16 676.26 502.28 675.91 502.28C675.56 502.28 675.24 502.15 675.01 501.9C674.78 501.65 674.67 501.27 674.67 500.78V491.34C674.67 490.79 674.79 490.4 675.05 490.17C675.3 489.94 675.7 489.82 676.24 489.82H679.42C680.36 489.82 681.08 489.89 681.59 490.04C682.09 490.18 682.52 490.41 682.89 490.73C683.25 491.05 683.53 491.45 683.72 491.92C683.91 492.39 684 492.91 684 493.5C684 494.75 683.62 495.69 682.85 496.33C682.08 496.97 680.94 497.29 679.42 497.29L679.41 497.3ZM678.81 491.69H677.14V495.43H678.81C679.39 495.43 679.88 495.37 680.28 495.25C680.67 495.13 680.97 494.93 681.18 494.65C681.39 494.37 681.49 494.01 681.49 493.56C681.49 493.02 681.33 492.58 681.01 492.24C680.65 491.88 679.92 491.7 678.81 491.7V491.69Z" fill="white"/>
<path d="M225.93 243.11C225.25 245.37 224.18 247.4 222.92 249.18C222.36 249.73 221.79 250.27 221.22 250.78C213.89 257.44 205.57 261.36 196.85 262.94C171.14 267.66 142.02 252.07 125.03 226.46C101.87 191.55 71.99 169 71.99 169L72.05 168.8C72.05 168.8 109.45 170.18 149.47 157.71C150.75 157.3 152.06 156.95 153.37 156.62C153.56 160.93 153.64 165.39 153.59 169.91C153.34 191.54 160.84 212.45 173.65 226.64C173.84 226.86 174.05 227.08 174.25 227.3C179.09 232.52 184.67 236.79 190.86 239.79C191.8 240.26 192.77 240.68 193.74 241.08C198.68 243.11 203.99 244.35 209.59 244.63C213.34 244.82 217.22 244.6 221.22 243.89C222.64 243.66 224.09 243.34 225.54 242.98C225.68 243.04 225.79 243.09 225.93 243.12V243.11Z" fill="#D7DF23"/>
<path d="M420.38 169C420.38 169 390.5 191.55 367.35 226.46C350.37 252.06 321.26 267.65 295.54 262.97C286.82 261.39 278.49 257.47 271.16 250.81C270.57 250.28 269.99 249.73 269.41 249.16C269.42 249.17 269.43 249.18 269.44 249.18C268.19 247.42 267.12 245.4 266.44 243.14C266.58 243.11 266.74 243.03 266.88 242.97C268.32 243.34 269.75 243.64 271.16 243.88C275.16 244.58 279.04 244.8 282.78 244.61C288.38 244.33 293.68 243.1 298.64 241.07C299.61 240.67 300.57 240.25 301.51 239.78C307.7 236.79 313.28 232.51 318.13 227.28C318.33 227.07 318.53 226.85 318.72 226.64C331.52 212.46 339.02 191.54 338.75 169.9C338.7 165.38 338.78 160.93 338.97 156.58C340.28 156.9 341.6 157.29 342.9 157.7C382.92 170.18 420.33 168.79 420.33 168.79L420.38 168.99V169Z" fill="#D7DF23"/>
<path d="M225.55 242.97C183.65 253.61 153.08 213.18 153.6 169.9C153.66 165.39 153.57 160.93 153.38 156.61C151.68 120.77 142.15 92.53 142.15 92.53L142.29 92.42C142.29 92.42 172.44 114.59 212.54 126.84C214.51 127.44 216.45 128.1 218.33 128.83C215.65 132.96 212.78 137.09 209.7 141.22C205.95 146.22 202.75 151.55 200.19 157.08C184.66 190.05 190.49 229.49 225.56 242.97H225.55Z" fill="#8DC63F"/>
<path d="M350.23 92.53C350.23 92.53 340.69 120.74 338.97 156.58C338.78 160.93 338.7 165.38 338.75 169.9C339.3 213.18 308.76 253.58 266.88 242.97C271.91 241.03 276.36 238.54 280.22 235.62C281.31 234.8 282.35 233.92 283.36 233.02C294.95 222.61 300.31 207.74 300.31 191.85C300.31 190.78 300.28 189.71 300.23 188.65C300.2 187.58 300.12 186.49 300.01 185.4V185.37C299.93 184.39 299.82 183.37 299.68 182.36C299.49 180.94 299.27 179.49 298.99 178.07C298.86 177.28 298.69 176.51 298.53 175.72C298.42 175.15 298.28 174.55 298.12 173.97C297.82 172.66 297.49 171.35 297.08 170.04C296.45 167.83 295.72 165.67 294.9 163.5C294.65 162.76 294.35 162.05 294.05 161.34C293.48 159.92 292.85 158.5 292.19 157.08C292.05 156.81 291.94 156.53 291.8 156.28C291.48 155.55 291.12 154.84 290.73 154.12C290.55 153.73 290.35 153.35 290.13 152.97C289.99 152.72 289.85 152.45 289.72 152.21C289.34 151.5 288.92 150.78 288.52 150.07C287.37 148.08 286.11 146.11 284.8 144.17C284.11 143.18 283.41 142.21 282.66 141.22C279.57 137.09 276.7 132.96 274.03 128.83C275.92 128.09 277.85 127.44 279.82 126.84C319.93 114.6 350.08 92.42 350.08 92.42L350.21 92.53H350.23Z" fill="#8DC63F"/>
<path d="M300.23 188.65C300.2 187.58 300.12 186.49 300.01 185.4V185.37C299.93 184.39 299.82 183.37 299.68 182.36C299.49 180.94 299.27 179.49 298.99 178.07C298.86 177.28 298.69 176.51 298.53 175.72C298.42 175.15 298.28 174.55 298.12 173.97C297.82 172.66 297.46 171.35 297.08 170.04C296.45 167.83 295.72 165.67 294.9 163.5C294.63 162.79 294.35 162.05 294.05 161.34C293.48 159.92 292.85 158.5 292.19 157.08C292.05 156.81 291.94 156.53 291.8 156.28C291.48 155.55 291.12 154.84 290.73 154.12C290.55 153.73 290.35 153.35 290.13 152.97C289.99 152.72 289.85 152.45 289.72 152.21C289.34 151.5 288.92 150.78 288.52 150.07C287.37 148.08 286.11 146.08 284.8 144.17C284.11 143.18 283.41 142.21 282.66 141.22C279.57 137.09 276.7 132.96 274.03 128.83C254.92 99.48 246.26 72 246.26 72H246.07C246.07 72 237.43 99.48 218.32 128.83C215.64 132.96 212.77 137.09 209.69 141.22C205.94 146.22 202.74 151.55 200.18 157.08C184.65 190.05 190.48 229.49 225.55 242.97C225.69 243.03 225.8 243.08 225.93 243.11C225.25 245.37 224.18 247.4 222.92 249.18C222.98 249.15 223.03 249.12 223.06 249.1C229.16 243.66 237.17 240.32 245.97 240.32H246.41C255.21 240.32 263.22 243.66 269.32 249.1C269.35 249.12 269.37 249.12 269.4 249.15C269.4 249.15 269.41 249.16 269.42 249.16C269.43 249.17 269.44 249.18 269.45 249.18C268.2 247.42 267.13 245.4 266.45 243.14C266.43 243.06 266.41 242.99 266.39 242.91C266.41 242.98 266.43 243.06 266.45 243.14C266.59 243.11 266.75 243.03 266.89 242.97C271.92 241.03 276.37 238.54 280.23 235.62C281.32 234.8 282.36 233.92 283.37 233.02C294.96 222.61 300.32 207.74 300.32 191.85C300.32 190.78 300.29 189.72 300.24 188.65H300.23Z" fill="#39B54A"/>
<path d="M276.77 220.45L276.06 220.16L276.92 220.22L292.53 221.37L278.25 217.77L276.93 217.43L278.46 217.33L312.09 215.06L280.7 211.69L276.62 211.25L281.18 210.27L292.76 207.77L281.82 208.19L276.68 208.38L282.34 206.29L309.75 196.2L283.42 200.96L274.65 202.54L282.41 198.32L289.16 194.66L281.24 197.31L273.9 199.78L278.59 196.3L302.2 178.77L278.85 190.46L270.3 194.74L278.63 186.43L281.99 183.08L278.53 185.5L268.81 192.29L277.69 180.52L290.03 164.17L276.59 176.69L263.93 188.49L271.87 174.01L261.8 186.56L269.74 165.53L274.25 153.59L268.08 163.99L256.06 184.27L259.59 168.14L253.47 183.01L256.13 147.87L247.31 182.43L246.18 166.26V165.97V166.11L246.16 165.97V166.26L245.03 182.43L236.21 147.87L238.87 183.01L232.75 168.14L236.28 184.27L224.26 163.99L218.09 153.59L222.6 165.52L230.54 186.56L220.47 174.01L228.41 188.49L215.75 176.69L202.31 164.17L214.65 180.52L223.53 192.29L213.81 185.5L210.35 183.08L213.71 186.43L222.04 194.74L213.49 190.46L190.14 178.77L213.75 196.3L218.44 199.78L211.1 197.32L203.18 194.66L209.93 198.32L217.69 202.54L208.92 200.96L182.59 196.2L210 206.29L215.66 208.38L210.52 208.19L199.58 207.77L211.16 210.27L215.72 211.25L211.64 211.69L180.25 215.06L213.88 217.33L215.41 217.43L214.09 217.77L199.81 221.37L215.42 220.22L216.28 220.16L215.57 220.45L183.32 233.8L217.73 226.18L203.87 234.36L219.33 228.55L191.55 250.93L220.2 235.15L221.39 234.49L222.43 233.92L221.37 235.05L220.28 236.21L211.43 245.67L224.64 235.75L212.62 252.13L225.98 242.84L221.97 250.06L225.75 246.91C231.43 242.77 238.39 240.31 245.93 240.31H246.37C253.92 240.31 260.89 242.77 266.56 246.91L270.6 250.32L266.32 242.84L279.7 252.13L267.68 235.75L280.89 245.67L272.04 236.21L270.95 235.05L269.89 233.92L270.93 234.49L272.12 235.15L300.77 250.93L272.99 228.55L288.45 234.36L274.59 226.18L309 233.8L276.75 220.45H276.77Z" fill="#D7DF23"/>
</g>
<defs>
<clipPath id="clip0_723_78">
<rect width="755.16" height="574.29" fill="white"/>
</clipPath>
</defs>
</svg>
