<?xml version="1.0" encoding="UTF-8"?>
<svg id="Layer_1" data-name="Layer 1" xmlns="http://www.w3.org/2000/svg" viewBox="0 0 755.16 574.29">
  <defs>
    <style>
      .cls-1 {
        fill: #39b54a;
      }

      .cls-1, .cls-2, .cls-3, .cls-4, .cls-5, .cls-6 {
        stroke-width: 0px;
      }

      .cls-2 {
        fill: none;
      }

      .cls-3 {
        fill-rule: evenodd;
      }

      .cls-3, .cls-6 {
        fill: #178380;
      }

      .cls-4 {
        fill: #d7df23;
      }

      .cls-5 {
        fill: #8dc63f;
      }
    </style>
  </defs>
  <rect class="cls-2" x="90.43" y="-90.43" width="574.29" height="755.16" transform="translate(664.73 -90.43) rotate(90)"/>
  <g>
    <g>
      <path class="cls-6" d="M225.08,274.39h-6.01v19.74c0,1.13-.26,1.98-.76,2.53-.5.55-1.17.82-1.97.82s-1.48-.28-1.99-.84c-.51-.55-.77-1.39-.77-2.52v-19.74h-6.01c-.94,0-1.64-.21-2.1-.62-.46-.42-.68-.97-.68-1.65s.24-1.25.71-1.66c.47-.41,1.16-.61,2.07-.61h17.5c.95,0,1.66.21,2.13.62.46.43.69.98.69,1.65s-.23,1.23-.7,1.65c-.47.41-1.18.62-2.12.62Z"/>
      <path class="cls-6" d="M240.01,272.72v7.78h11.88v-7.78c0-1.12.26-1.95.75-2.51.5-.55,1.16-.83,1.97-.83s1.5.27,2.01.82c.52.55.77,1.39.77,2.52v21.41c0,1.13-.25,1.97-.77,2.52-.52.56-1.19.84-2,.84s-1.49-.28-1.98-.85c-.5-.56-.75-1.4-.75-2.51v-9.14h-11.88v9.14c0,1.13-.26,1.97-.78,2.52-.52.56-1.18.84-2,.84s-1.49-.28-1.98-.85c-.5-.56-.75-1.4-.75-2.51v-21.41c0-1.12.25-1.95.74-2.51.49-.55,1.16-.83,1.99-.83s1.5.27,2.01.82c.51.55.77,1.39.77,2.52Z"/>
      <path class="cls-6" d="M284.53,274.09h-12.4v6.68h11.42c.84,0,1.47.18,1.88.57.41.37.62.87.62,1.48s-.21,1.13-.61,1.52c-.41.39-1.04.58-1.89.58h-11.42v7.73h12.83c.86,0,1.51.2,1.96.6.44.4.65.93.65,1.61s-.22,1.16-.65,1.57c-.45.4-1.1.6-1.96.6h-14.96c-1.2,0-2.06-.27-2.59-.8-.53-.53-.79-1.39-.79-2.58v-20.43c0-.79.13-1.44.36-1.94.24-.5.6-.86,1.1-1.09.51-.23,1.14-.34,1.92-.34h14.53c.89,0,1.53.2,1.96.59.43.38.64.89.64,1.52s-.21,1.17-.64,1.55c-.43.39-1.07.58-1.96.58Z"/>
    </g>
    <g>
      <path class="cls-6" d="M112.86,460.24v-46.52c0-2.42.55-4.23,1.66-5.43,1.1-1.21,2.52-1.82,4.27-1.82s3.26.6,4.38,1.79c1.12,1.2,1.66,3.01,1.66,5.46v46.52c0,2.44-.55,4.27-1.66,5.48-1.12,1.2-2.58,1.81-4.38,1.81s-3.13-.61-4.25-1.83c-1.12-1.22-1.67-3.04-1.67-5.46Z"/>
      <path class="cls-6" d="M171.12,413.64l23,34.8v-35.12c0-2.28.49-3.99,1.46-5.13.99-1.14,2.31-1.71,3.98-1.71s3.07.57,4.06,1.71c1,1.14,1.49,2.85,1.49,5.13v46.44c0,5.18-2.15,7.77-6.45,7.77-1.07,0-2.04-.15-2.9-.47-.85-.3-1.67-.79-2.41-1.46-.75-.68-1.45-1.46-2.09-2.36-.64-.9-1.29-1.82-1.93-2.76l-22.44-34.39v34.59c0,2.25-.52,3.96-1.57,5.12-1.05,1.15-2.39,1.73-4.03,1.73s-3.04-.59-4.07-1.75c-1.02-1.17-1.53-2.87-1.53-5.1v-45.55c0-1.93.22-3.44.64-4.55.51-1.21,1.36-2.2,2.54-2.96,1.18-.76,2.46-1.15,3.83-1.15,1.08,0,1.99.18,2.76.52.76.35,1.44.82,2.02,1.41.58.58,1.17,1.35,1.78,2.29.6.94,1.22,1.92,1.87,2.94Z"/>
      <path class="cls-6" d="M280.39,448.81c0,3.57-.92,6.78-2.76,9.63-1.84,2.85-4.53,5.07-8.08,6.69-3.55,1.61-7.75,2.41-12.61,2.41-5.83,0-10.63-1.1-14.42-3.3-2.69-1.59-4.87-3.7-6.55-6.35-1.68-2.64-2.52-5.21-2.52-7.71,0-1.45.51-2.69,1.51-3.73,1.01-1.04,2.29-1.55,3.85-1.55,1.26,0,2.33.4,3.2,1.2.88.81,1.62,2.01,2.24,3.59.75,1.88,1.57,3.45,2.44,4.71.88,1.27,2.1,2.31,3.69,3.13,1.58.82,3.66,1.22,6.24,1.22,3.54,0,6.41-.82,8.64-2.48,2.21-1.65,3.32-3.71,3.32-6.18,0-1.95-.6-3.55-1.79-4.77-1.2-1.22-2.74-2.15-4.63-2.8-1.89-.64-4.43-1.32-7.59-2.05-4.25-.99-7.8-2.15-10.66-3.49-2.85-1.33-5.13-3.13-6.8-5.43-1.68-2.29-2.52-5.15-2.52-8.55s.89-6.14,2.66-8.66c1.77-2.52,4.33-4.47,7.69-5.82,3.36-1.36,7.3-2.04,11.84-2.04,3.63,0,6.77.45,9.41,1.35,2.65.9,4.84,2.1,6.59,3.58,1.74,1.5,3.02,3.06,3.83,4.7.8,1.63,1.2,3.23,1.2,4.79,0,1.42-.5,2.7-1.51,3.85-1.01,1.14-2.26,1.71-3.77,1.71-1.37,0-2.41-.35-3.12-1.03-.72-.68-1.48-1.81-2.32-3.36-1.08-2.23-2.36-3.96-3.87-5.22-1.5-1.25-3.92-1.87-7.25-1.87-3.08,0-5.57.68-7.47,2.03-1.89,1.35-2.84,2.98-2.84,4.89,0,1.18.32,2.2.97,3.06.64.86,1.52,1.6,2.66,2.22,1.13.63,2.26,1.1,3.42,1.45,1.16.35,3.07.86,5.72,1.53,3.34.78,6.35,1.64,9.05,2.58,2.7.94,4.99,2.08,6.88,3.42,1.9,1.34,3.37,3.04,4.43,5.1,1.06,2.05,1.59,4.57,1.59,7.55Z"/>
      <path class="cls-6" d="M346.21,417.35h-13.05v42.89c0,2.47-.55,4.31-1.66,5.5-1.1,1.2-2.52,1.79-4.27,1.79s-3.22-.61-4.33-1.81c-1.11-1.21-1.67-3.03-1.67-5.48v-42.89h-13.05c-2.04,0-3.55-.45-4.55-1.35-1-.91-1.49-2.1-1.49-3.57s.52-2.74,1.55-3.63c1.03-.89,2.53-1.32,4.48-1.32h38.03c2.07,0,3.6.46,4.61,1.37,1,.91,1.51,2.11,1.51,3.59s-.52,2.66-1.54,3.57c-1.02.89-2.55,1.35-4.59,1.35Z"/>
      <path class="cls-6" d="M377.23,460.24v-46.52c0-2.42.55-4.23,1.65-5.43,1.1-1.21,2.53-1.82,4.28-1.82s3.25.6,4.37,1.79c1.11,1.2,1.67,3.01,1.67,5.46v46.52c0,2.44-.56,4.27-1.67,5.48-1.12,1.2-2.57,1.81-4.37,1.81s-3.13-.61-4.25-1.83c-1.11-1.22-1.67-3.04-1.67-5.46Z"/>
      <path class="cls-6" d="M458.23,417.35h-13.05v42.89c0,2.47-.55,4.31-1.65,5.5-1.1,1.2-2.52,1.79-4.27,1.79s-3.22-.61-4.33-1.81c-1.11-1.21-1.67-3.03-1.67-5.48v-42.89h-13.05c-2.04,0-3.55-.45-4.54-1.35-.99-.91-1.49-2.1-1.49-3.57s.52-2.74,1.55-3.63c1.04-.89,2.54-1.32,4.49-1.32h38.03c2.07,0,3.61.46,4.61,1.37,1,.91,1.51,2.11,1.51,3.59s-.51,2.66-1.53,3.57c-1.02.89-2.55,1.35-4.59,1.35Z"/>
      <path class="cls-6" d="M488.84,442.12v-28.4c0-2.42.54-4.23,1.63-5.43,1.09-1.21,2.52-1.82,4.29-1.82,1.86,0,3.33.61,4.41,1.82,1.09,1.2,1.63,3.02,1.63,5.43v29.04c0,3.3.37,6.06,1.11,8.28.73,2.22,2.03,3.93,3.92,5.16,1.88,1.22,4.51,1.83,7.9,1.83,4.67,0,7.98-1.24,9.91-3.72,1.93-2.49,2.9-6.26,2.9-11.3v-29.28c0-2.44.53-4.26,1.61-5.46,1.07-1.2,2.51-1.79,4.31-1.79s3.26.6,4.37,1.79c1.11,1.2,1.67,3.01,1.67,5.46v28.4c0,4.63-.45,8.47-1.35,11.56-.9,3.09-2.6,5.8-5.09,8.14-2.15,1.99-4.65,3.44-7.5,4.35-2.84.92-6.17,1.37-9.99,1.37-4.53,0-8.44-.49-11.71-1.47-3.27-.98-5.95-2.49-8.02-4.55-2.07-2.05-3.59-4.69-4.55-7.9-.96-3.21-1.45-7.04-1.45-11.5Z"/>
      <path class="cls-6" d="M607.1,417.35h-13.05v42.89c0,2.47-.54,4.31-1.65,5.5-1.1,1.2-2.52,1.79-4.27,1.79s-3.21-.61-4.32-1.81c-1.12-1.21-1.67-3.03-1.67-5.48v-42.89h-13.05c-2.04,0-3.56-.45-4.55-1.35-.99-.91-1.49-2.1-1.49-3.57s.52-2.74,1.55-3.63c1.04-.89,2.53-1.32,4.49-1.32h38.02c2.07,0,3.61.46,4.62,1.37,1.01.91,1.51,2.11,1.51,3.59s-.51,2.66-1.53,3.57c-1.02.89-2.55,1.35-4.59,1.35Z"/>
      <path class="cls-6" d="M676.55,416.71h-26.95v14.5h24.81c1.83,0,3.19.41,4.09,1.23.91.82,1.35,1.9,1.35,3.24s-.44,2.43-1.33,3.28c-.89.85-2.26,1.27-4.11,1.27h-24.81v16.79h27.87c1.88,0,3.29.44,4.25,1.31.96.88,1.43,2.04,1.43,3.49s-.47,2.53-1.43,3.4c-.95.87-2.37,1.31-4.25,1.31h-32.5c-2.61,0-4.48-.58-5.62-1.73-1.14-1.15-1.72-3.02-1.72-5.6v-44.38c0-1.72.26-3.13.77-4.21.51-1.08,1.31-1.88,2.4-2.37,1.08-.5,2.47-.75,4.17-.75h31.58c1.9,0,3.33.42,4.25,1.27.92.85,1.39,1.95,1.39,3.32s-.47,2.52-1.39,3.37c-.92.85-2.35,1.27-4.25,1.27Z"/>
    </g>
    <g>
      <g>
        <path class="cls-3" d="M154.28,307.52c-22.87,0-41.41,18.54-41.41,41.41s18.54,41.42,41.41,41.42,41.41-18.54,41.41-41.42-18.54-41.41-41.41-41.41ZM154.28,370.34c-11.82,0-21.41-9.58-21.41-21.42s9.59-21.41,21.41-21.41,21.41,9.59,21.41,21.41-9.59,21.42-21.41,21.42Z"/>
        <path class="cls-3" d="M132.41,309.79v-8.2c0-10.79-8.75-19.54-19.54-19.54v49.66c3.88-9.3,10.82-17.01,19.54-21.92Z"/>
      </g>
      <g>
        <path class="cls-3" d="M296.08,348.92c0,22.88,18.54,41.42,41.41,41.42s41.42-18.54,41.42-41.42-18.55-41.41-41.42-41.41-41.41,18.54-41.41,41.41ZM316.08,348.92c0-11.82,9.58-21.41,21.41-21.41s21.42,9.59,21.42,21.41-9.59,21.42-21.42,21.42-21.41-9.58-21.41-21.42Z"/>
        <path class="cls-3" d="M359.36,309.79v-8.2c0-10.79,8.75-19.54,19.55-19.54v49.66c-3.89-9.3-10.82-17.01-19.55-21.92Z"/>
      </g>
      <g>
        <path class="cls-3" d="M388.12,348.92c0,22.88,18.53,41.42,41.41,41.42s41.42-18.54,41.42-41.42-18.55-41.41-41.42-41.41-41.41,18.54-41.41,41.41ZM408.12,348.92c0-11.82,9.59-21.41,21.41-21.41s21.42,9.59,21.42,21.41-9.6,21.42-21.42,21.42-21.41-9.58-21.41-21.42Z"/>
        <path class="cls-3" d="M451.4,309.79v-8.2c0-10.79,8.75-19.54,19.55-19.54v49.66c-3.89-9.3-10.83-17.01-19.55-21.92Z"/>
      </g>
      <path class="cls-3" d="M287.73,348.92v-41.42c-11.04,0-19.96,8.94-19.96,19.96v21.46h-.04c0,11.84-9.59,21.42-21.41,21.42s-21.42-9.58-21.42-21.42h-.06v-21.46c0-11.02-8.91-19.96-19.96-19.96v41.42h.02c0,22.88,18.54,41.42,41.42,41.42s41.42-18.55,41.42-41.42h0Z"/>
      <g>
        <path class="cls-3" d="M499.69,309.79v-8.2c0-10.79-8.75-19.54-19.53-19.54v49.66c3.88-9.3,10.81-17.01,19.53-21.92Z"/>
        <path class="cls-3" d="M562.98,348.92h0c0-22.87-18.54-41.41-41.41-41.41s-41.41,18.54-41.41,41.41h0v41.43c11.05,0,19.95-8.94,19.95-19.96v-21.47h.04c0-11.83,9.58-21.41,21.42-21.41s21.41,9.58,21.41,21.41h0s.06,0,.06,0v21.47c0,11.01,8.91,19.96,19.97,19.96v-41.43h-.02Z"/>
      </g>
      <path class="cls-3" d="M683.15,380.28c0,5.55-4.66,10.07-10.4,10.07-.73,0-1.42-.1-2.12-.23-1.06-.1-2.08-.23-3.07-.49-2.35-.59-4.72-1.32-6.97-2.21-2.15-.83-4.26-1.78-6.18-3.04-2.44-1.55-4.79-3.3-6.93-5.28-2.02-1.85-3.8-3.96-5.45-6.14-1.29-1.71-2.18-3.77-3.3-5.61-1.53-2.58-2.48-5.39-3.17-8.29-.56-2.24-.92-4.56-1.12-6.87-.1-.89-.1-1.78-.13-2.67h-.03c0-.07,0-.17.03-.27-.03-1.42-.1-2.84-.4-4.27,0-.03-.03-.03-.03-.06.03,0,.03-.04.07-.04-.4-1.98-1.03-3.86-1.96-5.61-3.53-6.97-10.73-11.76-19.08-11.76-11.82,0-21.43,9.61-21.43,21.43s9.61,21.4,21.43,21.4c8.28,0,15.46-4.69,19.02-11.59,1.59,7.46,5.05,14.2,9.91,19.78-7.47,7.33-17.67,11.82-28.93,11.82-22.89,0-41.41-18.56-41.41-41.41s18.52-41.42,41.41-41.42c11.4,0,21.66,4.59,29.16,12.06,4.32,4.32,7.73,9.57,9.81,15.49.03,0,.03-.03.03-.03.16.43.3.89.46,1.32.04.13.07.23.1.36.1.26.2.56.3.86,1.06,3.04,1.52,6.17,1.62,9.42.07,1.71.2,3.4.4,5.11.17,1.32.37,2.64.82,3.86.53,1.46,1.29,2.84,2.11,4.13.92,1.46,1.99,2.81,3.14,4.07,1.78,1.88,3.93,3.3,6.3,4.35.99.47,2.02.96,3.08,1.19,1.15.19,2.34.43,3.53.56,5.25.49,9.38,4.75,9.38,10.01Z"/>
    </g>
    <g>
      <path class="cls-1" d="M118.57,500.92c0,.27,0,.5-.03.69-.02.18-.08.32-.2.43-.06.06-.14.11-.24.16-.1.05-.22.08-.36.08-.23,0-.42-.08-.58-.24-.13-.1-.2-.24-.21-.42-.02-.18-.03-.41-.03-.69v-9.78h-2.77c-.25,0-.45,0-.6-.03-.15-.02-.27-.07-.36-.16-.06-.06-.11-.12-.15-.2s-.07-.17-.07-.26c0-.08.02-.16.06-.25.04-.09.09-.16.15-.21.09-.1.21-.16.37-.18s.36-.03.61-.03h7.2c.25,0,.45,0,.6.03.15.02.27.08.36.18.06.06.11.13.15.21s.07.17.07.26c0,.08-.02.16-.07.25s-.1.16-.15.21c-.09.09-.21.15-.36.16-.15.02-.35.03-.6.03h-2.79v9.78Z"/>
      <path class="cls-1" d="M125.86,500.91c0,.25,0,.43-.02.54s-.03.21-.05.3c-.06.18-.16.32-.32.4s-.31.13-.45.13c-.16,0-.31-.05-.45-.15s-.24-.23-.3-.39c-.02-.08-.04-.2-.04-.37,0-.16,0-.32,0-.47v-9.71c0-.31.01-.55.04-.74.03-.18.09-.32.18-.41s.23-.15.41-.18c.18-.03.43-.04.73-.04h3.9s.16,0,.34,0c.18,0,.39.02.62.05.23.03.48.08.73.15.26.07.49.17.69.29.49.3.87.69,1.15,1.18.28.49.42,1.04.42,1.66s-.12,1.13-.37,1.54c-.24.41-.49.71-.74.89-.41.31-.81.51-1.19.62-.39.1-.7.18-.95.22.16.09.36.22.6.39s.47.4.7.69c.12.16.26.35.42.56.15.21.25.35.3.42l1.11,1.86c.13.22.22.39.3.52.07.13.13.24.17.33s.07.15.08.2c.01.05.02.11.02.18,0,.23-.08.41-.23.53-.15.13-.33.19-.52.19-.12,0-.23-.02-.32-.05s-.18-.09-.26-.18c-.08-.09-.17-.2-.26-.34s-.2-.32-.34-.54l-1.16-1.85c-.42-.66-.78-1.18-1.08-1.55s-.58-.64-.83-.82c-.26-.18-.5-.28-.75-.32-.24-.04-.51-.06-.81-.06h-1.43v4.33ZM125.86,491.09v4.17h2.86c.19,0,.46-.01.8-.03s.68-.1,1.02-.23c.34-.13.63-.34.88-.62.25-.28.38-.69.38-1.23,0-.66-.26-1.19-.79-1.59-.14-.11-.3-.2-.5-.26s-.39-.11-.6-.14c-.21-.03-.41-.04-.62-.05-.2,0-.38,0-.53,0h-2.91Z"/>
      <path class="cls-1" d="M137.62,498.53l-1.06,2.74c-.13.33-.24.58-.35.75-.11.17-.31.26-.59.26-.23,0-.42-.08-.56-.23-.15-.15-.22-.32-.22-.49,0-.13.02-.25.06-.38.04-.12.1-.28.18-.48l3.88-9.63c.09-.24.18-.45.26-.63.08-.18.17-.33.27-.45s.21-.21.34-.27c.13-.06.29-.09.49-.09.16,0,.31.03.46.09.15.06.27.15.36.25.09.09.19.25.28.47s.19.43.27.62l4.02,9.58c.09.22.16.39.2.51.04.13.06.25.06.38,0,.16-.07.32-.22.5-.15.17-.35.26-.6.26-.29,0-.48-.09-.59-.26-.11-.18-.23-.44-.37-.78l-1.09-2.7h-5.46ZM142.58,497.21l-2.29-5.73-2.21,5.73h4.5Z"/>
      <path class="cls-1" d="M155.78,490.94c-.01-.26-.01-.45,0-.57.01-.12.05-.24.1-.35.05-.09.13-.18.25-.27.12-.09.26-.13.42-.13.23,0,.42.08.58.24.11.1.18.24.2.4.02.17.03.39.03.68v9.68c0,.42-.01.73-.04.92s-.13.36-.3.5c-.19.16-.42.24-.67.24-.14,0-.25-.02-.34-.05-.09-.03-.18-.09-.27-.17-.09-.08-.17-.18-.27-.31-.09-.12-.2-.28-.32-.46l-5.97-8.91.07,8.59c0,.27,0,.47,0,.58,0,.11-.04.23-.09.34-.05.09-.13.18-.26.27s-.27.13-.43.13c-.23,0-.42-.08-.58-.24-.11-.1-.18-.24-.2-.4-.02-.17-.03-.39-.03-.68v-9.75c0-.2,0-.38,0-.52,0-.14.02-.26.03-.36.02-.1.05-.18.09-.26.05-.07.11-.15.19-.21.03-.03.1-.08.21-.15.1-.06.25-.09.44-.09.25,0,.44.07.58.21.14.14.32.39.55.74l6.07,9.06-.05-8.7Z"/>
      <path class="cls-1" d="M168.47,499.98c-.19.46-.48.85-.86,1.2-.38.34-.85.61-1.41.81s-1.22.3-1.96.3c-.3,0-.6-.02-.91-.05s-.62-.1-.92-.19c-.31-.09-.61-.21-.89-.37-.29-.15-.54-.35-.77-.59-.34-.35-.61-.75-.8-1.2s-.29-.86-.29-1.22c0-.18.07-.34.21-.49s.31-.21.51-.21c.23,0,.39.08.49.24.1.16.22.44.37.84.05.14.12.32.22.55.1.23.26.45.48.67.22.22.5.4.85.55.35.15.8.23,1.35.23.38,0,.75-.05,1.11-.15.36-.1.69-.24.97-.44.28-.19.52-.43.69-.72.18-.28.27-.62.27-.99,0-.4-.09-.73-.27-.98-.18-.26-.39-.47-.65-.63-.26-.16-.52-.28-.8-.36s-.53-.14-.74-.19c-.57-.12-1.04-.23-1.41-.32-.37-.09-.69-.18-.95-.27-.26-.09-.49-.18-.68-.27-.19-.1-.37-.22-.56-.37-.1-.08-.22-.19-.36-.32-.14-.14-.26-.31-.38-.5-.11-.2-.21-.43-.29-.68-.08-.26-.12-.55-.12-.88,0-.56.11-1.05.34-1.47.23-.42.53-.77.92-1.05.38-.28.83-.49,1.33-.62s1.03-.2,1.58-.2c.32,0,.65.03,1,.08.35.05.69.14,1.03.26.34.13.65.3.95.53s.55.52.75.87c.11.19.21.4.28.63s.11.44.11.63c0,.18-.07.36-.2.54-.13.18-.31.26-.54.26-.26,0-.44-.09-.55-.26-.1-.18-.19-.36-.26-.56-.09-.25-.19-.47-.29-.67-.1-.19-.29-.39-.55-.58-.22-.16-.48-.28-.8-.37s-.65-.13-1-.13c-.4,0-.76.05-1.07.16-.31.11-.58.25-.8.43s-.39.38-.5.62-.17.48-.17.73c0,.36.09.66.26.9.17.23.39.43.65.58s.56.28.88.37.63.17.93.24c.5.12.93.24,1.28.33.35.1.66.19.91.29.26.1.48.2.66.3.18.1.35.21.51.33.18.14.35.31.49.5s.26.41.35.62c.09.22.16.44.2.66s.07.42.07.61c0,.51-.1,1-.29,1.45Z"/>
      <path class="cls-1" d="M172.68,495.15h4.22c.11,0,.24,0,.37,0,.13,0,.25.03.36.07.11.04.2.11.27.2.07.09.1.22.1.38,0,.17-.03.3-.1.38s-.15.15-.26.2c-.1.05-.22.07-.35.08-.13,0-.26,0-.39,0h-4.22v4.46c0,.3-.01.53-.03.69-.02.17-.09.3-.19.4-.07.07-.15.13-.26.18-.1.05-.22.08-.34.08-.23,0-.43-.08-.62-.24-.1-.11-.16-.25-.18-.42-.02-.17-.03-.4-.03-.69v-9.73c0-.31.01-.55.04-.74.03-.18.09-.32.18-.41.09-.09.23-.15.41-.18.18-.03.43-.04.74-.04h5.35c.13,0,.25,0,.38,0,.13,0,.25.03.36.07.11.04.2.1.27.19.07.09.1.21.1.38s-.03.3-.1.39c-.07.09-.16.16-.27.2-.11.04-.23.06-.36.07-.13,0-.26,0-.38,0h-5.08v4Z"/>
      <path class="cls-1" d="M191.54,498.23c-.2.76-.54,1.44-1,2.03s-1.05,1.08-1.78,1.45c-.73.37-1.61.55-2.64.55-.8,0-1.49-.1-2.09-.3-.6-.2-1.11-.47-1.54-.8-.43-.33-.79-.71-1.07-1.14s-.51-.88-.68-1.35c-.17-.47-.29-.94-.36-1.41-.07-.47-.1-.91-.1-1.33,0-.66.09-1.36.26-2.1.18-.74.49-1.43.93-2.05.44-.63,1.04-1.15,1.78-1.56.74-.41,1.69-.62,2.84-.62s2.01.2,2.75.59c.74.39,1.33.9,1.77,1.51.44.62.76,1.3.96,2.04s.29,1.47.29,2.18c0,.76-.1,1.52-.31,2.28ZM190,494.15c-.14-.51-.32-.95-.55-1.32-.23-.37-.49-.68-.78-.92s-.59-.44-.9-.58-.61-.24-.91-.3-.57-.09-.81-.09c-.59,0-1.13.12-1.61.35-.48.23-.9.53-1.25.88-.26.25-.48.55-.64.88-.16.34-.29.69-.39,1.05-.1.36-.16.73-.2,1.09s-.05.68-.05.97c0,.75.11,1.43.33,2.02s.52,1.09.89,1.5c.38.41.82.73,1.32.95.5.22,1.04.33,1.6.33.24,0,.51-.03.81-.09s.6-.16.91-.3.61-.34.9-.58c.29-.24.55-.55.78-.92.23-.37.41-.81.55-1.33.14-.51.21-1.11.21-1.8s-.07-1.28-.21-1.8Z"/>
      <path class="cls-1" d="M195.87,500.91c0,.25,0,.43-.02.54s-.03.21-.05.3c-.06.18-.16.32-.32.4s-.31.13-.45.13c-.16,0-.31-.05-.45-.15s-.24-.23-.3-.39c-.02-.08-.04-.2-.04-.37,0-.16,0-.32,0-.47v-9.71c0-.31.01-.55.04-.74.03-.18.09-.32.18-.41s.23-.15.41-.18c.18-.03.43-.04.73-.04h3.9s.16,0,.34,0c.18,0,.39.02.62.05.23.03.48.08.73.15.26.07.49.17.69.29.49.3.87.69,1.15,1.18.28.49.42,1.04.42,1.66s-.12,1.13-.37,1.54c-.24.41-.49.71-.74.89-.41.31-.81.51-1.19.62-.39.1-.7.18-.95.22.16.09.36.22.6.39s.47.4.7.69c.12.16.26.35.42.56.15.21.25.35.3.42l1.11,1.86c.13.22.22.39.3.52.07.13.13.24.17.33s.07.15.08.2c.01.05.02.11.02.18,0,.23-.08.41-.23.53-.15.13-.33.19-.52.19-.12,0-.23-.02-.32-.05s-.18-.09-.26-.18c-.08-.09-.17-.2-.26-.34s-.2-.32-.34-.54l-1.16-1.85c-.42-.66-.78-1.18-1.08-1.55s-.58-.64-.83-.82c-.26-.18-.5-.28-.75-.32-.24-.04-.51-.06-.81-.06h-1.43v4.33ZM195.87,491.09v4.17h2.86c.19,0,.46-.01.8-.03s.68-.1,1.02-.23c.34-.13.63-.34.88-.62.25-.28.38-.69.38-1.23,0-.66-.26-1.19-.79-1.59-.14-.11-.3-.2-.5-.26s-.39-.11-.6-.14c-.21-.03-.41-.04-.62-.05-.2,0-.38,0-.53,0h-2.91Z"/>
      <path class="cls-1" d="M205.45,491.2c0-.34.04-.61.13-.79.09-.18.19-.32.32-.4.13-.09.27-.14.41-.15.14-.02.26-.03.37-.03.26,0,.47,0,.63.02.16.01.29.05.4.12s.2.17.27.32c.07.14.16.35.25.61l2.55,7.61c.1.3.2.6.31.91.1.31.2.61.29.91.05-.17.09-.31.13-.43.04-.11.08-.24.13-.37.05-.13.1-.28.15-.46s.14-.41.24-.71l2.53-7.4c.09-.27.17-.49.23-.63.06-.15.14-.26.23-.32.09-.07.21-.11.35-.13s.34-.03.61-.03.49.02.65.07c.16.04.28.12.35.22.07.1.12.24.14.42.02.18.03.4.03.66v10.04c0,.06,0,.14-.02.26-.01.12-.04.23-.09.35-.05.12-.13.22-.23.31s-.25.13-.44.13-.35-.04-.45-.13c-.11-.09-.19-.18-.24-.29-.05-.11-.08-.22-.09-.32,0-.11,0-.19,0-.23v-9.47l-3.18,9.15c-.09.25-.17.46-.23.62-.06.17-.13.3-.2.4-.07.1-.16.17-.26.21s-.22.06-.37.06c-.16,0-.29-.01-.39-.04-.1-.03-.19-.09-.27-.18-.08-.09-.16-.22-.23-.39-.07-.17-.16-.4-.27-.68l-3.15-9.32v9.41c0,.1,0,.23,0,.37,0,.14-.03.28-.09.4-.05.12-.13.23-.24.32s-.26.13-.45.13c-.18,0-.33-.04-.44-.11-.11-.07-.19-.17-.24-.28-.05-.11-.08-.24-.09-.38-.01-.14-.02-.28-.02-.42v-9.88Z"/>
      <path class="cls-1" d="M221.18,498.53l-1.06,2.74c-.13.33-.24.58-.35.75-.11.17-.31.26-.59.26-.23,0-.42-.08-.56-.23-.15-.15-.22-.32-.22-.49,0-.13.02-.25.06-.38.04-.12.1-.28.18-.48l3.88-9.63c.09-.24.18-.45.26-.63.08-.18.17-.33.27-.45s.21-.21.34-.27c.13-.06.29-.09.49-.09.16,0,.31.03.46.09.15.06.27.15.36.25.09.09.19.25.28.47s.19.43.27.62l4.02,9.58c.09.22.16.39.2.51.04.13.06.25.06.38,0,.16-.07.32-.22.5-.15.17-.35.26-.6.26-.29,0-.48-.09-.59-.26-.11-.18-.23-.44-.37-.78l-1.09-2.7h-5.46ZM226.14,497.21l-2.29-5.73-2.21,5.73h4.5Z"/>
      <path class="cls-1" d="M234.52,500.92c0,.27,0,.5-.03.69-.02.18-.08.32-.2.43-.06.06-.14.11-.24.16-.1.05-.22.08-.36.08-.23,0-.42-.08-.58-.24-.13-.1-.2-.24-.21-.42-.02-.18-.03-.41-.03-.69v-9.78h-2.77c-.25,0-.45,0-.6-.03-.15-.02-.27-.07-.36-.16-.06-.06-.11-.12-.15-.2s-.07-.17-.07-.26c0-.08.02-.16.06-.25.04-.09.09-.16.15-.21.09-.1.21-.16.37-.18s.36-.03.61-.03h7.2c.25,0,.45,0,.6.03.15.02.27.08.36.18.06.06.11.13.15.21s.07.17.07.26c0,.08-.02.16-.07.25s-.1.16-.15.21c-.09.09-.21.15-.36.16-.15.02-.35.03-.6.03h-2.79v9.78Z"/>
      <path class="cls-1" d="M242.01,500.92c0,.3,0,.53-.03.69s-.08.3-.2.4c-.06.06-.14.11-.24.17-.1.06-.22.09-.36.09-.1,0-.21-.02-.32-.06-.11-.04-.2-.1-.28-.18-.11-.11-.18-.25-.2-.42-.02-.17-.03-.4-.03-.69v-9.95c0-.3,0-.53.03-.69.02-.17.08-.3.2-.4.06-.06.13-.11.23-.17.1-.06.22-.09.37-.09.1,0,.21.02.32.06.11.04.2.11.28.2.11.1.18.24.2.41.02.17.03.4.03.68v9.95Z"/>
      <path class="cls-1" d="M255.83,498.23c-.2.76-.54,1.44-1,2.03s-1.05,1.08-1.78,1.45c-.73.37-1.61.55-2.64.55-.8,0-1.49-.1-2.09-.3-.6-.2-1.11-.47-1.54-.8-.43-.33-.79-.71-1.07-1.14s-.51-.88-.68-1.35c-.17-.47-.29-.94-.36-1.41-.07-.47-.1-.91-.1-1.33,0-.66.09-1.36.26-2.1.18-.74.49-1.43.93-2.05.44-.63,1.04-1.15,1.78-1.56.74-.41,1.69-.62,2.84-.62s2.01.2,2.75.59c.74.39,1.33.9,1.77,1.51.44.62.76,1.3.96,2.04s.29,1.47.29,2.18c0,.76-.1,1.52-.31,2.28ZM254.29,494.15c-.14-.51-.32-.95-.55-1.32-.23-.37-.49-.68-.78-.92s-.59-.44-.9-.58-.61-.24-.91-.3-.57-.09-.81-.09c-.59,0-1.13.12-1.61.35-.48.23-.9.53-1.25.88-.26.25-.48.55-.64.88-.16.34-.29.69-.39,1.05-.1.36-.16.73-.2,1.09s-.05.68-.05.97c0,.75.11,1.43.33,2.02s.52,1.09.89,1.5c.38.41.82.73,1.32.95.5.22,1.04.33,1.6.33.24,0,.51-.03.81-.09s.6-.16.91-.3.61-.34.9-.58c.29-.24.55-.55.78-.92.23-.37.41-.81.55-1.33.14-.51.21-1.11.21-1.8s-.07-1.28-.21-1.8Z"/>
      <path class="cls-1" d="M266.55,490.94c-.01-.26-.01-.45,0-.57.01-.12.05-.24.1-.35.05-.09.13-.18.25-.27.12-.09.26-.13.42-.13.23,0,.42.08.58.24.11.1.18.24.2.4.02.17.03.39.03.68v9.68c0,.42-.01.73-.04.92s-.13.36-.3.5c-.19.16-.42.24-.67.24-.14,0-.25-.02-.34-.05-.09-.03-.18-.09-.27-.17-.09-.08-.17-.18-.27-.31-.09-.12-.2-.28-.32-.46l-5.97-8.91.07,8.59c0,.27,0,.47,0,.58,0,.11-.04.23-.09.34-.05.09-.13.18-.26.27s-.27.13-.43.13c-.23,0-.42-.08-.58-.24-.11-.1-.18-.24-.2-.4-.02-.17-.03-.39-.03-.68v-9.75c0-.2,0-.38,0-.52,0-.14.02-.26.03-.36.02-.1.05-.18.09-.26.05-.07.11-.15.19-.21.03-.03.1-.08.21-.15.1-.06.25-.09.44-.09.25,0,.44.07.58.21.14.14.32.39.55.74l6.07,9.06-.05-8.7Z"/>
      <path class="cls-1" d="M280.13,500.92c0,.27,0,.5-.03.69-.02.18-.08.32-.2.43-.06.06-.14.11-.24.16-.1.05-.22.08-.36.08-.23,0-.42-.08-.58-.24-.13-.1-.2-.24-.21-.42-.02-.18-.03-.41-.03-.69v-9.78h-2.77c-.25,0-.45,0-.6-.03-.15-.02-.27-.07-.36-.16-.06-.06-.11-.12-.15-.2s-.07-.17-.07-.26c0-.08.02-.16.06-.25.04-.09.09-.16.15-.21.09-.1.21-.16.37-.18s.36-.03.61-.03h7.2c.25,0,.45,0,.6.03.15.02.27.08.36.18.06.06.11.13.15.21s.07.17.07.26c0,.08-.02.16-.07.25s-.1.16-.15.21c-.09.09-.21.15-.36.16-.15.02-.35.03-.6.03h-2.79v9.78Z"/>
      <path class="cls-1" d="M293.74,494.99v-4.04c0-.3.01-.52.04-.68s.09-.29.2-.39c.06-.06.14-.11.24-.17s.22-.09.36-.09c.23,0,.43.09.6.26.1.1.16.24.18.4.02.17.03.39.03.68v9.99c0,.3,0,.53-.03.68-.02.16-.08.29-.18.39-.06.06-.14.11-.24.17-.1.06-.22.09-.36.09-.22,0-.42-.08-.6-.24-.1-.11-.17-.25-.2-.42s-.04-.39-.04-.68v-4.63h-6.41v4.62c0,.3-.01.53-.03.69s-.09.3-.2.4c-.06.06-.13.11-.23.17s-.22.09-.37.09c-.22,0-.42-.08-.6-.24-.1-.11-.16-.25-.18-.42s-.03-.4-.03-.69v-9.95c0-.3,0-.53.03-.69s.08-.3.18-.4c.06-.06.14-.11.24-.17.1-.06.22-.09.36-.09.24,0,.44.09.6.26.11.1.18.24.2.4s.03.4.03.69v4.02h6.41Z"/>
      <path class="cls-1" d="M299.88,500.91c0,.25,0,.43-.02.54s-.03.21-.05.3c-.06.18-.16.32-.32.4s-.31.13-.45.13c-.16,0-.31-.05-.45-.15s-.24-.23-.3-.39c-.02-.08-.04-.2-.04-.37,0-.16,0-.32,0-.47v-9.71c0-.31.01-.55.04-.74.03-.18.09-.32.18-.41s.23-.15.41-.18c.18-.03.43-.04.73-.04h3.9s.16,0,.34,0c.18,0,.39.02.62.05.23.03.48.08.73.15.26.07.49.17.69.29.49.3.87.69,1.15,1.18.28.49.42,1.04.42,1.66s-.12,1.13-.37,1.54c-.24.41-.49.71-.74.89-.41.31-.81.51-1.19.62-.39.1-.7.18-.95.22.16.09.36.22.6.39s.47.4.7.69c.12.16.26.35.42.56.15.21.25.35.3.42l1.11,1.86c.13.22.22.39.3.52.07.13.13.24.17.33s.07.15.08.2c.01.05.02.11.02.18,0,.23-.08.41-.23.53-.15.13-.33.19-.52.19-.12,0-.23-.02-.32-.05s-.18-.09-.26-.18c-.08-.09-.17-.2-.26-.34s-.2-.32-.34-.54l-1.16-1.85c-.42-.66-.78-1.18-1.08-1.55s-.58-.64-.83-.82c-.26-.18-.5-.28-.75-.32-.24-.04-.51-.06-.81-.06h-1.43v4.33ZM299.88,491.09v4.17h2.86c.19,0,.46-.01.8-.03s.68-.1,1.02-.23c.34-.13.63-.34.88-.62.25-.28.38-.69.38-1.23,0-.66-.26-1.19-.79-1.59-.14-.11-.3-.2-.5-.26s-.39-.11-.6-.14c-.21-.03-.41-.04-.62-.05-.2,0-.38,0-.53,0h-2.91Z"/>
      <path class="cls-1" d="M320.37,498.23c-.2.76-.54,1.44-1,2.03s-1.05,1.08-1.78,1.45c-.73.37-1.61.55-2.64.55-.8,0-1.49-.1-2.09-.3-.6-.2-1.11-.47-1.54-.8-.43-.33-.79-.71-1.07-1.14s-.51-.88-.68-1.35c-.17-.47-.29-.94-.36-1.41-.07-.47-.1-.91-.1-1.33,0-.66.09-1.36.26-2.1.18-.74.49-1.43.93-2.05.44-.63,1.04-1.15,1.78-1.56.74-.41,1.69-.62,2.84-.62s2.01.2,2.75.59c.74.39,1.33.9,1.77,1.51.44.62.76,1.3.96,2.04s.29,1.47.29,2.18c0,.76-.1,1.52-.31,2.28ZM318.83,494.15c-.14-.51-.32-.95-.55-1.32-.23-.37-.49-.68-.78-.92s-.59-.44-.9-.58-.61-.24-.91-.3-.57-.09-.81-.09c-.59,0-1.13.12-1.61.35-.48.23-.9.53-1.25.88-.26.25-.48.55-.64.88-.16.34-.29.69-.39,1.05-.1.36-.16.73-.2,1.09s-.05.68-.05.97c0,.75.11,1.43.33,2.02s.52,1.09.89,1.5c.38.41.82.73,1.32.95.5.22,1.04.33,1.6.33.24,0,.51-.03.81-.09s.6-.16.91-.3.61-.34.9-.58c.29-.24.55-.55.78-.92.23-.37.41-.81.55-1.33.14-.51.21-1.11.21-1.8s-.07-1.28-.21-1.8Z"/>
      <path class="cls-1" d="M324.61,497.49c0,.26.02.59.05.98.03.39.15.78.35,1.15s.52.69.96.95c.44.26,1.06.39,1.87.39.72,0,1.29-.11,1.71-.34.42-.23.74-.52.96-.86.22-.35.36-.72.42-1.13s.09-.78.09-1.12v-6.52c0-.3,0-.53.03-.69s.08-.31.2-.42c.06-.06.14-.11.24-.17.1-.06.22-.09.36-.09.24,0,.44.09.6.26.11.11.18.25.2.42.02.17.03.4.03.69v6.36c0,.63-.07,1.23-.2,1.82-.14.59-.38,1.11-.73,1.57s-.83.83-1.44,1.11c-.61.28-1.39.42-2.33.42-.82,0-1.54-.09-2.16-.26-.62-.17-1.14-.45-1.56-.84-.42-.39-.73-.89-.95-1.52-.22-.63-.32-1.39-.32-2.29v-6.38c0-.3,0-.53.03-.69s.08-.31.2-.42c.06-.06.14-.11.24-.17s.22-.09.36-.09c.24,0,.44.09.6.26.11.11.18.25.2.42.02.17.03.4.03.69v6.5Z"/>
      <path class="cls-1" d="M344.79,497.16h-2.68c-.14,0-.27,0-.41,0-.14,0-.26-.03-.37-.07-.11-.04-.2-.1-.27-.2-.07-.09-.1-.22-.1-.38,0-.17.03-.3.1-.39s.15-.15.25-.2c.1-.04.2-.07.32-.08s.22,0,.31,0h3.08c.26,0,.48.01.65.04s.31.09.41.17.17.2.21.36c.04.15.06.36.06.61v2.68c0,.25-.02.46-.05.62-.03.16-.15.31-.36.46-.01.01-.14.1-.38.26-.24.16-.57.33-.99.51-.42.18-.92.35-1.49.5-.57.15-1.2.22-1.88.22-1.08,0-2.02-.17-2.8-.5-.79-.34-1.43-.79-1.94-1.36-.51-.57-.88-1.24-1.13-2-.24-.76-.37-1.57-.37-2.41s.12-1.63.35-2.4.6-1.45,1.09-2.03,1.13-1.06,1.91-1.41c.78-.35,1.71-.53,2.8-.53,1,0,1.82.15,2.45.44.63.3,1.13.64,1.49,1.03.36.39.6.76.74,1.12.13.36.2.6.2.73,0,.18-.06.35-.18.5-.12.15-.33.22-.62.22-.14,0-.27-.05-.38-.15-.12-.1-.26-.29-.42-.59-.1-.19-.24-.4-.4-.63-.16-.23-.38-.44-.64-.64-.26-.2-.58-.37-.97-.5-.38-.14-.85-.2-1.39-.2-.72,0-1.35.12-1.89.38-.54.25-1,.6-1.37,1.04s-.65.97-.84,1.57c-.19.6-.28,1.26-.28,1.97,0,.3.02.61.05.95.03.34.1.68.21,1.02s.24.68.42,1.02c.18.34.4.64.68.91.43.43.94.74,1.53.91.58.17,1.15.26,1.7.26.62,0,1.23-.09,1.82-.27s1.19-.47,1.79-.87v-2.65Z"/>
      <path class="cls-1" d="M356.85,494.99v-4.04c0-.3.01-.52.04-.68s.09-.29.2-.39c.06-.06.14-.11.24-.17s.22-.09.36-.09c.23,0,.43.09.6.26.1.1.16.24.18.4.02.17.03.39.03.68v9.99c0,.3,0,.53-.03.68-.02.16-.08.29-.18.39-.06.06-.14.11-.24.17-.1.06-.22.09-.36.09-.22,0-.42-.08-.6-.24-.1-.11-.17-.25-.2-.42s-.04-.39-.04-.68v-4.63h-6.41v4.62c0,.3-.01.53-.03.69s-.09.3-.2.4c-.06.06-.13.11-.23.17s-.22.09-.37.09c-.22,0-.42-.08-.6-.24-.1-.11-.16-.25-.18-.42s-.03-.4-.03-.69v-9.95c0-.3,0-.53.03-.69s.08-.3.18-.4c.06-.06.14-.11.24-.17.1-.06.22-.09.36-.09.24,0,.44.09.6.26.11.1.18.24.2.4s.03.4.03.69v4.02h6.41Z"/>
      <path class="cls-1" d="M367.57,489.83h3.23c.84,0,1.56.08,2.16.23.6.16,1.15.45,1.64.88,1.27,1.09,1.91,2.75,1.91,4.98,0,.73-.06,1.41-.19,2.01s-.33,1.15-.59,1.64c-.27.49-.61.92-1.03,1.31-.33.29-.69.53-1.08.71-.39.18-.81.3-1.26.38s-.95.11-1.52.11h-3.23c-.45,0-.79-.07-1.02-.2-.23-.14-.38-.33-.45-.58-.07-.25-.1-.57-.1-.96v-8.98c0-.53.12-.92.36-1.16.24-.24.63-.36,1.16-.36ZM368.53,491.79v8.31h1.88c.41,0,.74-.01.97-.03.23-.02.48-.08.73-.17.25-.09.47-.21.65-.38.83-.7,1.24-1.91,1.24-3.62,0-1.21-.18-2.11-.55-2.71-.36-.6-.81-.98-1.35-1.15-.53-.16-1.18-.25-1.94-.25h-1.64Z"/>
      <path class="cls-1" d="M386.76,491.74h-5.59v3.01h5.14c.38,0,.66.08.85.26.19.17.28.39.28.67s-.09.5-.28.68c-.18.18-.47.26-.85.26h-5.14v3.48h5.78c.39,0,.68.09.88.27.2.18.3.42.3.72s-.1.53-.3.71-.49.27-.88.27h-6.74c-.54,0-.93-.12-1.17-.36-.24-.24-.35-.63-.35-1.16v-9.2c0-.36.05-.65.16-.87.11-.23.27-.39.5-.49s.51-.15.86-.15h6.55c.39,0,.69.09.88.26.19.18.29.41.29.69s-.1.52-.29.7c-.19.18-.49.26-.88.26Z"/>
      <path class="cls-1" d="M391.91,491.25l2.77,8.21,2.78-8.27c.14-.43.25-.74.33-.91.07-.17.19-.32.36-.46.17-.14.4-.2.69-.2.21,0,.41.05.59.16s.32.25.43.42c.1.18.15.35.15.53,0,.12-.02.26-.05.4-.03.14-.07.28-.12.42-.05.14-.1.28-.15.42l-2.96,8c-.11.31-.21.6-.32.87s-.23.52-.37.73c-.14.21-.32.38-.55.51-.23.13-.51.2-.85.2s-.62-.07-.85-.2c-.23-.13-.42-.3-.56-.52-.14-.21-.27-.46-.37-.73s-.21-.56-.32-.87l-2.91-7.93c-.05-.14-.1-.29-.15-.43-.05-.14-.1-.29-.13-.45-.04-.16-.05-.3-.05-.41,0-.28.12-.54.34-.78s.51-.35.86-.35c.42,0,.72.13.9.39.18.26.35.67.54,1.24Z"/>
      <path class="cls-1" d="M409.93,491.74h-5.59v3.01h5.14c.38,0,.66.08.85.26.19.17.28.39.28.67s-.09.5-.28.68c-.18.18-.47.26-.85.26h-5.14v3.48h5.78c.39,0,.68.09.88.27.2.18.3.42.3.72s-.1.53-.3.71c-.2.18-.49.27-.88.27h-6.74c-.54,0-.93-.12-1.17-.36-.24-.24-.35-.63-.35-1.16v-9.2c0-.36.05-.65.16-.87.11-.23.27-.39.5-.49s.51-.15.86-.15h6.55c.39,0,.69.09.88.26.19.18.29.41.29.69s-.1.52-.29.7c-.19.18-.49.26-.88.26Z"/>
      <path class="cls-1" d="M415.7,491.12v8.91h5.03c.4,0,.71.1.92.29.21.19.32.44.32.73s-.11.54-.32.73c-.21.19-.52.28-.93.28h-5.99c-.54,0-.93-.12-1.16-.36-.24-.24-.36-.63-.36-1.16v-9.43c0-.5.11-.88.34-1.13.23-.25.52-.38.89-.38s.67.12.91.37c.23.25.35.63.35,1.13Z"/>
      <path class="cls-1" d="M428.13,489.62c1.27,0,2.36.26,3.27.77s1.6,1.25,2.07,2.2c.47.95.7,2.06.7,3.34,0,.95-.13,1.81-.38,2.58s-.64,1.44-1.15,2.01c-.51.57-1.14,1-1.89,1.3-.75.3-1.6.45-2.56.45s-1.82-.15-2.57-.46c-.76-.31-1.39-.74-1.9-1.31-.51-.56-.89-1.24-1.15-2.03-.26-.79-.39-1.64-.39-2.56s.14-1.8.41-2.59c.27-.78.66-1.45,1.17-2,.51-.55,1.14-.97,1.87-1.26.74-.29,1.57-.44,2.51-.44ZM431.65,495.92c0-.9-.14-1.67-.43-2.33-.29-.66-.7-1.15-1.24-1.49-.54-.34-1.15-.51-1.85-.51-.5,0-.95.09-1.37.28-.42.19-.78.46-1.09.82-.3.36-.54.81-.72,1.36s-.26,1.18-.26,1.87.09,1.32.26,1.89c.18.56.42,1.03.74,1.4s.69.65,1.1.83c.42.18.87.28,1.37.28.63,0,1.22-.16,1.75-.48s.96-.81,1.27-1.47c.31-.66.47-1.48.47-2.45Z"/>
      <path class="cls-1" d="M441.04,497.3h-2.27v3.47c0,.5-.12.87-.35,1.13-.23.26-.53.38-.88.38s-.67-.13-.9-.38c-.23-.25-.34-.63-.34-1.12v-9.44c0-.55.12-.94.38-1.17.25-.23.65-.35,1.19-.35h3.18c.94,0,1.66.07,2.17.22.5.14.93.37,1.3.69.36.32.64.72.83,1.19.19.47.28.99.28,1.58,0,1.25-.38,2.19-1.15,2.83s-1.91.96-3.43.96ZM440.44,491.69h-1.67v3.74h1.67c.58,0,1.07-.06,1.47-.18.39-.12.69-.32.9-.6s.31-.64.31-1.09c0-.54-.16-.98-.48-1.32-.36-.36-1.09-.54-2.2-.54Z"/>
      <path class="cls-1" d="M451.83,500.23l-1.96-7.8v8.45c0,.47-.1.82-.31,1.05-.21.23-.49.35-.83.35s-.61-.12-.82-.35c-.21-.23-.32-.58-.32-1.06v-9.69c0-.53.14-.9.42-1.08.28-.19.65-.28,1.13-.28h.77c.46,0,.8.04,1.01.13.21.08.36.23.46.45s.21.57.34,1.06l1.78,6.71,1.78-6.71c.13-.49.24-.84.34-1.06s.26-.37.46-.45c.21-.08.54-.13,1.01-.13h.77c.47,0,.85.09,1.13.28.28.19.42.55.42,1.08v9.69c0,.47-.1.82-.31,1.05-.21.23-.49.35-.84.35-.33,0-.6-.12-.81-.35-.21-.23-.32-.58-.32-1.05v-8.45l-1.96,7.8c-.13.51-.23.88-.31,1.11-.08.24-.23.45-.45.65-.22.2-.52.29-.9.29-.29,0-.53-.06-.74-.19-.2-.12-.36-.28-.47-.48-.11-.19-.2-.41-.26-.65-.06-.24-.13-.48-.2-.74Z"/>
      <path class="cls-1" d="M470.01,491.74h-5.59v3.01h5.14c.38,0,.66.08.85.26.19.17.28.39.28.67s-.09.5-.28.68c-.18.18-.47.26-.85.26h-5.14v3.48h5.78c.39,0,.68.09.88.27.2.18.3.42.3.72s-.1.53-.3.71c-.2.18-.49.27-.88.27h-6.74c-.54,0-.93-.12-1.17-.36-.24-.24-.35-.63-.35-1.16v-9.2c0-.36.05-.65.16-.87.11-.23.27-.39.5-.49s.51-.15.86-.15h6.55c.39,0,.69.09.88.26.19.18.29.41.29.69s-.1.52-.29.7c-.19.18-.49.26-.88.26Z"/>
      <path class="cls-1" d="M476.58,491.11l4.77,7.21v-7.28c0-.47.1-.83.3-1.06.2-.24.48-.35.82-.35s.64.12.84.35c.21.24.31.59.31,1.06v9.63c0,1.07-.44,1.61-1.34,1.61-.22,0-.42-.03-.6-.1s-.35-.17-.5-.31c-.16-.14-.3-.3-.43-.49-.13-.19-.27-.38-.4-.57l-4.65-7.13v7.17c0,.47-.11.82-.33,1.06-.22.24-.5.36-.84.36s-.63-.12-.84-.36c-.21-.24-.32-.59-.32-1.06v-9.44c0-.4.04-.71.13-.94.11-.25.28-.45.53-.61.24-.16.51-.24.79-.24.22,0,.41.04.57.11.16.07.3.17.42.29s.24.28.37.48c.12.2.25.4.39.61Z"/>
      <path class="cls-1" d="M494.29,491.87h-2.71v8.89c0,.51-.11.89-.34,1.14s-.52.37-.88.37-.67-.12-.9-.38c-.23-.25-.35-.63-.35-1.14v-8.89h-2.71c-.42,0-.74-.09-.94-.28-.21-.19-.31-.43-.31-.74s.11-.57.32-.75c.21-.18.52-.28.93-.28h7.88c.43,0,.75.09.96.28.21.19.31.44.31.74s-.11.55-.32.74c-.21.19-.53.28-.95.28Z"/>
      <path class="cls-1" d="M509.37,491.74h-5.59v3.01h5.14c.38,0,.66.08.85.26.19.17.28.39.28.67s-.09.5-.28.68c-.18.18-.47.26-.85.26h-5.14v3.48h5.78c.39,0,.68.09.88.27.2.18.3.42.3.72s-.1.53-.3.71c-.2.18-.49.27-.88.27h-6.74c-.54,0-.93-.12-1.17-.36-.24-.24-.35-.63-.35-1.16v-9.2c0-.36.05-.65.16-.87.11-.23.27-.39.5-.49s.51-.15.86-.15h6.55c.39,0,.69.09.88.26.19.18.29.41.29.69s-.1.52-.29.7c-.19.18-.49.26-.88.26Z"/>
      <path class="cls-1" d="M515.94,491.11l4.77,7.21v-7.28c0-.47.1-.83.3-1.06.2-.24.48-.35.82-.35s.64.12.84.35c.21.24.31.59.31,1.06v9.63c0,1.07-.44,1.61-1.34,1.61-.22,0-.42-.03-.6-.1s-.35-.17-.5-.31c-.16-.14-.3-.3-.43-.49-.13-.19-.27-.38-.4-.57l-4.65-7.13v7.17c0,.47-.11.82-.33,1.06-.22.24-.5.36-.84.36s-.63-.12-.84-.36c-.21-.24-.32-.59-.32-1.06v-9.44c0-.4.04-.71.13-.94.11-.25.28-.45.53-.61.24-.16.51-.24.79-.24.22,0,.41.04.57.11.16.07.3.17.42.29s.24.28.37.48c.12.2.25.4.39.61Z"/>
      <path class="cls-1" d="M533.66,491.87h-2.71v8.89c0,.51-.11.89-.34,1.14s-.52.37-.88.37-.67-.12-.9-.38c-.23-.25-.35-.63-.35-1.14v-8.89h-2.71c-.42,0-.74-.09-.94-.28-.21-.19-.31-.43-.31-.74s.11-.57.32-.75c.21-.18.52-.28.93-.28h7.88c.43,0,.75.09.96.28.21.19.31.44.31.74s-.11.55-.32.74c-.21.19-.53.28-.95.28Z"/>
      <path class="cls-1" d="M539.73,496.84h-.87v3.93c0,.52-.12.9-.34,1.14-.23.25-.53.37-.89.37-.4,0-.7-.13-.92-.38-.22-.26-.33-.63-.33-1.13v-9.42c0-.53.12-.92.36-1.16.24-.24.63-.36,1.16-.36h4.03c.56,0,1.03.02,1.43.07.4.05.75.14,1.07.29.38.16.72.39,1.02.69.3.3.52.65.67,1.05.15.4.23.82.23,1.27,0,.91-.26,1.64-.77,2.19-.52.55-1.3.93-2.34,1.16.44.23.86.58,1.26,1.04.4.46.76.94,1.07,1.46.31.51.56.98.74,1.39.18.42.26.7.26.86s-.05.32-.15.48-.24.28-.42.38c-.18.09-.38.14-.62.14-.28,0-.51-.07-.7-.2-.19-.13-.35-.3-.49-.5-.14-.2-.32-.5-.56-.88l-.99-1.65c-.36-.61-.68-1.07-.96-1.39s-.57-.53-.86-.65-.65-.18-1.09-.18ZM541.14,491.69h-2.29v3.37h2.22c.6,0,1.1-.05,1.5-.15.41-.1.72-.28.93-.53s.32-.59.32-1.02c0-.34-.09-.64-.26-.9s-.41-.45-.72-.58c-.29-.12-.86-.18-1.71-.18Z"/>
      <path class="cls-1" d="M556.76,491.74h-5.59v3.01h5.14c.38,0,.66.08.85.26.19.17.28.39.28.67s-.09.5-.28.68c-.18.18-.47.26-.85.26h-5.14v3.48h5.78c.39,0,.68.09.88.27.2.18.3.42.3.72s-.1.53-.3.71c-.2.18-.49.27-.88.27h-6.74c-.54,0-.93-.12-1.17-.36-.24-.24-.35-.63-.35-1.16v-9.2c0-.36.05-.65.16-.87.11-.23.27-.39.5-.49s.51-.15.86-.15h6.55c.39,0,.69.09.88.26.19.18.29.41.29.69s-.1.52-.29.7c-.19.18-.49.26-.88.26Z"/>
      <path class="cls-1" d="M564.85,497.3h-2.27v3.47c0,.5-.12.87-.35,1.13-.23.26-.53.38-.88.38s-.67-.13-.9-.38c-.23-.25-.34-.63-.34-1.12v-9.44c0-.55.12-.94.38-1.17.25-.23.65-.35,1.19-.35h3.18c.94,0,1.66.07,2.17.22.5.14.93.37,1.3.69.36.32.64.72.83,1.19.19.47.28.99.28,1.58,0,1.25-.38,2.19-1.15,2.83s-1.91.96-3.43.96ZM564.25,491.69h-1.67v3.74h1.67c.58,0,1.07-.06,1.47-.18.39-.12.69-.32.9-.6s.31-.64.31-1.09c0-.54-.16-.98-.48-1.32-.36-.36-1.09-.54-2.2-.54Z"/>
      <path class="cls-1" d="M574.84,496.84h-.87v3.93c0,.52-.12.9-.34,1.14-.23.25-.53.37-.89.37-.4,0-.7-.13-.92-.38-.22-.26-.33-.63-.33-1.13v-9.42c0-.53.12-.92.36-1.16.24-.24.63-.36,1.16-.36h4.03c.56,0,1.03.02,1.43.07.4.05.75.14,1.07.29.38.16.72.39,1.02.69.3.3.52.65.67,1.05.15.4.23.82.23,1.27,0,.91-.26,1.64-.77,2.19-.52.55-1.3.93-2.34,1.16.44.23.86.58,1.26,1.04.4.46.76.94,1.07,1.46.31.51.56.98.74,1.39.18.42.26.7.26.86s-.05.32-.15.48-.24.28-.42.38c-.18.09-.38.14-.62.14-.28,0-.51-.07-.7-.2-.19-.13-.35-.3-.49-.5-.14-.2-.32-.5-.56-.88l-.99-1.65c-.36-.61-.68-1.07-.96-1.39s-.57-.53-.86-.65-.65-.18-1.09-.18ZM576.26,491.69h-2.29v3.37h2.22c.6,0,1.1-.05,1.5-.15.41-.1.72-.28.93-.53s.32-.59.32-1.02c0-.34-.09-.64-.26-.9s-.41-.45-.72-.58c-.29-.12-.86-.18-1.71-.18Z"/>
      <path class="cls-1" d="M591.87,491.74h-5.59v3.01h5.14c.38,0,.66.08.85.26.19.17.28.39.28.67s-.09.5-.28.68c-.18.18-.47.26-.85.26h-5.14v3.48h5.78c.39,0,.68.09.88.27.2.18.3.42.3.72s-.1.53-.3.71c-.2.18-.49.27-.88.27h-6.74c-.54,0-.93-.12-1.17-.36-.24-.24-.35-.63-.35-1.16v-9.2c0-.36.05-.65.16-.87.11-.23.27-.39.5-.49s.51-.15.86-.15h6.55c.39,0,.69.09.88.26.19.18.29.41.29.69s-.1.52-.29.7c-.19.18-.49.26-.88.26Z"/>
      <path class="cls-1" d="M598.44,491.11l4.77,7.21v-7.28c0-.47.1-.83.3-1.06.2-.24.48-.35.82-.35s.64.12.84.35c.21.24.31.59.31,1.06v9.63c0,1.07-.44,1.61-1.34,1.61-.22,0-.42-.03-.6-.1s-.35-.17-.5-.31c-.16-.14-.3-.3-.43-.49-.13-.19-.27-.38-.4-.57l-4.65-7.13v7.17c0,.47-.11.82-.33,1.06-.22.24-.5.36-.84.36s-.63-.12-.84-.36c-.21-.24-.32-.59-.32-1.06v-9.44c0-.4.04-.71.13-.94.11-.25.28-.45.53-.61.24-.16.51-.24.79-.24.22,0,.41.04.57.11.16.07.3.17.42.29s.24.28.37.48c.12.2.25.4.39.61Z"/>
      <path class="cls-1" d="M616.27,491.74h-5.59v3.01h5.14c.38,0,.66.08.85.26.19.17.28.39.28.67s-.09.5-.28.68c-.18.18-.47.26-.85.26h-5.14v3.48h5.78c.39,0,.68.09.88.27.2.18.3.42.3.72s-.1.53-.3.71c-.2.18-.49.27-.88.27h-6.74c-.54,0-.93-.12-1.17-.36-.24-.24-.35-.63-.35-1.16v-9.2c0-.36.05-.65.16-.87.11-.23.27-.39.5-.49s.51-.15.86-.15h6.55c.39,0,.69.09.88.26.19.18.29.41.29.69s-.1.52-.29.7c-.19.18-.49.26-.88.26Z"/>
      <path class="cls-1" d="M619.63,497.01v-5.89c0-.5.11-.88.34-1.13.23-.25.52-.38.89-.38s.69.12.91.38c.23.25.34.63.34,1.13v6.02c0,.69.08,1.26.23,1.72.15.46.42.82.81,1.07.39.25.93.38,1.64.38.97,0,1.65-.26,2.05-.77.4-.52.6-1.3.6-2.34v-6.07c0-.51.11-.88.34-1.13.22-.25.52-.37.89-.37s.68.12.91.37c.23.25.35.63.35,1.13v5.89c0,.96-.09,1.76-.28,2.4-.19.64-.54,1.2-1.06,1.69-.45.41-.96.71-1.55.9-.59.19-1.28.28-2.07.28-.94,0-1.75-.1-2.43-.31s-1.23-.52-1.66-.94-.74-.97-.94-1.64c-.2-.66-.3-1.46-.3-2.38Z"/>
      <path class="cls-1" d="M635.94,496.84h-.87v3.93c0,.52-.12.9-.34,1.14-.23.25-.53.37-.89.37-.4,0-.7-.13-.92-.38-.22-.26-.33-.63-.33-1.13v-9.42c0-.53.12-.92.36-1.16.24-.24.63-.36,1.16-.36h4.03c.56,0,1.03.02,1.43.07.4.05.75.14,1.07.29.38.16.72.39,1.02.69.3.3.52.65.67,1.05.15.4.23.82.23,1.27,0,.91-.26,1.64-.77,2.19-.52.55-1.3.93-2.34,1.16.44.23.86.58,1.26,1.04.4.46.76.94,1.07,1.46.31.51.56.98.74,1.39.18.42.26.7.26.86s-.05.32-.15.48-.24.28-.42.38c-.18.09-.38.14-.62.14-.28,0-.51-.07-.7-.2-.19-.13-.35-.3-.49-.5-.14-.2-.32-.5-.56-.88l-.99-1.65c-.36-.61-.68-1.07-.96-1.39s-.57-.53-.86-.65-.65-.18-1.09-.18ZM637.36,491.69h-2.29v3.37h2.22c.6,0,1.1-.05,1.5-.15.41-.1.72-.28.93-.53s.32-.59.32-1.02c0-.34-.09-.64-.26-.9s-.41-.45-.72-.58c-.29-.12-.86-.18-1.71-.18Z"/>
      <path class="cls-1" d="M654.21,498.4c0,.74-.19,1.41-.57,2s-.94,1.05-1.67,1.39c-.74.33-1.61.5-2.61.5-1.21,0-2.2-.23-2.99-.69-.56-.33-1.01-.77-1.36-1.31-.35-.55-.52-1.08-.52-1.6,0-.3.1-.56.31-.77s.47-.32.8-.32c.26,0,.48.08.66.25s.34.42.46.74c.15.39.32.71.5.98s.44.48.76.65c.33.17.76.26,1.29.26.74,0,1.33-.17,1.79-.51.46-.34.69-.77.69-1.28,0-.41-.12-.74-.37-.99-.25-.25-.57-.45-.96-.58-.39-.13-.92-.28-1.58-.42-.88-.21-1.62-.45-2.21-.72s-1.06-.65-1.41-1.13c-.35-.48-.52-1.07-.52-1.77s.18-1.27.55-1.79c.37-.52.9-.93,1.59-1.21.7-.28,1.51-.42,2.46-.42.75,0,1.4.09,1.95.28.55.19,1,.43,1.36.74.36.31.63.63.79.97.17.34.25.67.25.99,0,.3-.1.56-.31.8s-.47.36-.78.36c-.28,0-.5-.07-.65-.21-.15-.14-.31-.37-.48-.7-.22-.46-.49-.82-.8-1.08-.31-.26-.81-.39-1.5-.39-.64,0-1.16.14-1.55.42s-.59.62-.59,1.01c0,.25.07.46.2.63.13.18.32.33.55.46.23.13.47.23.71.3.24.07.63.18,1.19.32.69.16,1.32.34,1.87.53.56.19,1.04.43,1.43.71.39.28.7.63.92,1.06.22.43.33.95.33,1.57Z"/>
      <path class="cls-1" d="M658.81,491.12v3.51h5.35v-3.51c0-.5.11-.88.34-1.13.23-.25.52-.38.89-.38s.67.12.9.37c.23.25.35.63.35,1.13v9.65c0,.51-.12.88-.35,1.14-.23.25-.53.38-.9.38s-.67-.13-.89-.38c-.22-.25-.33-.63-.33-1.13v-4.12h-5.35v4.12c0,.51-.12.88-.35,1.14-.23.25-.53.38-.9.38s-.67-.13-.89-.38c-.22-.25-.33-.63-.33-1.13v-9.65c0-.5.11-.88.33-1.13.22-.25.52-.38.9-.38s.67.12.91.37c.23.25.35.63.35,1.13Z"/>
      <path class="cls-1" d="M669.41,500.77v-9.65c0-.5.11-.88.34-1.13.23-.25.52-.38.89-.38s.67.12.9.37c.23.25.35.63.35,1.13v9.65c0,.51-.12.88-.35,1.14-.23.25-.53.38-.9.38s-.65-.13-.88-.38c-.23-.25-.35-.63-.35-1.13Z"/>
      <path class="cls-1" d="M679.41,497.3h-2.27v3.47c0,.5-.12.87-.35,1.13-.23.26-.53.38-.88.38s-.67-.13-.9-.38c-.23-.25-.34-.63-.34-1.12v-9.44c0-.55.12-.94.38-1.17.25-.23.65-.35,1.19-.35h3.18c.94,0,1.66.07,2.17.22.5.14.93.37,1.3.69.36.32.64.72.83,1.19.19.47.28.99.28,1.58,0,1.25-.38,2.19-1.15,2.83s-1.91.96-3.43.96ZM678.81,491.69h-1.67v3.74h1.67c.58,0,1.07-.06,1.47-.18.39-.12.69-.32.9-.6s.31-.64.31-1.09c0-.54-.16-.98-.48-1.32-.36-.36-1.09-.54-2.2-.54Z"/>
    </g>
    <g>
      <g>
        <g>
          <path class="cls-4" d="M225.93,243.11c-.68,2.26-1.75,4.29-3.01,6.07-.56.55-1.13,1.09-1.7,1.6-7.33,6.66-15.65,10.58-24.37,12.16-25.71,4.72-54.83-10.87-71.82-36.48-23.16-34.91-53.04-57.46-53.04-57.46l.06-.2s37.4,1.38,77.42-11.09c1.28-.41,2.59-.76,3.9-1.09.19,4.31.27,8.77.22,13.29-.25,21.63,7.25,42.54,20.06,56.73.19.22.4.44.6.66,4.84,5.22,10.42,9.49,16.61,12.49.94.47,1.91.89,2.88,1.29,4.94,2.03,10.25,3.27,15.85,3.55,3.75.19,7.63-.03,11.63-.74,1.42-.23,2.87-.55,4.32-.91.14.06.25.11.39.14Z"/>
          <path class="cls-4" d="M420.38,169s-29.88,22.55-53.03,57.46c-16.98,25.6-46.09,41.19-71.81,36.51-8.72-1.58-17.05-5.5-24.38-12.16-.59-.53-1.17-1.08-1.75-1.65.01.01.02.02.03.02-1.25-1.76-2.32-3.78-3-6.04.14-.03.3-.11.44-.17,1.44.37,2.87.67,4.28.91,4,.7,7.88.92,11.62.73,5.6-.28,10.9-1.51,15.86-3.54.97-.4,1.93-.82,2.87-1.29,6.19-2.99,11.77-7.27,16.62-12.5.2-.21.4-.43.59-.64,12.8-14.18,20.3-35.1,20.03-56.74-.05-4.52.03-8.97.22-13.32,1.31.32,2.63.71,3.93,1.12,40.02,12.48,77.43,11.09,77.43,11.09l.05.2Z"/>
        </g>
        <path class="cls-5" d="M225.55,242.97c-41.9,10.64-72.47-29.79-71.95-73.07.06-4.51-.03-8.97-.22-13.29-1.7-35.84-11.23-64.08-11.23-64.08l.14-.11s30.15,22.17,70.25,34.42c1.97.6,3.91,1.26,5.79,1.99-2.68,4.13-5.55,8.26-8.63,12.39-3.75,5-6.95,10.33-9.51,15.86-15.53,32.97-9.7,72.41,25.37,85.89Z"/>
        <path class="cls-5" d="M350.23,92.53s-9.54,28.21-11.26,64.05c-.19,4.35-.27,8.8-.22,13.32.55,43.28-29.99,83.68-71.87,73.07,5.03-1.94,9.48-4.43,13.34-7.35,1.09-.82,2.13-1.7,3.14-2.6,11.59-10.41,16.95-25.28,16.95-41.17,0-1.07-.03-2.14-.08-3.2-.03-1.07-.11-2.16-.22-3.25v-.03c-.08-.98-.19-2-.33-3.01-.19-1.42-.41-2.87-.69-4.29-.13-.79-.3-1.56-.46-2.35-.11-.57-.25-1.17-.41-1.75-.3-1.31-.63-2.62-1.04-3.93-.63-2.21-1.36-4.37-2.18-6.54-.25-.74-.55-1.45-.85-2.16-.57-1.42-1.2-2.84-1.86-4.26-.14-.27-.25-.55-.39-.8-.32-.73-.68-1.44-1.07-2.16-.18-.39-.38-.77-.6-1.15-.14-.25-.28-.52-.41-.76-.38-.71-.8-1.43-1.2-2.14-1.15-1.99-2.41-3.96-3.72-5.9-.69-.99-1.39-1.96-2.14-2.95-3.09-4.13-5.96-8.26-8.63-12.39,1.89-.74,3.82-1.39,5.79-1.99,40.11-12.24,70.26-34.42,70.26-34.42l.13.11Z"/>
        <path class="cls-1" d="M300.23,188.65c-.03-1.07-.11-2.16-.22-3.25v-.03c-.08-.98-.19-2-.33-3.01-.19-1.42-.41-2.87-.69-4.29-.13-.79-.3-1.56-.46-2.35-.11-.57-.25-1.17-.41-1.75-.3-1.31-.66-2.62-1.04-3.93-.63-2.21-1.36-4.37-2.18-6.54-.27-.71-.55-1.45-.85-2.16-.57-1.42-1.2-2.84-1.86-4.26-.14-.27-.25-.55-.39-.8-.32-.73-.68-1.44-1.07-2.16-.18-.39-.38-.77-.6-1.15-.14-.25-.28-.52-.41-.76-.38-.71-.8-1.43-1.2-2.14-1.15-1.99-2.41-3.99-3.72-5.9-.69-.99-1.39-1.96-2.14-2.95-3.09-4.13-5.96-8.26-8.63-12.39-19.11-29.35-27.77-56.83-27.77-56.83h-.19s-8.64,27.48-27.75,56.83c-2.68,4.13-5.55,8.26-8.63,12.39-3.75,5-6.95,10.33-9.51,15.86-15.53,32.97-9.7,72.41,25.37,85.89.14.06.25.11.38.14.02-.06.03-.11.05-.17-.02.06-.03.11-.05.17-.68,2.26-1.75,4.29-3.01,6.07.06-.03.11-.06.14-.08,6.1-5.44,14.11-8.78,22.91-8.78h.44c8.8,0,16.81,3.34,22.91,8.78.03.02.05.02.08.05,0,0,.01.01.02.01.01.01.02.02.03.02-1.25-1.76-2.32-3.78-3-6.04-.02-.08-.04-.15-.06-.23.02.07.04.15.06.23.14-.03.3-.11.44-.17,5.03-1.94,9.48-4.43,13.34-7.35,1.09-.82,2.13-1.7,3.14-2.6,11.59-10.41,16.95-25.28,16.95-41.17,0-1.07-.03-2.13-.08-3.2Z"/>
      </g>
      <path class="cls-4" d="M276.77,220.45l-.71-.29.86.06,15.61,1.15-14.28-3.6-1.32-.34,1.53-.1,33.63-2.27-31.39-3.37-4.08-.44,4.56-.98,11.58-2.5-10.94.42-5.14.19,5.66-2.09,27.41-10.09-26.33,4.76-8.77,1.58,7.76-4.22,6.75-3.66-7.92,2.65-7.34,2.47,4.69-3.48,23.61-17.53-23.35,11.69-8.55,4.28,8.33-8.31,3.36-3.35-3.46,2.42-9.72,6.79,8.88-11.77,12.34-16.35-13.44,12.52-12.66,11.8,7.94-14.48-10.07,12.55,7.94-21.03,4.51-11.94-6.17,10.4-12.02,20.28,3.53-16.13-6.12,14.87,2.66-35.14-8.82,34.56-1.13-16.17v-.29.14s-.02-.14-.02-.14v.29l-1.13,16.17-8.82-34.56,2.66,35.14-6.12-14.87,3.53,16.13-12.02-20.28-6.17-10.4,4.51,11.93,7.94,21.04-10.07-12.55,7.94,14.48-12.66-11.8-13.44-12.52,12.34,16.35,8.88,11.77-9.72-6.79-3.46-2.42,3.36,3.35,8.33,8.31-8.55-4.28-23.35-11.69,23.61,17.53,4.69,3.48-7.34-2.46-7.92-2.66,6.75,3.66,7.76,4.22-8.77-1.58-26.33-4.76,27.41,10.09,5.66,2.09-5.14-.19-10.94-.42,11.58,2.5,4.56.98-4.08.44-31.39,3.37,33.63,2.27,1.53.1-1.32.34-14.28,3.6,15.61-1.15.86-.06-.71.29-32.25,13.35,34.41-7.62-13.86,8.18,15.46-5.81-27.78,22.38,28.65-15.78,1.19-.66,1.04-.57-1.06,1.13-1.09,1.16-8.85,9.46,13.21-9.92-12.02,16.38,13.36-9.29-4.01,7.22,3.78-3.15c5.68-4.14,12.64-6.6,20.18-6.6h.44c7.55,0,14.52,2.46,20.19,6.6l4.04,3.41-4.28-7.48,13.38,9.29-12.02-16.38,13.21,9.92-8.85-9.46-1.09-1.16-1.06-1.13,1.04.57,1.19.66,28.65,15.78-27.78-22.38,15.46,5.81-13.86-8.18,34.41,7.62-32.25-13.35Z"/>
    </g>
  </g>
</svg>