<svg width="284" height="144" viewBox="0 0 284 144" fill="none" xmlns="http://www.w3.org/2000/svg">
<g style="mix-blend-mode:luminosity">
<path d="M125.492 128.313C124.937 130.008 124.065 131.53 123.038 132.865C122.581 133.278 122.117 133.683 121.652 134.065C115.677 139.059 108.894 141.999 101.786 143.184C80.8269 146.723 57.0883 135.032 43.2381 115.828C24.35 89.6489 0 72.7388 0 72.7388L0.0489119 72.5888C0.0489119 72.5888 30.5373 73.6236 63.1615 64.2725C64.205 63.965 65.2729 63.7025 66.3408 63.4551C66.4957 66.6871 66.5609 70.0316 66.5201 73.4212C66.3163 89.6414 72.4303 105.322 82.873 115.963C83.0279 116.128 83.1991 116.293 83.3621 116.458C87.3077 120.372 91.8565 123.574 96.9026 125.824C97.6689 126.176 98.4596 126.491 99.2503 126.791C103.277 128.313 107.606 129.243 112.171 129.453C115.228 129.596 118.391 129.431 121.652 128.898C122.81 128.726 123.992 128.486 125.174 128.216C125.288 128.261 125.377 128.298 125.492 128.321V128.313Z" fill="#D7DF23"/>
<path d="M284 72.7385C284 72.7385 259.642 89.6486 240.77 115.827C226.928 135.025 203.197 146.716 182.231 143.206C175.122 142.021 168.331 139.082 162.356 134.087C161.875 133.69 161.402 133.277 160.929 132.85C160.938 132.857 160.946 132.865 160.954 132.865C159.935 131.545 159.063 130.03 158.508 128.336C158.622 128.313 158.753 128.253 158.867 128.208C160.041 128.486 161.207 128.711 162.356 128.891C165.617 129.415 168.78 129.58 171.829 129.438C176.394 129.228 180.714 128.306 184.758 126.783C185.548 126.483 186.331 126.168 187.097 125.816C192.143 123.574 196.692 120.364 200.646 116.442C200.809 116.285 200.972 116.12 201.127 115.962C211.561 105.329 217.675 89.6411 217.455 73.4134C217.414 70.0239 217.48 66.6868 217.635 63.4248C218.703 63.6648 219.779 63.9572 220.838 64.2647C253.463 73.6234 283.959 72.581 283.959 72.581L284 72.731V72.7385Z" fill="#D7DF23"/>
<path d="M125.169 128.211C91.0124 136.19 66.0918 105.872 66.5157 73.4162C66.5646 70.0342 66.4912 66.6897 66.3363 63.4501C64.9505 36.5739 57.1816 15.3969 57.1816 15.3969L57.2958 15.3145C57.2958 15.3145 81.874 31.9396 114.563 41.1258C116.169 41.5757 117.751 42.0707 119.283 42.6181C117.099 45.7151 114.759 48.8122 112.248 51.9093C109.191 55.6587 106.583 59.6557 104.496 63.8026C91.8357 88.5266 96.5883 118.102 125.177 128.211H125.169Z" fill="#8DC63F"/>
<path d="M226.81 15.3969C226.81 15.3969 219.033 36.5514 217.631 63.4276C217.476 66.6897 217.411 70.0267 217.452 73.4162C217.9 105.872 193.004 136.167 158.863 128.211C162.964 126.756 166.591 124.889 169.738 122.699C170.627 122.084 171.474 121.424 172.298 120.75C181.746 112.943 186.115 101.792 186.115 89.8764C186.115 89.074 186.091 88.2716 186.05 87.4767C186.026 86.6743 185.96 85.857 185.871 85.0396V85.0171C185.806 84.2822 185.716 83.5173 185.602 82.7599C185.447 81.695 185.268 80.6077 185.039 79.5429C184.933 78.9504 184.795 78.373 184.664 77.7806C184.575 77.3532 184.46 76.9032 184.33 76.4683C184.085 75.4859 183.816 74.5036 183.482 73.5212C182.969 71.8639 182.374 70.2442 181.705 68.6169C181.501 68.062 181.257 67.5296 181.012 66.9971C180.548 65.9323 180.034 64.8674 179.496 63.8026C179.382 63.6001 179.292 63.3901 179.178 63.2027C178.917 62.6552 178.624 62.1228 178.306 61.5829C178.159 61.2904 177.996 61.0055 177.817 60.7205C177.703 60.533 177.588 60.3306 177.482 60.1506C177.173 59.6182 176.83 59.0783 176.504 58.5458C175.567 57.0535 174.54 55.5762 173.472 54.1215C172.909 53.3791 172.338 52.6517 171.727 51.9093C169.208 48.8122 166.869 45.7151 164.692 42.6181C166.233 42.0632 167.806 41.5757 169.412 41.1258C202.11 31.9471 226.688 15.3145 226.688 15.3145L226.794 15.3969H226.81Z" fill="#8DC63F"/>
<path d="M186.061 87.4751C186.036 86.6727 185.971 85.8553 185.882 85.038V85.0155C185.816 84.2806 185.727 83.5157 185.613 82.7583C185.458 81.6934 185.278 80.6061 185.05 79.5412C184.944 78.9488 184.805 78.3714 184.675 77.779C184.585 77.3515 184.471 76.9016 184.341 76.4667C184.096 75.4843 183.803 74.5019 183.493 73.5196C182.979 71.8623 182.384 70.2426 181.716 68.6153C181.496 68.0829 181.268 67.5279 181.023 66.9955C180.558 65.9307 180.045 64.8658 179.507 63.801C179.393 63.5985 179.303 63.3885 179.189 63.201C178.928 62.6536 178.634 62.1212 178.317 61.5813C178.17 61.2888 178.007 61.0039 177.827 60.7189C177.713 60.5314 177.599 60.329 177.493 60.149C177.183 59.6166 176.841 59.0766 176.515 58.5442C175.577 57.0519 174.55 55.5521 173.482 54.1198C172.92 53.3774 172.349 52.65 171.738 51.9076C169.219 48.8106 166.879 45.7135 164.703 42.6165C149.132 20.6071 142.073 0 142.073 0H141.918C141.918 0 134.875 20.6071 119.296 42.6165C117.111 45.7135 114.772 48.8106 112.261 51.9076C109.204 55.6571 106.595 59.6541 104.508 63.801C91.8485 88.525 96.6011 118.101 125.19 128.209C125.304 128.254 125.394 128.292 125.5 128.314C124.946 130.009 124.073 131.531 123.046 132.866C123.095 132.844 123.136 132.821 123.16 132.806C128.133 128.727 134.663 126.222 141.836 126.222H142.195C149.369 126.222 155.899 128.727 160.871 132.806C160.896 132.821 160.912 132.821 160.937 132.844C160.937 132.844 160.945 132.851 160.953 132.851C160.961 132.859 160.969 132.866 160.977 132.866C159.958 131.546 159.086 130.032 158.532 128.337C158.515 128.277 158.499 128.224 158.483 128.164C158.499 128.217 158.515 128.277 158.532 128.337C158.646 128.314 158.776 128.254 158.89 128.209C162.991 126.755 166.618 124.887 169.765 122.698C170.654 122.083 171.501 121.423 172.325 120.748C181.773 112.942 186.142 101.791 186.142 89.8748C186.142 89.0724 186.118 88.2775 186.077 87.4751H186.061Z" fill="#39B54A"/>
</g>
</svg>
