<svg width="73" height="73" viewBox="0 0 73 73" fill="none" xmlns="http://www.w3.org/2000/svg">
<rect width="73" height="73" fill="#22574D"/>
<g clip-path="url(#clip0_8_1295)">
<path d="M48.9457 45.4468L42.187 48.9184C41.6018 48.3287 40.7913 47.9629 39.8969 47.9629H35.2396C35.0324 47.9629 34.9566 47.9502 34.9338 47.9448C34.8916 47.9161 34.7863 47.8171 34.7009 47.7367L34.6564 47.6947C30.8656 44.1249 27.6623 44.3514 24.0192 45.7892C23.4491 46.0141 23.4383 46.0146 22.8732 46.0404L21.8472 46.0416C21.527 45.1339 20.6617 44.4814 19.6468 44.4814H16.22C14.9334 44.4814 13.8867 45.5293 13.8867 46.8174V55.8045C13.8867 57.0912 14.9334 58.1379 16.22 58.1379H19.6467C20.6617 58.1379 21.527 57.4861 21.8472 56.5793H23.7316C23.945 56.5978 24.153 56.6412 24.3557 56.7095L33.2171 59.079C33.6051 59.1842 33.9613 59.2877 34.3059 59.3879C35.4503 59.7205 36.4123 60 37.4153 59.9999C38.5485 59.9999 39.734 59.6431 41.2935 58.6028C41.3013 58.5976 41.3091 58.5923 41.3167 58.5869L52.2425 50.8066C53.6787 49.7819 54.0974 47.9324 53.216 46.5037C52.3448 45.0952 50.5084 44.6411 48.9457 45.4468ZM20.1441 55.8046C20.1441 56.0743 19.9163 56.3021 19.6467 56.3021H16.22C15.9503 56.3021 15.7226 56.0743 15.7226 55.8046V46.8175C15.7226 46.5464 15.9504 46.3174 16.22 46.3174H19.6467C19.9164 46.3174 20.1441 46.5464 20.1441 46.8175V55.8046ZM51.1768 49.3117L40.2632 57.0833C38.0418 58.5618 37.0964 58.287 34.818 57.625C34.4657 57.5227 34.1013 57.4168 33.6943 57.3064L24.8306 54.9362C24.474 54.8256 24.1075 54.7614 23.7315 54.7436H21.98V47.8785L22.9567 47.8744C23.6554 47.8425 23.872 47.8209 24.693 47.497C27.8506 46.2507 30.2874 46.1022 33.3986 49.0321L33.4425 49.0734C33.9782 49.5778 34.3102 49.7987 35.2396 49.7987H39.8969C40.6648 49.7987 41.2894 50.4234 41.2894 51.1913C41.2894 51.9578 40.6648 52.5813 39.8969 52.5813H32.3464C31.8394 52.5813 31.4284 52.9923 31.4284 53.4992C31.4284 54.0062 31.8394 54.4171 32.3464 54.4171H39.8969C41.677 54.4171 43.1253 52.97 43.1253 51.1913C43.1253 50.9664 43.1019 50.7468 43.058 50.5348L49.7856 47.0791C50.3989 46.763 51.2378 46.7954 51.654 47.4686C52.021 48.0635 51.8155 48.8561 51.1768 49.3117Z" fill="white"/>
<path d="M35.0159 34.7115C34.0223 35.1956 33.3357 36.2157 33.3357 37.3934C33.3357 38.6918 34.1718 39.798 35.334 40.2049V41.572C35.334 43.246 36.6947 44.608 38.3672 44.608H42.4338C44.1078 44.608 45.4697 43.246 45.4697 41.572V40.2049C46.6319 39.798 47.4679 38.6917 47.4679 37.3934C47.4679 36.2157 46.7814 35.1955 45.7877 34.7115C46.1896 33.2182 47.0044 32.1063 47.8614 30.94C49.1797 29.1458 50.6739 27.1122 50.6707 23.5302C50.6707 23.2104 50.6575 22.8822 50.6314 22.5546C50.5912 22.0492 50.15 21.6733 49.6436 21.7123C49.1383 21.7525 48.7612 22.1947 48.8014 22.7001C48.8236 22.9795 48.8349 23.2587 48.8349 23.531C48.8375 26.5109 47.6448 28.1343 46.3819 29.8529C45.4237 31.157 44.4376 32.5013 43.9677 34.4119H36.8356C36.3657 32.5015 35.3793 31.1573 34.4209 29.8533C33.1577 28.1346 31.9645 26.5113 31.9685 23.5312C31.9725 20.3537 33.3339 18.3469 34.4753 17.223C36.047 15.6754 38.1998 14.8055 40.3887 14.8364C40.3975 14.8365 40.4062 14.8365 40.415 14.8364C42.1985 14.8093 43.9871 15.3906 45.4474 16.4702C45.8548 16.7716 46.4298 16.6854 46.7312 16.2778C47.0325 15.8701 46.9464 15.2953 46.5388 14.994C44.7609 13.6797 42.5819 12.9726 40.4016 13.0008C37.7315 12.9682 35.1034 14.0285 33.1874 15.9152C31.1929 17.8792 30.1367 20.5121 30.1328 23.5291C30.1281 27.1126 31.623 29.1465 32.9419 30.9408C33.7989 32.1068 34.6139 33.2185 35.0159 34.7115ZM43.6339 41.5721C43.6339 42.2338 43.0957 42.7722 42.4339 42.7722H38.3672C37.707 42.7722 37.1699 42.2338 37.1699 41.5721V40.3721H43.6339V41.5721ZM36.317 36.248H44.4868C45.1183 36.248 45.6322 36.7618 45.6322 37.3934C45.6322 38.0235 45.1184 38.5362 44.4868 38.5362H36.317C35.6854 38.5362 35.1716 38.0235 35.1716 37.3934C35.1716 36.7618 35.6854 36.248 36.317 36.248Z" fill="white"/>
<path d="M41.3202 19.7055C41.3202 19.1986 40.9093 18.7876 40.4023 18.7876C39.8953 18.7876 39.4844 19.1986 39.4844 19.7055V25.3986C39.4844 25.9055 39.8953 26.3165 40.4023 26.3165C40.9093 26.3165 41.3202 25.9055 41.3202 25.3986V19.7055Z" fill="white"/>
<path d="M40.4023 28.6333C39.8953 28.6333 39.4844 29.0443 39.4844 29.5513V29.5565C39.4844 30.0635 39.8953 30.4719 40.4023 30.4719C40.9093 30.4719 41.3203 30.0584 41.3203 29.5514C41.3203 29.0444 40.9093 28.6333 40.4023 28.6333Z" fill="white"/>
<path d="M58.7635 23.5229H55.0351C54.5281 23.5229 54.1172 23.9339 54.1172 24.4409C54.1172 24.9478 54.5281 25.3588 55.0351 25.3588H58.7635C59.2705 25.3588 59.6815 24.9478 59.6815 24.4409C59.6815 23.9339 59.2705 23.5229 58.7635 23.5229Z" fill="white"/>
<path d="M53.4893 17.6106C53.6651 17.6106 53.8429 17.5601 53.9999 17.4547L57.0935 15.3784C57.5144 15.0959 57.6266 14.5256 57.3441 14.1047C57.0616 13.6838 56.4914 13.5716 56.0704 13.8541L52.9768 15.9304C52.5558 16.213 52.4436 16.7833 52.7262 17.2041C52.9034 17.468 53.1936 17.6106 53.4893 17.6106Z" fill="white"/>
<path d="M57.0935 33.5037L53.9999 31.4273C53.5789 31.1448 53.0086 31.2571 52.7262 31.6779C52.4436 32.0988 52.5559 32.6691 52.9768 32.9516L56.0703 35.028C56.2273 35.1334 56.4051 35.1838 56.581 35.1838C56.8766 35.1838 57.1669 35.0413 57.3441 34.7774C57.6266 34.3564 57.5144 33.7861 57.0935 33.5037Z" fill="white"/>
<path d="M22.0429 25.3588H25.7688C26.2757 25.3588 26.6867 24.9478 26.6867 24.4409C26.6867 23.9339 26.2757 23.5229 25.7688 23.5229H22.0429C21.536 23.5229 21.125 23.9339 21.125 24.4409C21.125 24.9478 21.536 25.3588 22.0429 25.3588Z" fill="white"/>
<path d="M23.7112 15.3784L26.8047 17.4547C26.9617 17.5601 27.1395 17.6106 27.3154 17.6106C27.611 17.6106 27.9013 17.468 28.0785 17.2041C28.361 16.7833 28.2487 16.213 27.8279 15.9304L24.7343 13.8541C24.3133 13.5716 23.7431 13.6838 23.4606 14.1047C23.178 14.5256 23.2902 15.0959 23.7112 15.3784Z" fill="white"/>
<path d="M26.8047 31.4273L23.7112 33.5037C23.2902 33.7862 23.178 34.3565 23.4606 34.7774C23.6377 35.0413 23.9279 35.1838 24.2236 35.1838C24.3995 35.1838 24.5773 35.1334 24.7343 35.028L27.8279 32.9516C28.2488 32.6691 28.361 32.0988 28.0785 31.6779C27.7959 31.2571 27.2256 31.1448 26.8047 31.4273Z" fill="white"/>
<path d="M47.9317 19.3558C48.1107 19.5347 48.3447 19.6241 48.5788 19.6241C48.8138 19.6241 49.049 19.5341 49.2286 19.3546C49.587 18.9961 49.5858 18.4135 49.2273 18.055C48.8688 17.6965 48.2876 17.6965 47.929 18.055C47.5705 18.4134 47.5705 18.9947 47.929 19.3533L47.9317 19.3558Z" fill="white"/>
</g>
<defs>
<clipPath id="clip0_8_1295">
<rect width="47" height="47" fill="white" transform="translate(13 13)"/>
</clipPath>
</defs>
</svg>
