<svg width="73" height="73" viewBox="0 0 73 73" fill="none" xmlns="http://www.w3.org/2000/svg">
<rect width="73" height="73" fill="#22574D"/>
<g clip-path="url(#clip0_8_1311)">
<g clip-path="url(#clip1_8_1311)">
<path d="M25.6349 42.7896H23.2757C21.9647 42.7896 20.9023 41.7263 20.9023 40.4153V24.8177C20.9023 23.5067 21.9647 22.4443 23.2757 22.4443H27.5144" stroke="white" stroke-width="1.5" stroke-miterlimit="10" stroke-linecap="round" stroke-linejoin="round"/>
<path d="M45.4853 22.4443H49.724C51.035 22.4443 52.0974 23.5067 52.0974 24.8177V40.4153C52.0974 41.7263 51.035 42.7896 49.724 42.7896H39.687C39.3922 42.7896 39.1185 42.9424 38.9648 43.1935L37.1457 46.1582C37.0768 46.2699 36.9811 46.3606 36.8702 46.4227C36.7585 46.4849 36.6317 46.5193 36.4998 46.5193C36.2361 46.5193 35.9917 46.3824 35.854 46.1582L34.0349 43.1935C33.8812 42.9424 33.6074 42.7896 33.3126 42.7896H28.5742" stroke="white" stroke-width="1.5" stroke-miterlimit="10" stroke-linecap="round" stroke-linejoin="round"/>
<path d="M37.3478 33.6011H35.6524C35.1842 33.6011 34.8047 33.2216 34.8047 32.7534V30.8884H38.1956V32.7534C38.1956 33.2216 37.8159 33.6011 37.3478 33.6011Z" stroke="white" stroke-width="1.5" stroke-miterlimit="10" stroke-linecap="round" stroke-linejoin="round"/>
<path d="M36.4996 18.3423C33.5034 18.3424 31.0742 20.7706 31.0742 23.7668C31.0742 25.6176 32.009 27.2519 33.4275 28.2309C34.2973 28.8313 34.8041 29.8315 34.8041 30.8884H38.195C38.195 29.8314 38.7019 28.8313 39.5717 28.2309C40.9901 27.2518 41.9249 25.6176 41.9249 23.7668C41.925 20.7705 39.4958 18.3424 36.4996 18.3423Z" stroke="white" stroke-width="1.5" stroke-miterlimit="10" stroke-linecap="round" stroke-linejoin="round"/>
<path d="M36.5 30.8884V25.6553" stroke="white" stroke-width="1.5" stroke-miterlimit="10" stroke-linecap="round" stroke-linejoin="round"/>
<path d="M37.8572 24.8076L36.5009 25.6554L35.1445 24.8076" stroke="white" stroke-width="1.5" stroke-miterlimit="10" stroke-linecap="round" stroke-linejoin="round"/>
<path d="M45.4871 37.6701V36.3137H28.9103C28.18 36.3137 27.5515 36.875 27.5172 37.6045C27.4805 38.3833 28.1011 39.0264 28.872 39.0264H44.1309C44.8799 39.0264 45.4871 38.4191 45.4871 37.6701Z" stroke="white" stroke-width="1.5" stroke-miterlimit="10" stroke-linecap="round" stroke-linejoin="round"/>
<path d="M33.2098 15.6299H44.1303C44.8794 15.6299 45.4866 16.2371 45.4866 16.9862V36.3136H28.872C28.1228 36.3136 27.5156 36.9208 27.5156 37.6699V16.9862C27.5156 16.2371 28.1228 15.6299 28.872 15.6299H30.2703" stroke="white" stroke-width="1.5" stroke-miterlimit="10" stroke-linecap="round" stroke-linejoin="round"/>
<path d="M36.501 51.1694C37.7851 51.1694 38.8262 50.1284 38.8262 48.8442C38.8262 47.5601 37.7851 46.519 36.501 46.519C35.2168 46.519 34.1758 47.5601 34.1758 48.8442C34.1758 50.1284 35.2168 51.1694 36.501 51.1694Z" stroke="white" stroke-width="1.5" stroke-miterlimit="10" stroke-linecap="round" stroke-linejoin="round"/>
<path d="M36.4997 51.1694C34.3922 51.1695 32.6836 52.8773 32.6836 54.9848V56.2569C32.6836 56.8716 33.1819 57.3699 33.7966 57.3699H39.2027C39.8174 57.3699 40.3158 56.8716 40.3158 56.2569V54.9848C40.3158 52.8773 38.6072 51.1695 36.4997 51.1694Z" stroke="white" stroke-width="1.5" stroke-miterlimit="10" stroke-linecap="round" stroke-linejoin="round"/>
<path d="M44.1338 51.1694C45.418 51.1694 46.459 50.1284 46.459 48.8442C46.459 47.5601 45.418 46.519 44.1338 46.519C42.8496 46.519 41.8086 47.5601 41.8086 48.8442C41.8086 50.1284 42.8496 51.1694 44.1338 51.1694Z" stroke="white" stroke-width="1.5" stroke-miterlimit="10" stroke-linecap="round" stroke-linejoin="round"/>
<path d="M45.6024 57.37H46.8353C47.45 57.37 47.9481 56.8711 47.9481 56.2564V54.9848C47.9481 52.8768 46.2398 51.1694 44.1327 51.1694C42.0246 51.1694 40.3164 52.8768 40.3164 54.9848V56.2564C40.3164 56.8711 40.8144 57.37 41.4292 57.37H42.6629" stroke="white" stroke-width="1.5" stroke-miterlimit="10" stroke-linecap="round" stroke-linejoin="round"/>
<path d="M28.8682 51.1694C30.1523 51.1694 31.1934 50.1284 31.1934 48.8442C31.1934 47.5601 30.1523 46.519 28.8682 46.519C27.584 46.519 26.543 47.5601 26.543 48.8442C26.543 50.1284 27.584 51.1694 28.8682 51.1694Z" stroke="white" stroke-width="1.5" stroke-miterlimit="10" stroke-linecap="round" stroke-linejoin="round"/>
<path d="M28.8669 51.1694C26.7594 51.1695 25.0508 52.8773 25.0508 54.9848V56.2569C25.0508 56.8716 25.5491 57.3699 26.1638 57.3699H31.5699C32.1846 57.3699 32.6829 56.8716 32.6829 56.2569V54.9848C32.6829 52.8773 30.9744 51.1695 28.8669 51.1694Z" stroke="white" stroke-width="1.5" stroke-miterlimit="10" stroke-linecap="round" stroke-linejoin="round"/>
</g>
</g>
<defs>
<clipPath id="clip0_8_1311">
<rect width="43" height="43" fill="white" transform="translate(15 15)"/>
</clipPath>
<clipPath id="clip1_8_1311">
<rect width="43" height="43" fill="white" transform="translate(15 15)"/>
</clipPath>
</defs>
</svg>
