<svg width="73" height="73" viewBox="0 0 73 73" fill="none" xmlns="http://www.w3.org/2000/svg">
<rect width="73" height="73" fill="#22574D"/>
<path d="M37.8038 25.0399L37.2337 28.2612C37.1896 28.5114 37.2956 28.7643 37.507 28.9137C37.7198 29.0632 38.0015 29.0826 38.2328 28.9645L41.2186 27.4432L44.2044 28.9645C44.305 29.0158 44.4158 29.0412 44.5253 29.0412C44.6679 29.0412 44.8097 28.9985 44.9302 28.9137C45.1423 28.7643 45.2484 28.5114 45.2036 28.2612L44.6334 25.0399L47.0498 22.7587C47.2371 22.5812 47.3045 22.3163 47.224 22.0748C47.1427 21.8333 46.9272 21.6571 46.6676 21.6204L43.3292 21.15L41.8356 18.219C41.6042 17.7633 40.8323 17.7639 40.6009 18.219L39.108 21.15L35.7697 21.6204C35.5101 21.6571 35.2952 21.8333 35.2133 22.0748C35.1327 22.3163 35.1995 22.5812 35.3875 22.7587L37.8038 25.0399ZM39.6644 22.4204C39.8889 22.3891 40.0824 22.2523 40.183 22.0555L41.2186 20.0225L42.255 22.0561C42.3555 22.2529 42.549 22.3897 42.7735 22.4211L45.0893 22.7474L43.4125 24.33C43.2507 24.4834 43.1763 24.7043 43.2149 24.9205L43.6102 27.155L41.5388 26.0994C41.4383 26.0481 41.3281 26.0227 41.2179 26.0227C41.1078 26.0227 40.9983 26.0481 40.897 26.0994L38.8257 27.155L39.221 24.9205C39.2595 24.7043 39.1852 24.4834 39.0233 24.33L37.3473 22.7467L39.6644 22.4204Z" fill="white"/>
<path d="M57.8198 53.8522H53.7646V39.9642C53.7646 39.5959 53.4568 39.297 53.076 39.297H48.3322C47.9514 39.297 47.6436 39.5959 47.6436 39.9642V47.8593C47.6436 48.2276 47.9514 48.5265 48.3322 48.5265C48.713 48.5265 49.0208 48.2276 49.0208 47.8593V40.6314H52.3874V53.8522H49.0208V50.5282C49.0208 50.1599 48.713 49.861 48.3322 49.861C47.9514 49.861 47.6436 50.1599 47.6436 50.5282V53.8522H44.2763V32.3032C44.2763 31.9349 43.9685 31.636 43.5877 31.636H38.8438C38.463 31.636 38.1552 31.9349 38.1552 32.3032V37.6656C38.1552 38.0339 38.463 38.3329 38.8438 38.3329C39.2246 38.3329 39.5324 38.0339 39.5324 37.6656V32.9705H42.899V53.8516H39.5324V40.2978C39.5324 39.9295 39.2246 39.6306 38.8438 39.6306C38.463 39.6306 38.1552 39.9295 38.1552 40.2978V53.8516H34.7886V39.9642C34.7886 39.5959 34.4808 39.297 34.1 39.297H29.3562C28.9754 39.297 28.6676 39.5959 28.6676 39.9642V48.305C28.6676 48.6733 28.9754 48.9722 29.3562 48.9722C29.737 48.9722 30.0448 48.6733 30.0448 48.305V40.6314H33.4114V53.8522H30.0448V50.9739C30.0448 50.6056 29.737 50.3067 29.3562 50.3067C28.9754 50.3067 28.6676 50.6056 28.6676 50.9739V53.8522H25.3003V47.6251C25.3003 47.2568 24.9925 46.9579 24.6117 46.9579H19.8699C19.4891 46.9579 19.1813 47.2568 19.1813 47.6251V53.8522H15.8147V20.8125C15.8147 20.4442 15.5069 20.1453 15.1261 20.1453C14.7453 20.1453 14.4375 20.4442 14.4375 20.8125V54.5195C14.4375 54.8878 14.7453 55.1867 15.1261 55.1867H57.8198C58.2006 55.1867 58.5084 54.8878 58.5084 54.5195C58.5084 54.1512 58.2006 53.8522 57.8198 53.8522ZM23.9245 53.8522H20.5578V48.2924H23.9245V53.8522Z" fill="white"/>
</svg>
