<svg width="26" height="27" viewBox="0 0 26 27" fill="none" xmlns="http://www.w3.org/2000/svg">
<g id="Call">
<path id="Vector" d="M20.838 14.3272C20.6022 14.3272 20.3557 14.2522 20.1198 14.1986C19.6423 14.0934 19.173 13.9536 18.7157 13.7806C18.2184 13.5997 17.6718 13.609 17.1811 13.8069C16.6903 14.0048 16.2901 14.3772 16.0574 14.8524L15.8216 15.3348C14.7776 14.754 13.8183 14.0327 12.9704 13.191C12.1288 12.3432 11.4074 11.3838 10.8267 10.3398L11.2769 10.0397C11.7521 9.80702 12.1245 9.40679 12.3224 8.91605C12.5202 8.4253 12.5296 7.87871 12.3487 7.38145C12.1785 6.92314 12.0389 6.45406 11.9307 5.97729C11.8771 5.74148 11.8342 5.49495 11.8021 5.24841C11.6719 4.49341 11.2765 3.80968 10.6869 3.32036C10.0974 2.83105 9.35252 2.5683 8.58645 2.57944H5.37082C4.90888 2.5751 4.45142 2.67035 4.02959 2.8587C3.60777 3.04705 3.23147 3.32407 2.92633 3.67091C2.62119 4.01776 2.39436 4.42628 2.26129 4.86866C2.12822 5.31105 2.09204 5.77691 2.15519 6.23454C2.72622 10.725 4.77703 14.8973 7.98368 18.0923C11.1903 21.2873 15.37 23.3229 19.8626 23.8776H20.2699C21.0603 23.8788 21.8235 23.5888 22.4137 23.063C22.7528 22.7597 23.0236 22.3879 23.2084 21.9722C23.3932 21.5564 23.4876 21.1062 23.4855 20.6513V17.4357C23.4724 16.6911 23.2013 15.9742 22.7184 15.4073C22.2356 14.8404 21.571 14.4587 20.838 14.3272ZM21.3739 20.7585C21.3737 20.9107 21.3411 21.0611 21.2783 21.1997C21.2155 21.3383 21.1238 21.4619 21.0095 21.5624C20.8897 21.6658 20.7497 21.743 20.5983 21.7892C20.447 21.8353 20.2877 21.8493 20.1306 21.8303C16.1163 21.3156 12.3876 19.4792 9.53261 16.6106C6.67765 13.7421 4.8589 10.0047 4.36326 5.98801C4.3462 5.831 4.36115 5.67216 4.40721 5.52109C4.45326 5.37002 4.52947 5.22986 4.63123 5.10907C4.73167 4.99474 4.85531 4.9031 4.99393 4.84026C5.13254 4.77742 5.28294 4.74483 5.43513 4.74463H8.65076C8.90003 4.73909 9.14342 4.82061 9.33906 4.97516C9.5347 5.12972 9.67034 5.34764 9.72264 5.59141C9.76552 5.88439 9.81911 6.1738 9.88342 6.45964C10.0072 7.02467 10.172 7.57994 10.3765 8.12104L8.87586 8.81776C8.74755 8.87663 8.63214 8.96027 8.53624 9.06386C8.44035 9.16746 8.36586 9.28898 8.31706 9.42144C8.26826 9.5539 8.2461 9.6947 8.25186 9.83575C8.25763 9.9768 8.29119 10.1153 8.35064 10.2434C9.89328 13.5477 12.5494 16.2039 15.8538 17.7465C16.1147 17.8537 16.4074 17.8537 16.6684 17.7465C16.8021 17.6987 16.9249 17.6248 17.0298 17.5291C17.1347 17.4334 17.2195 17.3179 17.2794 17.1891L17.9439 15.6885C18.4981 15.8867 19.0636 16.0513 19.6375 16.1816C19.9233 16.2459 20.2127 16.2995 20.5057 16.3423C20.7495 16.3946 20.9674 16.5303 21.122 16.7259C21.2765 16.9216 21.358 17.165 21.3525 17.4142L21.3739 20.7585Z" fill="#8DC73F"/>
</g>
</svg>
