<svg width="26" height="26" viewBox="0 0 26 26" fill="none" xmlns="http://www.w3.org/2000/svg">
<g id="Location" clip-path="url(#clip0_948_1359)">
<path id="Vector" d="M12.8618 0.213379C10.1561 0.213379 7.56131 1.28819 5.64813 3.20136C3.73496 5.11453 2.66016 7.70934 2.66016 10.415C2.66016 17.3011 11.6503 25.0798 12.0329 25.4113C12.2639 25.6089 12.5578 25.7175 12.8618 25.7175C13.1657 25.7175 13.4597 25.6089 13.6906 25.4113C14.137 25.0798 23.0634 17.3011 23.0634 10.415C23.0634 7.70934 21.9885 5.11453 20.0754 3.20136C18.1622 1.28819 15.5674 0.213379 12.8618 0.213379ZM12.8618 22.7206C10.1456 20.1703 5.21056 14.6741 5.21056 10.415C5.21056 8.38575 6.01666 6.43964 7.45154 5.00476C8.88642 3.56988 10.8325 2.76378 12.8618 2.76378C14.891 2.76378 16.8371 3.56988 18.272 5.00476C19.7068 6.43964 20.513 8.38575 20.513 10.415C20.513 14.6741 15.5779 20.183 12.8618 22.7206ZM12.8618 5.31418C11.8529 5.31418 10.8667 5.61333 10.0279 6.17382C9.18908 6.7343 8.5353 7.53093 8.14923 8.46298C7.76316 9.39503 7.66215 10.4206 7.85896 11.4101C8.05578 12.3995 8.54158 13.3084 9.25494 14.0218C9.9683 14.7351 10.8772 15.2209 11.8666 15.4178C12.8561 15.6146 13.8817 15.5136 14.8137 15.1275C15.7458 14.7414 16.5424 14.0876 17.1029 13.2488C17.6634 12.41 17.9626 11.4238 17.9626 10.415C17.9626 9.06216 17.4251 7.76475 16.4686 6.80817C15.512 5.85158 14.2146 5.31418 12.8618 5.31418ZM12.8618 12.9654C12.3573 12.9654 11.8642 12.8158 11.4448 12.5356C11.0254 12.2553 10.6985 11.857 10.5055 11.391C10.3125 10.9249 10.262 10.4121 10.3604 9.91742C10.4588 9.42269 10.7017 8.96825 11.0583 8.61157C11.415 8.25489 11.8695 8.01199 12.3642 7.91358C12.8589 7.81517 13.3717 7.86568 13.8377 8.05871C14.3038 8.25175 14.7021 8.57864 14.9823 8.99805C15.2626 9.41746 15.4122 9.91055 15.4122 10.415C15.4122 11.0914 15.1434 11.7401 14.6652 12.2184C14.1869 12.6967 13.5382 12.9654 12.8618 12.9654Z" fill="#8DC73F"/>
</g>
<defs>
<clipPath id="clip0_948_1359">
<rect width="25.725" height="25.725" fill="white" transform="translate(0 0.103027)"/>
</clipPath>
</defs>
</svg>
