<svg width="550" height="278" viewBox="0 0 550 278" fill="none" xmlns="http://www.w3.org/2000/svg">
<mask id="mask0_693_4301" style="mask-type:alpha" maskUnits="userSpaceOnUse" x="0" y="0" width="550" height="278">
<rect width="550" height="278" fill="url(#paint0_linear_693_4301)"/>
</mask>
<g mask="url(#mask0_693_4301)">
<g opacity="0.7">
<path d="M236.039 249.865C238.205 249.543 240.412 249.1 242.613 248.603C241.567 251.537 240.016 254.196 238.203 256.555C237.337 257.334 236.458 258.098 235.581 258.818L235.578 258.821C224.102 268.394 211.078 274.027 197.425 276.299L197.423 276.299C157.144 283.088 111.428 260.657 84.7354 223.719L84.7353 223.718C66.434 198.403 45.4914 177.576 29.1283 163.079C20.9457 155.829 13.9059 150.161 8.91028 146.304C6.41243 144.375 4.42551 142.9 3.06219 141.905C2.68754 141.632 2.35999 141.395 2.08186 141.195C2.44341 141.202 2.87381 141.208 3.37057 141.214C5.11113 141.233 7.66642 141.241 10.9293 141.193C17.4549 141.098 26.8114 140.784 38.1416 139.904C60.7996 138.145 91.3619 134.126 122.965 125.086L122.969 125.085C124.752 124.56 126.575 124.103 128.408 123.673C128.684 129.685 128.798 135.894 128.722 142.183C128.326 173.638 140.203 204.06 160.517 224.721C160.722 224.939 160.947 225.162 161.163 225.377C161.268 225.481 161.371 225.584 161.469 225.683L161.473 225.687C169.151 233.289 178.006 239.511 187.835 243.885C189.334 244.573 190.877 245.186 192.41 245.767L192.411 245.767C200.257 248.727 208.69 250.535 217.583 250.943C223.535 251.22 229.692 250.899 236.039 249.865Z" stroke="#B5BE00" stroke-width="1.1604"/>
<path d="M353.237 276.343L353.237 276.343C393.533 283.074 439.234 260.643 465.91 223.719C484.196 198.404 505.134 177.577 521.498 163.08C529.68 155.83 536.721 150.162 541.718 146.305C544.216 144.376 546.203 142.9 547.567 141.906C547.951 141.626 548.285 141.385 548.567 141.182C548.205 141.188 547.773 141.195 547.274 141.201C545.533 141.221 542.977 141.229 539.714 141.182C533.187 141.088 523.828 140.774 512.496 139.896C489.834 138.138 459.268 134.12 427.665 125.072L427.663 125.072C425.843 124.544 424.003 124.042 422.175 123.614C421.899 129.679 421.785 135.878 421.861 142.169C422.288 173.641 410.409 204.08 390.108 224.726L390.108 224.727C389.809 225.03 389.49 225.352 389.17 225.661C381.477 233.276 372.623 239.513 362.794 243.872C361.296 244.559 359.77 245.172 358.235 245.753L358.234 245.753C350.357 248.713 341.939 250.507 333.046 250.915M353.237 276.343L333.02 250.335M353.237 276.343C339.583 274.072 326.544 268.438 315.068 258.865L315.065 258.863C314.183 258.136 313.315 257.382 312.446 256.6L353.237 276.343ZM333.046 250.915L333.02 250.335M333.046 250.915C333.047 250.915 333.047 250.915 333.047 250.915L333.02 250.335M333.046 250.915C327.11 251.192 320.952 250.871 314.605 249.851M333.02 250.335C327.122 250.61 321.004 250.292 314.696 249.278M314.605 249.851C314.606 249.851 314.606 249.851 314.606 249.852L314.696 249.278M314.605 249.851C312.427 249.511 310.219 249.088 307.994 248.568M314.605 249.851C314.605 249.851 314.604 249.851 314.604 249.851L314.696 249.278M314.696 249.278L307.994 248.568M307.994 248.568C308.014 248.56 308.034 248.552 308.052 248.544C308.092 248.528 308.129 248.513 308.159 248.501L307.947 247.961L307.879 248.25C307.854 248.175 307.829 248.101 307.804 248.026L307.705 248.059C307.552 248.12 307.396 248.179 307.253 248.207C307.314 248.392 307.376 248.576 307.441 248.759C307.631 248.713 307.833 248.634 307.989 248.57C307.989 248.569 307.989 248.568 307.988 248.567C307.99 248.567 307.992 248.568 307.994 248.568ZM312.289 256.464C312.304 256.474 312.317 256.485 312.325 256.492L311.984 256.866V256.371C312.15 256.371 312.26 256.444 312.289 256.464Z" stroke="#B5BE00" stroke-width="1.1604"/>
<path d="M192.287 196.522C198.347 218.869 214.017 237.81 240.701 247.825C208.694 254.625 181.041 243.943 161.356 223.935C141.263 203.514 129.469 173.369 129.877 142.185C129.972 135.642 129.83 129.173 129.53 122.909L129.53 122.907C128.187 96.9177 123.752 73.688 119.654 56.9565C117.605 48.59 115.639 41.8464 114.185 37.1928C113.458 34.8659 112.859 33.0614 112.441 31.8377C112.362 31.6059 112.29 31.3949 112.224 31.2051C112.526 31.4022 112.891 31.6379 113.315 31.9101C114.743 32.825 116.852 34.1507 119.579 35.7966C125.034 39.0884 132.964 43.6609 142.872 48.7878C162.686 59.0408 190.418 71.5159 222.084 80.3968L222.085 80.3969C224.928 81.192 227.73 82.0595 230.454 83.0106C226.363 88.7699 221.992 94.5294 217.313 100.289C211.375 107.558 206.306 115.309 202.249 123.354C189.952 147.322 186.092 173.677 192.287 196.522Z" stroke="#8DC63F" stroke-width="1.1604"/>
<path d="M438.395 31.193C438.089 31.3926 437.718 31.6326 437.284 31.9106C435.857 32.8259 433.748 34.1522 431.02 35.7986C425.565 39.0915 417.635 43.6654 407.726 48.7933C387.91 59.0481 360.174 71.5231 328.499 80.3968L328.499 80.3969C325.652 81.1929 322.862 82.0489 320.128 83.0096C324.205 88.769 328.576 94.5287 333.27 100.289C333.271 100.289 333.271 100.289 333.271 100.29L332.821 100.656C334.004 102.09 335.108 103.494 336.196 104.927L438.395 31.193ZM438.395 31.193C438.328 31.3852 438.254 31.5996 438.174 31.8355C437.755 33.058 437.156 34.8608 436.428 37.1857C434.972 41.8352 433.003 48.5734 430.95 56.9345C426.844 73.6551 422.397 96.8739 421.039 122.863L421.038 122.866C420.738 129.174 420.612 135.628 420.691 142.184L420.691 142.185C421.123 173.37 409.352 203.503 389.281 223.919C369.619 243.92 341.989 254.602 310 247.825M438.395 31.193L308.989 248.2M329.304 237.797C331.04 236.598 332.693 235.314 334.293 234.006L334.294 234.004C352.725 218.807 361.234 197.104 361.234 173.954C361.234 172.395 361.187 170.838 361.108 169.298C361.06 167.742 360.934 166.161 360.761 164.585V164.573V164.547L360.759 164.522C360.632 163.092 360.457 161.604 360.234 160.13C360.234 160.129 360.234 160.129 360.234 160.129L359.661 160.215L328.974 237.321M329.304 237.797C329.304 237.798 329.304 237.798 329.303 237.798L328.974 237.321M329.304 237.797C329.304 237.797 329.305 237.797 329.305 237.797L328.974 237.321M329.304 237.797C323.656 241.72 317.217 245.108 310 247.825M328.974 237.321C323.147 241.367 316.468 244.843 308.95 247.597C309.3 247.675 309.651 247.751 310 247.825M310 247.825C309.665 247.952 309.328 248.077 308.989 248.2M308.989 248.2C308.639 248.123 308.289 248.043 307.938 247.961L308.989 248.2Z" stroke="#8DC63F" stroke-width="1.1604"/>
<path d="M359.982 169.901L359.964 169.339C359.918 167.809 359.793 166.247 359.621 164.68L359.617 164.648V164.616V164.599C359.492 163.199 359.321 161.743 359.103 160.302L359.103 160.299C358.804 158.25 358.459 156.165 358.022 154.126L358.02 154.117L358.018 154.107C357.865 153.254 357.677 152.422 357.485 151.567C357.422 151.29 357.359 151.011 357.297 150.727L357.296 150.722C357.126 149.913 356.909 149.06 356.661 148.236L356.657 148.223L356.654 148.209C356.185 146.329 355.621 144.446 355.024 142.554L355.023 142.551C354.035 139.371 352.891 136.261 351.603 133.133L359.982 169.901ZM359.982 169.901H360.023C360.085 171.256 360.122 172.6 360.122 173.954C360.122 196.813 351.727 218.165 333.604 233.109C332.019 234.405 330.393 235.668 328.692 236.843L328.691 236.844C322.648 241.04 315.678 244.622 307.792 247.414L307.782 247.418L307.773 247.421C307.704 247.448 307.641 247.474 307.584 247.497C307.416 247.566 307.293 247.616 307.18 247.638L307.222 247.856L306.637 248.027C306.647 248.061 306.656 248.095 306.665 248.127C306.673 248.153 306.68 248.178 306.687 248.203C306.703 248.257 306.717 248.307 306.732 248.36L306.736 248.374L306.874 248.881L306.905 248.875C307.585 250.82 308.475 252.639 309.506 254.327C300.172 247.593 288.45 243.544 275.69 243.544H274.996C262.22 243.544 250.485 247.604 241.145 254.352C242.279 252.499 243.242 250.494 243.946 248.344L244.147 247.73L243.515 247.596C243.378 247.567 243.264 247.522 243.058 247.441L243.008 247.421L242.998 247.417L242.988 247.414C215.514 237.719 199.529 218.712 193.43 196.218C187.325 173.703 191.113 147.644 203.305 123.882L203.307 123.878C207.324 115.912 212.346 108.231 218.235 101.023L218.236 101.022C223.1 95.0331 227.634 89.0439 231.867 83.0545M359.982 169.901L275.113 0.562121M318.755 83.0543C322.973 89.0441 327.507 95.0336 332.388 101.023L332.39 101.025C333.567 102.451 334.665 103.848 335.749 105.275C337.804 108.027 339.782 110.909 341.586 113.776C341.774 114.082 341.964 114.388 342.153 114.692C342.603 115.419 343.051 116.141 343.47 116.859L343.471 116.861C343.54 116.979 343.614 117.106 343.69 117.237C343.83 117.478 343.978 117.733 344.122 117.969L344.127 117.976C344.465 118.513 344.771 119.047 345.045 119.592L345.054 119.61L345.064 119.626C345.674 120.66 346.232 121.672 346.727 122.709L346.74 122.735L346.755 122.761C346.852 122.92 346.942 123.093 347.04 123.288L347.075 123.356C347.159 123.525 347.252 123.709 347.354 123.89C348.39 125.936 349.376 127.978 350.267 130.017L350.267 130.017L350.272 130.027C350.72 131 351.14 132.015 351.55 133.006L351.603 133.132L319.229 82.7189M318.755 83.0543C318.755 83.0539 318.755 83.0534 318.754 83.053L319.229 82.7189M318.755 83.0543C318.755 83.0544 318.755 83.0544 318.755 83.0545L319.229 82.7189M318.755 83.0543C303.671 61.7745 292.711 41.1748 285.521 25.8952C281.926 18.2549 279.274 11.9433 277.519 7.54014C276.641 5.33851 275.989 3.61387 275.555 2.43868C275.461 2.18464 275.377 1.95627 275.304 1.7543M319.229 82.7189C290.976 42.8621 277.209 5.38725 275.611 0.894969C275.591 0.952794 275.567 1.02006 275.54 1.09661C275.479 1.26918 275.4 1.48896 275.304 1.7543M275.304 1.7543C275.208 1.48912 275.129 1.26946 275.067 1.09698C275.04 1.02035 275.016 0.953038 274.996 0.895179C275.048 0.748807 275.087 0.637436 275.113 0.562121M275.304 1.7543C275.231 1.95619 275.147 2.18444 275.054 2.43834C274.621 3.61355 273.969 5.3382 273.093 7.53985C271.341 11.9431 268.692 18.2547 265.1 25.8951C257.916 41.1747 246.96 61.7746 231.867 83.0545M275.154 0.548205C275.139 0.55312 275.126 0.557753 275.113 0.562121M275.154 0.548205V1.02551H275.453V0.547967M275.154 0.548205C275.196 0.533643 275.246 0.516611 275.304 0.496687M275.154 0.548205V0.445312C275.209 0.464285 275.259 0.481345 275.304 0.496687M275.113 0.562121L275.494 0.561849C275.481 0.557492 275.468 0.55287 275.453 0.547967M275.453 0.547967V0.445312C275.398 0.464281 275.348 0.481341 275.304 0.496687M275.453 0.547967C275.411 0.533467 275.362 0.516512 275.304 0.496687M231.867 83.0545C231.868 83.0543 231.868 83.0541 231.868 83.0538L231.394 82.7189L231.867 83.0546C231.867 83.0546 231.867 83.0545 231.867 83.0545Z" stroke="#39B54A" stroke-width="1.1604"/>
<mask id="path-7-inside-1_693_4301" fill="white">
<path d="M323.549 215.358L322.429 214.938L323.785 215.025L348.401 216.69L325.882 211.478L323.801 210.986L326.214 210.841L379.246 207.555L329.746 202.676L323.312 202.039L330.503 200.621L348.764 197.001L331.512 197.609L323.407 197.884L332.332 194.859L375.556 180.251L334.035 187.142L320.205 189.43L332.442 183.32L343.087 178.022L330.597 181.858L319.023 185.434L326.419 180.396L363.65 155.018L326.829 171.941L313.346 178.138L326.482 166.107L331.78 161.257L326.324 164.761L310.996 174.591L324.999 157.551L344.459 133.881L323.265 152.006L303.301 169.089L315.822 148.126L299.942 166.295L312.463 135.85L319.575 118.564L309.845 133.62L290.89 162.98L296.457 139.628L286.806 161.156L291.001 110.283L277.092 160.316L275.31 136.907V136.487V136.69L275.279 136.487V136.907L273.497 160.316L259.588 110.283L263.783 161.156L254.132 139.628L259.699 162.98L240.744 133.62L231.015 118.564L238.127 135.835L250.647 166.295L234.768 148.126L247.288 169.089L227.325 152.006L206.131 133.881L225.59 157.551L239.593 174.591L224.265 164.761L218.809 161.257L224.108 166.107L237.243 178.138L223.761 171.941L186.94 155.018L224.171 180.396L231.567 185.434L219.992 181.873L207.503 178.022L218.147 183.32L230.384 189.43L216.554 187.142L175.034 180.251L218.257 194.859L227.183 197.884L219.077 197.609L201.826 197.001L220.086 200.621L227.277 202.039L220.843 202.676L171.344 207.555L224.376 210.841L226.788 210.986L224.707 211.478L202.188 216.69L226.804 215.025L228.16 214.938L227.041 215.358L176.185 234.685L230.447 223.654L208.591 235.496L232.97 227.085L189.163 259.485L234.342 236.64L236.218 235.684L237.858 234.859L236.187 236.495L234.468 238.174L220.512 251.87L241.343 237.508L222.389 261.222L243.457 247.773L237.133 258.225L243.094 253.665C252.051 247.671 263.026 244.11 274.916 244.11H275.61C287.516 244.11 298.507 247.671 307.448 253.665L313.819 258.602L307.07 247.773L328.169 261.222L309.214 237.508L330.045 251.87L316.09 238.174L314.371 236.495L312.699 234.859L314.339 235.684L316.216 236.64L361.395 259.485L317.588 227.085L341.967 235.496L320.111 223.654L374.373 234.685L323.517 215.358H323.549Z"/>
</mask>
<path d="M323.549 215.358L322.429 214.938L323.785 215.025L348.401 216.69L325.882 211.478L323.801 210.986L326.214 210.841L379.246 207.555L329.746 202.676L323.312 202.039L330.503 200.621L348.764 197.001L331.512 197.609L323.407 197.884L332.332 194.859L375.556 180.251L334.035 187.142L320.205 189.43L332.442 183.32L343.087 178.022L330.597 181.858L319.023 185.434L326.419 180.396L363.65 155.018L326.829 171.941L313.346 178.138L326.482 166.107L331.78 161.257L326.324 164.761L310.996 174.591L324.999 157.551L344.459 133.881L323.265 152.006L303.301 169.089L315.822 148.126L299.942 166.295L312.463 135.85L319.575 118.564L309.845 133.62L290.89 162.98L296.457 139.628L286.806 161.156L291.001 110.283L277.092 160.316L275.31 136.907V136.487V136.69L275.279 136.487V136.907L273.497 160.316L259.588 110.283L263.783 161.156L254.132 139.628L259.699 162.98L240.744 133.62L231.015 118.564L238.127 135.835L250.647 166.295L234.768 148.126L247.288 169.089L227.325 152.006L206.131 133.881L225.59 157.551L239.593 174.591L224.265 164.761L218.809 161.257L224.108 166.107L237.243 178.138L223.761 171.941L186.94 155.018L224.171 180.396L231.567 185.434L219.992 181.873L207.503 178.022L218.147 183.32L230.384 189.43L216.554 187.142L175.034 180.251L218.257 194.859L227.183 197.884L219.077 197.609L201.826 197.001L220.086 200.621L227.277 202.039L220.843 202.676L171.344 207.555L224.376 210.841L226.788 210.986L224.707 211.478L202.188 216.69L226.804 215.025L228.16 214.938L227.041 215.358L176.185 234.685L230.447 223.654L208.591 235.496L232.97 227.085L189.163 259.485L234.342 236.64L236.218 235.684L237.858 234.859L236.187 236.495L234.468 238.174L220.512 251.87L241.343 237.508L222.389 261.222L243.457 247.773L237.133 258.225L243.094 253.665C252.051 247.671 263.026 244.11 274.916 244.11H275.61C287.516 244.11 298.507 247.671 307.448 253.665L313.819 258.602L307.07 247.773L328.169 261.222L309.214 237.508L330.045 251.87L316.09 238.174L314.371 236.495L312.699 234.859L314.339 235.684L316.216 236.64L361.395 259.485L317.588 227.085L341.967 235.496L320.111 223.654L374.373 234.685L323.517 215.358H323.549Z" stroke="#D7DF23" stroke-width="2.3208" mask="url(#path-7-inside-1_693_4301)"/>
</g>
</g>
<defs>
<linearGradient id="paint0_linear_693_4301" x1="275" y1="181.5" x2="275" y2="278" gradientUnits="userSpaceOnUse">
<stop stop-color="#D9D9D9"/>
<stop offset="1" stop-color="#737373" stop-opacity="0"/>
</linearGradient>
</defs>
</svg>
