<svg width="26" height="27" viewBox="0 0 26 27" fill="none" xmlns="http://www.w3.org/2000/svg">
<g id="Mail">
<g id="XMLID_146_">
<path id="XMLID_426_" d="M21.6994 4.52872L12.4151 4.55158L3.13077 4.50586H3.12624C1.87808 4.50586 0.887695 5.69014 0.887695 7.17164V19.5815C0.887695 21.063 1.87808 22.2473 3.12624 22.2473H21.713C22.9611 22.2473 23.9515 21.063 23.9515 19.5815V7.17164C23.9515 5.69014 22.9702 4.52872 21.6994 4.52872ZM20.9713 6.35773L12.6774 14.0259L12.6457 14.0533L12.6186 14.0853C12.5191 14.195 12.4015 14.2088 12.3382 14.2088C12.2749 14.2088 12.1573 14.1905 12.0623 14.0762L12.0352 14.0442L4.10759 6.32115L12.4151 6.37602L20.9713 6.35773ZM21.713 20.4183H3.12624C2.96796 20.4183 2.69662 20.1165 2.69662 19.5815V7.46428L10.7283 15.3107C11.1353 15.768 11.7096 16.0332 12.3201 16.0423H12.3473C12.9487 16.0423 13.5095 15.7909 13.921 15.3519L22.1516 7.73406V19.5815C22.1426 20.1165 21.8713 20.4183 21.713 20.4183Z" fill="#8DC73F"/>
</g>
</g>
</svg>
