<svg width="26" height="26" viewBox="0 0 26 26" fill="none" xmlns="http://www.w3.org/2000/svg">
<path fill-rule="evenodd" clip-rule="evenodd" d="M17.5629 20.8965H4.4381C3.73211 20.8965 3.21012 20.1995 3.47711 19.5585C4.71309 16.5945 7.61704 14.8965 11 14.8965C14.3839 14.8965 17.2879 16.5945 18.5239 19.5585C18.7908 20.1995 18.2689 20.8965 17.5629 20.8965ZM6.91705 8.89647C6.91705 6.69047 8.74902 4.89647 11 4.89647C13.2519 4.89647 15.0829 6.69047 15.0829 8.89647C15.0829 11.1025 13.2519 12.8965 11 12.8965C8.74902 12.8965 6.91705 11.1025 6.91705 8.89647ZM20.9558 20.5325C20.2138 17.1735 17.8919 14.6945 14.8369 13.5695C16.4559 12.2924 17.3999 10.2274 17.0529 7.96642C16.6509 5.34342 14.4229 3.24446 11.735 2.93846C8.02304 2.51546 4.87509 5.34547 4.87509 8.89647C4.87509 10.7865 5.76908 12.4704 7.16405 13.5695C4.10711 14.6945 1.78714 17.1735 1.04416 20.5325C0.774161 21.7535 1.77915 22.8965 3.05412 22.8965H18.9458C20.2218 22.8965 21.2258 21.7535 20.9558 20.5325Z" fill="#8DC73F"/>
</svg>
