<svg width="43" height="43" viewBox="0 0 43 43" fill="none" xmlns="http://www.w3.org/2000/svg">
<g clip-path="url(#clip0_8_11062)">
<path d="M42.7598 34.0379L41.1496 32.3734L41.4739 30.0803C41.5373 29.6317 41.2336 29.2138 40.7875 29.1355L38.5064 28.7353L38.4648 28.6568V10.7095C38.4648 9.25696 37.283 8.07522 35.8305 8.07522H29.2685V3.831C29.2685 1.71889 27.5502 0.000488281 25.4381 0.000488281H13.0267C10.9146 0.000488281 9.19617 1.7188 9.19617 3.831V8.0753H2.63424C1.18174 8.0753 4.47617e-09 9.25704 4.47617e-09 10.7095V35.831C-8.39796e-05 37.2834 1.18166 38.4652 2.63424 38.4652H15.453C15.9168 38.4652 16.2928 38.0892 16.2928 37.6253C16.2928 37.1615 15.9168 36.7855 15.453 36.7855H2.63424C2.10783 36.7855 1.67968 36.3573 1.67968 35.8309V18.369C3.4247 20.9264 6.36171 22.6087 9.68454 22.6087H14.5046V26.4426C14.5046 26.9065 14.8806 27.2825 15.3445 27.2825H23.1201C23.584 27.2825 23.96 26.9065 23.96 26.4426V22.6087H28.7801C32.1029 22.6087 35.0399 20.9264 36.7849 18.369V26.2499C36.6275 26.2297 36.4629 26.2539 36.3102 26.3286L34.2295 27.3457L32.1489 26.3286C31.7419 26.1296 31.2505 26.2893 31.0382 26.6895L29.9528 28.7353L27.6717 29.1355C27.2256 29.2138 26.9218 29.6317 26.9853 30.0803L27.3097 32.3734L25.6995 34.0379C25.3845 34.3635 25.3845 34.8802 25.6995 35.2058L27.2275 36.7855H23.0115C22.5477 36.7855 22.1717 37.1615 22.1717 37.6253C22.1717 38.0892 22.5477 38.4652 23.0115 38.4652H27.084L26.9853 39.1633C26.9218 39.6119 27.2255 40.0299 27.6717 40.1082L29.9528 40.5083L31.0382 42.5541C31.2505 42.9542 31.742 43.1139 32.1489 42.915L34.2295 41.8979L36.3102 42.915C36.4287 42.9729 36.5545 43.0005 36.6784 43.0005C36.9798 43.0005 37.2704 42.8377 37.4209 42.5541L38.5063 40.5083L40.7874 40.1082C41.2336 40.0299 41.5372 39.6119 41.4738 39.1633L41.1495 36.8702L42.7597 35.2058C43.0747 34.8802 43.0747 34.3635 42.7598 34.0379ZM10.8758 3.831C10.8758 2.64506 11.8407 1.68017 13.0267 1.68017H25.4379C26.6239 1.68017 27.5887 2.64506 27.5887 3.831V8.0753H25.909V4.19969C25.909 3.73585 25.533 3.35985 25.0692 3.35985H13.3954C12.9315 3.35985 12.5555 3.73585 12.5555 4.19969V8.07522H10.8758V3.831ZM24.2293 8.07522H14.2352V5.03953H24.2293V8.07522ZM22.2803 25.6028H16.1843V22.6087H22.2803V25.6028ZM28.7802 20.9291H9.68454C5.27059 20.9291 1.67968 17.3381 1.67968 12.9242V10.7095C1.67968 10.1831 2.10792 9.7549 2.63424 9.7549H35.8304C36.3568 9.7549 36.785 10.1831 36.785 10.7095V12.9242C36.7849 17.3381 33.194 20.9291 28.7802 20.9291ZM39.6568 35.9974C39.4767 36.1836 39.3926 36.4424 39.4289 36.699L39.6969 38.5941L37.8117 38.9248C37.5566 38.9696 37.3363 39.1296 37.2149 39.3584L36.3178 41.0492L34.5982 40.2086C34.4819 40.1517 34.3556 40.1233 34.2294 40.1233C34.1031 40.1233 33.9769 40.1517 33.8605 40.2086L32.1409 41.0492L31.2438 39.3584C31.1225 39.1296 30.9022 38.9696 30.647 38.9248L28.7618 38.5941L29.0298 36.699C29.0661 36.4425 28.9821 36.1836 28.8019 35.9974L27.4711 34.6218L28.8019 33.2462C28.9821 33.0601 29.0661 32.8012 29.0298 32.5446L28.7618 30.6495L30.6473 30.3187C30.9024 30.274 31.1226 30.114 31.244 29.8851L32.1411 28.1944L33.8607 29.0349C34.0934 29.1486 34.3656 29.1486 34.5983 29.0349L36.3179 28.1944L37.215 29.8851C37.3364 30.114 37.5566 30.2739 37.8117 30.3187L39.6969 30.6495L39.4289 32.5446C39.3926 32.801 39.4767 33.06 39.6568 33.2462L40.9877 34.6217L39.6568 35.9974Z" fill="white"/>
<path d="M36.0861 32.5539L33.732 34.908L32.7384 33.9145C32.4104 33.5865 31.8786 33.5865 31.5507 33.9145C31.2227 34.2424 31.2227 34.7742 31.5507 35.1022L33.138 36.6895C33.3021 36.8536 33.517 36.9355 33.7319 36.9355C33.9468 36.9355 34.1618 36.8535 34.3258 36.6895L37.2737 33.7416C37.6016 33.4137 37.6016 32.8819 37.2737 32.5538C36.9459 32.2259 36.4141 32.2259 36.0861 32.5539Z" fill="white"/>
<path d="M19.2305 38.4653C19.6943 38.4653 20.0703 38.0893 20.0703 37.6255C20.0703 37.1617 19.6943 36.7856 19.2305 36.7856C18.7666 36.7856 18.3906 37.1617 18.3906 37.6255C18.3906 38.0893 18.7666 38.4653 19.2305 38.4653Z" fill="white"/>
</g>
<defs>
<clipPath id="clip0_8_11062">
<rect width="43" height="43" fill="white"/>
</clipPath>
</defs>
</svg>
