<svg width="43" height="43" viewBox="0 0 43 43" fill="none" xmlns="http://www.w3.org/2000/svg">
<path d="M40.9844 41.6559H35.6094C35.2385 41.6559 34.9375 41.3535 34.9375 40.984V23.5153C34.9375 23.1457 35.2385 22.8434 35.6094 22.8434C35.9803 22.8434 36.2812 23.1457 36.2812 23.5153V40.3121H40.3125V11.4215C40.3125 11.0493 40.6135 10.7496 40.9844 10.7496C41.3552 10.7496 41.6562 11.0493 41.6562 11.4215V40.984C41.6562 41.3535 41.3552 41.6559 40.9844 41.6559Z" fill="white"/>
<path d="M29.5625 40.3125H25.5312V36.9531C25.5312 36.5823 25.2303 36.2812 24.8594 36.2812C24.4885 36.2812 24.1875 36.5823 24.1875 36.9531V40.9844C24.1875 41.3539 24.4885 41.6562 24.8594 41.6562H30.2344C30.6052 41.6562 30.9062 41.3539 30.9062 40.9844V31.5781C30.9062 31.2072 30.6052 30.9062 30.2344 30.9062C29.8635 30.9062 29.5625 31.2072 29.5625 31.5781V40.3125Z" fill="white"/>
<path d="M39.6328 40.3125H2.00781C1.63694 40.3125 1.33594 40.6135 1.33594 40.9844C1.33594 41.3553 1.63694 41.6562 2.00781 41.6562H39.6328C40.0037 41.6562 40.3047 41.3553 40.3047 40.9844C40.3047 40.6135 40.005 40.3125 39.6328 40.3125Z" fill="white"/>
<path d="M14.1094 36.9531C13.7385 36.9531 13.4375 36.6508 13.4375 36.2812V22.1719C13.4375 21.7997 13.7385 21.5 14.1094 21.5H19.4844C19.8552 21.5 20.1562 21.7997 20.1562 22.1719V32.9219C20.1562 33.2914 19.8552 33.5938 19.4844 33.5938C19.1135 33.5938 18.8125 33.2914 18.8125 32.9219V22.8438H14.7812V36.2812C14.7812 36.6508 14.4803 36.9531 14.1094 36.9531Z" fill="white"/>
<path d="M3.35938 38.9685C2.9885 38.9685 2.6875 38.6662 2.6875 38.2966V27.5466C2.6875 27.1744 2.9885 26.8748 3.35938 26.8748H8.73438C9.10525 26.8748 9.40625 27.1744 9.40625 27.5466V37.6248C9.40625 37.9943 9.10525 38.2966 8.73438 38.2966C8.3635 38.2966 8.0625 37.9943 8.0625 37.6248V28.2185H4.03125V38.2966C4.03125 38.6662 3.73025 38.9685 3.35938 38.9685Z" fill="white"/>
<path d="M24.8594 26.8749C24.4885 26.8749 24.1875 26.5752 24.1875 26.203V16.7968C24.1875 16.4245 24.4885 16.1249 24.8594 16.1249H27.5469C27.9177 16.1249 28.2188 16.4245 28.2188 16.7968C28.2188 17.1663 27.9177 17.4686 27.5469 17.4686H25.5312V26.203C25.5312 26.5752 25.2303 26.8749 24.8594 26.8749Z" fill="white"/>
<path d="M4.70312 41.6561C4.33225 41.6561 4.03125 41.3551 4.03125 40.9842C4.03125 40.6134 4.33225 40.3124 4.70312 40.3124C18.4107 40.3124 29.5625 29.1606 29.5625 15.453V12.0936H27.5469C27.3063 12.0936 27.086 11.966 26.965 11.759C26.8454 11.5521 26.8441 11.2954 26.9623 11.0885L32.3373 1.68224C32.5792 1.26299 33.2632 1.26299 33.5051 1.68224L38.8801 11.0885C38.9983 11.2954 38.997 11.5521 38.8774 11.759C38.7578 11.966 38.5374 12.0936 38.2969 12.0936H36.2812V15.453C36.2812 15.8239 35.9802 16.1249 35.6094 16.1249C35.2385 16.1249 34.9375 15.8239 34.9375 15.453V11.4217C34.9375 11.0509 35.2385 10.7499 35.6094 10.7499H37.1399L32.9219 3.36999L28.7038 10.7499H30.2344C30.6052 10.7499 30.9062 11.0509 30.9062 11.4217V15.453C30.9062 29.901 19.1511 41.6561 4.70312 41.6561Z" fill="white"/>
<path d="M35.6094 18.8123C35.9804 18.8123 36.2812 18.5114 36.2812 18.1404C36.2812 17.7693 35.9804 17.4685 35.6094 17.4685C35.2383 17.4685 34.9375 17.7693 34.9375 18.1404C34.9375 18.5114 35.2383 18.8123 35.6094 18.8123Z" fill="white"/>
</svg>
