<svg width="43" height="43" viewBox="0 0 43 43" fill="none" xmlns="http://www.w3.org/2000/svg">
<g clip-path="url(#clip0_8_11034)">
<path d="M14.5613 26.0446V24.8244H14.6875C15.7779 24.8244 16.665 23.9374 16.665 22.847C16.665 21.7566 15.7779 20.8695 14.6875 20.8695H13.1728C12.7784 20.8695 12.4575 20.5486 12.4575 20.1542C12.4575 19.7598 12.7784 19.4389 13.1728 19.4389H16.0339V18.1767H14.5613V16.9565H13.299V18.1767H13.1728C12.0824 18.1767 11.1953 19.0638 11.1953 20.1542C11.1953 21.2446 12.0824 22.1317 13.1728 22.1317H14.6875C15.0819 22.1317 15.4027 22.4525 15.4027 22.847C15.4027 23.2414 15.0819 23.5622 14.6875 23.5622H11.8264V24.8244H13.299V26.0446H14.5613Z" fill="white"/>
<path d="M22.1316 31.0094V29.7893H22.2578C23.3482 29.7893 24.2353 28.9022 24.2353 27.8118C24.2353 26.7214 23.3482 25.8343 22.2578 25.8343H20.7431C20.3487 25.8343 20.0279 25.5134 20.0279 25.119C20.0279 24.7246 20.3487 24.4038 20.7431 24.4038H23.6042V23.1415H22.1316V21.9214H20.8693V23.1415H20.7431C19.6527 23.1415 18.7656 24.0286 18.7656 25.119C18.7656 26.2094 19.6527 27.0965 20.7431 27.0965H22.2578C22.6522 27.0965 22.9731 27.4174 22.9731 27.8118C22.9731 28.2062 22.6522 28.5271 22.2578 28.5271H19.3967V29.7893H20.8693V31.0094H22.1316Z" fill="white"/>
<path d="M30.0378 28.8219V27.6018H30.164C31.2544 27.6018 32.1415 26.7147 32.1415 25.6243C32.1415 24.5339 31.2544 23.6468 30.164 23.6468H28.6494C28.255 23.6468 27.9341 23.3259 27.9341 22.9315C27.9341 22.5371 28.255 22.2163 28.6494 22.2163H31.5104V20.954H30.0378V19.7339H28.7756V20.954H28.6494C27.559 20.954 26.6719 21.8411 26.6719 22.9315C26.6719 24.0219 27.559 24.909 28.6494 24.909H30.164C30.5585 24.909 30.8793 25.2299 30.8793 25.6243C30.8793 26.0187 30.5585 26.3396 30.164 26.3396H27.303V27.6018H28.7756V28.8219H30.0378Z" fill="white"/>
<path d="M41.9008 39.2139V35.0819L29.5372 33.5037L29.3773 34.7557L40.6386 36.1933V39.2139H28.7315V40.4761H41.7325V41.7384H6.17969V43.0006H42.9948V39.2139H41.9008Z" fill="white"/>
<path d="M1.26223 40.4763H27.4746V39.2141H22.1311V37.892C22.1311 35.9197 23.732 34.315 25.6997 34.315C25.8527 34.315 26.0075 34.3249 26.1603 34.3445L28.1306 34.596L28.2904 33.344L26.3205 33.0925C26.1151 33.0662 25.9062 33.0527 25.6997 33.0527C23.903 33.0527 22.3321 34.0406 21.5 35.5023C20.6678 34.0406 19.097 33.0528 17.3003 33.0528C17.0941 33.0528 16.8854 33.0661 16.6799 33.0925L1.09393 35.0821V39.2141H0V43.0008H4.9227V41.7386H1.26223V40.4763ZM2.35616 36.1935L16.8398 34.3445C16.9925 34.325 17.1474 34.315 17.3003 34.315C19.268 34.315 20.8689 35.9197 20.8689 37.892V39.2141H2.35616V36.1935Z" fill="white"/>
<path d="M5.88853 32.662C5.76483 32.1494 5.67008 31.6109 5.6015 31.0519H8.46045V29.7896H5.49496C5.48116 29.4976 5.47317 29.2016 5.47317 28.9005C5.47317 28.7756 5.47645 28.6517 5.47872 28.5274H7.28237V27.2652H5.54267C6.01382 21.6348 8.91233 16.7856 13.5055 14.0537C13.5068 14.0537 13.5081 14.0538 13.5095 14.0538H16.5147V12.7916H13.5094C12.9293 12.7916 12.4575 12.3198 12.4575 11.7397C12.4575 11.1597 12.9293 10.6879 13.5094 10.6879H29.4976C30.0777 10.6879 30.5495 11.1597 30.5495 11.7397C30.5495 12.3198 30.0777 12.7916 29.4976 12.7916H17.7769V14.0538H29.4976C29.499 14.0538 29.5002 14.0537 29.5016 14.0537C30.1419 14.4346 30.7491 14.8565 31.3216 15.316H29.4976V16.5783H32.7165C33.1097 16.9793 33.4818 17.4003 33.8308 17.8405H31.1806V19.1027H34.7356C36.5389 21.8857 37.5338 25.2629 37.5338 28.9005C37.5338 30.2541 37.3941 31.5196 37.1185 32.662L38.3455 32.958C38.6445 31.7188 38.7961 30.3538 38.7961 28.9005C38.7961 22.4905 35.9011 16.8238 30.9931 13.5036C31.4934 13.0789 31.8117 12.4459 31.8117 11.7397C31.8117 10.5 30.8317 9.48513 29.6058 9.42841L30.8518 5.29965L29.6435 4.93495L28.2882 9.42563H24.0649L25.3641 6.43751L24.2065 5.9343L22.6886 9.42563H20.492L19.3083 6.61422L18.145 7.10397L19.1225 9.42563H14.713L12.3368 1.88061L19.6884 3.53043L26.4422 1.26321H30.7516L30.0082 3.72649L31.2165 4.09119L32.4511 0.000976562H26.236L19.6208 2.22175L10.4745 0.169022L13.3906 9.42866C12.1696 9.49068 11.1953 10.5036 11.1953 11.7397C11.1953 12.4459 11.5136 13.0788 12.0139 13.5036C7.10591 16.8237 4.21094 22.4905 4.21094 28.9005C4.21094 30.3538 4.36249 31.7188 4.66147 32.958L5.88853 32.662Z" fill="white"/>
<path d="M26.9688 15.3162H28.231V16.5784H26.9688V15.3162Z" fill="white"/>
<path d="M9.71875 29.7896H10.981V31.0518H9.71875V29.7896Z" fill="white"/>
</g>
<defs>
<clipPath id="clip0_8_11034">
<rect width="43" height="43" fill="white"/>
</clipPath>
</defs>
</svg>
