<svg width="43" height="43" viewBox="0 0 43 43" fill="none" xmlns="http://www.w3.org/2000/svg">
<g clip-path="url(#clip0_8_11088)">
<path d="M2.15 43.0003H40.85C41.4202 43.0003 41.9671 42.7738 42.3703 42.3706C42.7735 41.9674 43 41.4205 43 40.8503C43 35.8487 42.0683 28.1094 42.0604 28.022C41.9256 27.0356 41.5026 26.111 40.8445 25.3641C40.1864 24.6171 39.3225 24.081 38.361 23.823C39.0465 22.9253 39.4174 21.8271 39.4167 20.6976V19.4363C39.4264 18.0949 38.9037 16.8044 37.9633 15.8478C37.0228 14.8912 35.7414 14.3467 34.4 14.3336C33.7376 14.333 33.0818 14.4654 32.4715 14.7231C31.8612 14.9807 31.309 15.3584 30.8475 15.8336C29.9065 16.7964 29.3808 18.09 29.3833 19.4363V20.6976C29.3811 22.0451 29.9076 23.3397 30.8496 24.3032C31.5442 25.016 32.4372 25.5034 33.4124 25.7021C33.2144 26.0182 33.058 26.3586 32.9473 26.7148L32.6893 27.5748C32.4982 27.2537 32.2274 26.9876 31.903 26.8022C31.5786 26.6168 31.2118 26.5186 30.8382 26.517H12.1618C11.7882 26.5189 11.4215 26.6175 11.0972 26.8031C10.773 26.9887 10.5023 27.255 10.3114 27.5762L10.0527 26.7162C9.94222 26.3599 9.78587 26.0195 9.58757 25.7035C10.5639 25.5044 11.4577 25.016 12.1525 24.3017C13.0938 23.3385 13.6196 22.0444 13.6167 20.6976V19.4363C13.6189 18.0888 13.0924 16.7942 12.1504 15.8307C11.6889 15.3563 11.1369 14.9793 10.527 14.7222C9.91714 14.465 9.26186 14.3329 8.6 14.3336C7.25862 14.3467 5.97717 14.8912 5.03672 15.8478C4.09627 16.8044 3.57359 18.0949 3.58333 19.4363V20.6976C3.58242 21.8273 3.9534 22.9259 4.63898 23.8237C3.67639 24.0828 2.81169 24.6203 2.15332 25.3688C1.49496 26.1173 1.07222 27.0435 0.938117 28.0313C0.931667 28.1094 0 35.8487 0 40.8503C0 41.4205 0.226517 41.9674 0.62972 42.3706C1.03292 42.7738 1.57978 43.0003 2.15 43.0003ZM6.45 40.8503V39.3453C6.61328 39.3914 6.782 39.4155 6.95167 39.417H36.0483C36.218 39.4155 36.3867 39.3914 36.55 39.3453V40.8503C36.55 41.0404 36.4745 41.2226 36.3401 41.357C36.2057 41.4914 36.0234 41.567 35.8333 41.567H7.16667C6.97659 41.567 6.79431 41.4914 6.65991 41.357C6.52551 41.2226 6.45 41.0404 6.45 40.8503ZM40.6386 28.204C40.6486 28.28 41.5667 35.9354 41.5667 40.8503C41.5667 41.0404 41.4912 41.2226 41.3568 41.357C41.2224 41.4914 41.0401 41.567 40.85 41.567H37.8515C37.9363 41.3374 37.981 41.095 37.9833 40.8503V37.482C37.9829 37.1504 37.897 36.8246 37.7339 36.536L35.9423 33.3418L37.2108 30.3827C37.2825 30.2085 37.2828 30.0132 37.2117 29.8389C37.1405 29.6645 37.0036 29.5252 36.8305 29.451C36.6575 29.3768 36.4621 29.3737 36.2868 29.4423C36.1115 29.511 35.9702 29.6459 35.8935 29.8179L34.486 33.0974C34.3202 33.4842 34.0445 33.8138 33.6932 34.0454C33.3418 34.277 32.9302 34.4004 32.5094 34.4003H28.3083C28.0232 34.4003 27.7498 34.287 27.5482 34.0854C27.3466 33.8838 27.2333 33.6104 27.2333 33.3253C27.2333 33.0402 27.3466 32.7667 27.5482 32.5651C27.7498 32.3635 28.0232 32.2503 28.3083 32.2503H31.1836C31.6466 32.2524 32.0977 32.1042 32.4691 31.8279C32.8406 31.5516 33.1123 31.1621 33.2433 30.7181L34.3183 27.1268C34.4928 26.5344 34.8552 26.0147 35.3508 25.6462C35.8464 25.2777 36.4484 25.0802 37.066 25.0836C37.9376 25.0858 38.7791 25.4027 39.4355 25.9761C40.092 26.5494 40.5192 27.3406 40.6386 28.204ZM30.8167 20.6976V19.4363C30.8144 18.4644 31.1937 17.5305 31.873 16.8355C32.2011 16.4971 32.5939 16.2281 33.028 16.0446C33.4621 15.861 33.9287 15.7666 34.4 15.767C35.3614 15.7796 36.2785 16.173 36.9502 16.8609C37.6219 17.5487 37.9935 18.4749 37.9833 19.4363V20.6976C37.9863 21.2835 37.8492 21.8616 37.5834 22.3837C37.3176 22.9058 36.9309 23.3567 36.4554 23.699C35.8435 23.7869 35.258 24.007 34.7397 24.344C34.627 24.3577 34.5136 24.3654 34.4 24.367C33.9292 24.3674 33.4632 24.2732 33.0295 24.0902C32.5958 23.9071 32.2033 23.6389 31.8752 23.3013C31.1948 22.6056 30.8147 21.6707 30.8167 20.6976ZM11.5297 28.3208C11.5924 28.2082 11.684 28.1144 11.7952 28.0493C11.9064 27.9841 12.033 27.9499 12.1618 27.9503H30.8382C30.9663 27.9494 31.0924 27.983 31.2032 28.0474C31.314 28.1118 31.4054 28.2047 31.4681 28.3165L32.1196 29.4732L31.8702 30.306C31.8259 30.4537 31.7352 30.5831 31.6115 30.6752C31.4879 30.7673 31.3378 30.817 31.1836 30.817H28.3083C27.6431 30.817 27.0051 31.0812 26.5347 31.5516C26.0643 32.022 25.8 32.66 25.8 33.3253C25.8 33.9905 26.0643 34.6285 26.5347 35.0989C27.0051 35.5693 27.6431 35.8336 28.3083 35.8336H32.5094C32.9895 35.8327 33.4645 35.7351 33.9059 35.5464C34.3474 35.3578 34.7462 35.082 35.0787 34.7357L36.4819 37.2347C36.5258 37.3098 36.5493 37.395 36.55 37.482C36.55 37.5478 36.537 37.6131 36.5118 37.6739C36.4866 37.7348 36.4496 37.7901 36.4031 37.8367C36.3565 37.8833 36.3012 37.9202 36.2403 37.9454C36.1794 37.9706 36.1142 37.9836 36.0483 37.9836H6.95167C6.88579 37.9836 6.82055 37.9706 6.75969 37.9454C6.69882 37.9202 6.64352 37.8833 6.59693 37.8367C6.55035 37.7901 6.5134 37.7348 6.48819 37.6739C6.46298 37.6131 6.45 37.5478 6.45 37.482C6.45049 37.3964 6.47321 37.3124 6.51593 37.2383L7.92132 34.7357C8.25376 35.082 8.65263 35.3578 9.09408 35.5464C9.53554 35.7351 10.0105 35.8327 10.4906 35.8336H14.6917C15.3569 35.8336 15.9949 35.5693 16.4653 35.0989C16.9357 34.6285 17.2 33.9905 17.2 33.3253C17.2 32.66 16.9357 32.022 16.4653 31.5516C15.9949 31.0812 15.3569 30.817 14.6917 30.817H11.8164C11.6623 30.817 11.5123 30.7674 11.3886 30.6755C11.265 30.5836 11.1742 30.4542 11.1298 30.3067L10.8804 29.4739L11.5297 28.3208ZM5.01667 19.4363C5.00653 18.4749 5.37806 17.5487 6.0498 16.8609C6.72153 16.173 7.63864 15.7796 8.6 15.767C9.07075 15.7666 9.53679 15.8607 9.97049 16.0437C10.4042 16.2268 10.7967 16.4951 11.1248 16.8326C11.8052 17.5283 12.1853 18.4632 12.1833 19.4363V20.6976C12.1856 21.6695 11.8063 22.6034 11.127 23.2984C10.7989 23.6368 10.4061 23.9058 9.97201 24.0893C9.5379 24.2729 9.07132 24.3673 8.6 24.367C8.48664 24.3647 8.37348 24.3563 8.26102 24.3419C7.74241 24.005 7.15674 23.7849 6.5446 23.6969C6.06942 23.3548 5.68285 22.9042 5.41707 22.3825C5.1513 21.8608 5.01402 21.2831 5.01667 20.6976V19.4363ZM2.35998 28.2126C2.47807 27.3477 2.90486 26.5546 3.56168 25.9795C4.21849 25.4045 5.06104 25.0863 5.934 25.0836C6.55124 25.0807 7.15273 25.2783 7.6479 25.6468C8.14308 26.0153 8.50513 26.5347 8.67955 27.1268L9.75455 30.7181C9.88568 31.1624 10.1577 31.5522 10.5296 31.8285C10.9014 32.1049 11.3531 32.2529 11.8164 32.2503H14.6917C14.9768 32.2503 15.2502 32.3635 15.4518 32.5651C15.6534 32.7667 15.7667 33.0402 15.7667 33.3253C15.7667 33.6104 15.6534 33.8838 15.4518 34.0854C15.2502 34.287 14.9768 34.4003 14.6917 34.4003H10.4906C10.0698 34.4004 9.65816 34.277 9.30681 34.0454C8.95546 33.8138 8.6798 33.4842 8.514 33.0974L7.10862 29.8179C7.07244 29.7301 7.01917 29.6504 6.95191 29.5833C6.88464 29.5163 6.80472 29.4633 6.71679 29.4274C6.62885 29.3915 6.53467 29.3734 6.4397 29.3743C6.34473 29.3751 6.25087 29.3948 6.16358 29.4322C6.07629 29.4696 5.99731 29.524 5.93123 29.5923C5.86515 29.6605 5.81329 29.7411 5.77865 29.8296C5.74402 29.918 5.72731 30.0124 5.7295 30.1074C5.73168 30.2023 5.75272 30.2959 5.79138 30.3827L7.05988 33.3418L5.26392 36.5403C5.10205 36.8277 5.0169 37.152 5.01667 37.482V40.8503C5.01904 41.095 5.06365 41.3374 5.14853 41.567H2.15C1.95993 41.567 1.77764 41.4914 1.64324 41.357C1.50884 41.2226 1.43333 41.0404 1.43333 40.8503C1.43333 35.9354 2.35138 28.28 2.35998 28.2126Z" fill="white"/>
<path d="M18.6328 14.3333H22.697L26.1506 16.8854C26.3811 17.0597 26.6558 17.166 26.9436 17.1922C27.2314 17.2184 27.5207 17.1635 27.7789 17.0337C28.0476 16.8985 28.2731 16.6908 28.4299 16.4341C28.5867 16.1773 28.6686 15.8819 28.6661 15.581V14.3333H30.0995C30.6697 14.3333 31.2166 14.1068 31.6198 13.7036C32.023 13.3004 32.2495 12.7535 32.2495 12.1833V5.01667C32.2495 4.44645 32.023 3.89959 31.6198 3.49639C31.2166 3.09318 30.6697 2.86667 30.0995 2.86667H23.6495V2.15C23.6495 1.57978 23.423 1.03292 23.0198 0.62972C22.6166 0.226517 22.0697 0 21.4995 0L10.0328 0C9.4626 0 8.91574 0.226517 8.51253 0.62972C8.10933 1.03292 7.88281 1.57978 7.88281 2.15V9.31667C7.88281 9.88688 8.10933 10.4337 8.51253 10.8369C8.91574 11.2402 9.4626 11.4667 10.0328 11.4667H11.4661V12.7144C11.4636 13.0154 11.5454 13.3111 11.7024 13.568C11.8593 13.8249 12.0851 14.0327 12.3541 14.1678C12.6111 14.2977 12.8993 14.3531 13.1862 14.3278C13.473 14.3024 13.7471 14.1974 13.9773 14.0245L16.4828 12.1712V12.1833C16.4828 12.7535 16.7093 13.3004 17.1125 13.7036C17.5157 14.1068 18.0626 14.3333 18.6328 14.3333ZM30.0995 4.3C30.2896 4.3 30.4718 4.37551 30.6062 4.50991C30.7406 4.64431 30.8161 4.82659 30.8161 5.01667V12.1833C30.8161 12.3734 30.7406 12.5557 30.6062 12.6901C30.4718 12.8245 30.2896 12.9 30.0995 12.9H27.9495C27.7594 12.9 27.5771 12.9755 27.4427 13.1099C27.3083 13.2443 27.2328 13.4266 27.2328 13.6167V15.5803C27.2352 15.615 27.2275 15.6497 27.2105 15.6801C27.1936 15.7105 27.1682 15.7353 27.1375 15.7516C27.1167 15.7632 27.0928 15.7678 27.0692 15.7648C27.0456 15.7619 27.0236 15.7515 27.0063 15.7351L23.3585 13.0405C23.2355 12.949 23.0861 12.8997 22.9328 12.9H18.6328C18.4427 12.9 18.2605 12.8245 18.1261 12.6901C17.9917 12.5557 17.9161 12.3734 17.9161 12.1833V11.4667H21.4995C21.8003 11.466 22.0976 11.4018 22.3718 11.2783C22.6461 11.1548 22.8913 10.9748 23.0912 10.75H26.5161C26.7062 10.75 26.8885 10.6745 27.0229 10.5401C27.1573 10.4057 27.2328 10.2234 27.2328 10.0333C27.2328 9.84326 27.1573 9.66098 27.0229 9.52657C26.8885 9.39217 26.7062 9.31667 26.5161 9.31667H23.6495V7.88333H27.9495C28.1396 7.88333 28.3218 7.80783 28.4562 7.67343C28.5906 7.53903 28.6661 7.35674 28.6661 7.16667C28.6661 6.97659 28.5906 6.79431 28.4562 6.65991C28.3218 6.52551 28.1396 6.45 27.9495 6.45H23.6495V4.3H30.0995ZM13.1216 12.8728C13.1046 12.8878 13.0833 12.8972 13.0607 12.8997C13.0382 12.9021 13.0154 12.8975 12.9955 12.8864C12.9647 12.8701 12.9392 12.8453 12.9222 12.8149C12.9051 12.7845 12.8973 12.7499 12.8995 12.7151V10.75C12.8995 10.5599 12.824 10.3776 12.6896 10.2432C12.5552 10.1088 12.3729 10.0333 12.1828 10.0333H10.0328C9.84274 10.0333 9.66045 9.95783 9.52605 9.82343C9.39165 9.68903 9.31615 9.50674 9.31615 9.31667V2.15C9.31615 1.95993 9.39165 1.77764 9.52605 1.64324C9.66045 1.50884 9.84274 1.43333 10.0328 1.43333H21.4995C21.6896 1.43333 21.8718 1.50884 22.0062 1.64324C22.1406 1.77764 22.2161 1.95993 22.2161 2.15V9.31667C22.2161 9.50674 22.1406 9.68903 22.0062 9.82343C21.8718 9.95783 21.6896 10.0333 21.4995 10.0333H17.1995C17.0459 10.0343 16.8967 10.0845 16.7738 10.1767L13.1216 12.8728Z" fill="white"/>
<path d="M12.1854 5.01671H19.3521C19.5422 5.01671 19.7244 4.9412 19.8588 4.8068C19.9932 4.6724 20.0688 4.49011 20.0688 4.30004C20.0688 4.10997 19.9932 3.92768 19.8588 3.79328C19.7244 3.65888 19.5422 3.58337 19.3521 3.58337H12.1854C11.9953 3.58337 11.8131 3.65888 11.6787 3.79328C11.5443 3.92768 11.4688 4.10997 11.4688 4.30004C11.4688 4.49011 11.5443 4.6724 11.6787 4.8068C11.8131 4.9412 11.9953 5.01671 12.1854 5.01671Z" fill="white"/>
<path d="M18.6354 7.16662C18.6354 6.97655 18.5599 6.79426 18.4255 6.65986C18.2911 6.52546 18.1088 6.44995 17.9187 6.44995H12.1854C11.9953 6.44995 11.8131 6.52546 11.6787 6.65986C11.5443 6.79426 11.4688 6.97655 11.4688 7.16662C11.4688 7.35669 11.5443 7.53898 11.6787 7.67338C11.8131 7.80778 11.9953 7.88328 12.1854 7.88328H17.9187C18.1088 7.88328 18.2911 7.80778 18.4255 7.67338C18.5599 7.53898 18.6354 7.35669 18.6354 7.16662Z" fill="white"/>
</g>
<defs>
<clipPath id="clip0_8_11088">
<rect width="43" height="43" fill="white"/>
</clipPath>
</defs>
</svg>
