<svg width="43" height="43" viewBox="0 0 43 43" fill="none" xmlns="http://www.w3.org/2000/svg">
<path d="M2.6875 14.1094H1.34375V11.4219C1.34475 10.5312 1.699 9.67735 2.32879 9.04757C2.95858 8.41778 3.81247 8.06352 4.70312 8.06252H27.5469V6.71877H26.2031C26.0702 6.71878 25.9403 6.67938 25.8298 6.60555C25.7193 6.53172 25.6332 6.42679 25.5824 6.30402C25.5315 6.18125 25.5182 6.04615 25.5441 5.91582C25.5701 5.78548 25.6341 5.66576 25.728 5.5718L29.7593 1.54055C29.8217 1.47816 29.8957 1.42866 29.9773 1.3949C30.0588 1.36113 30.1461 1.34375 30.2344 1.34375C30.3226 1.34375 30.41 1.36113 30.4915 1.3949C30.573 1.42866 30.6471 1.47816 30.7095 1.54055L34.7407 5.5718C34.8347 5.66576 34.8987 5.78548 34.9246 5.91582C34.9505 6.04615 34.9372 6.18125 34.8864 6.30402C34.8355 6.42679 34.7494 6.53172 34.6389 6.60555C34.5284 6.67938 34.3985 6.71878 34.2656 6.71877H32.9219V8.06252H35.6094C36.5 8.06352 37.3539 8.41778 37.9837 9.04757C38.6135 9.67735 38.9678 10.5312 38.9688 11.4219V24.8594H37.625V11.4219C37.6244 10.8875 37.4118 10.3752 37.034 9.99732C36.6561 9.61946 36.1438 9.4069 35.6094 9.40627H32.9219V21.5H31.5781V6.0469C31.5781 5.86871 31.6489 5.69781 31.7749 5.57181C31.9009 5.44581 32.0718 5.37502 32.25 5.37502H32.6436L30.2344 2.96576L27.8251 5.37502H28.2188C28.3969 5.37502 28.5678 5.44581 28.6938 5.57181C28.8198 5.69781 28.8906 5.86871 28.8906 6.0469V22.1719H27.5469V9.40627H4.70312C4.16874 9.4069 3.65642 9.61946 3.27855 9.99732C2.90068 10.3752 2.68812 10.8875 2.6875 11.4219V14.1094ZM4.70312 34.9375H15.8938L14.2813 40.3125H12.7656V41.6563H27.5469V40.3125H26.0312L25.167 37.4319L23.8799 37.8182L24.6282 40.3125H15.6839L17.2964 34.9375H22.1719V33.5938H4.70312C4.16874 33.5932 3.65642 33.3806 3.27855 33.0027C2.90068 32.6249 2.68812 32.1125 2.6875 31.5781V30.9063H21.5V29.5625H2.6875V15.4531H1.34375V31.5781C1.34475 32.4688 1.699 33.3227 2.32879 33.9525C2.95858 34.5823 3.81247 34.9365 4.70312 34.9375ZM24.8594 23.5156V12.7656H22.1719V28.2188H4.70312V26.875H7.39062V21.5C7.39062 21.3218 7.46141 21.1509 7.58741 21.0249C7.71341 20.8989 7.88431 20.8281 8.0625 20.8281H12.0938C12.2719 20.8281 12.4428 20.8989 12.5688 21.0249C12.6948 21.1509 12.7656 21.3218 12.7656 21.5V26.875H14.1094V16.7969C14.1094 16.6187 14.1802 16.4478 14.3062 16.3218C14.4322 16.1958 14.6031 16.125 14.7812 16.125H18.8125C18.9907 16.125 19.1616 16.1958 19.2876 16.3218C19.4136 16.4478 19.4844 16.6187 19.4844 16.7969V26.875H20.8281V12.0938C20.8281 11.9156 20.8989 11.7447 21.0249 11.6187C21.1509 11.4927 21.3218 11.4219 21.5 11.4219H25.5312C25.7094 11.4219 25.8803 11.4927 26.0063 11.6187C26.1323 11.7447 26.2031 11.9156 26.2031 12.0938V23.5156H24.8594ZM11.4219 22.1719H8.73438V26.875H11.4219V22.1719ZM18.1406 17.4688H15.4531V26.875H18.1406V17.4688ZM4.70312 10.75V12.0938H6.04688V10.75H4.70312ZM8.73438 10.75H7.39062V12.0938H8.73438V10.75ZM10.0781 10.75V12.0938H11.4219V10.75H10.0781ZM41.0656 38.2157C41.4423 38.5944 41.6546 39.1064 41.6562 39.6406C41.6565 39.9054 41.6045 40.1676 41.5033 40.4123C41.4021 40.6569 41.2536 40.8792 41.0664 41.0665C40.8792 41.2537 40.6569 41.4021 40.4123 41.5033C40.1676 41.6045 39.9054 41.6565 39.6406 41.6563C39.107 41.6516 38.5961 41.4398 38.2157 41.0656L34.9996 37.8497C33.308 38.8476 31.3105 39.1942 29.3815 38.8246C27.4526 38.455 25.7247 37.3945 24.5218 35.8419C23.3188 34.2893 22.7235 32.3513 22.8474 30.3912C22.9712 28.4311 23.8058 26.5834 25.1946 25.1946C26.5834 23.8058 28.431 22.9713 30.3912 22.8474C32.3513 22.7235 34.2893 23.3189 35.8419 24.5218C37.3944 25.7247 38.4549 27.4526 38.8246 29.3815C39.1942 31.3105 38.8476 33.308 37.8497 34.9997L41.0656 38.2157ZM37.625 30.9063C37.625 29.5774 37.231 28.2784 36.4927 27.1735C35.7544 26.0686 34.7051 25.2075 33.4774 24.699C32.2497 24.1904 30.8988 24.0574 29.5955 24.3166C28.2922 24.5759 27.095 25.2158 26.1554 26.1554C25.2157 27.095 24.5758 28.2922 24.3166 29.5955C24.0574 30.8988 24.1904 32.2497 24.6989 33.4774C25.2075 34.7051 26.0686 35.7544 27.1735 36.4927C28.2784 37.231 29.5774 37.625 30.9062 37.625C32.6876 37.623 34.3953 36.9145 35.6549 35.6549C36.9145 34.3953 37.623 32.6876 37.625 30.9063ZM40.1153 39.166L37.0594 36.1099C36.7696 36.452 36.452 36.7696 36.1098 37.0594L39.1659 40.1153C39.2276 40.1803 39.3017 40.2323 39.3839 40.2682C39.466 40.3041 39.5545 40.3232 39.6441 40.3244C39.7337 40.3255 39.8226 40.3087 39.9056 40.275C39.9887 40.2412 40.0641 40.1912 40.1275 40.1278C40.1908 40.0644 40.2409 39.989 40.2746 39.906C40.3084 39.823 40.3252 39.734 40.324 39.6444C40.3228 39.5548 40.3037 39.4663 40.2678 39.3842C40.2319 39.3021 40.18 39.228 40.115 39.1663L40.1153 39.166ZM36.2812 30.9063C36.2812 31.9693 35.966 33.0085 35.3754 33.8925C34.7848 34.7764 33.9453 35.4653 32.9632 35.8721C31.981 36.2789 30.9003 36.3854 29.8576 36.178C28.815 35.9706 27.8573 35.4587 27.1056 34.707C26.3538 33.9553 25.8419 32.9975 25.6345 31.9549C25.4271 30.9122 25.5336 29.8315 25.9404 28.8493C26.3472 27.8672 27.0361 27.0277 27.9201 26.4371C28.804 25.8465 29.8432 25.5313 30.9062 25.5313C32.3313 25.5329 33.6975 26.0997 34.7052 27.1073C35.7128 28.115 36.2796 29.4812 36.2812 30.9063ZM34.9375 30.9063C34.9375 30.109 34.7011 29.3296 34.2581 28.6666C33.8152 28.0037 33.1856 27.487 32.4489 27.1819C31.7123 26.8768 30.9018 26.7969 30.1198 26.9525C29.3378 27.108 28.6195 27.492 28.0557 28.0557C27.4919 28.6195 27.108 29.3378 26.9525 30.1198C26.7969 30.9018 26.8767 31.7124 27.1819 32.449C27.487 33.1856 28.0037 33.8152 28.6666 34.2581C29.3295 34.7011 30.1089 34.9375 30.9062 34.9375C31.975 34.9363 32.9997 34.5112 33.7555 33.7555C34.5112 32.9997 34.9363 31.9751 34.9375 30.9063ZM28.2188 30.9063H29.5625C29.5629 30.55 29.7046 30.2085 29.9565 29.9566C30.2085 29.7047 30.55 29.5629 30.9062 29.5625V28.2188C30.1937 28.2196 29.5106 28.503 29.0068 29.0068C28.503 29.5106 28.2196 30.1937 28.2188 30.9063ZM36.9531 5.37502H38.2969C38.2957 4.30623 37.8706 3.28155 37.1148 2.5258C36.3591 1.77005 35.3344 1.34495 34.2656 1.34377V2.68752C34.9781 2.68832 35.6613 2.97173 36.1651 3.47556C36.6689 3.97939 36.9523 4.6625 36.9531 5.37502Z" fill="white"/>
</svg>
