<svg width="43" height="43" viewBox="0 0 43 43" fill="none" xmlns="http://www.w3.org/2000/svg">
<g clip-path="url(#clip0_8_11070)">
<path fill-rule="evenodd" clip-rule="evenodd" d="M17.1347 38.1871L12.5896 35.586C12.577 35.5788 12.5646 35.5715 12.5523 35.5643C13.5047 35.2518 14.0725 34.2411 13.8534 33.2139C13.8469 33.1833 13.8383 33.1533 13.8278 33.1239C13.3889 31.9034 13.1514 30.5731 12.9606 29.5043C12.8932 29.1268 12.8295 28.7703 12.7654 28.4696C12.4877 27.1661 11.5009 26.4439 10.5723 25.9093L7.45647 24.1155L7.63384 23.8142C7.8178 23.5019 7.86886 23.1359 7.77775 22.7838C7.68664 22.4317 7.46444 22.1364 7.15209 21.9525L5.89496 21.2122C5.24893 20.8319 4.41374 21.0479 4.03324 21.694L0.187736 28.2244C-0.19267 28.8705 0.023454 29.7057 0.669487 30.0861L1.9267 30.8263C2.13797 30.9508 2.3736 31.0144 2.61296 31.0144C2.72757 31.0144 2.84304 30.9997 2.95704 30.9703C3.30919 30.8791 3.60446 30.657 3.78834 30.3446L4.03792 29.9208L4.44989 30.1586L5.97151 35.8375C6.25162 36.8832 6.89383 37.703 7.82881 38.2082L16.3139 42.7916C16.5789 42.9348 16.8737 43.002 17.1724 43.002C17.9141 43.002 18.6794 42.5875 19.0675 41.8897C19.3247 41.4276 19.9447 39.7953 17.1347 38.1871ZM2.60706 29.6172L1.39701 28.9046L5.21477 22.4213L6.42483 23.1339L2.60706 29.6172ZM17.8555 41.2153C17.6754 41.5389 17.1981 41.6929 16.9734 41.5711L8.48828 36.9877C7.88048 36.6593 7.49557 36.1657 7.31152 35.4784L5.71551 29.5221C5.66792 29.3443 5.55166 29.1929 5.39232 29.101L4.74187 28.7254L6.7527 25.3107L9.8803 27.1114C10.6859 27.5752 11.2543 28.0328 11.409 28.7587C11.4683 29.0368 11.527 29.3664 11.5952 29.7481C11.7926 30.8538 12.0376 32.2263 12.5041 33.5414C12.5577 33.8734 12.3852 34.176 12.0913 34.2548C11.9614 34.2895 11.6189 34.3803 11.3781 33.8334C11.1698 33.2037 11.0122 32.5755 10.8457 31.9108C10.7651 31.5889 10.6817 31.2561 10.5905 30.9157C10.4914 30.5458 10.1112 30.3266 9.74108 30.4254C9.37107 30.5246 9.15157 30.9049 9.25074 31.2749C9.339 31.6042 9.42092 31.9313 9.50016 32.2478C9.67606 32.9501 9.84216 33.6133 10.0726 34.304C10.0735 34.307 10.0797 34.3245 10.082 34.3305L10.2843 34.8642C10.6136 35.7259 11.1423 36.3559 11.9006 36.7899L16.4457 39.391C17.563 40.0303 18.1164 40.7464 17.8555 41.2153ZM5.67754 23.8521C5.48109 24.0074 5.19605 23.974 5.04078 23.7775C4.88552 23.581 4.91898 23.296 5.11534 23.1408C5.31178 22.9855 5.59683 23.0189 5.75209 23.2154C5.90736 23.4118 5.87398 23.6968 5.67754 23.8521ZM28.957 30.5304C30.281 28.2962 30.2543 25.6345 28.8838 23.228C28.0877 21.8303 26.8919 20.2606 25.1551 18.3379C25.5946 18.0024 25.8799 17.4748 25.8799 16.8805C25.8799 16.1017 25.3914 15.4365 24.7053 15.1707L25.5143 14.3616C25.8659 14.0101 26.0596 13.5414 26.0596 13.042C26.0596 12.5426 25.866 12.074 25.5143 11.7224C24.928 11.136 24.0121 11.0126 23.2928 11.4084C23.064 10.6198 22.3291 10.0595 21.4999 10.0595C20.6708 10.0597 19.9359 10.62 19.7072 11.4084C18.9879 11.0127 18.072 11.1361 17.4856 11.7224C17.134 12.074 16.9404 12.5426 16.9404 13.0421C16.9404 13.5414 17.134 14.0101 17.4856 14.3616L18.2947 15.1706C17.6087 15.4364 17.1202 16.1016 17.1202 16.8803C17.1202 17.4747 17.4055 18.0023 17.845 18.3378C16.1082 20.2605 14.9124 21.8302 14.1163 23.2278C12.7457 25.6344 12.719 28.296 14.043 30.5302C15.5167 33.017 18.3714 34.5264 21.5 34.4813C21.5491 34.4821 21.5979 34.4825 21.6468 34.4825C24.716 34.4826 27.5064 32.9781 28.957 30.5304ZM18.9548 17.328C18.7122 17.328 18.5072 17.123 18.5072 16.8804C18.5072 16.6378 18.7122 16.433 18.9548 16.433H24.0453C24.2879 16.433 24.4929 16.6379 24.4929 16.8805C24.4929 17.123 24.288 17.328 24.0453 17.328H18.9548ZM18.4665 12.7034C18.6245 12.5452 18.8762 12.5182 19.0649 12.6396C19.4275 12.8722 19.8635 12.9112 20.2611 12.7463C20.659 12.5817 20.9399 12.2458 21.0318 11.8248C21.0797 11.6058 21.2766 11.4468 21.5 11.4468C21.7235 11.4468 21.9205 11.6058 21.9684 11.8249C22.0603 12.2457 22.3411 12.5816 22.7389 12.7462C23.1367 12.911 23.5729 12.8721 23.9352 12.6395C24.1239 12.5185 24.3756 12.5452 24.5336 12.7033C24.6231 12.7928 24.6726 12.9133 24.6726 13.0421C24.6726 13.171 24.6232 13.2913 24.5337 13.3808L22.8686 15.0459H20.1316L18.4665 13.3808C18.3769 13.2913 18.3276 13.171 18.3276 13.0422C18.3275 12.9133 18.3769 12.7929 18.4665 12.7034ZM21.5118 33.0945C21.5039 33.0943 21.4961 33.0943 21.4883 33.0945C18.8554 33.1385 16.4584 31.8855 15.2363 29.8233C14.1577 28.0034 14.188 25.9049 15.3216 23.9145C16.1406 22.4765 17.4349 20.8186 19.3799 18.7151H23.6202C25.5652 20.8185 26.8595 22.4764 27.6785 23.9145C28.812 25.9049 28.8424 28.0034 27.7638 29.8233C26.5417 31.8854 24.1459 33.1399 21.5118 33.0945ZM42.8123 28.2243L38.9669 21.694C38.5864 21.0479 37.7512 20.8319 37.1051 21.2122L35.8481 21.9525C35.5357 22.1364 35.3135 22.4316 35.2224 22.7838C35.1313 23.1359 35.1825 23.5019 35.3663 23.8142L35.5437 24.1155L32.4279 25.9092C31.4992 26.444 30.5124 27.1662 30.2347 28.4695C30.1706 28.7703 30.1069 29.1267 30.0395 29.5043C29.8487 30.5731 29.6112 31.9034 29.1723 33.1239C29.1618 33.1533 29.1532 33.1834 29.1467 33.2139C28.9277 34.2413 29.4953 35.252 30.4478 35.5643C30.4355 35.5715 30.423 35.5788 30.4105 35.586L25.8654 38.1871C23.0554 39.7953 23.6754 41.4276 23.9325 41.8896C24.3206 42.5875 25.0859 43.002 25.8276 43.002C26.1262 43.002 26.4212 42.9348 26.686 42.7916L35.1712 38.208C36.1062 37.7029 36.7484 36.8832 37.0285 35.8374L38.5501 30.1586L38.9621 29.9207L39.2116 30.3444C39.3955 30.6569 39.6907 30.8791 40.0429 30.9702C40.1569 30.9996 40.2724 31.0143 40.387 31.0143C40.6263 31.0143 40.862 30.9507 41.0733 30.8263L42.3303 30.086C42.9766 29.7057 43.1927 28.8705 42.8123 28.2243ZM37.6078 29.101C37.4485 29.193 37.3323 29.3444 37.2846 29.5221L35.6886 35.4784C35.5045 36.1657 35.1196 36.6593 34.5118 36.9876L26.0266 41.5712C25.8016 41.6925 25.3245 41.5389 25.1445 41.2153C24.8837 40.7464 25.4371 40.0302 26.5542 39.3909L31.0994 36.7898C31.8577 36.3558 32.3864 35.7259 32.7163 34.8625L32.9181 34.3304C32.9203 34.3244 32.9265 34.3069 32.9274 34.3039C33.1578 33.6133 33.3239 32.9501 33.4998 32.2478C33.5791 31.9313 33.6611 31.6041 33.7493 31.2748C33.8484 30.9048 33.6288 30.5245 33.2589 30.4253C32.8893 30.3264 32.5087 30.5458 32.4095 30.9156C32.3183 31.256 32.2349 31.5888 32.1543 31.9107C31.9878 32.5753 31.8302 33.2036 31.6219 33.8333C31.3811 34.38 31.0388 34.2895 30.9086 34.2547C30.6148 34.176 30.4423 33.8734 30.496 33.5414C30.9624 32.2263 31.2074 30.8537 31.4048 29.7479C31.473 29.3663 31.5318 29.0367 31.5911 28.7586C31.7457 28.0328 32.314 27.5751 33.1197 27.1112L36.2473 25.3106L38.2581 28.7254L37.6078 29.101ZM40.393 29.6172L36.5753 23.1339L37.7853 22.4213L41.6031 28.9046L40.393 29.6172ZM37.8847 23.1408C38.0811 23.296 38.1145 23.5811 37.9592 23.7775C37.804 23.9739 37.5189 24.0073 37.3226 23.8521C37.1261 23.6968 37.0927 23.4118 37.248 23.2154C37.4033 23.0191 37.6883 22.9855 37.8847 23.1408ZM17.329 10.385L21.8541 7.74933C21.8666 7.74205 21.8792 7.73494 21.8916 7.72792C21.6859 8.70893 22.2774 9.70589 23.2765 10.0299C23.3063 10.0395 23.3366 10.0471 23.3674 10.0527C24.6437 10.2829 25.9143 10.7423 26.9354 11.1114C27.2961 11.2418 27.6368 11.365 27.9292 11.4599C28.2579 11.5665 28.5765 11.6123 28.8844 11.6123C29.7641 11.6123 30.5562 11.2384 31.2432 10.8407L34.3545 9.03931L34.5267 9.3436C34.7053 9.65908 34.9966 9.8863 35.3472 9.98348C35.4683 10.017 35.5913 10.0336 35.7136 10.0336C35.945 10.0336 36.1735 9.97394 36.3799 9.85717L37.6496 9.13866C38.302 8.76935 38.5325 7.93806 38.1632 7.28552L34.4305 0.690132C34.2519 0.374658 33.9606 0.147437 33.6101 0.0502551C33.2595 -0.0470139 32.8928 -0.00210726 32.5774 0.176479L31.3077 0.894987C30.9923 1.07349 30.765 1.36486 30.6679 1.71544C30.5707 2.06594 30.6155 2.43274 30.7941 2.74813L31.0362 3.17595L30.6243 3.41375L24.9454 1.89204C23.8997 1.61176 22.8687 1.75801 21.9636 2.31518L13.7516 7.37178C12.8588 7.92159 12.5805 9.24668 13.156 10.2077C13.4277 10.6612 14.5314 12.0141 17.329 10.385ZM33.2366 1.39676L36.9426 7.94465L35.7204 8.63637L32.0146 2.08848L33.2366 1.39676ZM14.479 8.55305L22.6909 3.49645C23.2794 3.13425 23.8993 3.04773 24.5864 3.23196L30.5428 4.82796C30.7204 4.87556 30.9097 4.85068 31.069 4.75861L31.7194 4.38306L33.6713 7.83186L30.5481 9.64009C29.7435 10.1058 29.063 10.3694 28.3572 10.1402C28.0867 10.0525 27.7717 9.93866 27.407 9.8068C26.3507 9.42501 25.0397 8.95097 23.6677 8.6974C23.3534 8.57785 23.1775 8.27703 23.2562 7.98331C23.2909 7.85353 23.3834 7.51222 23.9757 7.57612C24.6259 7.71058 25.2496 7.88812 25.9091 8.07651C26.2281 8.16762 26.558 8.26185 26.8983 8.35297C26.9585 8.36909 27.0188 8.37672 27.0782 8.37672C27.3844 8.37672 27.6647 8.17239 27.7477 7.86246C27.8468 7.49246 27.6272 7.11223 27.2573 7.01305C26.928 6.9248 26.6037 6.83221 26.2901 6.74266C25.5939 6.54378 24.9365 6.35601 24.2231 6.21019C24.2186 6.20932 24.2004 6.20594 24.1955 6.20508L23.632 6.11344C22.7212 5.96762 21.9112 6.11067 21.1561 6.55037L16.631 9.186C15.5187 9.83376 14.6219 9.95513 14.3461 9.49471C14.1557 9.17724 14.2612 8.68708 14.479 8.55305ZM35.472 7.63013C35.4358 7.38245 35.6073 7.15228 35.8549 7.11604C36.1027 7.0798 36.3328 7.25128 36.369 7.49896C36.4053 7.74664 36.2338 7.97681 35.986 8.01305C35.7384 8.04928 35.5083 7.87781 35.472 7.63013Z" fill="white"/>
<path d="M23.8406 24.869H22.3377C22.485 24.9633 22.6 25.0723 22.6825 25.1961C22.765 25.3169 22.8239 25.4495 22.8593 25.5939H23.8406V26.4338H22.8549C22.7871 26.7079 22.6515 26.951 22.4482 27.1632C22.2448 27.3754 21.9781 27.5404 21.6481 27.6583C21.7394 27.6996 21.8234 27.7541 21.9 27.8219C21.9796 27.8896 22.0503 27.9707 22.1122 28.065L23.7125 30.4255H22.6383C22.4379 30.4255 22.2905 30.346 22.1962 30.1868L20.8524 28.1401C20.8023 28.0635 20.7463 28.009 20.6844 27.9766C20.6255 27.9442 20.5371 27.928 20.4192 27.928H19.5881V27.1234H20.4634C20.7993 27.1234 21.0675 27.0601 21.2679 26.9333C21.4713 26.8066 21.6142 26.6401 21.6967 26.4338H19.5837V25.5939H21.7232C21.6525 25.3788 21.514 25.2108 21.3077 25.09C21.1044 24.9662 20.8288 24.9043 20.4811 24.9043H19.5881V24.0335H23.8406V24.869Z" fill="white"/>
</g>
<defs>
<clipPath id="clip0_8_11070">
<rect width="43" height="43.002" fill="white"/>
</clipPath>
</defs>
</svg>
