<svg width="43" height="43" viewBox="0 0 43 43" fill="none" xmlns="http://www.w3.org/2000/svg">
<path d="M15.0674 3.6344C14.7195 3.6344 14.4375 3.91642 14.4375 4.26428V5.50036C14.4375 5.84823 14.7195 6.13025 15.0674 6.13025C15.4152 6.13025 15.6973 5.84823 15.6973 5.50036V4.26428C15.6972 3.91642 15.4152 3.6344 15.0674 3.6344Z" fill="white"/>
<path d="M28.5645 5.50024V4.26416C28.5645 3.9163 28.2824 3.63428 27.9346 3.63428C27.5867 3.63428 27.3047 3.9163 27.3047 4.26416V5.50024C27.3047 5.84811 27.5867 6.13013 27.9346 6.13013C28.2825 6.13013 28.5645 5.84811 28.5645 5.50024Z" fill="white"/>
<path d="M23.6074 4.98858C23.3451 4.75997 22.9473 4.78727 22.7187 5.04955C22.4105 5.40321 21.9654 5.60603 21.4976 5.60603C21.0299 5.60603 20.5848 5.40321 20.2767 5.04955C20.0481 4.78727 19.6502 4.75997 19.3879 4.98858C19.1257 5.2171 19.0984 5.61502 19.3269 5.87722C19.8745 6.50551 20.6657 6.8658 21.4976 6.8658C22.3297 6.8658 23.1208 6.50551 23.6684 5.87722C23.897 5.61502 23.8696 5.2171 23.6074 4.98858Z" fill="white"/>
<path d="M21.9285 11.3478C21.6171 11.3479 21.3518 11.5415 21.2471 11.816L19.5805 16.1918C19.4567 16.5169 19.6198 16.8808 19.9449 17.0047C20.2701 17.1285 20.6339 16.9653 20.7577 16.6402L21.0183 15.956H22.8264L23.0839 16.6384C23.2071 16.9647 23.5709 17.1279 23.8956 17.0053C24.221 16.8825 24.3853 16.5191 24.2625 16.1936L22.6111 11.8177C22.4264 11.331 21.9146 11.3432 21.9285 11.3478ZM21.4981 14.6963L21.9265 13.5715L22.351 14.6963H21.4981Z" fill="white"/>
<path d="M25.4268 11.385C25.1636 11.4671 24.9844 11.7107 24.9844 11.9864V16.4164C24.9844 16.7642 25.2664 17.0463 25.6143 17.0463C25.9621 17.0463 26.2441 16.7642 26.2441 16.4164V14.0069L28.0915 16.6819C28.2736 16.9451 28.5786 17.0566 28.8683 16.9661C29.1634 16.8738 29.3542 16.5994 29.3542 16.2607L29.3128 11.9719C29.3094 11.6241 29.0218 11.3452 28.6768 11.3482C28.329 11.3515 28.0497 11.6362 28.0531 11.9841L28.0768 14.4439L26.1325 11.6284C25.9759 11.4016 25.6901 11.3029 25.4268 11.385Z" fill="white"/>
<path d="M11.5677 12.6074C11.8862 12.6074 12.1934 12.7011 12.4559 12.8785C12.7442 13.0733 13.1357 12.9974 13.3304 12.7091C13.5252 12.4209 13.4493 12.0294 13.161 11.8346C12.6894 11.516 12.1384 11.3477 11.5677 11.3477C9.99674 11.3477 8.71875 12.6258 8.71875 14.1967C8.71875 15.7677 9.99682 17.0458 11.5677 17.0458C13.0665 17.0458 14.1132 15.8742 14.1132 14.1967C14.1132 13.8489 13.8312 13.5669 13.4834 13.5669H12.1556C11.8078 13.5669 11.5258 13.8489 11.5258 14.1967C11.5258 14.5446 11.8078 14.8266 12.1556 14.8266H12.7706C12.6205 15.3557 12.2541 15.7861 11.5677 15.7861C10.6914 15.7861 9.97843 15.0731 9.97843 14.1967C9.97843 13.3204 10.6914 12.6074 11.5677 12.6074Z" fill="white"/>
<path d="M32.4208 17.0461C32.7687 17.0461 33.0507 16.7641 33.0507 16.4162V12.6078H33.6513C33.9991 12.6078 34.2812 12.3258 34.2812 11.9779C34.2812 11.63 33.9991 11.348 33.6513 11.348H31.2002C30.8523 11.348 30.5703 11.63 30.5703 11.9779C30.5703 12.3258 30.8523 12.6078 31.2002 12.6078H31.7909V16.4162C31.7909 16.7641 32.073 17.0461 32.4208 17.0461Z" fill="white"/>
<path d="M18.4952 13.1315C18.4952 12.1482 17.666 11.3481 16.6466 11.3481H15.4672C15.4672 11.3481 15.4671 11.3481 15.4669 11.3481C15.4665 11.3481 15.4662 11.3481 15.4658 11.3481C15.118 11.3481 14.8359 11.6302 14.8359 11.978V16.4164C14.8359 16.7643 15.118 17.0463 15.4658 17.0463C15.8137 17.0463 16.0957 16.7643 16.0957 16.4164V15.3591L17.3926 16.8326C17.6227 17.0941 18.0208 17.1188 18.2816 16.8893C18.5427 16.6595 18.5681 16.2614 18.3383 16.0003L17.2861 14.8048C17.9911 14.5532 18.4952 13.8981 18.4952 13.1315ZM16.6466 12.6079C16.9658 12.6079 17.2355 12.8476 17.2355 13.1315C17.2355 13.4153 16.9658 13.655 16.6466 13.655C16.5174 13.655 16.3081 13.6559 16.1017 13.6568C16.1007 13.4567 16.0996 12.818 16.099 12.6079H16.6466Z" fill="white"/>
<path d="M9.39062 22.3291C9.39062 22.677 9.67264 22.959 10.0205 22.959H18.5413C18.8892 22.959 19.1712 22.677 19.1712 22.3291C19.1712 21.9812 18.8892 21.6992 18.5413 21.6992H10.0205C9.67264 21.6993 9.39062 21.9812 9.39062 22.3291Z" fill="white"/>
<path d="M18.5413 24.749H10.0205C9.67264 24.749 9.39062 25.031 9.39062 25.3789C9.39062 25.7268 9.67264 26.0088 10.0205 26.0088H18.5413C18.8892 26.0088 19.1712 25.7268 19.1712 25.3789C19.1712 25.031 18.8892 24.749 18.5413 24.749Z" fill="white"/>
<path d="M18.5413 27.7983H10.0205C9.67264 27.7983 9.39062 28.0803 9.39062 28.4282C9.39062 28.7761 9.67264 29.0581 10.0205 29.0581H18.5413C18.8892 29.0581 19.1712 28.7761 19.1712 28.4282C19.1712 28.0803 18.8892 27.7983 18.5413 27.7983Z" fill="white"/>
<path d="M38.1008 3.4568C38.1008 1.55069 36.5501 0 34.644 0H8.35523C6.44912 0 4.89844 1.55069 4.89844 3.4568V26.2669C4.89844 26.6147 5.18046 26.8968 5.52832 26.8968C5.87618 26.8968 6.1582 26.6147 6.1582 26.2669V3.4568C6.1582 2.24532 7.14376 1.25977 8.35523 1.25977H34.644C35.8554 1.25977 36.841 2.24532 36.841 3.4568V9.94669C36.841 10.2946 37.123 10.5766 37.4709 10.5766C37.8187 10.5766 38.1007 10.2946 38.1007 9.94669V3.4568H38.1008Z" fill="white"/>
<path d="M23.6443 42.8447C24.2025 43.1091 24.8497 43.0329 25.3321 42.6379L27.6641 40.7287L29.9961 42.6379C30.4763 43.0312 31.1231 43.1104 31.684 42.8447C32.2449 42.579 32.5934 42.0284 32.5934 41.4077V36.9957H34.644C36.55 36.9957 38.1007 35.445 38.1007 33.5389V12.4585C38.1007 12.1106 37.8187 11.8286 37.4709 11.8286C37.123 11.8286 36.841 12.1106 36.841 12.4585V33.539C36.841 34.7505 35.8554 35.736 34.644 35.736H32.5934V32.5363C33.2578 31.9771 33.5366 31.1207 33.3919 30.3295C33.3178 29.914 33.4936 29.4895 33.8399 29.2482C35.1777 28.3157 35.1775 26.3323 33.8399 25.3999C33.5124 25.1716 33.3179 24.7692 33.3932 24.3106C33.5254 23.5581 33.282 22.787 32.7417 22.2465C32.2013 21.7061 31.4302 21.4628 30.6779 21.5947C30.6751 21.5952 30.6723 21.5957 30.6695 21.5962C30.2542 21.6702 29.8296 21.4945 29.5882 21.1482C28.6557 19.8104 26.6722 19.8107 25.7399 21.1482C25.5117 21.4756 25.1141 21.6692 24.645 21.5939C23.033 21.3149 21.636 22.7424 21.9368 24.3215C22.0094 24.7361 21.8336 25.1591 21.4883 25.3999C20.1505 26.3325 20.1506 28.3158 21.4883 29.2482C21.8346 29.4896 22.0103 29.9141 21.936 30.3314C21.7916 31.1413 22.0811 31.9863 22.7349 32.5364V35.7361H8.35523C7.14376 35.7361 6.1582 34.7505 6.1582 33.5391V28.7793C6.1582 28.4315 5.87618 28.1495 5.52832 28.1495C5.18046 28.1495 4.89844 28.4315 4.89844 28.7793V33.5391C4.89844 35.4452 6.44912 36.9959 8.35523 36.9959H22.7349V41.4079C22.7349 42.0284 23.0833 42.579 23.6443 42.8447ZM31.3337 41.4077C31.3337 41.688 31.0093 41.8394 30.7942 41.6632L28.0631 39.4273C27.831 39.2373 27.4971 39.2373 27.2651 39.4273L24.5341 41.6632C24.3179 41.8402 23.9946 41.687 23.9946 41.4077V33.0755C24.2537 33.1029 24.456 33.0838 24.6842 33.0481C25.0915 32.9857 25.5037 33.1607 25.74 33.4999C26.0657 33.9671 26.5507 34.2985 27.1018 34.4356C27.3115 34.4874 27.475 34.4983 27.6642 34.5041C27.6729 34.5019 28.8551 34.5518 29.5883 33.4999C29.8159 33.1734 30.2052 33.0001 30.5917 33.0409C30.7031 33.0523 30.9496 33.1158 31.3338 33.0756V41.4077H31.3337ZM22.2087 28.2146C21.5892 27.7828 21.587 26.8667 22.2088 26.4332C22.929 25.931 23.3406 25.035 23.1757 24.0926C23.0517 23.3862 23.6364 22.7076 24.4492 22.8383C25.3433 22.9931 26.2543 22.6132 26.7735 21.8685C27.2054 21.2488 28.1216 21.247 28.5549 21.8685C29.0766 22.6171 29.9945 22.997 30.8926 22.8361C31.6245 22.7054 32.2867 23.3332 32.1507 24.1036C31.9935 24.9993 32.3733 25.9131 33.1195 26.4333C33.739 26.8652 33.7413 27.7814 33.1196 28.2148C32.3702 28.737 31.9903 29.6577 32.152 30.5525C32.2689 31.2073 31.7809 31.7945 31.1446 31.8274C30.8541 31.8423 30.615 31.7102 30.0523 31.8153C29.462 31.9254 28.911 32.2684 28.5548 32.7794C28.1096 33.4175 27.1756 33.3832 26.7708 32.7759C26.3968 32.2416 25.7839 31.857 25.0727 31.7874C24.4958 31.7316 24.3171 31.9125 23.9071 31.7761C23.4219 31.6171 23.0753 31.1173 23.1764 30.5507C23.3365 29.653 22.9567 28.7361 22.2087 28.2146Z" fill="white"/>
</svg>
