<svg width="43" height="43" viewBox="0 0 43 43" fill="none" xmlns="http://www.w3.org/2000/svg">
<path fill-rule="evenodd" clip-rule="evenodd" d="M25.256 35.4558V38.2237C25.256 38.7762 25.9915 39.3266 27.1807 39.7698C30.0871 40.8532 34.8843 40.8532 37.7908 39.7698C38.9799 39.3266 39.7154 38.7762 39.7154 38.2237V35.4558C36.65 37.7 28.3216 37.7 25.256 35.4558ZM25.256 29.1968C25.256 29.7492 25.9915 30.2996 27.1807 30.7428C30.087 31.8262 34.8844 31.8262 37.7908 30.7428C38.9799 30.2996 39.7154 29.7492 39.7154 29.1968V26.4288C36.65 28.673 28.3216 28.673 25.256 26.4288V29.1968ZM39.7154 30.9423V33.7102C39.7154 34.2627 38.9799 34.8131 37.7908 35.2563C34.8844 36.3397 30.087 36.3397 27.1807 35.2563C25.9915 34.8131 25.256 34.2627 25.256 33.7102V30.9423C28.3214 33.1865 36.6497 33.1865 39.7154 30.9423ZM26.5235 29.3284C26.3929 29.2728 26.2897 29.1676 26.2367 29.036C26.1836 28.9043 26.185 28.757 26.2406 28.6264C26.2962 28.4958 26.4013 28.3926 26.533 28.3395C26.6646 28.2865 26.812 28.2879 26.9426 28.3435L27.2245 28.4642C27.3551 28.5198 27.4583 28.625 27.5113 28.7567C27.5644 28.8883 27.563 29.0357 27.5074 29.1663C27.4518 29.2969 27.3466 29.4 27.2149 29.4531C27.0833 29.5061 26.9359 29.5047 26.8053 29.4491L26.5235 29.3284ZM26.5235 33.879L26.8053 33.9997C26.9359 34.0553 27.0833 34.0567 27.2149 34.0037C27.3466 33.9507 27.4518 33.8475 27.5074 33.7169C27.563 33.5863 27.5644 33.4389 27.5113 33.3073C27.4583 33.1756 27.3551 33.0704 27.2245 33.0149L26.9426 32.8941C26.812 32.8385 26.6646 32.8371 26.533 32.8901C26.4013 32.9432 26.2962 33.0464 26.2406 33.177C26.185 33.3076 26.1836 33.4549 26.2367 33.5866C26.2897 33.7182 26.3929 33.8234 26.5235 33.879ZM26.5235 38.4296C26.3929 38.374 26.2897 38.2688 26.2367 38.1372C26.1836 38.0055 26.185 37.8582 26.2406 37.7276C26.2962 37.597 26.4013 37.4938 26.533 37.4408C26.6646 37.3877 26.812 37.3891 26.9426 37.4447L27.2245 37.5655C27.3551 37.621 27.4583 37.7262 27.5113 37.8579C27.5644 37.9895 27.563 38.1369 27.5074 38.2675C27.4518 38.3981 27.3466 38.5013 27.2149 38.5543C27.0833 38.6074 26.9359 38.6059 26.8053 38.5503L26.5235 38.4296ZM7.52598 27.2355H10.8257L10.2152 15.1971H8.13663L7.52598 27.2355ZM6.35784 29.89H11.9939V28.4475C11.9955 28.3996 11.986 28.352 11.966 28.3084H6.3858C6.36579 28.3519 6.35621 28.3996 6.35784 28.4475V29.89ZM27.9295 22.8936C30.8232 22.0721 35.0878 22.1299 37.7908 23.1371C38.9799 23.5803 39.7154 24.1307 39.7154 24.6832C39.7154 25.2356 38.9799 25.7861 37.7908 26.2292C34.8844 27.3126 30.087 27.3126 27.1807 26.2292C25.9915 25.7861 25.256 25.2356 25.256 24.6832C25.256 24.1307 25.9915 23.5803 27.1807 23.1371C27.4007 23.0551 27.635 22.9782 27.8819 22.9069C27.8981 22.903 27.9139 22.8985 27.9295 22.8933V22.8936ZM24.1827 33.7149H3.29173V35.2763H24.1827V33.7149ZM4.53462 32.6419H24.1827V30.9628H4.53462V32.6419ZM28.2643 6.02252L19.9011 2.46226L3.29173 9.53274V11.647H36.5104V9.53274L28.2643 6.02252ZM11.4758 12.72H6.87602V14.0258C6.87504 14.0597 6.88179 14.0934 6.89576 14.1242H11.4561C11.4701 14.0934 11.4769 14.0597 11.4759 14.0258L11.4758 12.72ZM17.1373 12.72V14.0258C17.1363 14.0597 17.143 14.0934 17.1571 14.1242H21.7174C21.7314 14.0934 21.7382 14.0597 21.7371 14.0258V12.72H17.1373ZM27.3983 12.72V14.0258C27.3973 14.0597 27.404 14.0934 27.418 14.1242H31.9784C31.9924 14.0934 31.9992 14.0597 31.9982 14.0258V12.72H27.3983ZM30.7373 15.1976H28.659L28.3298 21.6896C29.2243 21.4905 30.1327 21.3608 31.0471 21.3016L30.7376 15.198L30.7373 15.1976ZM33.0708 12.72V14.0258C33.0708 14.6323 32.6437 15.1971 32.0345 15.1971H31.8085L32.1158 21.2553C34.4079 21.2159 36.5762 21.5438 38.1638 22.1355C39.7855 22.7402 40.7885 23.637 40.7885 24.6833V38.2237C40.7885 39.27 39.7855 40.167 38.1638 40.7715C35.0044 41.9491 29.9669 41.9491 26.8078 40.7715C25.1861 40.1668 24.1831 39.27 24.1831 38.2237V36.3492H2.75524C2.61298 36.3492 2.47656 36.2927 2.37597 36.1921C2.27538 36.0915 2.21886 35.955 2.21883 35.8128V33.1784C2.21883 33.0361 2.27535 32.8997 2.37594 32.799C2.47653 32.6984 2.61297 32.6419 2.75524 32.6419H3.46163V30.4263C3.46166 30.284 3.51819 30.1476 3.6188 30.047C3.71941 29.9464 3.85586 29.8899 3.99813 29.8899H5.28494V28.4475C5.28494 27.8334 5.70007 27.2355 6.32122 27.2355H6.45475L7.0654 15.1971H6.8394C6.2301 15.1971 5.80312 14.6324 5.80312 14.0258V12.72H2.75524C2.61296 12.72 2.4765 12.6635 2.37588 12.5629C2.27527 12.4623 2.21875 12.3258 2.21875 12.1835V9.1795C2.21878 9.06767 2.25374 8.95864 2.31874 8.86763C2.38374 8.77663 2.47554 8.7082 2.58131 8.6719L19.6915 1.38818C19.7578 1.35991 19.8291 1.34534 19.9011 1.34534C19.9731 1.34534 20.0444 1.35991 20.1106 1.38818L37.2564 8.68701C37.353 8.72811 37.4354 8.7967 37.4933 8.88425C37.5512 8.9718 37.5821 9.07444 37.5821 9.17941H37.5833V12.1835C37.5833 12.3258 37.5268 12.4623 37.4262 12.5629C37.3256 12.6635 37.1892 12.72 37.0469 12.72H33.0708ZM22.2549 29.89V28.4475C22.2565 28.3996 22.247 28.352 22.227 28.3084H16.6468C16.6269 28.352 16.6173 28.3996 16.619 28.4475V29.89H22.2549ZM22.158 27.2356L21.5474 15.1973H21.7734C22.3825 15.1973 22.8097 14.6324 22.8097 14.026V12.72H26.3252V14.0258C26.3252 14.6324 26.7522 15.1971 27.3614 15.1971H27.5874L27.2431 21.9845C25.5899 22.5176 24.1827 23.4296 24.1827 24.683V29.89H23.3278V28.4475C23.3278 27.8334 22.9128 27.2355 22.2916 27.2355L22.158 27.2356ZM17.787 27.2356H21.0868L20.4761 15.1973H18.3977L17.787 27.2356ZM15.5461 29.89H13.0668V28.4475C13.0668 27.8334 12.6516 27.2355 12.0306 27.2355H11.897L11.2864 15.1971H11.5124C12.1214 15.1971 12.5486 14.6323 12.5486 14.0258V12.72H16.0642V14.0258C16.0642 14.6324 16.4911 15.1971 17.1004 15.1971H17.3264L16.7158 27.2355H16.5821C15.9606 27.2355 15.5459 27.8334 15.5459 28.4475L15.5461 29.89Z" fill="white"/>
</svg>
